<?xml version="1.0" encoding="UTF-8"?>
<svg version="1.1" xmlns="http://www.w3.org/2000/svg" xmlns:xlink="http://www.w3.org/1999/xlink" viewBox="-15.2 -11.1 800 600">
  <style>
  </style>
  <text xml:space="preserve" transform="matrix(1, 0, 0, 1, 634.252, 68.4219)" font-family="'ArialNarrow', 'Arial Narrow'" font-size="14"> Selectors</text>
  <text xml:space="preserve" transform="matrix(1, 0, 0, 1, 634.252, 96.627)" font-family="'ArialNarrow', 'Arial Narrow'" font-size="14"> Marquee</text>
  <text xml:space="preserve" transform="matrix(1, 0, 0, 1, 634.252, 153.038)" font-family="'ArialNarrow', 'Arial Narrow'" font-size="14"> Namespaces</text>
  <text xml:space="preserve" transform="matrix(1, 0, 0, 1, 634.252, 181.243)" font-family="'ArialNarrow', 'Arial Narrow'" font-size="14"> Paged Media</text>
  <text xml:space="preserve" transform="matrix(1, 0, 0, 1, 634.252, 237.653)" font-family="'ArialNarrow', 'Arial Narrow'" font-size="14"> Values and Units</text>
  <text xml:space="preserve" transform="matrix(1, 0, 0, 1, 634.252, 294.064)" font-family="'ArialNarrow', 'Arial Narrow'" font-size="14"> Cascading and Inheritance</text>
  <text xml:space="preserve" transform="matrix(1, 0, 0, 1, 634.252, 350.474)" font-family="'ArialNarrow', 'Arial Narrow'" font-size="14"> Text</text>
  <text xml:space="preserve" transform="matrix(1, 0, 0, 1, 634.252, 406.884)" font-family="'ArialNarrow', 'Arial Narrow'" font-size="14"> Color</text>
  <text xml:space="preserve" transform="matrix(1, 0, 0, 1, 634.252, 463.294)" font-family="'ArialNarrow', 'Arial Narrow'" font-size="14"> Basic User Interface</text>
  <text xml:space="preserve" transform="matrix(1, 0, 0, 1, 634.252, 491.499)" font-family="'ArialNarrow', 'Arial Narrow'" font-size="14"> Scoping</text>
  <text xml:space="preserve" transform="matrix(1, 0, 0, 1, 634.252, 547.909)" font-family="'ArialNarrow', 'Arial Narrow'" font-size="14"> Grid Positioning</text>
  <text xml:space="preserve" transform="matrix(1, 0, 0, 1, 634.252, 576.114)" font-family="'ArialNarrow', 'Arial Narrow'" font-size="14"> Flexible Box Layout</text>
  <text xml:space="preserve" transform="matrix(1, 0, 0, 1, 634.252, 12.0117)" font-family="'ArialNarrow', 'Arial Narrow'" font-size="14"> Transitions</text>
  <text xml:space="preserve" transform="matrix(1, 0, 0, 1, 634.252, 209.448)" font-family="'ArialNarrow', 'Arial Narrow'" font-size="14"> Animations</text>
  <text xml:space="preserve" transform="matrix(1, 0, 0, 1, 634.252, 40.2168)" font-family="'ArialNarrow', 'Arial Narrow'" font-size="14"> CSS OM View</text>
  <text xml:space="preserve" transform="matrix(1, 0, 0, 1, 634.252, 124.833)" font-family="'ArialNarrow', 'Arial Narrow'" font-size="14"> Extended Box Model</text>
  <text xml:space="preserve" transform="matrix(1, 0, 0, 1, 634.252, 322.269)" font-family="'ArialNarrow', 'Arial Narrow'" font-size="14"> CSS OM</text>
  <text xml:space="preserve" transform="matrix(1, 0, 0, 1, 634.252, 435.089)" font-family="'ArialNarrow', 'Arial Narrow'" font-size="14"> Syntax</text>
  <text xml:space="preserve" transform="matrix(1, 0, 0, 1, 634.252, 378.679)" font-family="'ArialNarrow', 'Arial Narrow'" font-size="14"> Lists</text>
  <text xml:space="preserve" transform="matrix(1, 0, 0, 1, 634.252, 519.704)" font-family="'ArialNarrow', 'Arial Narrow'" font-size="14"> Tables</text>
  <text xml:space="preserve" transform="matrix(1, 0, 0, 1, 634.252, 265.858)" font-family="'ArialNarrow', 'Arial Narrow'" font-size="14"> Presentation Levels</text>
  <text xml:space="preserve" transform="matrix(1, 0, 0, 1, 111.699, 40.2168)" font-family="'ArialNarrow', 'Arial Narrow'" font-size="14">Text Layout </text>
  <text xml:space="preserve" transform="matrix(1, 0, 0, 1, 127.661, 96.6274)" font-family="'ArialNarrow', 'Arial Narrow'" font-size="14">Line grid </text>
  <text xml:space="preserve" transform="matrix(1, 0, 0, 1, 144.901, 153.038)" font-family="'ArialNarrow', 'Arial Narrow'" font-size="14">Ruby </text>
  <text xml:space="preserve" transform="matrix(1, 0, 0, 1, 3.1924, 209.448)" font-family="'ArialNarrow', 'Arial Narrow'" font-size="14">Generated Content Paged Media </text>
  <text xml:space="preserve" transform="matrix(1, 0, 0, 1, 38.9512, 265.858)" font-family="'ArialNarrow', 'Arial Narrow'" font-size="14">Backgrounds and Borders </text>
  <text xml:space="preserve" transform="matrix(1, 0, 0, 1, 142.98, 322.269)" font-family="'ArialNarrow', 'Arial Narrow'" font-size="14">Fonts </text>
  <text xml:space="preserve" transform="matrix(1, 0, 0, 1, 86.1875, 378.679)" font-family="'ArialNarrow', 'Arial Narrow'" font-size="14">Basic Box Model </text>
  <text xml:space="preserve" transform="matrix(1, 0, 0, 1, 68.9609, 463.294)" font-family="'ArialNarrow', 'Arial Narrow'" font-size="14">Multi-column Layout </text>
  <text xml:space="preserve" transform="matrix(1, 0, 0, 1, 86.1738, 519.704)" font-family="'ArialNarrow', 'Arial Narrow'" font-size="14">Template Layout </text>
  <text xml:space="preserve" transform="matrix(1, 0, 0, 1, 97.0361, 547.909)" font-family="'ArialNarrow', 'Arial Narrow'" font-size="14">Media Queries </text>
  <text xml:space="preserve" transform="matrix(1, 0, 0, 1, 132.761, 576.114)" font-family="'ArialNarrow', 'Arial Narrow'" font-size="14">Speech </text>
  <text xml:space="preserve" transform="matrix(1, 0, 0, 1, 101.493, 12.0122)" font-family="'ArialNarrow', 'Arial Narrow'" font-size="14">Image Values </text>
  <text xml:space="preserve" transform="matrix(1, 0, 0, 1, 70.8887, 406.884)" font-family="'ArialNarrow', 'Arial Narrow'" font-size="14">2D Transformations </text>
  <text xml:space="preserve" transform="matrix(1, 0, 0, 1, 70.8887, 491.499)" font-family="'ArialNarrow', 'Arial Narrow'" font-size="14">3D Transformations </text>
  <text xml:space="preserve" transform="matrix(1, 0, 0, 1, 115.534, 350.474)" font-family="'ArialNarrow', 'Arial Narrow'" font-size="14">Positioning </text>
  <text xml:space="preserve" transform="matrix(1, 0, 0, 1, 0, 124.833)" font-family="'ArialNarrow', 'Arial Narrow'" font-size="14">Generated and Replaced Content </text>
  <text xml:space="preserve" transform="matrix(1, 0, 0, 1, 112.328, 237.653)" font-family="'ArialNarrow', 'Arial Narrow'" font-size="14">Line Layout </text>
  <text xml:space="preserve" transform="matrix(1, 0, 0, 1, 56.1982, 294.064)" font-family="'ArialNarrow', 'Arial Narrow'" font-size="14">Hyperlink Presentation </text>
  <text xml:space="preserve" transform="matrix(1, 0, 0, 1, 61.9268, 68.4224)" font-family="'ArialNarrow', 'Arial Narrow'" font-size="14">Style Attribute Syntax </text>
  <text xml:space="preserve" transform="matrix(1, 0, 0, 1, 146.173, 181.243)" font-family="'ArialNarrow', 'Arial Narrow'" font-size="14">Math </text>
  <text xml:space="preserve" transform="matrix(1, 0, 0, 1, 58.0986, 435.089)" font-family="'ArialNarrow', 'Arial Narrow'" font-size="14">Behavioral Extensions </text>
  <linearGradient id="id2547337-1_" gradientUnits="userSpaceOnUse" x1="422.0142" y1="303.4648" x2="422.0142" y2="81.3804" xlink:type="simple" xlink:show="other" xlink:actuate="onLoad">
	<stop offset="0" style="stop-color:#FFFF00"/>
	<stop offset="1" style="stop-color:#FFFFFF"/>
</linearGradient>
  <path fill="url(#id2547337-1_)" d="M406.6,303.5V81.4c11.7,0,19.4,0.5,30.9,2.2L406.6,303.5z"/>
  <linearGradient id="id2547337-2_" gradientUnits="userSpaceOnUse" x1="416.0708" y1="305.1416" x2="454.6354" y2="86.4306" xlink:type="simple" xlink:show="other" xlink:actuate="onLoad">
	<stop offset="0" style="stop-color:#ED1C24"/>
	<stop offset="1" style="stop-color:#FFFFFF"/>
</linearGradient>
  <path fill="url(#id2547337-2_)" d="M406.6,303.5l30.9-219.9c11.5,1.6,22.9,4.1,34,7.5L406.6,303.5z"/>
  <linearGradient id="id2547337-3_" gradientUnits="userSpaceOnUse" x1="410.1929" y1="304.7871" x2="486.1713" y2="96.0381" xlink:type="simple" xlink:show="other" xlink:actuate="onLoad">
	<stop offset="0" style="stop-color:#00FF00"/>
	<stop offset="1" style="stop-color:#FFFFFF"/>
</linearGradient>
  <path fill="url(#id2547337-3_)" d="M406.6,303.5l64.9-212.4c11.1,3.4,18.4,6.2,28.9,11.1L406.6,303.5z"/>
  <linearGradient id="id2547337-4_" gradientUnits="userSpaceOnUse" x1="404.8862" y1="302.499" x2="515.9293" y2="110.1667" xlink:type="simple" xlink:show="other" xlink:actuate="onLoad">
	<stop offset="0" style="stop-color:#00FFFF"/>
	<stop offset="1" style="stop-color:#FFFFFF"/>
</linearGradient>
  <path fill="url(#id2547337-4_)" d="M406.6,303.5l93.9-201.3c10.6,4.9,20.7,10.6,30.3,17.2L406.6,303.5z"/>
  <linearGradient id="id2547337-5_" gradientUnits="userSpaceOnUse" x1="400.6362" y1="298.4951" x2="543.4164" y2="128.3363" xlink:type="simple" xlink:show="other" xlink:actuate="onLoad">
	<stop offset="0" style="stop-color:#0000FF"/>
	<stop offset="1" style="stop-color:#FFFFFF"/>
</linearGradient>
  <path fill="url(#id2547337-5_)" d="M406.6,303.5l124.2-184.1c9.7,6.5,15.8,11.3,24.4,19.1L406.6,303.5z"/>
  <linearGradient id="id2547337-6_" gradientUnits="userSpaceOnUse" x1="410.6587" y1="307.5645" x2="567.6973" y2="150.5258" xlink:type="simple" xlink:show="other" xlink:actuate="onLoad">
	<stop offset="0" style="stop-color:#FF00FF"/>
	<stop offset="1" style="stop-color:#FFFFFF"/>
</linearGradient>
  <path fill="url(#id2547337-6_)" d="M406.6,303.5l148.6-165c8.7,7.8,16.7,16.2,24,25.3L406.6,303.5z"/>
  <linearGradient id="id2547337-7_" gradientUnits="userSpaceOnUse" x1="418.9536" y1="318.2354" x2="589.0544" y2="175.5039" xlink:type="simple" xlink:show="other" xlink:actuate="onLoad">
	<stop offset="0" style="stop-color:#C1272D"/>
	<stop offset="1" style="stop-color:#FFFFFF"/>
</linearGradient>
  <path fill="url(#id2547337-7_)" d="M406.6,303.5l172.6-139.8c7.3,9.1,13.9,18.6,19.7,28.7L406.6,303.5z"/>
  <linearGradient id="id2547337-8_" gradientUnits="userSpaceOnUse" x1="414.2856" y1="316.8477" x2="606.6177" y2="205.8047" xlink:type="simple" xlink:show="other" xlink:actuate="onLoad">
	<stop offset="0" style="stop-color:#F7931E"/>
	<stop offset="1" style="stop-color:#FFFFFF"/>
</linearGradient>
  <path fill="url(#id2547337-8_)" d="M406.6,303.5l192.3-111c5.8,10.1,9.2,17,13.6,27.8L406.6,303.5z"/>
  <linearGradient id="id2547337-9_" gradientUnits="userSpaceOnUse" x1="409.8618" y1="312.5391" x2="618.5543" y2="236.5812" xlink:type="simple" xlink:show="other" xlink:actuate="onLoad">
	<stop offset="0" style="stop-color:#D9E021"/>
	<stop offset="1" style="stop-color:#FFFFFF"/>
</linearGradient>
  <path fill="url(#id2547337-9_)" d="M406.6,303.5l205.9-83.2c4.4,10.8,7.9,21.9,10.5,33.2L406.6,303.5z"/>
  <linearGradient id="id2547337-10_" gradientUnits="userSpaceOnUse" x1="407.23" y1="307.2725" x2="626.0011" y2="268.6972" xlink:type="simple" xlink:show="other" xlink:actuate="onLoad">
	<stop offset="0" style="stop-color:#8CC63F"/>
	<stop offset="1" style="stop-color:#FFFFFF"/>
</linearGradient>
  <path fill="url(#id2547337-10_)" d="M406.6,303.5l216.4-50c2.6,11.4,3.8,19,4.8,30.6L406.6,303.5z"/>
  <linearGradient id="id2547337-11_" gradientUnits="userSpaceOnUse" x1="406.5591" y1="301.5332" x2="628.645" y2="301.5332" xlink:type="simple" xlink:show="other" xlink:actuate="onLoad">
	<stop offset="0" style="stop-color:#29ABE2"/>
	<stop offset="1" style="stop-color:#FFFFFF"/>
</linearGradient>
  <path fill="url(#id2547337-11_)" d="M406.6,303.5l221.2-19.4c1,11.6,1.1,23.2,0.3,34.8L406.6,303.5z"/>
  <linearGradient id="id2547337-12_" gradientUnits="userSpaceOnUse" x1="407.9009" y1="295.8506" x2="626.6523" y2="334.4224" xlink:type="simple" xlink:show="other" xlink:actuate="onLoad">
	<stop offset="0" style="stop-color:#1B1464"/>
	<stop offset="1" style="stop-color:#FFFFFF"/>
</linearGradient>
  <path fill="url(#id2547337-12_)" d="M406.6,303.5L628.1,319c-0.8,11.6-1.9,19.3-4.3,30.7L406.6,303.5z"/>
  <linearGradient id="id2547337-13_" gradientUnits="userSpaceOnUse" x1="411.1812" y1="290.7637" x2="619.8746" y2="366.7219" xlink:type="simple" xlink:show="other" xlink:actuate="onLoad">
	<stop offset="0" style="stop-color:#662D91"/>
	<stop offset="1" style="stop-color:#FFFFFF"/>
</linearGradient>
  <path fill="url(#id2547337-13_)" d="M406.6,303.5l217.2,46.2c-2.4,11.4-5.7,22.5-9.9,33.4L406.6,303.5z"/>
  <linearGradient id="id2547337-14_" gradientUnits="userSpaceOnUse" x1="415.2446" y1="288.4209" x2="607.5759" y2="399.4634" xlink:type="simple" xlink:show="other" xlink:actuate="onLoad">
	<stop offset="0" style="stop-color:#C69C6D"/>
	<stop offset="1" style="stop-color:#FFFFFF"/>
</linearGradient>
  <path fill="url(#id2547337-14_)" d="M406.6,303.5l207.3,79.6c-4.2,10.9-9.2,21.4-15,31.5L406.6,303.5z"/>
  <linearGradient id="id2547337-15_" gradientUnits="userSpaceOnUse" x1="418.9546" y1="288.6934" x2="588.9775" y2="431.3596" xlink:type="simple" xlink:show="other" xlink:actuate="onLoad">
	<stop offset="0" style="stop-color:#ED1E79"/>
	<stop offset="1" style="stop-color:#FFFFFF"/>
</linearGradient>
  <path fill="url(#id2547337-15_)" d="M406.6,303.5l192.3,111c-5.8,10.1-10.2,16.5-17.3,25.7L406.6,303.5z"/>
  <linearGradient id="id2547337-16_" gradientUnits="userSpaceOnUse" x1="413.3882" y1="296.6357" x2="570.426" y2="453.6735" xlink:type="simple" xlink:show="other" xlink:actuate="onLoad">
	<stop offset="0" style="stop-color:#8C6239"/>
	<stop offset="1" style="stop-color:#FFFFFF"/>
</linearGradient>
  <path fill="url(#id2547337-16_)" d="M406.6,303.5l175,136.7c-7.2,9.2-15,17.7-23.5,25.7L406.6,303.5z"/>
  <linearGradient id="id2547337-17_" gradientUnits="userSpaceOnUse" x1="428.1919" y1="290.9746" x2="538.811" y2="482.5726" xlink:type="simple" xlink:show="other" xlink:actuate="onLoad">
	<stop offset="0" style="stop-color:#FCEE21"/>
	<stop offset="1" style="stop-color:#FFFFFF"/>
</linearGradient>
  <path fill="url(#id2547337-17_)" d="M406.6,303.5L558,465.9c-8.5,7.9-14.5,12.8-24.1,19.5L406.6,303.5z"/>
  <linearGradient id="id2547337-18_" gradientUnits="userSpaceOnUse" x1="408.231" y1="302.498" x2="519.2734" y2="494.8293" xlink:type="simple" xlink:show="other" xlink:actuate="onLoad">
	<stop offset="0" style="stop-color:#0071BC"/>
	<stop offset="1" style="stop-color:#FFFFFF"/>
</linearGradient>
  <path fill="url(#id2547337-18_)" d="M406.6,303.5l127.4,181.9c-9.5,6.7-19.6,12.6-30,17.7L406.6,303.5z"/>
  <linearGradient id="id2547337-19_" gradientUnits="userSpaceOnUse" x1="413.8247" y1="300.8203" x2="489.7962" y2="509.5505" xlink:type="simple" xlink:show="other" xlink:actuate="onLoad">
	<stop offset="0" style="stop-color:#39B54A"/>
	<stop offset="1" style="stop-color:#FFFFFF"/>
</linearGradient>
  <path fill="url(#id2547337-19_)" d="M406.6,303.5l97.4,199.6c-10.5,5.1-17.6,8-28.7,11.6L406.6,303.5z"/>
  <linearGradient id="id2547337-20_" gradientUnits="userSpaceOnUse" x1="419.8696" y1="301.1172" x2="458.4344" y2="519.8292" xlink:type="simple" xlink:show="other" xlink:actuate="onLoad">
	<stop offset="0" style="stop-color:#00FFFF"/>
	<stop offset="1" style="stop-color:#FFFFFF"/>
</linearGradient>
  <path fill="url(#id2547337-20_)" d="M406.6,303.5l68.6,211.2c-11.1,3.6-22.4,6.3-33.9,8.1L406.6,303.5z"/>
  <linearGradient id="id2547337-21_" gradientUnits="userSpaceOnUse" x1="423.9302" y1="303.4648" x2="423.9302" y2="525.5498" xlink:type="simple" xlink:show="other" xlink:actuate="onLoad">
	<stop offset="0" style="stop-color:#C1272D"/>
	<stop offset="1" style="stop-color:#FFFFFF"/>
</linearGradient>
  <path fill="url(#id2547337-21_)" d="M406.6,303.5l34.7,219.4c-11.5,1.8-23.1,2.7-34.7,2.7V303.5z"/>
  <linearGradient id="id2547337-22_" gradientUnits="userSpaceOnUse" x1="391.105" y1="303.4648" x2="391.105" y2="525.5498" xlink:type="simple" xlink:show="other" xlink:actuate="onLoad">
	<stop offset="0" style="stop-color:#C7B299"/>
	<stop offset="1" style="stop-color:#FFFFFF"/>
</linearGradient>
  <path fill="url(#id2547337-22_)" d="M406.6,303.5v222.1c-11.7,0-19.4-0.5-30.9-2.2L406.6,303.5z"/>
  <linearGradient id="id2547337-23_" gradientUnits="userSpaceOnUse" x1="397.0483" y1="301.7871" x2="358.4835" y2="520.4991" xlink:type="simple" xlink:show="other" xlink:actuate="onLoad">
	<stop offset="0" style="stop-color:#00A99D"/>
	<stop offset="1" style="stop-color:#FFFFFF"/>
</linearGradient>
  <path fill="url(#id2547337-23_)" d="M406.6,303.5l-30.9,219.9c-11.5-1.6-22.9-4.1-34-7.5L406.6,303.5z"/>
  <linearGradient id="id2547337-24_" gradientUnits="userSpaceOnUse" x1="428.1919" y1="315.9541" x2="317.5723" y2="507.5529" xlink:type="simple" xlink:show="other" xlink:actuate="onLoad">
	<stop offset="0" style="stop-color:#ED1C24"/>
	<stop offset="1" style="stop-color:#FFFFFF"/>
</linearGradient>
  <path fill="url(#id2547337-24_)" d="M406.6,303.5l-64.9,212.4c-11.1-3.4-18.4-6.2-28.9-11.1L406.6,303.5z"/>
  <linearGradient id="id2547337-25_" gradientUnits="userSpaceOnUse" x1="428.5757" y1="321.9385" x2="286.604" y2="491.1337" xlink:type="simple" xlink:show="other" xlink:actuate="onLoad">
	<stop offset="0" style="stop-color:#00A99D"/>
	<stop offset="1" style="stop-color:#FFFFFF"/>
</linearGradient>
  <path fill="url(#id2547337-25_)" d="M406.6,303.5l-93.9,201.3c-10.6-4.9-20.7-10.6-30.3-17.2L406.6,303.5z"/>
  <linearGradient id="id2547337-26_" gradientUnits="userSpaceOnUse" x1="421.5415" y1="318.4473" x2="264.7185" y2="475.2703" xlink:type="simple" xlink:show="other" xlink:actuate="onLoad">
	<stop offset="0" style="stop-color:#662D91"/>
	<stop offset="1" style="stop-color:#FFFFFF"/>
</linearGradient>
  <path fill="url(#id2547337-26_)" d="M406.6,303.5L282.4,487.6c-9.7-6.5-15.8-11.3-24.4-19.1L406.6,303.5z"/>
  <linearGradient id="id2547337-27_" gradientUnits="userSpaceOnUse" x1="402.4614" y1="299.3672" x2="245.423" y2="456.4056" xlink:type="simple" xlink:show="other" xlink:actuate="onLoad">
	<stop offset="0" style="stop-color:#754C24"/>
	<stop offset="1" style="stop-color:#FFFFFF"/>
</linearGradient>
  <path fill="url(#id2547337-27_)" d="M406.6,303.5L258,468.5c-8.7-7.8-16.7-16.2-24-25.3L406.6,303.5z"/>
  <linearGradient id="id2547337-28_" gradientUnits="userSpaceOnUse" x1="394.1655" y1="288.6943" x2="224.0647" y2="431.4258" xlink:type="simple" xlink:show="other" xlink:actuate="onLoad">
	<stop offset="0" style="stop-color:#0071BC"/>
	<stop offset="1" style="stop-color:#FFFFFF"/>
</linearGradient>
  <path fill="url(#id2547337-28_)" d="M406.6,303.5L234,443.2c-7.3-9.1-13.9-18.6-19.7-28.7L406.6,303.5z"/>
  <linearGradient id="id2547337-29_" gradientUnits="userSpaceOnUse" x1="398.8325" y1="290.0811" x2="206.5025" y2="401.1228" xlink:type="simple" xlink:show="other" xlink:actuate="onLoad">
	<stop offset="0" style="stop-color:#00FF00"/>
	<stop offset="1" style="stop-color:#FFFFFF"/>
</linearGradient>
  <path fill="url(#id2547337-29_)" d="M406.6,303.5l-192.3,111c-5.8-10.1-9.2-17-13.6-27.8L406.6,303.5z"/>
  <linearGradient id="id2547337-30_" gradientUnits="userSpaceOnUse" x1="403.2563" y1="294.3896" x2="194.5643" y2="370.3473" xlink:type="simple" xlink:show="other" xlink:actuate="onLoad">
	<stop offset="0" style="stop-color:#FF00FF"/>
	<stop offset="1" style="stop-color:#FFFFFF"/>
</linearGradient>
  <path fill="url(#id2547337-30_)" d="M406.6,303.5l-205.9,83.2c-4.4-10.8-7.9-21.9-10.5-33.2L406.6,303.5z"/>
  <linearGradient id="id2547337-31_" gradientUnits="userSpaceOnUse" x1="405.8872" y1="299.6562" x2="187.1161" y2="338.2315" xlink:type="simple" xlink:show="other" xlink:actuate="onLoad">
	<stop offset="0" style="stop-color:#00A99D"/>
	<stop offset="1" style="stop-color:#FFFFFF"/>
</linearGradient>
  <path fill="url(#id2547337-31_)" d="M406.6,303.5l-216.4,50c-2.6-11.4-3.8-19-4.8-30.6L406.6,303.5z"/>
  <linearGradient id="id2547337-32_" gradientUnits="userSpaceOnUse" x1="406.5591" y1="305.3965" x2="184.4736" y2="305.3965" xlink:type="simple" xlink:show="other" xlink:actuate="onLoad">
	<stop offset="0" style="stop-color:#736357"/>
	<stop offset="1" style="stop-color:#FFFFFF"/>
</linearGradient>
  <path fill="url(#id2547337-32_)" d="M406.6,303.5l-221.2,19.4c-1-11.6-1.1-23.2-0.3-34.8L406.6,303.5z"/>
  <linearGradient id="id2547337-33_" gradientUnits="userSpaceOnUse" x1="405.2163" y1="311.0791" x2="186.4649" y2="272.5073" xlink:type="simple" xlink:show="other" xlink:actuate="onLoad">
	<stop offset="0" style="stop-color:#FFFF00"/>
	<stop offset="1" style="stop-color:#FFFFFF"/>
</linearGradient>
  <path fill="url(#id2547337-33_)" d="M406.6,303.5L185,288c0.8-11.6,1.9-19.3,4.3-30.7L406.6,303.5z"/>
  <linearGradient id="id2547337-34_" gradientUnits="userSpaceOnUse" x1="401.937" y1="316.165" x2="193.2454" y2="240.2075" xlink:type="simple" xlink:show="other" xlink:actuate="onLoad">
	<stop offset="0" style="stop-color:#00FF00"/>
	<stop offset="1" style="stop-color:#FFFFFF"/>
</linearGradient>
  <path fill="url(#id2547337-34_)" d="M406.6,303.5l-217.2-46.2c2.4-11.4,5.7-22.5,9.9-33.4L406.6,303.5z"/>
  <linearGradient id="id2547337-35_" gradientUnits="userSpaceOnUse" x1="413.1548" y1="285.3447" x2="204.4953" y2="209.3989" xlink:type="simple" xlink:show="other" xlink:actuate="onLoad">
	<stop offset="0" style="stop-color:#ED1C24"/>
	<stop offset="1" style="stop-color:#FFFFFF"/>
</linearGradient>
  <path fill="url(#id2547337-35_)" d="M406.6,303.5l-207.3-79.6c4.2-10.9,9.2-21.4,15-31.5L406.6,303.5z"/>
  <linearGradient id="id2547337-36_" gradientUnits="userSpaceOnUse" x1="414.2856" y1="290.0811" x2="221.9561" y2="179.0396" xlink:type="simple" xlink:show="other" xlink:actuate="onLoad">
	<stop offset="0" style="stop-color:#603813"/>
	<stop offset="1" style="stop-color:#FFFFFF"/>
</linearGradient>
  <path fill="url(#id2547337-36_)" d="M406.6,303.5l-192.3-111c5.8-10.1,10.2-16.5,17.3-25.7L406.6,303.5z"/>
  <linearGradient id="id2547337-37_" gradientUnits="userSpaceOnUse" x1="422.7915" y1="275.3486" x2="232.3327" y2="165.3872" xlink:type="simple" xlink:show="other" xlink:actuate="onLoad">
	<stop offset="0" style="stop-color:#0071BC"/>
	<stop offset="1" style="stop-color:#FFFFFF"/>
</linearGradient>
  <path fill="url(#id2547337-37_)" d="M406.6,303.5l-175-136.7c7.2-9.2,15-17.7,23.5-25.7L406.6,303.5z"/>
  <linearGradient id="id2547337-38_" gradientUnits="userSpaceOnUse" x1="425.0337" y1="281.4482" x2="256.1747" y2="139.7588" xlink:type="simple" xlink:show="other" xlink:actuate="onLoad">
	<stop offset="0" style="stop-color:#754C24"/>
	<stop offset="1" style="stop-color:#FFFFFF"/>
</linearGradient>
  <path fill="url(#id2547337-38_)" d="M406.6,303.5L255.1,141c8.5-7.9,14.5-12.8,24.1-19.5L406.6,303.5z"/>
  <linearGradient id="id2547337-39_" gradientUnits="userSpaceOnUse" x1="432.1226" y1="277.9014" x2="277.4706" y2="123.2494" xlink:type="simple" xlink:show="other" xlink:actuate="onLoad">
	<stop offset="0" style="stop-color:#93278F"/>
	<stop offset="1" style="stop-color:#FFFFFF"/>
</linearGradient>
  <path fill="url(#id2547337-39_)" d="M406.6,303.5L279.2,121.5c9.5-6.7,19.6-12.6,30-17.7L406.6,303.5z"/>
  <linearGradient id="id2547337-40_" gradientUnits="userSpaceOnUse" x1="426.5532" y1="291.9219" x2="315.7812" y2="100.0592" xlink:type="simple" xlink:show="other" xlink:actuate="onLoad">
	<stop offset="0" style="stop-color:#1B1464"/>
	<stop offset="1" style="stop-color:#FFFFFF"/>
</linearGradient>
  <path fill="url(#id2547337-40_)" d="M406.6,303.5l-97.4-199.6c10.5-5.1,17.6-8,28.7-11.6L406.6,303.5z"/>
  <linearGradient id="id2547337-41_" gradientUnits="userSpaceOnUse" x1="426.4692" y1="296.2178" x2="350.5581" y2="87.6537" xlink:type="simple" xlink:show="other" xlink:actuate="onLoad">
	<stop offset="0" style="stop-color:#F15A24"/>
	<stop offset="1" style="stop-color:#FFFFFF"/>
</linearGradient>
  <path fill="url(#id2547337-41_)" d="M406.6,303.5L337.9,92.2c11.1-3.6,22.4-6.3,33.9-8.1L406.6,303.5z"/>
  <linearGradient id="id2547337-42_" gradientUnits="userSpaceOnUse" x1="425.5483" y1="300.1152" x2="386.9896" y2="81.4379" xlink:type="simple" xlink:show="other" xlink:actuate="onLoad">
	<stop offset="0" style="stop-color:#00FF00"/>
	<stop offset="1" style="stop-color:#FFFFFF"/>
</linearGradient>
  <path fill="url(#id2547337-42_)" d="M406.6,303.5L371.8,84.1c11.5-1.8,23.1-2.7,34.7-2.7V303.5z"/>
  <circle fill="none" stroke="#000000" stroke-width="2" cx="408.8" cy="305.6" r="50"/>
  <text xml:space="preserve" transform="matrix(1, 0, 0, 1, 365.871, 295.982)" stroke="#FFFFFF" stroke-width="2" font-family="'Arial-BoldMT', 'Arial'" font-weight="bold" font-size="16">CSS level 1</text>
  <text xml:space="preserve" transform="matrix(1, 0, 0, 1, 365.871, 295.982)" font-family="'Arial-BoldMT', 'Arial'" font-weight="bold" font-size="16">CSS level 1</text>
  <circle fill="none" stroke="#000000" stroke-width="2" cx="408.8" cy="305.6" r="135"/>
  <text xml:space="preserve" transform="matrix(1, 0, 0, 1, 387.87, 209.871)" stroke="#FFFFFF" stroke-width="2" font-family="'Arial-BoldMT', 'Arial'" font-weight="bold" font-size="16">CSS level 2</text>
  <text xml:space="preserve" transform="matrix(1, 0, 0, 1, 387.87, 209.871)" font-family="'Arial-BoldMT', 'Arial'" font-weight="bold" font-size="16">CSS level 2</text>
  <circle fill="none" stroke="#000000" stroke-width="2" cx="408.8" cy="305.6" r="212.9"/>
  <text xml:space="preserve" transform="matrix(1, 0, 0, 1, 408.87, 132.871)" stroke="#FFFFFF" stroke-width="2" font-family="'Arial-BoldMT', 'Arial'" font-weight="bold" font-size="16">CSS level 3</text>
  <text xml:space="preserve" transform="matrix(1, 0, 0, 1, 408.87, 132.871)" font-family="'Arial-BoldMT', 'Arial'" font-weight="bold" font-size="16">CSS level 3</text>
  <polyline fill="none" stroke="#808080" points="174.9,12 388.1,12 388.1,82.2 "/>
  <polyline fill="none" stroke="#808080" points="174.9,40.2 354.1,40.2 354.1,87.7 "/>
  <polyline fill="none" stroke="#808080" points="174.9,68.4 324,68.4 324,97.2 "/>
  <polyline fill="none" stroke="#808080" points="174.9,96.6 291.5,96.6 291.5,113.5 "/>
  <polyline fill="none" stroke="#808080" points="174.9,124.8 265,124.8 265,132.3 "/>
  <polyline fill="none" stroke="#808080" points="174.9,153 239.8,153 239.8,156.8 "/>
  <line fill="none" stroke="#808080" x1="175.3" y1="181.4" x2="222.4" y2="179.2"/>
  <line fill="none" stroke="#808080" x1="174.9" y1="209.4" x2="205.4" y2="209.4"/>
  <line fill="none" stroke="#808080" x1="174.9" y1="237.7" x2="194.5" y2="237.7"/>
  <line fill="none" stroke="#808080" x1="174.9" y1="265.9" x2="185" y2="276"/>
  <line fill="none" stroke="#808080" x1="174.9" y1="294.1" x2="184.5" y2="303.7"/>
  <line fill="none" stroke="#808080" x1="174.9" y1="322.3" x2="186.5" y2="333.9"/>
  <line fill="none" stroke="#808080" x1="174.9" y1="350.5" x2="194.8" y2="370.4"/>
  <line fill="none" stroke="#808080" x1="174.9" y1="378.7" x2="206.2" y2="399.4"/>
  <line fill="none" stroke="#808080" x1="174.9" y1="406.9" x2="222.1" y2="427.1"/>
  <line fill="none" stroke="#808080" x1="174.6" y1="435.4" x2="244.3" y2="455.1"/>
  <line fill="none" stroke="#808080" x1="174.9" y1="463.3" x2="270.8" y2="479.3"/>
  <line fill="none" stroke="#808080" x1="173.9" y1="492.7" x2="295.4" y2="495.7"/>
  <polyline fill="none" stroke="#808080" points="174.9,519.7 324.3,519.7 324.3,509.8 "/>
  <polyline fill="none" stroke="#808080" points="174.9,547.9 359.6,547.9 359.6,520.5 "/>
  <polyline fill="none" stroke="#808080" points="634.3,12 421.9,12 421.9,81.8 "/>
  <polyline fill="none" stroke="#808080" points="634.2,40.2 456.5,40.2 456.5,87.1 "/>
  <polyline fill="none" stroke="#808080" points="634.2,68.4 488,68.4 488,96.8 "/>
  <polyline fill="none" stroke="#808080" points="634.2,96.6 516.8,96.6 516.8,110.7 "/>
  <polyline fill="none" stroke="#808080" points="634.2,124.8 543.8,124.8 543.8,128.8 "/>
  <line fill="none" stroke="#808080" x1="634.2" y1="153" x2="569.9" y2="153"/>
  <line fill="none" stroke="#808080" x1="634.2" y1="181.2" x2="590.2" y2="178.6"/>
  <line fill="none" stroke="#808080" x1="634.2" y1="209.4" x2="606.3" y2="206.2"/>
  <line fill="none" stroke="#808080" x1="634.2" y1="237.7" x2="618.7" y2="237.7"/>
  <line fill="none" stroke="#808080" x1="634.2" y1="265.9" x2="625.5" y2="265.9"/>
  <line fill="none" stroke="#808080" x1="634.2" y1="294.1" x2="628.6" y2="299.7"/>
  <line fill="none" stroke="#808080" x1="634.2" y1="322.3" x2="626.5" y2="334.5"/>
  <line fill="none" stroke="#808080" x1="634.6" y1="351.4" x2="619.2" y2="367.6"/>
  <line fill="none" stroke="#808080" x1="634.2" y1="378.7" x2="605.6" y2="401.9"/>
  <line fill="none" stroke="#808080" x1="634.2" y1="406.9" x2="591.7" y2="426.3"/>
  <line fill="none" stroke="#808080" x1="634.2" y1="435.1" x2="569.2" y2="454.7"/>
  <line fill="none" stroke="#808080" x1="634.2" y1="463.3" x2="546" y2="476.4"/>
  <line fill="none" stroke="#808080" x1="634.2" y1="491.5" x2="518.8" y2="495.1"/>
  <polyline fill="none" stroke="#808080" points="634.6,520.7 491.2,520.7 491.2,508.9 "/>
  <polyline fill="none" stroke="#808080" points="634.2,547.9 457.7,547.9 457.7,519.6 "/>
  <polyline fill="none" stroke="#808080" points="633.9,576 423.2,576 423.2,524.9 "/>
  <polyline fill="none" stroke="#808080" points="174.9,576.1 393.4,576.1 393.4,525.2 "/>

</svg>
