<?xml version="1.0" encoding="UTF-8" standalone="no"?>
<svg
   xmlns:dc="http://purl.org/dc/elements/1.1/"
   xmlns:cc="http://creativecommons.org/ns#"
   xmlns:rdf="http://www.w3.org/1999/02/22-rdf-syntax-ns#"
   xmlns:svg="http://www.w3.org/2000/svg"
   xmlns="http://www.w3.org/2000/svg"
   xmlns:sodipodi="http://sodipodi.sourceforge.net/DTD/sodipodi-0.dtd"
   xmlns:inkscape="http://www.inkscape.org/namespaces/inkscape"
   id="svg2"
   version="1.1"
   inkscape:version="0.48.5 r10040"
   width="100%"
   height="100%"
   sodipodi:docname="ribbon.svg">
  <metadata
     id="metadata10">
    <rdf:RDF>
      <cc:Work
         rdf:about="">
        <dc:format>image/svg+xml</dc:format>
        <dc:type
           rdf:resource="http://purl.org/dc/dcmitype/StillImage" />
        <dc:title></dc:title>
      </cc:Work>
    </rdf:RDF>
  </metadata>
  <defs
     id="defs8" />
  <sodipodi:namedview
     pagecolor="#ffffff"
     bordercolor="#666666"
     borderopacity="1"
     objecttolerance="10"
     gridtolerance="10"
     guidetolerance="10"
     inkscape:pageopacity="0"
     inkscape:pageshadow="2"
     inkscape:window-width="1144"
     inkscape:window-height="808"
     id="namedview6"
     showgrid="false"
     inkscape:zoom="1.7940591"
     inkscape:cx="73.922792"
     inkscape:cy="981.9071"
     inkscape:window-x="0"
     inkscape:window-y="0"
     inkscape:window-maximized="0"
     inkscape:current-layer="svg2" />
  <path
     fill="#C00"
     d="M0 0h50v100L25 80 0 100"
     id="path4" />
  <rect
     width="47.471043"
     clip-rule="evenodd"
     height="35.876652"
     id="rect9"
     x="1.3472602"
     y="7.1444573"
     style="fill:#005a9c;fill-opacity:1;fill-rule:evenodd;stroke:#005a9c;stroke-opacity:1" />
  <polygon
     points="36.698,80.243 36.698,69.664 44.543,69.664 44.543,71.786 39.888,71.786 39.888,73.725 44.33,73.725 44.33,75.854 39.888,75.854 39.888,78.113 44.673,78.113 44.673,80.243 "
     clip-rule="evenodd"
     id="polygon11"
     style="fill:#ffffff;fill-rule:evenodd"
     transform="matrix(0.3885909,0,0,0.3885909,1.3472611,7.1444559)" />
  <path
     clip-rule="evenodd"
     d="m 21.412153,37.44522 c 0,0.276677 -0.101807,0.502059 -0.305433,0.676148 -0.201679,0.172146 -0.502059,0.258025 -0.90153,0.258025 -0.22344,0 -0.42201,-0.01981 -0.596099,-0.05907 -0.174089,-0.04158 -0.363721,-0.09987 -0.569285,-0.175254 v -0.759307 c 0.179917,0.102976 0.33613,0.180695 0.46864,0.234321 0.132509,0.05362 0.277843,0.08005 0.435999,0.08005 0.266962,0 0.400248,-0.07305 0.400248,-0.219165 0,-0.04935 -0.01981,-0.09288 -0.05945,-0.130566 -0.03769,-0.03964 -0.104922,-0.08277 -0.201678,-0.130568 -0.09481,-0.04935 -0.222274,-0.107642 -0.382374,-0.174866 -0.197792,-0.08704 -0.365664,-0.203621 -0.504002,-0.349731 -0.138339,-0.14611 -0.207897,-0.325251 -0.207897,-0.537033 0,-0.150384 0.04546,-0.294552 0.136396,-0.432889 0.09288,-0.138339 0.232377,-0.251031 0.418512,-0.338075 0.185747,-0.08899 0.409963,-0.133286 0.67304,-0.133286 0.06334,0 0.14339,0.005 0.240149,0.01476 0.0987,0.0081 0.222274,0.0307 0.370716,0.06801 0.150384,0.03769 0.292609,0.09093 0.427061,0.160098 v 0.738712 c -0.06334,-0.03769 -0.116582,-0.06916 -0.160487,-0.09481 -0.04119,-0.02565 -0.09753,-0.0544 -0.169037,-0.08627 -0.0715,-0.03147 -0.155437,-0.05907 -0.252196,-0.08277 -0.09481,-0.02565 -0.192741,-0.03847 -0.293775,-0.03886 -0.122406,0 -0.20673,0.0241 -0.251807,0.0715 -0.04546,0.04741 -0.06839,0.09481 -0.06839,0.142224 0,0.04935 0.0237,0.09598 0.07111,0.139503 0.04741,0.04119 0.153493,0.09404 0.317478,0.156991 0.237429,0.09093 0.427061,0.18497 0.569286,0.281729 0.142224,0.09481 0.243257,0.199735 0.302324,0.31437 0.06179,0.114637 0.09248,0.249864 0.09248,0.406078 z"
     id="path13"
     inkscape:connector-curvature="0"
     style="fill:#ffffff;fill-rule:evenodd" />
  <path
     clip-rule="evenodd"
     d="m 24.994961,36.795496 c 0,0.201678 -0.02875,0.396751 -0.08587,0.584052 -0.05751,0.188078 -0.145333,0.357892 -0.264241,0.51022 -0.116582,0.150384 -0.26774,0.269681 -0.453486,0.358669 -0.183804,0.08704 -0.398306,0.130567 -0.643507,0.130567 -0.197792,0 -0.354005,-0.0206 -0.46864,-0.06217 -0.112691,-0.04158 -0.225383,-0.09715 -0.338074,-0.166317 v 1.548146 h -1.06785 V 35.30681 h 1.067847 v 0.272789 c 0.106867,-0.09288 0.224605,-0.170203 0.35284,-0.231211 0.130567,-0.06334 0.306599,-0.09481 0.528096,-0.09481 0.219553,0 0.434833,0.0544 0.646615,0.163208 0.211781,0.108801 0.385482,0.278619 0.521877,0.51022 0.136396,0.22888 0.204398,0.518769 0.204398,0.868501 z m -1.123804,0.0237 c 0,-0.18186 -0.02875,-0.329136 -0.08589,-0.441827 -0.05752,-0.114637 -0.131732,-0.196627 -0.222662,-0.245978 -0.09093,-0.0513 -0.18497,-0.07695 -0.281729,-0.07733 -0.12668,0 -0.230434,0.02098 -0.311261,0.06256 -0.08122,0.03964 -0.157379,0.08976 -0.228492,0.151162 v 1.153726 c 0.03769,0.01981 0.07695,0.04236 0.118516,0.06839 0.04353,0.0237 0.08587,0.0443 0.127846,0.06217 0.04353,0.01788 0.08899,0.03264 0.136395,0.04469 0.04935,0.0117 0.101807,0.01749 0.156991,0.01749 0.16826,0 0.308541,-0.07111 0.421233,-0.213336 0.112691,-0.142225 0.169036,-0.336132 0.169036,-0.581722 z"
     id="path15"
     inkscape:connector-curvature="0"
     style="fill:#ffffff;fill-rule:evenodd" />
  <path
     clip-rule="evenodd"
     d="m 28.370651,38.174994 c -0.156214,0.06139 -0.300382,0.110745 -0.432891,0.148052 -0.132509,0.03769 -0.291443,0.05635 -0.477578,0.05635 -0.176032,0 -0.298827,-0.0307 -0.367608,-0.09171 -0.06916,-0.06334 -0.118909,-0.139504 -0.148441,-0.228491 -0.114637,0.09288 -0.242481,0.170203 -0.382373,0.231211 -0.140282,0.05945 -0.324086,0.08899 -0.551799,0.08899 -0.219165,0 -0.39714,-0.03769 -0.533925,-0.112691 -0.134452,-0.07695 -0.229268,-0.172923 -0.284837,-0.287557 -0.05323,-0.116582 -0.08005,-0.236263 -0.08005,-0.359057 0,-0.185748 0.04663,-0.338852 0.139504,-0.459703 0.09481,-0.122407 0.221496,-0.222275 0.379653,-0.299604 0.158157,-0.07733 0.367607,-0.157379 0.628741,-0.240149 0.148441,-0.04741 0.259966,-0.08316 0.335353,-0.106867 0.07695,-0.02565 0.134453,-0.04546 0.171757,-0.05907 0.03731,-0.01361 0.07695,-0.03187 0.118909,-0.05362 0,-0.146111 -0.02992,-0.260745 -0.08899,-0.343902 -0.05945,-0.08316 -0.188078,-0.124739 -0.385482,-0.124739 -0.233542,0 -0.449987,0.05168 -0.649724,0.154271 -0.199736,0.102976 -0.382373,0.235486 -0.54869,0.397529 v -0.818373 c 0.13251,-0.09481 0.275512,-0.172145 0.429782,-0.2316 0.154271,-0.06101 0.315535,-0.106473 0.483407,-0.136396 0.16826,-0.02954 0.338074,-0.0443 0.51022,-0.0443 0.437164,0 0.765136,0.0851 0.984689,0.254916 0.221497,0.16826 0.331856,0.400637 0.332245,0.696743 v 1.165774 c 0,0.110745 0.0097,0.193907 0.02953,0.249086 0.02176,0.05362 0.06024,0.08005 0.115806,0.08005 0.06723,0 0.158157,-0.02837 0.272791,-0.08588 v 0.560737 z m -1.485972,-0.578613 v -0.715007 c -0.252974,0.102976 -0.437943,0.19585 -0.55452,0.279009 -0.116582,0.08082 -0.175255,0.191964 -0.175255,0.331856 0,0.101031 0.02875,0.177975 0.08627,0.231601 0.05907,0.05324 0.127459,0.08005 0.204399,0.08005 0.07306,0 0.145334,-0.01981 0.216446,-0.05945 0.07345,-0.04119 0.147275,-0.09054 0.222662,-0.148054 z"
     id="path17"
     inkscape:connector-curvature="0"
     style="fill:#ffffff;fill-rule:evenodd" />
  <path
     clip-rule="evenodd"
     d="m 31.618493,38.326155 h -1.067847 v -1.566021 -0.06217 c 0,-0.165928 -0.0276,-0.310484 -0.08277,-0.432889 -0.05363,-0.12435 -0.172146,-0.186914 -0.35595,-0.186914 -0.08704,0 -0.163986,0.01671 -0.231212,0.05052 -0.06528,0.03187 -0.124737,0.07305 -0.177974,0.124348 -0.0513,0.05168 -0.09521,0.10103 -0.130567,0.148443 -0.03574,0.04741 -0.07228,0.09793 -0.109588,0.151161 v 1.773529 h -1.067848 v -3.019351 h 1.067848 v 0.43289 c 0.167871,-0.179917 0.33613,-0.305433 0.504002,-0.376544 0.170203,-0.07305 0.358669,-0.109588 0.566565,-0.109588 0.723557,0 1.085334,0.43289 1.085334,1.299059 v 1.773529 z m -0.456594,-4.368928 c 0,0.201679 -0.02875,0.373825 -0.08587,0.51605 -0.05712,0.142224 -0.138338,0.250252 -0.243259,0.323307 -0.104921,0.07306 -0.227325,0.109588 -0.367606,0.109588 -0.06334,0 -0.131344,-0.0097 -0.204398,-0.02953 -0.0715,-0.01981 -0.172146,-0.05324 -0.302714,-0.10103 -0.130566,-0.04741 -0.224605,-0.08005 -0.281728,-0.09793 -0.05557,-0.01749 -0.104921,-0.02642 -0.148053,-0.02642 -0.138339,0 -0.219553,0.0851 -0.243258,0.254914 h -0.472138 c 0,-0.215667 0.03575,-0.393642 0.106867,-0.533923 0.07111,-0.142225 0.161266,-0.247144 0.270071,-0.314371 0.1088,-0.06723 0.213336,-0.100648 0.31437,-0.10103 0.108801,0 0.280951,0.04236 0.516049,0.127457 0.07927,0.02759 0.144555,0.0513 0.19585,0.07111 0.0513,0.01981 0.09753,0.03575 0.139503,0.04741 0.04353,0.01207 0.07616,0.01788 0.09753,0.01788 0.075,0 0.131344,-0.02681 0.169038,-0.08005 0.03964,-0.05518 0.05907,-0.116582 0.05945,-0.183803 h 0.480298 z"
     id="path19"
     inkscape:connector-curvature="0"
     style="fill:#ffffff;fill-rule:evenodd" />
  <path
     clip-rule="evenodd"
     d="m 35.080061,38.174994 c -0.156214,0.06139 -0.300381,0.110745 -0.432891,0.148052 -0.132509,0.03731 -0.291443,0.05635 -0.477578,0.05635 -0.176031,0 -0.298827,-0.0307 -0.367996,-0.09171 -0.06916,-0.06334 -0.118515,-0.139504 -0.148053,-0.228491 -0.114637,0.09288 -0.242481,0.170203 -0.382762,0.231211 -0.14028,0.05945 -0.324084,0.08899 -0.55141,0.08899 -0.219554,0 -0.397529,-0.03769 -0.533925,-0.112691 -0.134452,-0.07695 -0.229268,-0.172923 -0.284447,-0.287557 -0.05323,-0.116582 -0.08005,-0.236263 -0.08005,-0.359057 0,-0.185748 0.04663,-0.338852 0.139505,-0.459703 0.09481,-0.122407 0.221496,-0.222275 0.379652,-0.299604 0.158157,-0.07733 0.367607,-0.157379 0.62874,-0.240149 0.148443,-0.04741 0.259968,-0.08316 0.334965,-0.106867 0.07733,-0.02565 0.134453,-0.04546 0.172146,-0.05907 0.03769,-0.01361 0.07695,-0.03187 0.118516,-0.05362 0,-0.146111 -0.02953,-0.260745 -0.08899,-0.343902 -0.05907,-0.08316 -0.187688,-0.124739 -0.385482,-0.124739 -0.233543,0 -0.449988,0.05168 -0.649335,0.154271 -0.199735,0.102976 -0.382373,0.235486 -0.54869,0.397529 v -0.818373 c 0.132509,-0.09481 0.2759,-0.172145 0.430169,-0.2316 0.154271,-0.06101 0.315537,-0.106473 0.483407,-0.136396 0.167872,-0.02954 0.338075,-0.0443 0.510221,-0.0443 0.437164,0 0.765135,0.0851 0.984689,0.254916 0.221496,0.16826 0.331857,0.400637 0.332246,0.696743 v 1.165774 c 0,0.110745 0.0097,0.193907 0.02953,0.249086 0.02176,0.05362 0.06024,0.08005 0.115806,0.08005 0.06723,0 0.158157,-0.02837 0.272791,-0.08588 v 0.560753 z m -1.485972,-0.578613 v -0.715007 c -0.252972,0.102976 -0.437942,0.19585 -0.55452,0.279009 -0.116582,0.08082 -0.174865,0.191964 -0.174865,0.331856 0,0.101031 0.02875,0.177975 0.08588,0.231601 0.05945,0.05324 0.127458,0.08005 0.204787,0.08005 0.07306,0 0.145333,-0.01981 0.216445,-0.05945 0.07306,-0.04119 0.147277,-0.09054 0.222275,-0.148054 z"
     id="path21"
     inkscape:connector-curvature="0"
     style="fill:#ffffff;fill-rule:evenodd" />
  <path
     d="m 41.316944,10.577269 0.410353,2.494753 -1.452554,2.77959 c 0,0 -0.558015,-1.178985 -1.484416,-1.831818 -0.780679,-0.550244 -1.289345,-0.669542 -2.084402,-0.505556 -1.021217,0.210616 -2.179218,1.431957 -2.684386,2.937358 -0.604648,1.801508 -0.610477,2.673117 -0.63146,3.474003 -0.03381,1.283905 0.168648,2.042434 0.168648,2.042434 0,0 -0.882101,-1.631693 -0.873941,-4.021527 0.0058,-1.705526 0.273569,-3.252894 1.063185,-4.779279 0.694412,-1.342193 1.726509,-2.147353 2.642417,-2.242169 0.946998,-0.09793 1.695423,0.358668 2.274036,0.852567 0.606978,0.51838 1.22134,1.652677 1.22134,1.652677 l 1.43118,-2.853033 z"
     id="path23"
     inkscape:connector-curvature="0"
     style="fill:#ffffff" />
  <path
     d="m 41.495696,24.694386 c 0,0 -0.642341,1.147509 -1.042201,1.589726 -0.400248,0.442217 -1.116033,1.221341 -2.000077,1.611098 -0.884044,0.388979 -1.347633,0.462812 -2.221185,0.378876 -0.872775,-0.08394 -1.684154,-0.589492 -1.968602,-0.800498 -0.28406,-0.210227 -1.010725,-0.831584 -1.421077,-1.410195 -0.410741,-0.579001 -1.052693,-1.737391 -1.052693,-1.737391 0,0 0.357893,1.160333 0.581722,1.653066 0.129011,0.283283 0.524985,1.150229 1.086888,1.904873 0.524208,0.704515 1.542317,1.91653 3.089686,2.18971 1.547368,0.273955 2.610943,-0.420845 2.874018,-0.589494 0.263076,-0.168259 0.817596,-0.632625 1.168492,-1.008004 0.366442,-0.392088 0.713065,-0.892204 0.905418,-1.191809 0.140282,-0.219165 0.368384,-0.663323 0.368384,-0.663323 l -0.368773,-1.926635 z"
     id="path25"
     inkscape:connector-curvature="0"
     style="fill:#ffffff" />
  <path
     d="m 14.774632,10.687628 3.498484,11.895155 3.498483,-11.895155 h 2.533225 L 18.51443,30.230641 h -0.241314 l -3.618947,-12.1116 -3.619725,12.1116 H 10.793129 L 5.0027365,10.687628 h 2.5332236 l 3.4984839,11.895155 2.364576,-8.010412 -1.158,-3.884743 h 2.533612 z"
     id="path27"
     inkscape:connector-curvature="0"
     style="fill:#ffffff" />
  <path
     d="m 31.498418,23.958007 c 0,1.769643 -0.470584,3.257558 -1.411361,4.463743 -0.941168,1.206187 -2.159789,1.808891 -3.655476,1.808891 -1.126135,0 -2.107328,-0.357892 -2.943965,-1.073677 -0.836246,-0.715785 -1.455661,-1.684542 -1.857852,-2.907048 l 1.978316,-0.819927 c 0.289889,0.739877 0.671874,1.323152 1.146344,1.749047 0.474469,0.426285 1.033263,0.639233 1.676769,0.639233 0.675371,0 1.246599,-0.377711 1.713297,-1.13352 0.466698,-0.755809 0.699853,-1.664723 0.699853,-2.726742 0,-1.174322 -0.249476,-2.083236 -0.748038,-2.726354 -0.579389,-0.755809 -1.488303,-1.133908 -2.726743,-1.133908 h -0.964871 v -1.158001 l 3.378022,-5.838967 h -4.077485 l -1.133908,1.930131 h -0.723557 v -4.34328 h 9.40934 v 1.182093 l -3.571149,6.152559 c 1.254758,0.402581 2.203697,1.134297 2.846816,2.196316 0.643506,1.061243 0.965648,2.307454 0.965648,3.739411 z"
     id="path29"
     inkscape:connector-curvature="0"
     style="fill:#ffffff" />
  <path
     clip-rule="evenodd"
     d="m 43.911177,10.466132 c -0.336519,0 -0.638066,0.12163 -0.866946,0.353618 -0.242869,0.246366 -0.377711,0.565399 -0.377711,0.894535 0,0.329137 0.128236,0.634569 0.36411,0.87394 0.239373,0.24287 0.547914,0.374213 0.880937,0.374213 0.326027,0 0.641174,-0.131732 0.887541,-0.371103 0.235485,-0.228881 0.36411,-0.533924 0.36411,-0.87705 0,-0.333022 -0.131733,-0.645061 -0.360613,-0.877437 -0.239761,-0.242482 -0.551799,-0.370716 -0.891428,-0.370716 z m 1.085335,1.258644 c 0,0.287946 -0.11114,0.554908 -0.315925,0.752701 -0.214891,0.207897 -0.481853,0.319034 -0.776793,0.319034 -0.277454,0 -0.551021,-0.114243 -0.75581,-0.322531 -0.204787,-0.208285 -0.319032,-0.475247 -0.319032,-0.759307 0,-0.284448 0.118134,-0.561901 0.329524,-0.776792 0.197794,-0.20129 0.464755,-0.308542 0.755811,-0.308542 0.298436,0 0.565398,0.11114 0.773294,0.322531 0.201291,0.200902 0.308931,0.47136 0.308931,0.772906 z m -1.05075,-0.741819 h -0.533924 v 1.41486 H 43.6788 v -0.603483 h 0.263465 l 0.287946,0.603483 h 0.298049 l -0.315537,-0.645061 c 0.2044,-0.04158 0.322531,-0.180307 0.322531,-0.381597 0,-0.256469 -0.194295,-0.388202 -0.589492,-0.388202 z m -0.04858,0.173312 c 0.249476,0 0.36411,0.06916 0.36411,0.242869 0,0.166317 -0.114637,0.225382 -0.357115,0.225382 h -0.225383 v -0.468251 h 0.218388 z"
     id="path31"
     inkscape:connector-curvature="0"
     style="fill:#ffffff;fill-rule:evenodd" />
  <path
     style="fill:#005a9c;fill-opacity:1;fill-rule:nonzero;stroke:#005a9c;stroke-opacity:1"
     d="m 0.29088301,49.843969 0,-49.39772786 24.80408799,0 24.804087,0 0,49.36237286 c 0,39.342763 -0.141426,49.276945 -0.696744,48.941516 C 48.819105,98.518654 43.489013,94.325939 37.357665,89.432984 31.226318,84.540029 25.929099,80.321696 25.586067,80.058906 25.184623,79.751375 20.814871,82.891332 13.323372,88.870472 6.9219214,93.979612 1.3708363,98.403246 0.98762704,98.700761 0.4314039,99.132597 0.29088301,89.279054 0.29088301,49.843969 z m 49.05077999,-24.59364 0,-18.1153452 -24.246692,0 -24.24669277,0 0,18.1153452 0,18.115344 24.24669277,0 24.246692,0 0,-18.115344 z"
     id="path3016"
     inkscape:connector-curvature="0" />
</svg>
