<?xml version="1.0" ?>
<!--Created by PyChart 1.35 Copyright 1999-2003 Yasushi Saito-->
<svg viewBox="294 -806 646.054 512" xmlns="http://www.w3.org/2000/svg" xmlns:xlink="http://www.w3.org/1999/xlink">
  <defs>
    <clipPath id="clip0">
      <path d="M 297 -297 L 297 -803 L 803 -803 L 803 -297 Z"/>
    </clipPath>
    <clipPath id="clip1">
      <path d="M 500.0 -500.0 M 500.0 -500.0 L 662.07386124638174 -382.81611245274121 L 662.074 -382.816 A 200 200 0 0 0 500 -700 Z"/>
    </clipPath>
    <clipPath id="clip2">
      <path d="M 500.0 -500.0 M 500.0 -500.0 L 576.35923965969278 -315.15069240434354 L 576.359 -315.151 A 200 200 0 0 0 662.074 -382.816 Z"/>
    </clipPath>
    <clipPath id="clip3">
      <path d="M 500.0 -500.0 M 500.0 -500.0 L 486.18492973197999 -300.47771093562085 L 486.185 -300.478 A 200 200 0 0 0 576.359 -315.151 Z"/>
    </clipPath>
    <clipPath id="clip4">
      <path d="M 500.0 -500.0 M 500.0 -500.0 L 409.68130478199635 -321.55523741471882 L 409.681 -321.555 A 200 200 0 0 0 486.185 -300.478 Z"/>
    </clipPath>
    <clipPath id="clip5">
      <path d="M 500.0 -500.0 M 500.0 -500.0 L 351.43958367282789 -366.09778679686696 L 351.44 -366.098 A 200 200 0 0 0 409.681 -321.555 Z"/>
    </clipPath>
    <clipPath id="clip6">
      <path d="M 500.0 -500.0 M 500.0 -500.0 L 323.3224105372625 -406.27151243279138 L 323.322 -406.272 A 200 200 0 0 0 351.44 -366.098 Z"/>
    </clipPath>
    <clipPath id="clip7">
      <path d="M 500.0 -500.0 M 500.0 -500.0 L 307.38953603051232 -446.13712624210734 L 307.39 -446.137 A 200 200 0 0 0 323.322 -406.272 Z"/>
    </clipPath>
    <clipPath id="clip8">
      <path d="M 500.0 -500.0 M 500.0 -500.0 L 300.77976977994183 -482.35630789582211 L 300.78 -482.356 A 200 200 0 0 0 307.39 -446.137 Z"/>
    </clipPath>
    <clipPath id="clip9">
      <path d="M 500.0 -500.0 M 500.0 -500.0 L 300.24922386390074 -509.98135426813229 L 300.249 -509.981 A 200 200 0 0 0 300.78 -482.356 Z"/>
    </clipPath>
    <clipPath id="clip10">
      <path d="M 500.0 -500.0 M 500.0 -500.0 L 302.97945552852582 -534.39338680856929 L 302.979 -534.393 A 200 200 0 0 0 300.249 -509.981 Z"/>
    </clipPath>
    <clipPath id="clip11">
      <path d="M 500.0 -500.0 M 500.0 -500.0 L 308.68174948343437 -558.28659382122646 L 308.682 -558.287 A 200 200 0 0 0 302.979 -534.393 Z"/>
    </clipPath>
    <clipPath id="clip12">
      <path d="M 500.0 -500.0 M 500.0 -500.0 L 316.04273301336957 -578.48390868712875 L 316.043 -578.484 A 200 200 0 0 0 308.682 -558.287 Z"/>
    </clipPath>
    <clipPath id="clip13">
      <path d="M 500.0 -500.0 M 500.0 -500.0 L 325.52895464256892 -597.77450757679742 L 325.529 -597.775 A 200 200 0 0 0 316.043 -578.484 Z"/>
    </clipPath>
    <clipPath id="clip14">
      <path d="M 500.0 -500.0 M 500.0 -500.0 L 337.03082109453567 -615.93552832017781 L 337.031 -615.936 A 200 200 0 0 0 325.529 -597.775 Z"/>
    </clipPath>
    <clipPath id="clip15">
      <path d="M 500.0 -500.0 M 500.0 -500.0 L 348.39372666871202 -630.44361957029105 L 348.394 -630.444 A 200 200 0 0 0 337.031 -615.936 Z"/>
    </clipPath>
    <clipPath id="clip16">
      <path d="M 500.0 -500.0 M 500.0 -500.0 L 361.04377077245067 -643.84424339840916 L 361.044 -643.844 A 200 200 0 0 0 348.394 -630.444 Z"/>
    </clipPath>
    <clipPath id="clip17">
      <path d="M 500.0 -500.0 M 500.0 -500.0 L 372.49152982614174 -654.08306212534296 L 372.492 -654.083 A 200 200 0 0 0 361.044 -643.844 Z"/>
    </clipPath>
    <clipPath id="clip18">
      <path d="M 500.0 -500.0 M 500.0 -500.0 L 384.69122098004596 -663.41323532972297 L 384.691 -663.413 A 200 200 0 0 0 372.492 -654.083 Z"/>
    </clipPath>
    <clipPath id="clip19">
      <path d="M 500.0 -500.0 M 500.0 -500.0 L 397.57090125360048 -671.77974190806185 L 397.571 -671.78 A 200 200 0 0 0 384.691 -663.413 Z"/>
    </clipPath>
    <clipPath id="clip20">
      <path d="M 500.0 -500.0 M 500.0 -500.0 L 500.0 -700.0 L 500 -700 A 200 200 0 0 0 397.571 -671.78 Z"/>
    </clipPath>
    <clipPath id="clip21">
      <path d="M 747 -320 L 747 -683 L 937.05399999999997 -683 L 937.05399999999997 -320 Z"/>
    </clipPath>
    <clipPath id="clip22">
      <path d="M 745 -322 L 745 -685 L 935.05399999999997 -685 L 935.05399999999997 -322 Z"/>
    </clipPath>
    <clipPath id="clip23">
      <path d="M 750 -666.70000000000005 L 750 -679.29999999999995 L 762.60000000000002 -679.29999999999995 L 762.60000000000002 -666.70000000000005 Z"/>
    </clipPath>
    <clipPath id="clip24">
      <path d="M 750 -648.70000000000005 L 750 -661.29999999999995 L 762.60000000000002 -661.29999999999995 L 762.60000000000002 -648.70000000000005 Z"/>
    </clipPath>
    <clipPath id="clip25">
      <path d="M 750 -630.70000000000005 L 750 -643.29999999999995 L 762.60000000000002 -643.29999999999995 L 762.60000000000002 -630.70000000000005 Z"/>
    </clipPath>
    <clipPath id="clip26">
      <path d="M 750 -612.70000000000005 L 750 -625.29999999999995 L 762.60000000000002 -625.29999999999995 L 762.60000000000002 -612.70000000000005 Z"/>
    </clipPath>
    <clipPath id="clip27">
      <path d="M 750 -594.70000000000005 L 750 -607.29999999999995 L 762.60000000000002 -607.29999999999995 L 762.60000000000002 -594.70000000000005 Z"/>
    </clipPath>
    <clipPath id="clip28">
      <path d="M 750 -576.70000000000005 L 750 -589.29999999999995 L 762.60000000000002 -589.29999999999995 L 762.60000000000002 -576.70000000000005 Z"/>
    </clipPath>
    <clipPath id="clip29">
      <path d="M 750 -558.70000000000005 L 750 -571.29999999999995 L 762.60000000000002 -571.29999999999995 L 762.60000000000002 -558.70000000000005 Z"/>
    </clipPath>
    <clipPath id="clip30">
      <path d="M 750 -540.70000000000005 L 750 -553.29999999999995 L 762.60000000000002 -553.29999999999995 L 762.60000000000002 -540.70000000000005 Z"/>
    </clipPath>
    <clipPath id="clip31">
      <path d="M 750 -522.70000000000005 L 750 -535.29999999999995 L 762.60000000000002 -535.29999999999995 L 762.60000000000002 -522.70000000000005 Z"/>
    </clipPath>
    <clipPath id="clip32">
      <path d="M 750 -504.69999999999999 L 750 -517.29999999999995 L 762.60000000000002 -517.29999999999995 L 762.60000000000002 -504.69999999999999 Z"/>
    </clipPath>
    <clipPath id="clip33">
      <path d="M 750 -486.69999999999999 L 750 -499.30000000000001 L 762.60000000000002 -499.30000000000001 L 762.60000000000002 -486.69999999999999 Z"/>
    </clipPath>
    <clipPath id="clip34">
      <path d="M 750 -468.69999999999999 L 750 -481.30000000000001 L 762.60000000000002 -481.30000000000001 L 762.60000000000002 -468.69999999999999 Z"/>
    </clipPath>
    <clipPath id="clip35">
      <path d="M 750 -450.69999999999999 L 750 -463.30000000000001 L 762.60000000000002 -463.30000000000001 L 762.60000000000002 -450.69999999999999 Z"/>
    </clipPath>
    <clipPath id="clip36">
      <path d="M 750 -432.69999999999999 L 750 -445.30000000000001 L 762.60000000000002 -445.30000000000001 L 762.60000000000002 -432.69999999999999 Z"/>
    </clipPath>
    <clipPath id="clip37">
      <path d="M 750 -414.69999999999999 L 750 -427.30000000000001 L 762.60000000000002 -427.30000000000001 L 762.60000000000002 -414.69999999999999 Z"/>
    </clipPath>
    <clipPath id="clip38">
      <path d="M 750 -396.69999999999999 L 750 -409.30000000000001 L 762.60000000000002 -409.30000000000001 L 762.60000000000002 -396.69999999999999 Z"/>
    </clipPath>
    <clipPath id="clip39">
      <path d="M 750 -378.69999999999999 L 750 -391.30000000000001 L 762.60000000000002 -391.30000000000001 L 762.60000000000002 -378.69999999999999 Z"/>
    </clipPath>
    <clipPath id="clip40">
      <path d="M 750 -360.69999999999999 L 750 -373.30000000000001 L 762.60000000000002 -373.30000000000001 L 762.60000000000002 -360.69999999999999 Z"/>
    </clipPath>
    <clipPath id="clip41">
      <path d="M 750 -342.69999999999999 L 750 -355.30000000000001 L 762.60000000000002 -355.30000000000001 L 762.60000000000002 -342.69999999999999 Z"/>
    </clipPath>
    <clipPath id="clip42">
      <path d="M 750 -324.69999999999999 L 750 -337.30000000000001 L 762.60000000000002 -337.30000000000001 L 762.60000000000002 -324.69999999999999 Z"/>
    </clipPath>
  </defs>
  <g style="stroke-linejoin:miter;font-size:18;font-family:Helvetica;fill:none;stroke-linecap:butt;stroke:rgb(0,0,0);font-stretch:normal;stroke-dasharray:none;font-weight:normal;font-style:normal;stroke-width:0.4;">
    <g style="clip-path:url(#clip0);">
      <g style="fill:rgb(191,61,255);clip-path:url(#clip1);">
        <path d="M 100.0 -100.0 L 100.0 -900.0 L 900.0 -900.0 L 900.0 -100.0 Z" style="stroke:none;"/>
      </g>
      <g>
        <path d="M 500.0 -500.0 M 500.0 -500.0 L 662.07386124638174 -382.81611245274121 L 662.074 -382.816 A 200 200 0 0 0 500 -700 Z"/>
        <g style="fill:rgb(79,147,205);clip-path:url(#clip2);">
          <path d="M 100.0 -100.0 L 100.0 -900.0 L 900.0 -900.0 L 900.0 -100.0 Z" style="stroke:none;"/>
        </g>
        <g>
          <path d="M 500.0 -500.0 M 500.0 -500.0 L 576.35923965969278 -315.15069240434354 L 576.359 -315.151 A 200 200 0 0 0 662.074 -382.816 Z"/>
          <g style="fill:rgb(214,214,214);clip-path:url(#clip3);">
            <path d="M 100.0 -100.0 L 100.0 -900.0 L 900.0 -900.0 L 900.0 -100.0 Z" style="stroke:none;"/>
          </g>
          <g>
            <path d="M 500.0 -500.0 M 500.0 -500.0 L 486.18492973197999 -300.47771093562085 L 486.185 -300.478 A 200 200 0 0 0 576.359 -315.151 Z"/>
            <g style="fill:rgb(38,38,38);clip-path:url(#clip4);">
              <path d="M 100.0 -100.0 L 100.0 -900.0 L 900.0 -900.0 L 900.0 -100.0 Z" style="stroke:none;"/>
            </g>
            <g>
              <path d="M 500.0 -500.0 M 500.0 -500.0 L 409.68130478199635 -321.55523741471882 L 409.681 -321.555 A 200 200 0 0 0 486.185 -300.478 Z"/>
              <g style="fill:rgb(237,232,191);clip-path:url(#clip5);">
                <path d="M 100.0 -100.0 L 100.0 -900.0 L 900.0 -900.0 L 900.0 -100.0 Z" style="stroke:none;"/>
              </g>
              <g>
                <path d="M 500.0 -500.0 M 500.0 -500.0 L 351.43958367282789 -366.09778679686696 L 351.44 -366.098 A 200 200 0 0 0 409.681 -321.555 Z"/>
                <g style="fill:rgb(255,68,0);clip-path:url(#clip6);">
                  <path d="M 100.0 -100.0 L 100.0 -900.0 L 900.0 -900.0 L 900.0 -100.0 Z" style="stroke:none;"/>
                </g>
                <g>
                  <path d="M 500.0 -500.0 M 500.0 -500.0 L 323.3224105372625 -406.27151243279138 L 323.322 -406.272 A 200 200 0 0 0 351.44 -366.098 Z"/>
                  <g style="fill:rgb(138,61,47);clip-path:url(#clip7);">
                    <path d="M 100.0 -100.0 L 100.0 -900.0 L 900.0 -900.0 L 900.0 -100.0 Z" style="stroke:none;"/>
                  </g>
                  <g>
                    <path d="M 500.0 -500.0 M 500.0 -500.0 L 307.38953603051232 -446.13712624210734 L 307.39 -446.137 A 200 200 0 0 0 323.322 -406.272 Z"/>
                    <g style="fill:rgb(105,138,105);clip-path:url(#clip8);">
                      <path d="M 100.0 -100.0 L 100.0 -900.0 L 900.0 -900.0 L 900.0 -100.0 Z" style="stroke:none;"/>
                    </g>
                    <g>
                      <path d="M 500.0 -500.0 M 500.0 -500.0 L 300.77976977994183 -482.35630789582211 L 300.78 -482.356 A 200 200 0 0 0 307.39 -446.137 Z"/>
                      <g style="fill:rgb(124,251,0);clip-path:url(#clip9);">
                        <path d="M 100.0 -100.0 L 100.0 -900.0 L 900.0 -900.0 L 900.0 -100.0 Z" style="stroke:none;"/>
                      </g>
                      <g>
                        <path d="M 500.0 -500.0 M 500.0 -500.0 L 300.24922386390074 -509.98135426813229 L 300.249 -509.981 A 200 200 0 0 0 300.78 -482.356 Z"/>
                        <g style="fill:rgb(0,228,237);clip-path:url(#clip10);">
                          <path d="M 100.0 -100.0 L 100.0 -900.0 L 900.0 -900.0 L 900.0 -100.0 Z" style="stroke:none;"/>
                        </g>
                        <g>
                          <path d="M 500.0 -500.0 M 500.0 -500.0 L 302.97945552852582 -534.39338680856929 L 302.979 -534.393 A 200 200 0 0 0 300.249 -509.981 Z"/>
                          <g style="fill:rgb(244,221,179);clip-path:url(#clip11);">
                            <path d="M 100.0 -100.0 L 100.0 -900.0 L 900.0 -900.0 L 900.0 -100.0 Z" style="stroke:none;"/>
                          </g>
                          <g>
                            <path d="M 500.0 -500.0 M 500.0 -500.0 L 308.68174948343437 -558.28659382122646 L 308.682 -558.287 A 200 200 0 0 0 302.979 -534.393 Z"/>
                            <g style="fill:rgb(205,40,144);clip-path:url(#clip12);">
                              <path d="M 100.0 -100.0 L 100.0 -900.0 L 900.0 -900.0 L 900.0 -100.0 Z" style="stroke:none;"/>
                            </g>
                            <g>
                              <path d="M 500.0 -500.0 M 500.0 -500.0 L 316.04273301336957 -578.48390868712875 L 316.043 -578.484 A 200 200 0 0 0 308.682 -558.287 Z"/>
                              <g style="fill:rgb(205,200,177);clip-path:url(#clip13);">
                                <path d="M 100.0 -100.0 L 100.0 -900.0 L 900.0 -900.0 L 900.0 -100.0 Z" style="stroke:none;"/>
                              </g>
                              <g>
                                <path d="M 500.0 -500.0 M 500.0 -500.0 L 325.52895464256892 -597.77450757679742 L 325.529 -597.775 A 200 200 0 0 0 316.043 -578.484 Z"/>
                                <g style="fill:rgb(0,0,138);clip-path:url(#clip14);">
                                  <path d="M 100.0 -100.0 L 100.0 -900.0 L 900.0 -900.0 L 900.0 -100.0 Z" style="stroke:none;"/>
                                </g>
                                <g>
                                  <path d="M 500.0 -500.0 M 500.0 -500.0 L 337.03082109453567 -615.93552832017781 L 337.031 -615.936 A 200 200 0 0 0 325.529 -597.775 Z"/>
                                  <g style="fill:rgb(0,138,138);clip-path:url(#clip15);">
                                    <path d="M 100.0 -100.0 L 100.0 -900.0 L 900.0 -900.0 L 900.0 -100.0 Z" style="stroke:none;"/>
                                  </g>
                                  <g>
                                    <path d="M 500.0 -500.0 M 500.0 -500.0 L 348.39372666871202 -630.44361957029105 L 348.394 -630.444 A 200 200 0 0 0 337.031 -615.936 Z"/>
                                    <g style="fill:rgb(0,196,205);clip-path:url(#clip16);">
                                      <path d="M 100.0 -100.0 L 100.0 -900.0 L 900.0 -900.0 L 900.0 -100.0 Z" style="stroke:none;"/>
                                    </g>
                                    <g>
                                      <path d="M 500.0 -500.0 M 500.0 -500.0 L 361.04377077245067 -643.84424339840916 L 361.044 -643.844 A 200 200 0 0 0 348.394 -630.444 Z"/>
                                      <g style="fill:rgb(223,237,223);clip-path:url(#clip17);">
                                        <path d="M 100.0 -100.0 L 100.0 -900.0 L 900.0 -900.0 L 900.0 -100.0 Z" style="stroke:none;"/>
                                      </g>
                                      <g>
                                        <path d="M 500.0 -500.0 M 500.0 -500.0 L 372.49152982614174 -654.08306212534296 L 372.492 -654.083 A 200 200 0 0 0 361.044 -643.844 Z"/>
                                        <g style="fill:rgb(237,207,161);clip-path:url(#clip18);">
                                          <path d="M 100.0 -100.0 L 100.0 -900.0 L 900.0 -900.0 L 900.0 -100.0 Z" style="stroke:none;"/>
                                        </g>
                                        <g>
                                          <path d="M 500.0 -500.0 M 500.0 -500.0 L 384.69122098004596 -663.41323532972297 L 384.691 -663.413 A 200 200 0 0 0 372.492 -654.083 Z"/>
                                          <g style="fill:rgb(138,124,107);clip-path:url(#clip19);">
                                            <path d="M 100.0 -100.0 L 100.0 -900.0 L 900.0 -900.0 L 900.0 -100.0 Z" style="stroke:none;"/>
                                          </g>
                                          <g>
                                            <path d="M 500.0 -500.0 M 500.0 -500.0 L 397.57090125360048 -671.77974190806185 L 397.571 -671.78 A 200 200 0 0 0 384.691 -663.413 Z"/>
                                            <g style="fill:rgb(135,205,249);clip-path:url(#clip20);">
                                              <path d="M 100.0 -100.0 L 100.0 -900.0 L 900.0 -900.0 L 900.0 -100.0 Z" style="stroke:none;"/>
                                            </g>
                                            <g>
                                              <path d="M 500.0 -500.0 M 500.0 -500.0 L 500.0 -700.0 L 500 -700 A 200 200 0 0 0 397.571 -671.78 Z"/>
                                            </g>
                                          </g>
                                        </g>
                                      </g>
                                    </g>
                                  </g>
                                </g>
                              </g>
                            </g>
                          </g>
                        </g>
                      </g>
                    </g>
                  </g>
                </g>
              </g>
            </g>
          </g>
        </g>
      </g>
    </g>
    <g style="fill:rgb(126,126,126);clip-path:url(#clip21);">
      <path d="M 747 -320 L 747 -683 L 937.05399999999997 -683 L 937.05399999999997 -320 Z" style="stroke:none;"/>
    </g>
    <g style="fill:rgb(255,255,255);clip-path:url(#clip22);">
      <path d="M 745 -322 L 745 -685 L 935.05399999999997 -685 L 935.05399999999997 -322 Z" style="stroke:none;"/>
    </g>
    <g>
      <path d="M 745 -322 L 745 -685 L 935.05399999999997 -685 L 935.05399999999997 -322 Z"/>
      <g style="fill:rgb(191,61,255);clip-path:url(#clip23);">
        <path d="M 750 -666.70000000000005 L 750 -679.29999999999995 L 762.60000000000002 -679.29999999999995 L 762.60000000000002 -666.70000000000005 Z" style="stroke:none;"/>
      </g>
      <g>
        <path d="M 750 -666.70000000000005 L 750 -679.29999999999995 L 762.60000000000002 -679.29999999999995 L 762.60000000000002 -666.70000000000005 Z"/>
        <text style="stroke:none;fill:rgb(0,0,0);" x="768.0" y="-667.0">
          EEUU (35.0%)
        </text>
        <g style="fill:rgb(79,147,205);clip-path:url(#clip24);">
          <path d="M 750 -648.70000000000005 L 750 -661.29999999999995 L 762.60000000000002 -661.29999999999995 L 762.60000000000002 -648.70000000000005 Z" style="stroke:none;"/>
        </g>
        <g>
          <path d="M 750 -648.70000000000005 L 750 -661.29999999999995 L 762.60000000000002 -661.29999999999995 L 762.60000000000002 -648.70000000000005 Z"/>
          <text style="stroke:none;fill:rgb(0,0,0);" x="768.0" y="-649.0">
            Reino Unido (8.8%)
          </text>
          <g style="fill:rgb(214,214,214);clip-path:url(#clip25);">
            <path d="M 750 -630.70000000000005 L 750 -643.29999999999995 L 762.60000000000002 -643.29999999999995 L 762.60000000000002 -630.70000000000005 Z" style="stroke:none;"/>
          </g>
          <g>
            <path d="M 750 -630.70000000000005 L 750 -643.29999999999995 L 762.60000000000002 -643.29999999999995 L 762.60000000000002 -630.70000000000005 Z"/>
            <text style="stroke:none;fill:rgb(0,0,0);" x="768.0" y="-631.0">
              Japón (7.3%)
            </text>
            <g style="fill:rgb(38,38,38);clip-path:url(#clip26);">
              <path d="M 750 -612.70000000000005 L 750 -625.29999999999995 L 762.60000000000002 -625.29999999999995 L 762.60000000000002 -612.70000000000005 Z" style="stroke:none;"/>
            </g>
            <g>
              <path d="M 750 -612.70000000000005 L 750 -625.29999999999995 L 762.60000000000002 -625.29999999999995 L 762.60000000000002 -612.70000000000005 Z"/>
              <text style="stroke:none;fill:rgb(0,0,0);" x="768.0" y="-613.0">
                Alemania (6.4%)
              </text>
              <g style="fill:rgb(237,232,191);clip-path:url(#clip27);">
                <path d="M 750 -594.70000000000005 L 750 -607.29999999999995 L 762.60000000000002 -607.29999999999995 L 762.60000000000002 -594.70000000000005 Z" style="stroke:none;"/>
              </g>
              <g>
                <path d="M 750 -594.70000000000005 L 750 -607.29999999999995 L 762.60000000000002 -607.29999999999995 L 762.60000000000002 -594.70000000000005 Z"/>
                <text style="stroke:none;fill:rgb(0,0,0);" x="768.0" y="-595.0">
                  España (5.9%)
                </text>
                <g style="fill:rgb(255,68,0);clip-path:url(#clip28);">
                  <path d="M 750 -576.70000000000005 L 750 -589.29999999999995 L 762.60000000000002 -589.29999999999995 L 762.60000000000002 -576.70000000000005 Z" style="stroke:none;"/>
                </g>
                <g>
                  <path d="M 750 -576.70000000000005 L 750 -589.29999999999995 L 762.60000000000002 -589.29999999999995 L 762.60000000000002 -576.70000000000005 Z"/>
                  <text style="stroke:none;fill:rgb(0,0,0);" x="768.0" y="-577.0">
                    Italia (3.9%)
                  </text>
                  <g style="fill:rgb(138,61,47);clip-path:url(#clip29);">
                    <path d="M 750 -558.70000000000005 L 750 -571.29999999999995 L 762.60000000000002 -571.29999999999995 L 762.60000000000002 -558.70000000000005 Z" style="stroke:none;"/>
                  </g>
                  <g>
                    <path d="M 750 -558.70000000000005 L 750 -571.29999999999995 L 762.60000000000002 -571.29999999999995 L 762.60000000000002 -558.70000000000005 Z"/>
                    <text style="stroke:none;fill:rgb(0,0,0);" x="768.0" y="-559.0">
                      Francia (3.4%)
                    </text>
                    <g style="fill:rgb(105,138,105);clip-path:url(#clip30);">
                      <path d="M 750 -540.70000000000005 L 750 -553.29999999999995 L 762.60000000000002 -553.29999999999995 L 762.60000000000002 -540.70000000000005 Z" style="stroke:none;"/>
                    </g>
                    <g>
                      <path d="M 750 -540.70000000000005 L 750 -553.29999999999995 L 762.60000000000002 -553.29999999999995 L 762.60000000000002 -540.70000000000005 Z"/>
                      <text style="stroke:none;fill:rgb(0,0,0);" x="768.0" y="-541.0">
                        India (2.9%)
                      </text>
                      <g style="fill:rgb(124,251,0);clip-path:url(#clip31);">
                        <path d="M 750 -522.70000000000005 L 750 -535.29999999999995 L 762.60000000000002 -535.29999999999995 L 762.60000000000002 -522.70000000000005 Z" style="stroke:none;"/>
                      </g>
                      <g>
                        <path d="M 750 -522.70000000000005 L 750 -535.29999999999995 L 762.60000000000002 -535.29999999999995 L 762.60000000000002 -522.70000000000005 Z"/>
                        <text style="stroke:none;fill:rgb(0,0,0);" x="768.0" y="-523.0">
                          Irlanda (2.2%)
                        </text>
                        <g style="fill:rgb(0,228,237);clip-path:url(#clip32);">
                          <path d="M 750 -504.69999999999999 L 750 -517.29999999999995 L 762.60000000000002 -517.29999999999995 L 762.60000000000002 -504.69999999999999 Z" style="stroke:none;"/>
                        </g>
                        <g>
                          <path d="M 750 -504.69999999999999 L 750 -517.29999999999995 L 762.60000000000002 -517.29999999999995 L 762.60000000000002 -504.69999999999999 Z"/>
                          <text style="stroke:none;fill:rgb(0,0,0);" x="768.0" y="-505.0">
                            Holanda (2.0%)
                          </text>
                          <g style="fill:rgb(244,221,179);clip-path:url(#clip33);">
                            <path d="M 750 -486.69999999999999 L 750 -499.30000000000001 L 762.60000000000002 -499.30000000000001 L 762.60000000000002 -486.69999999999999 Z" style="stroke:none;"/>
                          </g>
                          <g>
                            <path d="M 750 -486.69999999999999 L 750 -499.30000000000001 L 762.60000000000002 -499.30000000000001 L 762.60000000000002 -486.69999999999999 Z"/>
                            <text style="stroke:none;fill:rgb(0,0,0);" x="768.0" y="-487.0">
                              Suiza (2.0%)
                            </text>
                            <g style="fill:rgb(205,40,144);clip-path:url(#clip34);">
                              <path d="M 750 -468.69999999999999 L 750 -481.30000000000001 L 762.60000000000002 -481.30000000000001 L 762.60000000000002 -468.69999999999999 Z" style="stroke:none;"/>
                            </g>
                            <g>
                              <path d="M 750 -468.69999999999999 L 750 -481.30000000000001 L 762.60000000000002 -481.30000000000001 L 762.60000000000002 -468.69999999999999 Z"/>
                              <text style="stroke:none;fill:rgb(0,0,0);" x="768.0" y="-469.0">
                                Australia (1.7%)
                              </text>
                              <g style="fill:rgb(205,200,177);clip-path:url(#clip35);">
                                <path d="M 750 -450.69999999999999 L 750 -463.30000000000001 L 762.60000000000002 -463.30000000000001 L 762.60000000000002 -450.69999999999999 Z" style="stroke:none;"/>
                              </g>
                              <g>
                                <path d="M 750 -450.69999999999999 L 750 -463.30000000000001 L 762.60000000000002 -463.30000000000001 L 762.60000000000002 -450.69999999999999 Z"/>
                                <text style="stroke:none;fill:rgb(0,0,0);" x="768.0" y="-451.0">
                                  China (1.7%)
                                </text>
                                <g style="fill:rgb(0,0,138);clip-path:url(#clip36);">
                                  <path d="M 750 -432.69999999999999 L 750 -445.30000000000001 L 762.60000000000002 -445.30000000000001 L 762.60000000000002 -432.69999999999999 Z" style="stroke:none;"/>
                                </g>
                                <g>
                                  <path d="M 750 -432.69999999999999 L 750 -445.30000000000001 L 762.60000000000002 -445.30000000000001 L 762.60000000000002 -432.69999999999999 Z"/>
                                  <text style="stroke:none;fill:rgb(0,0,0);" x="768.0" y="-433.0">
                                    Grecia (1.7%)
                                  </text>
                                  <g style="fill:rgb(0,138,138);clip-path:url(#clip37);">
                                    <path d="M 750 -414.69999999999999 L 750 -427.30000000000001 L 762.60000000000002 -427.30000000000001 L 762.60000000000002 -414.69999999999999 Z" style="stroke:none;"/>
                                  </g>
                                  <g>
                                    <path d="M 750 -414.69999999999999 L 750 -427.30000000000001 L 762.60000000000002 -427.30000000000001 L 762.60000000000002 -414.69999999999999 Z"/>
                                    <text style="stroke:none;fill:rgb(0,0,0);" x="768.0" y="-415.0">
                                      Suecia (1.5%)
                                    </text>
                                    <g style="fill:rgb(0,196,205);clip-path:url(#clip38);">
                                      <path d="M 750 -396.69999999999999 L 750 -409.30000000000001 L 762.60000000000002 -409.30000000000001 L 762.60000000000002 -396.69999999999999 Z" style="stroke:none;"/>
                                    </g>
                                    <g>
                                      <path d="M 750 -396.69999999999999 L 750 -409.30000000000001 L 762.60000000000002 -409.30000000000001 L 762.60000000000002 -396.69999999999999 Z"/>
                                      <text style="stroke:none;fill:rgb(0,0,0);" x="768.0" y="-397.0">
                                        Corea (1.5%)
                                      </text>
                                      <g style="fill:rgb(223,237,223);clip-path:url(#clip39);">
                                        <path d="M 750 -378.69999999999999 L 750 -391.30000000000001 L 762.60000000000002 -391.30000000000001 L 762.60000000000002 -378.69999999999999 Z" style="stroke:none;"/>
                                      </g>
                                      <g>
                                        <path d="M 750 -378.69999999999999 L 750 -391.30000000000001 L 762.60000000000002 -391.30000000000001 L 762.60000000000002 -378.69999999999999 Z"/>
                                        <text style="stroke:none;fill:rgb(0,0,0);" x="768.0" y="-379.0">
                                          Canada (1.2%)
                                        </text>
                                        <g style="fill:rgb(237,207,161);clip-path:url(#clip40);">
                                          <path d="M 750 -360.69999999999999 L 750 -373.30000000000001 L 762.60000000000002 -373.30000000000001 L 762.60000000000002 -360.69999999999999 Z" style="stroke:none;"/>
                                        </g>
                                        <g>
                                          <path d="M 750 -360.69999999999999 L 750 -373.30000000000001 L 762.60000000000002 -373.30000000000001 L 762.60000000000002 -360.69999999999999 Z"/>
                                          <text style="stroke:none;fill:rgb(0,0,0);" x="768.0" y="-361.0">
                                            Belgica (1.2%)
                                          </text>
                                          <g style="fill:rgb(138,124,107);clip-path:url(#clip41);">
                                            <path d="M 750 -342.69999999999999 L 750 -355.30000000000001 L 762.60000000000002 -355.30000000000001 L 762.60000000000002 -342.69999999999999 Z" style="stroke:none;"/>
                                          </g>
                                          <g>
                                            <path d="M 750 -342.69999999999999 L 750 -355.30000000000001 L 762.60000000000002 -355.30000000000001 L 762.60000000000002 -342.69999999999999 Z"/>
                                            <text style="stroke:none;fill:rgb(0,0,0);" x="768.0" y="-343.0">
                                              Finlandia (1.2%)
                                            </text>
                                            <g style="fill:rgb(135,205,249);clip-path:url(#clip42);">
                                              <path d="M 750 -324.69999999999999 L 750 -337.30000000000001 L 762.60000000000002 -337.30000000000001 L 762.60000000000002 -324.69999999999999 Z" style="stroke:none;"/>
                                            </g>
                                            <g>
                                              <path d="M 750 -324.69999999999999 L 750 -337.30000000000001 L 762.60000000000002 -337.30000000000001 L 762.60000000000002 -324.69999999999999 Z"/>
                                              <text style="stroke:none;fill:rgb(0,0,0);" x="768.0" y="-325.0">
                                                Otros (8.6%)
                                              </text>
                                            </g>
                                          </g>
                                        </g>
                                      </g>
                                    </g>
                                  </g>
                                </g>
                              </g>
                            </g>
                          </g>
                        </g>
                      </g>
                    </g>
                  </g>
                </g>
              </g>
            </g>
          </g>
        </g>
      </g>
    </g>
  </g>
</svg>
