<?xml version="1.0" encoding="UTF-8"?>
<svg xmlns="http://www.w3.org/2000/svg" xmlns:xlink="http://www.w3.org/1999/xlink" fill-opacity="1" color-rendering="auto" color-interpolation="auto" stroke="black" text-rendering="auto" stroke-linecap="square" width="916" stroke-miterlimit="10" stroke-opacity="1" shape-rendering="auto" fill="black" stroke-dasharray="none" font-weight="normal" stroke-width="1" height="132" font-family="'Dialog'" font-style="normal" stroke-linejoin="miter" font-size="12" stroke-dashoffset="0" image-rendering="auto">
  <!--Generated by ySVG-->
  <defs id="genericDefs"/>
  <g>
    <defs id="defs1">
      <clipPath clipPathUnits="userSpaceOnUse" id="clipPath1">
        <path d="M0 0 L916 0 L916 132 L0 132 L0 0 Z"/>
      </clipPath>
      <clipPath clipPathUnits="userSpaceOnUse" id="clipPath2">
        <path d="M77 203 L993 203 L993 335 L77 335 L77 203 Z"/>
      </clipPath>
    </defs>
    <g fill="white" transform="translate(-77,-203)" stroke="white">
      <rect x="77" y="203" clip-path="url(#clipPath2)" width="916" height="132" stroke="none"/>
    </g>
    <g fill="rgb(255,255,153)" transform="matrix(1,0,0,1,-77,-203)" stroke="rgb(255,255,153)">
      <ellipse clip-path="url(#clipPath2)" rx="137" cx="229" ry="51" cy="269" stroke="none"/>
    </g>
    <g font-size="20" font-family="sans-serif" transform="matrix(1,0,0,1,-77,-203)">
      <text xml:space="preserve" x="108.3848" y="276.8564" clip-path="url(#clipPath2)" stroke="none">http://example.org/info.html</text>
    </g>
    <g stroke-miterlimit="1.45" transform="matrix(1,0,0,1,-77,-203)" stroke-linecap="butt">
      <ellipse clip-path="url(#clipPath2)" fill="none" rx="137" cx="229" ry="51" cy="269"/>
    </g>
    <g fill="rgb(204,255,204)" transform="matrix(1,0,0,1,-77,-203)" stroke="rgb(204,255,204)">
      <ellipse clip-path="url(#clipPath2)" rx="163" cx="815" ry="51" cy="269" stroke="none"/>
    </g>
    <g font-size="20" font-family="sans-serif" transform="matrix(1,0,0,1,-77,-203)">
      <text xml:space="preserve" x="661.6113" y="276.8564" clip-path="url(#clipPath2)" stroke="none">http://www.w3c.es/Personal/Martin</text>
    </g>
    <g stroke-miterlimit="1.45" transform="matrix(1,0,0,1,-77,-203)" stroke-linecap="butt">
      <ellipse clip-path="url(#clipPath2)" fill="none" rx="163" cx="815" ry="51" cy="269"/>
      <path fill="none" stroke-width="5" d="M366 269 L640 269" clip-path="url(#clipPath2)" stroke="navy"/>
      <path fill="navy" stroke-width="5" d="M652 269 L634 261.5 L638.5 269 L634 276.5 Z" clip-path="url(#clipPath2)" stroke="none"/>
      <text font-size="16" x="401.8477" y="261.4844" clip-path="url(#clipPath2)" font-family="sans-serif" stroke="none" stroke-width="5" xml:space="preserve">http://purl.org/dc/terms/creator</text>
    </g>
  </g>
</svg>
