<?xml version="1.0" encoding="UTF-8" standalone="no"?>
<!-- Generator: Adobe Illustrator 14.0.0, SVG Export Plug-In . SVG Version: 6.00 Build 43363)  -->

<svg
   xmlns:dc="http://purl.org/dc/elements/1.1/"
   xmlns:cc="http://creativecommons.org/ns#"
   xmlns:rdf="http://www.w3.org/1999/02/22-rdf-syntax-ns#"
   xmlns:svg="http://www.w3.org/2000/svg"
   xmlns="http://www.w3.org/2000/svg"
   xmlns:sodipodi="http://sodipodi.sourceforge.net/DTD/sodipodi-0.dtd"
   xmlns:inkscape="http://www.inkscape.org/namespaces/inkscape"
   version="1.1"
   id="Capa_1"
   x="0px"
   y="0px"
   width="200.99532"
   height="55.47863"
   viewBox="0 0 200.9953 55.478629"
   enable-background="new 0 0 595.28 841.89"
   xml:space="preserve"
   inkscape:version="0.47 r22583"
   sodipodi:docname="CTIC_CT-W3C_blanco.svg"><metadata
   id="metadata73"><rdf:RDF><cc:Work
       rdf:about=""><dc:format>image/svg+xml</dc:format><dc:type
         rdf:resource="http://purl.org/dc/dcmitype/StillImage" /><dc:title /></cc:Work></rdf:RDF></metadata><defs
   id="defs71"><inkscape:perspective
   sodipodi:type="inkscape:persp3d"
   inkscape:vp_x="0 : 420.94501 : 1"
   inkscape:vp_y="0 : 1000 : 0"
   inkscape:vp_z="595.28003 : 420.94501 : 1"
   inkscape:persp3d-origin="297.64001 : 280.63 : 1"
   id="perspective75" /><inkscape:perspective
   id="perspective2918"
   inkscape:persp3d-origin="61.081 : 30.775 : 1"
   inkscape:vp_z="122.162 : 46.1625 : 1"
   inkscape:vp_y="0 : 1000 : 0"
   inkscape:vp_x="0 : 46.1625 : 1"
   sodipodi:type="inkscape:persp3d" />
    
    
    
  
      
      
      
      
      
      
      
      
      
      
      
      
    
    
    </defs><sodipodi:namedview
   pagecolor="#ffffff"
   bordercolor="#666666"
   borderopacity="1"
   objecttolerance="10"
   gridtolerance="10"
   guidetolerance="10"
   inkscape:pageopacity="0"
   inkscape:pageshadow="2"
   inkscape:window-width="1680"
   inkscape:window-height="975"
   id="namedview69"
   showgrid="false"
   inkscape:zoom="3.1714774"
   inkscape:cx="233.65217"
   inkscape:cy="-8.0512824"
   inkscape:window-x="0"
   inkscape:window-y="24"
   inkscape:window-maximized="1"
   inkscape:current-layer="Capa_1" />































<g
   id="g3060"
   transform="matrix(0.14679797,0,0,0.14679797,109.14328,-22.803066)"
   style="fill:#ffffff"><g
     transform="matrix(1.3863173,0,0,1.3863173,-105.25013,-240.2458)"
     id="g2977"
     style="fill:#ffffff"><path
       style="fill:#ffffff"
       d="m 230.738,449.454 h 2.235 v 0.993 c 0.01,1.363 -0.103,2.411 -0.339,3.142 -0.354,1.107 -1.022,1.858 -2.006,2.253 -0.776,0.326 -1.917,0.51 -3.421,0.55 -0.668,0 -1.67,0 -3.008,0 -1.721,0 -3.038,-0.144 -3.952,-0.428 -1.986,-0.619 -3.102,-2.359 -3.347,-5.221 -0.118,-1.376 -0.177,-2.909 -0.177,-4.601 0,-3.194 0.064,-5.189 0.191,-5.985 0.384,-2.38 1.973,-3.756 4.766,-4.129 0.925,-0.118 2.43,-0.178 4.515,-0.178 2.134,0 3.63,0.236 4.485,0.708 1.102,0.608 1.736,1.684 1.903,3.224 0.059,0.58 0.108,1.385 0.147,2.415 h -2.265 c 0,-0.315 -0.005,-0.521 -0.015,-0.619 -0.02,-1.673 -0.334,-2.741 -0.944,-3.203 -0.512,-0.394 -1.647,-0.591 -3.406,-0.591 -1.888,0 -3.048,0.024 -3.48,0.074 -1.573,0.167 -2.554,0.604 -2.942,1.308 -0.388,0.705 -0.582,1.944 -0.582,3.718 0,4.868 0.127,7.896 0.383,9.083 0.256,1.187 0.924,1.943 2.004,2.27 0.511,0.146 1.606,0.222 3.286,0.222 2.928,0 4.681,-0.277 5.261,-0.831 0.472,-0.456 0.708,-1.446 0.708,-2.971 0,-0.267 0,-0.669 0,-1.203 z"
       id="path3" /><path
       style="fill:#ffffff"
       d="m 249.376,451.917 h 2.115 c 0.014,0.267 0.021,0.463 0.021,0.591 0,1.654 -0.653,2.767 -1.961,3.337 -0.835,0.364 -2.227,0.547 -4.174,0.547 -2.606,0 -4.327,-0.566 -5.162,-1.699 -0.698,-0.944 -1.047,-2.795 -1.047,-5.551 0,-2.697 0.33,-4.533 0.988,-5.508 0.796,-1.181 2.521,-1.771 5.174,-1.771 1.926,0 3.283,0.202 4.069,0.604 1.218,0.629 1.897,2.075 2.034,4.338 0.029,0.481 0.049,1.382 0.059,2.699 h -10.149 c 0.01,2.056 0.187,3.369 0.531,3.94 0.501,0.796 1.675,1.194 3.523,1.194 2.182,0 3.435,-0.313 3.759,-0.941 0.147,-0.284 0.22,-0.877 0.22,-1.78 z m 0,-4.015 c -0.02,-1.209 -0.064,-1.975 -0.133,-2.299 -0.178,-0.925 -0.592,-1.515 -1.243,-1.771 -0.522,-0.207 -1.356,-0.31 -2.5,-0.31 -1.036,0 -1.776,0.06 -2.22,0.177 -0.789,0.207 -1.322,0.654 -1.598,1.342 -0.237,0.591 -0.35,1.544 -0.34,2.86 h 8.034 z"
       id="path5" /><path
       style="fill:#ffffff"
       d="m 258.938,442.074 h 2.065 l -0.071,1.923 0.059,0.044 c 0.364,-0.84 0.994,-1.428 1.89,-1.764 0.748,-0.276 1.683,-0.415 2.805,-0.415 2.343,0 3.878,0.604 4.607,1.815 0.325,0.542 0.487,1.647 0.487,3.321 v 9.18 h -2.054 v -9.006 c 0,-0.935 -0.044,-1.581 -0.133,-1.935 -0.177,-0.689 -0.569,-1.146 -1.179,-1.373 -0.471,-0.167 -1.144,-0.251 -2.017,-0.251 -1.511,0 -2.601,0.295 -3.269,0.886 -0.697,0.631 -1.045,1.692 -1.045,3.188 v 8.49 h -2.145 v -14.103 z"
       id="path7" /><path
       style="fill:#ffffff"
       d="m 286.126,442.074 v 1.691 h -5.466 v 8.654 c 0,0.868 0.123,1.444 0.371,1.73 0.278,0.326 0.839,0.488 1.682,0.488 0.894,0 1.479,-0.241 1.757,-0.725 0.198,-0.334 0.298,-1 0.298,-1.996 0,-0.206 0,-0.453 0,-0.738 h 1.888 c 0.01,0.482 0.015,0.831 0.015,1.048 0,1.447 -0.311,2.495 -0.932,3.145 -0.642,0.679 -1.682,1.02 -3.122,1.02 -2.101,0 -3.37,-0.612 -3.803,-1.834 -0.139,-0.384 -0.208,-1.1 -0.208,-2.144 v -8.648 h -1.933 v -1.691 h 1.933 v -3.384 h 2.055 v 3.384 h 5.465 z"
       id="path9" /><path
       style="fill:#ffffff"
       d="m 292.804,442.074 h 2.055 l -0.21,1.628 0.044,0.044 c 0.452,-0.742 0.938,-1.237 1.459,-1.484 0.729,-0.347 1.588,-0.52 2.582,-0.52 2.596,0 3.893,1.34 3.893,4.021 0,0.188 -0.002,0.514 -0.006,0.977 h -2.055 c 0,-0.475 0,-0.854 0,-1.142 0,-1.403 -0.777,-2.104 -2.333,-2.104 -1.526,0 -2.524,0.486 -2.994,1.462 -0.254,0.531 -0.381,1.452 -0.381,2.761 v 8.462 h -2.055 v -14.105 z"
       id="path11" /><path
       style="fill:#ffffff"
       d="m 315.133,441.862 c 2.313,0 3.868,0.335 4.666,1.004 1.043,0.876 1.564,2.963 1.564,6.261 0,1.723 -0.084,2.981 -0.252,3.779 -0.334,1.516 -1.013,2.5 -2.037,2.953 -0.807,0.354 -2.105,0.532 -3.896,0.532 -2.362,0 -3.938,-0.336 -4.725,-1.004 -0.719,-0.611 -1.187,-1.621 -1.402,-3.028 -0.109,-0.708 -0.163,-1.85 -0.163,-3.426 0,-3.179 0.522,-5.201 1.565,-6.067 0.797,-0.669 2.357,-1.004 4.68,-1.004 z m 0,1.752 c -1.658,0 -2.714,0.191 -3.168,0.576 -0.621,0.532 -0.933,2.128 -0.933,4.789 0,2.876 0.312,4.575 0.933,5.098 0.445,0.375 1.506,0.562 3.183,0.562 1.648,0 2.694,-0.187 3.138,-0.562 0.622,-0.531 0.933,-2.183 0.933,-4.95 0,-2.769 -0.311,-4.415 -0.933,-4.937 -0.454,-0.384 -1.505,-0.576 -3.153,-0.576 z"
       id="path13" /><polygon
       style="fill:#ffffff"
       points="347.525,456.179 345.261,456.179 345.261,438.147 338.705,438.147 338.705,436.032 354.045,436.032 354.045,438.147 347.525,438.147 "
       id="polygon15" /><path
       style="fill:#ffffff"
       d="m 367.194,451.917 h 2.113 c 0.015,0.267 0.021,0.463 0.021,0.591 0,1.654 -0.654,2.767 -1.962,3.337 -0.836,0.364 -2.227,0.547 -4.174,0.547 -2.605,0 -4.326,-0.566 -5.162,-1.699 -0.698,-0.944 -1.047,-2.795 -1.047,-5.551 0,-2.697 0.329,-4.533 0.988,-5.508 0.795,-1.181 2.52,-1.771 5.174,-1.771 1.926,0 3.282,0.202 4.068,0.604 1.219,0.629 1.896,2.075 2.034,4.338 0.029,0.481 0.05,1.382 0.059,2.699 h -10.148 c 0.01,2.056 0.187,3.369 0.53,3.94 0.501,0.796 1.676,1.194 3.523,1.194 2.183,0 3.435,-0.313 3.76,-0.941 0.149,-0.284 0.223,-0.877 0.223,-1.78 z m 0,-4.015 c -0.021,-1.209 -0.064,-1.975 -0.134,-2.299 -0.177,-0.925 -0.592,-1.515 -1.242,-1.771 -0.523,-0.207 -1.357,-0.31 -2.501,-0.31 -1.036,0 -1.775,0.06 -2.221,0.177 -0.789,0.207 -1.321,0.654 -1.597,1.342 -0.237,0.591 -0.351,1.544 -0.341,2.86 h 8.036 z"
       id="path17" /><path
       style="fill:#ffffff"
       d="m 386.405,451.092 h 2.063 c 0.011,0.305 0.015,0.546 0.015,0.723 0,1.87 -0.574,3.14 -1.725,3.81 -0.865,0.512 -2.316,0.768 -4.352,0.768 -2.576,0 -4.277,-0.592 -5.103,-1.772 -0.669,-0.955 -1.003,-2.81 -1.003,-5.566 0,-2.49 0.305,-4.229 0.914,-5.213 0.816,-1.318 2.507,-1.978 5.073,-1.978 1.996,0 3.427,0.251 4.292,0.753 0.689,0.395 1.151,0.981 1.387,1.76 0.167,0.522 0.256,1.291 0.266,2.306 h -2.064 v -0.369 c 0,-1.206 -0.399,-1.991 -1.194,-2.356 -0.501,-0.228 -1.454,-0.341 -2.859,-0.341 -1.758,0 -2.863,0.527 -3.315,1.582 -0.236,0.561 -0.354,1.911 -0.354,4.049 0,2.62 0.369,4.241 1.105,4.862 0.423,0.354 1.518,0.531 3.287,0.531 1.513,0 2.488,-0.214 2.926,-0.643 0.438,-0.429 0.652,-1.399 0.641,-2.906 z"
       id="path19" /><path
       style="fill:#ffffff"
       d="m 395.564,442.074 h 2.065 l -0.071,1.923 0.059,0.044 c 0.363,-0.84 0.994,-1.428 1.89,-1.764 0.748,-0.276 1.684,-0.415 2.805,-0.415 2.343,0 3.879,0.604 4.607,1.815 0.324,0.542 0.486,1.647 0.486,3.321 v 9.18 h -2.055 v -9.006 c 0,-0.935 -0.044,-1.581 -0.133,-1.935 -0.176,-0.689 -0.568,-1.146 -1.178,-1.373 -0.471,-0.167 -1.144,-0.251 -2.017,-0.251 -1.512,0 -2.601,0.295 -3.269,0.886 -0.697,0.631 -1.046,1.692 -1.046,3.188 v 8.49 h -2.145 v -14.103 z"
       id="path21" /><path
       style="fill:#ffffff"
       d="m 421.084,441.862 c 2.314,0 3.869,0.335 4.666,1.004 1.043,0.876 1.564,2.963 1.564,6.261 0,1.723 -0.083,2.981 -0.25,3.779 -0.336,1.516 -1.015,2.5 -2.038,2.953 -0.806,0.354 -2.105,0.532 -3.897,0.532 -2.362,0 -3.937,-0.336 -4.724,-1.004 -0.719,-0.611 -1.187,-1.621 -1.403,-3.028 -0.108,-0.708 -0.163,-1.85 -0.163,-3.426 0,-3.179 0.523,-5.201 1.566,-6.067 0.796,-0.669 2.357,-1.004 4.679,-1.004 z m 0,1.752 c -1.657,0 -2.713,0.191 -3.167,0.576 -0.622,0.532 -0.933,2.128 -0.933,4.789 0,2.876 0.311,4.575 0.933,5.098 0.443,0.375 1.504,0.562 3.183,0.562 1.647,0 2.694,-0.187 3.138,-0.562 0.622,-0.531 0.933,-2.183 0.933,-4.95 0,-2.769 -0.311,-4.415 -0.933,-4.937 -0.455,-0.384 -1.506,-0.576 -3.154,-0.576 z"
       id="path23" /><rect
       style="fill:#ffffff"
       x="434.67801"
       y="436.03201"
       width="2.053"
       height="20.146"
       id="rect25" /><path
       style="fill:#ffffff"
       d="m 450.328,441.862 c 2.313,0 3.868,0.335 4.665,1.004 1.044,0.876 1.564,2.963 1.564,6.261 0,1.723 -0.083,2.981 -0.251,3.779 -0.334,1.516 -1.013,2.5 -2.037,2.953 -0.807,0.354 -2.105,0.532 -3.897,0.532 -2.362,0 -3.937,-0.336 -4.724,-1.004 -0.719,-0.611 -1.186,-1.621 -1.402,-3.028 -0.109,-0.708 -0.163,-1.85 -0.163,-3.426 0,-3.179 0.521,-5.201 1.565,-6.067 0.797,-0.669 2.358,-1.004 4.68,-1.004 z m 0,1.752 c -1.658,0 -2.714,0.191 -3.168,0.576 -0.621,0.532 -0.933,2.128 -0.933,4.789 0,2.876 0.312,4.575 0.933,5.098 0.444,0.375 1.505,0.562 3.183,0.562 1.648,0 2.694,-0.187 3.139,-0.562 0.621,-0.531 0.932,-2.183 0.932,-4.95 0,-2.769 -0.311,-4.415 -0.932,-4.937 -0.455,-0.384 -1.506,-0.576 -3.154,-0.576 z m 2.253,-7.37 1.062,1.454 -4.351,2.684 -0.708,-1.097 3.997,-3.041 z"
       id="path27" /><polygon
       style="fill:#ffffff"
       points="453.643,437.698 449.292,440.382 448.584,439.285 452.581,436.244 "
       id="polygon29" /><path
       style="fill:#ffffff"
       d="m 475.731,442.074 v 15.018 c 0,1.299 -0.148,2.292 -0.443,2.98 -0.393,0.904 -1.114,1.549 -2.166,1.932 -0.864,0.307 -2.009,0.458 -3.433,0.458 -2.82,0 -4.529,-0.6 -5.129,-1.799 -0.295,-0.59 -0.447,-1.529 -0.456,-2.817 h 1.987 c 0.021,0.808 0.094,1.373 0.222,1.698 0.206,0.512 0.628,0.841 1.267,0.989 0.49,0.118 1.237,0.177 2.238,0.177 1.434,0 2.415,-0.211 2.946,-0.634 0.608,-0.482 0.912,-1.417 0.912,-2.805 v -2.833 l -0.044,-0.015 c -0.285,0.69 -0.746,1.173 -1.385,1.449 -0.806,0.345 -1.846,0.519 -3.122,0.519 -2.937,0 -4.685,-1.108 -5.243,-3.322 -0.217,-0.817 -0.325,-2.039 -0.325,-3.663 0,-1.476 0.05,-2.543 0.147,-3.202 0.178,-1.251 0.57,-2.221 1.181,-2.91 0.847,-0.954 2.331,-1.432 4.456,-1.432 2.243,0 3.713,0.711 4.411,2.135 l 0.045,-0.015 -0.121,-1.908 h 2.055 z m -6.108,1.54 c -1.749,0 -2.879,0.458 -3.39,1.374 -0.354,0.631 -0.531,1.927 -0.531,3.887 0,2.671 0.28,4.311 0.841,4.922 0.511,0.562 1.543,0.842 3.095,0.842 1.797,0 2.956,-0.557 3.478,-1.67 0.334,-0.689 0.502,-2.089 0.502,-4.197 0,-2.167 -0.291,-3.587 -0.87,-4.256 -0.522,-0.601 -1.562,-0.902 -3.125,-0.902 z"
       id="path31" /><path
       style="fill:#ffffff"
       d="m 485.546,436.032 v 2.326 h -2.055 v -2.326 h 2.055 z m 0,6.042 v 14.104 h -2.055 v -14.104 h 2.055 z"
       id="path33" /><rect
       style="fill:#ffffff"
       x="483.491"
       y="436.03201"
       width="2.0550001"
       height="2.326"
       id="rect35" /><rect
       style="fill:#ffffff"
       x="483.491"
       y="442.07401"
       width="2.0550001"
       height="14.104"
       id="rect37" /><path
       style="fill:#ffffff"
       d="m 502.972,451.092 h 2.063 c 0.011,0.305 0.016,0.546 0.016,0.723 0,1.87 -0.576,3.14 -1.726,3.81 -0.866,0.512 -2.316,0.768 -4.352,0.768 -2.576,0 -4.277,-0.592 -5.103,-1.772 -0.67,-0.955 -1.004,-2.81 -1.004,-5.566 0,-2.49 0.306,-4.229 0.915,-5.213 0.815,-1.318 2.507,-1.978 5.073,-1.978 1.997,0 3.428,0.251 4.292,0.753 0.688,0.395 1.151,0.981 1.387,1.76 0.167,0.522 0.256,1.291 0.265,2.306 h -2.063 v -0.369 c 0,-1.206 -0.398,-1.991 -1.194,-2.356 -0.502,-0.228 -1.454,-0.341 -2.859,-0.341 -1.758,0 -2.864,0.527 -3.316,1.582 -0.235,0.561 -0.353,1.911 -0.353,4.049 0,2.62 0.368,4.241 1.104,4.862 0.423,0.354 1.519,0.531 3.287,0.531 1.514,0 2.488,-0.214 2.927,-0.643 0.437,-0.431 0.65,-1.399 0.641,-2.906 z"
       id="path39" /><path
       style="fill:#ffffff"
       d="m 517.952,441.862 c 2.313,0 3.868,0.335 4.666,1.004 1.043,0.876 1.565,2.963 1.565,6.261 0,1.723 -0.084,2.981 -0.251,3.779 -0.336,1.516 -1.015,2.5 -2.038,2.953 -0.807,0.354 -2.105,0.532 -3.897,0.532 -2.362,0 -3.938,-0.336 -4.725,-1.004 -0.718,-0.611 -1.186,-1.621 -1.402,-3.028 -0.108,-0.708 -0.163,-1.85 -0.163,-3.426 0,-3.179 0.523,-5.201 1.565,-6.067 0.798,-0.669 2.358,-1.004 4.68,-1.004 z m 0,1.752 c -1.656,0 -2.713,0.191 -3.167,0.576 -0.622,0.532 -0.933,2.128 -0.933,4.789 0,2.876 0.311,4.575 0.933,5.098 0.444,0.375 1.504,0.562 3.183,0.562 1.647,0 2.693,-0.187 3.138,-0.562 0.622,-0.531 0.933,-2.183 0.933,-4.95 0,-2.769 -0.311,-4.415 -0.933,-4.937 -0.455,-0.384 -1.505,-0.576 -3.154,-0.576 z"
       id="path41" /><path
       style="fill:#ffffff"
       d="m 293.49,419.633 v -25.146 h -28.037 c -2.697,0 -5.298,-0.048 -7.804,-0.145 -2.505,-0.097 -4.817,-0.386 -6.937,-0.867 -2.12,-0.482 -4.022,-1.253 -5.708,-2.313 -1.686,-1.06 -3.059,-2.602 -4.119,-4.625 -0.193,-0.385 -0.434,-0.963 -0.723,-1.734 -0.289,-0.771 -0.554,-1.807 -0.795,-3.107 -0.241,-1.301 -0.458,-2.915 -0.65,-4.841 -0.192,-1.927 -0.289,-4.287 -0.289,-7.082 0,-1.252 0.048,-2.649 0.145,-4.19 0.097,-1.541 0.241,-3.155 0.434,-4.841 0.193,-1.686 0.506,-3.324 0.939,-4.914 0.434,-1.589 1.036,-3.011 1.807,-4.263 1.157,-2.023 2.505,-3.565 4.047,-4.625 1.542,-1.06 3.275,-1.854 5.203,-2.384 1.927,-0.53 4.046,-0.819 6.359,-0.867 2.313,-0.048 4.817,-0.072 7.515,-0.072 H 291.9 v -25.146 h -42.777 c -2.89,0 -5.925,0.121 -9.104,0.361 -3.179,0.241 -6.335,0.819 -9.466,1.734 -3.131,0.915 -6.142,2.24 -9.033,3.974 -2.89,1.734 -5.491,4.095 -7.804,7.082 -3.661,4.625 -6.046,10.116 -7.154,16.475 -1.108,6.358 -1.662,13.777 -1.662,22.255 0,4.817 0.192,9.104 0.578,12.862 0.385,3.758 0.963,7.105 1.734,10.044 0.77,2.938 1.734,5.54 2.89,7.804 1.156,2.264 2.505,4.312 4.047,6.142 2.023,2.601 4.239,4.697 6.647,6.287 2.408,1.589 5.01,2.841 7.804,3.756 2.794,0.916 5.853,1.542 9.177,1.878 3.324,0.338 6.961,0.506 10.911,0.506 h 44.802 z"
       id="path43" /><polygon
       style="fill:#ffffff"
       points="358.214,343.617 394.344,343.617 394.344,318.471 289.425,318.471 289.425,343.617 325.553,343.617 325.553,419.633 358.214,419.633 "
       id="polygon45" /><rect
       style="fill:#ffffff"
       x="400.18799"
       y="318.47101"
       width="32.66"
       height="101.162"
       id="rect47" /><path
       style="fill:#ffffff"
       d="m 527.259,419.633 v -25.146 h -28.036 c -2.697,0 -5.299,-0.048 -7.805,-0.145 -2.504,-0.097 -4.816,-0.386 -6.936,-0.867 -2.12,-0.482 -4.023,-1.253 -5.709,-2.313 -1.687,-1.06 -3.059,-2.602 -4.118,-4.625 -0.193,-0.385 -0.434,-0.963 -0.724,-1.734 -0.288,-0.771 -0.553,-1.807 -0.795,-3.107 -0.24,-1.301 -0.457,-2.915 -0.649,-4.841 -0.192,-1.926 -0.289,-4.287 -0.289,-7.082 0,-1.252 0.048,-2.649 0.145,-4.19 0.096,-1.542 0.24,-3.155 0.434,-4.841 0.192,-1.686 0.506,-3.324 0.939,-4.914 0.433,-1.59 1.036,-3.011 1.807,-4.263 1.156,-2.023 2.504,-3.565 4.046,-4.625 1.542,-1.06 3.275,-1.854 5.202,-2.384 1.928,-0.53 4.047,-0.819 6.359,-0.867 2.312,-0.048 4.817,-0.072 7.515,-0.072 h 27.025 v -25.146 h -42.777 c -2.891,0 -5.926,0.121 -9.104,0.361 -3.18,0.241 -6.335,0.819 -9.467,1.734 -3.131,0.915 -6.141,2.24 -9.032,3.974 -2.891,1.734 -5.491,4.095 -7.803,7.082 -3.662,4.625 -6.047,10.116 -7.154,16.475 -1.108,6.358 -1.662,13.777 -1.662,22.255 0,4.817 0.193,9.104 0.579,12.862 0.385,3.758 0.962,7.105 1.732,10.044 0.771,2.938 1.735,5.54 2.892,7.804 1.155,2.264 2.505,4.312 4.047,6.142 2.022,2.601 4.238,4.697 6.647,6.287 2.408,1.589 5.01,2.841 7.804,3.756 2.794,0.916 5.854,1.542 9.176,1.878 3.325,0.338 6.962,0.506 10.912,0.506 h 44.799 z"
       id="path49" /><path
       style="fill:#ffffff"
       d="m 0.081,338.726 c 1.26,-15.017 18.867,-23.43 39.155,-19.136 14.014,2.966 25.94,11.293 31.723,21.12 -6.363,-5.954 -15.102,-10.612 -24.852,-12.675 -20.289,-4.294 -37.895,4.118 -39.155,19.135 -0.409,4.87 0.945,9.817 3.66,14.436 -7.094,-6.627 -11.205,-14.858 -10.531,-22.88 z"
       id="path51" /><path
       style="fill:#ffffff"
       d="m 61.974,413.337 c 0.761,-21.391 23.306,-33.909 50.028,-28.609 17.728,3.516 33.329,14.104 41.858,27.088 -8.875,-8.997 -21.298,-15.929 -34.987,-18.644 -26.722,-5.299 -49.268,7.219 -50.028,28.61 -0.272,7.64 2.257,15.334 6.852,22.337 -8.832,-8.939 -14.11,-19.916 -13.723,-30.782 z"
       id="path53" /><path
       style="fill:#ffffff"
       d="m 113.213,344.607 c 0.042,-10.012 10.784,-15.756 23.907,-12.982 9.944,2.102 18.556,8.53 22.216,15.882 -4.179,-3.503 -9.535,-6.209 -15.345,-7.438 -13.124,-2.774 -23.865,2.971 -23.908,12.982 -0.011,2.524 0.658,5.074 1.876,7.522 -5.361,-4.489 -8.77,-10.291 -8.746,-15.966 z"
       id="path55" /><path
       style="fill:#ffffff"
       d="m 100.181,358.498 c -1.26,15.017 -18.867,23.429 -39.156,19.135 -14.014,-2.966 -25.94,-11.293 -31.723,-21.12 6.363,5.953 15.103,10.612 24.852,12.675 20.289,4.294 37.896,-4.119 39.155,-19.135 0.409,-4.871 -0.945,-9.817 -3.66,-14.436 7.095,6.627 11.205,14.859 10.532,22.881 z"
       id="path57" /><path
       style="fill:#ffffff"
       d="m 178.671,426.49 c -0.761,21.391 -23.306,33.908 -50.028,28.609 -17.727,-3.517 -33.329,-14.104 -41.857,-27.088 8.875,8.995 21.297,15.929 34.987,18.643 26.722,5.3 49.267,-7.219 50.028,-28.609 0.271,-7.641 -2.257,-15.335 -6.852,-22.338 8.831,8.94 14.109,19.916 13.722,30.783 z"
       id="path59" /><path
       style="fill:#ffffff"
       d="m 182.217,361.915 c -0.043,10.012 -10.784,15.756 -23.908,12.982 -9.943,-2.101 -18.556,-8.529 -22.216,-15.881 4.179,3.504 9.535,6.209 15.345,7.438 13.124,2.774 23.865,-2.971 23.907,-12.983 0.011,-2.524 -0.658,-5.074 -1.875,-7.522 5.363,4.489 8.771,10.291 8.747,15.966 z"
       id="path61" /><g
       id="g63"
       style="fill:#ffffff">
	<polygon
   style="fill:#ffffff"
   points="527.263,488.943 0,488.943 0,476.185 0,476.185 527.263,476.185 "
   id="polygon65" />
	<path
   style="fill:#ffffff"
   d="M 263.631,482.564"
   id="path67" />
</g></g><g
     transform="matrix(5.0237951,0,0,5.0237951,-4731.2979,-1537.4575)"
     id="g2964"
     style="fill:#ffffff"><polygon
       id="polygon2890"
       clip-rule="evenodd"
       points="44.673,80.243 36.698,80.243 36.698,69.664 44.543,69.664 44.543,71.786 39.888,71.786 39.888,73.725 44.33,73.725 44.33,75.854 39.888,75.854 39.888,78.113 44.673,78.113 "
       style="fill:#ffffff;fill-rule:evenodd"
       transform="translate(784.37632,328.4072)" /><path
       id="path2892"
       d="m 836.01132,406.3832 c 0,0.712 -0.262,1.292 -0.786,1.74 -0.519,0.443 -1.292,0.664 -2.32,0.664 -0.575,0 -1.086,-0.051 -1.534,-0.152 -0.448,-0.107 -0.936,-0.257 -1.465,-0.451 v -1.954 c 0.463,0.265 0.865,0.465 1.206,0.603 0.341,0.138 0.715,0.206 1.122,0.206 0.687,0 1.03,-0.188 1.03,-0.564 0,-0.127 -0.051,-0.239 -0.153,-0.336 -0.097,-0.102 -0.27,-0.213 -0.519,-0.336 -0.244,-0.127 -0.572,-0.277 -0.984,-0.45 -0.509,-0.224 -0.941,-0.524 -1.297,-0.9 -0.356,-0.376 -0.535,-0.837 -0.535,-1.382 0,-0.387 0.117,-0.758 0.351,-1.114 0.239,-0.356 0.598,-0.646 1.077,-0.87 0.478,-0.229 1.055,-0.343 1.732,-0.343 0.163,0 0.369,0.013 0.618,0.038 0.254,0.021 0.572,0.079 0.954,0.175 0.387,0.097 0.753,0.234 1.099,0.412 v 1.901 c -0.163,-0.097 -0.3,-0.178 -0.413,-0.244 -0.106,-0.066 -0.251,-0.14 -0.435,-0.222 -0.184,-0.081 -0.4,-0.152 -0.649,-0.213 -0.244,-0.066 -0.496,-0.099 -0.756,-0.1 -0.315,0 -0.532,0.062 -0.648,0.184 -0.117,0.122 -0.176,0.244 -0.176,0.366 0,0.127 0.061,0.247 0.183,0.359 0.122,0.106 0.395,0.242 0.817,0.404 0.611,0.234 1.099,0.476 1.465,0.725 0.366,0.244 0.626,0.514 0.778,0.809 0.159,0.295 0.238,0.643 0.238,1.045 z"
       clip-rule="evenodd"
       style="fill:#ffffff;fill-rule:evenodd" /><path
       id="path2894"
       d="m 845.23132,404.7112 c 0,0.519 -0.074,1.021 -0.221,1.503 -0.148,0.484 -0.374,0.921 -0.68,1.313 -0.3,0.387 -0.689,0.694 -1.167,0.923 -0.473,0.224 -1.025,0.336 -1.656,0.336 -0.509,0 -0.911,-0.053 -1.206,-0.16 -0.29,-0.107 -0.58,-0.25 -0.87,-0.428 v 3.984 h -2.748 v -11.302 h 2.748 v 0.702 c 0.275,-0.239 0.578,-0.438 0.908,-0.595 0.336,-0.163 0.789,-0.244 1.359,-0.244 0.565,0 1.119,0.14 1.664,0.42 0.545,0.28 0.992,0.717 1.343,1.313 0.351,0.589 0.526,1.335 0.526,2.235 z m -2.892,0.061 c 0,-0.468 -0.074,-0.847 -0.221,-1.137 -0.148,-0.295 -0.339,-0.506 -0.573,-0.633 -0.234,-0.132 -0.476,-0.198 -0.725,-0.199 -0.326,0 -0.593,0.054 -0.801,0.161 -0.209,0.102 -0.405,0.231 -0.588,0.389 v 2.969 c 0.097,0.051 0.198,0.109 0.305,0.176 0.112,0.061 0.221,0.114 0.329,0.16 0.112,0.046 0.229,0.084 0.351,0.115 0.127,0.03 0.262,0.045 0.404,0.045 0.433,0 0.794,-0.183 1.084,-0.549 0.29,-0.366 0.435,-0.865 0.435,-1.497 z"
       clip-rule="evenodd"
       style="fill:#ffffff;fill-rule:evenodd" /><path
       id="path2896"
       d="m 853.91832,408.2612 c -0.402,0.158 -0.773,0.285 -1.114,0.381 -0.341,0.097 -0.75,0.145 -1.229,0.145 -0.453,0 -0.769,-0.079 -0.946,-0.236 -0.178,-0.163 -0.306,-0.359 -0.382,-0.588 -0.295,0.239 -0.624,0.438 -0.984,0.595 -0.361,0.153 -0.834,0.229 -1.42,0.229 -0.564,0 -1.022,-0.097 -1.374,-0.29 -0.346,-0.198 -0.59,-0.445 -0.733,-0.74 -0.137,-0.3 -0.206,-0.608 -0.206,-0.924 0,-0.478 0.12,-0.872 0.359,-1.183 0.244,-0.315 0.57,-0.572 0.977,-0.771 0.407,-0.199 0.946,-0.405 1.618,-0.618 0.382,-0.122 0.669,-0.214 0.863,-0.275 0.198,-0.066 0.346,-0.117 0.442,-0.152 0.096,-0.035 0.198,-0.082 0.306,-0.138 0,-0.376 -0.077,-0.671 -0.229,-0.885 -0.153,-0.214 -0.484,-0.321 -0.992,-0.321 -0.601,0 -1.158,0.133 -1.672,0.397 -0.514,0.265 -0.984,0.606 -1.412,1.023 v -2.106 c 0.341,-0.244 0.709,-0.443 1.106,-0.596 0.397,-0.157 0.812,-0.274 1.244,-0.351 0.433,-0.076 0.87,-0.114 1.313,-0.114 1.125,0 1.969,0.219 2.534,0.656 0.57,0.433 0.854,1.031 0.855,1.793 v 3 c 0,0.285 0.025,0.499 0.076,0.641 0.056,0.138 0.155,0.206 0.298,0.206 0.173,0 0.407,-0.073 0.702,-0.221 v 1.443 z m -3.824,-1.489 v -1.84 c -0.651,0.265 -1.127,0.504 -1.427,0.718 -0.3,0.208 -0.451,0.494 -0.451,0.854 0,0.26 0.074,0.458 0.222,0.596 0.152,0.137 0.328,0.206 0.526,0.206 0.188,0 0.374,-0.051 0.557,-0.153 0.189,-0.106 0.379,-0.233 0.573,-0.381 z"
       clip-rule="evenodd"
       style="fill:#ffffff;fill-rule:evenodd" /><path
       id="path2898"
       d="m 862.27632,408.6502 h -2.748 v -4.03 -0.16 c 0,-0.427 -0.071,-0.799 -0.213,-1.114 -0.138,-0.32 -0.443,-0.481 -0.916,-0.481 -0.224,0 -0.422,0.043 -0.595,0.13 -0.168,0.082 -0.321,0.188 -0.458,0.32 -0.132,0.133 -0.245,0.26 -0.336,0.382 -0.092,0.122 -0.186,0.252 -0.282,0.389 v 4.564 h -2.748 v -7.77 h 2.748 v 1.114 c 0.432,-0.463 0.865,-0.786 1.297,-0.969 0.438,-0.188 0.923,-0.282 1.458,-0.282 1.862,0 2.793,1.114 2.793,3.343 v 4.564 z m -1.175,-11.243 c 0,0.519 -0.074,0.962 -0.221,1.328 -0.147,0.366 -0.356,0.644 -0.626,0.832 -0.27,0.188 -0.585,0.282 -0.946,0.282 -0.163,0 -0.338,-0.025 -0.526,-0.076 -0.184,-0.051 -0.443,-0.137 -0.779,-0.26 -0.336,-0.122 -0.578,-0.206 -0.725,-0.252 -0.143,-0.045 -0.27,-0.068 -0.381,-0.068 -0.356,0 -0.565,0.219 -0.626,0.656 h -1.215 c 0,-0.555 0.092,-1.013 0.275,-1.374 0.183,-0.366 0.415,-0.636 0.695,-0.809 0.28,-0.173 0.549,-0.259 0.809,-0.26 0.28,0 0.723,0.109 1.328,0.328 0.204,0.071 0.372,0.132 0.504,0.183 0.132,0.051 0.251,0.092 0.359,0.122 0.112,0.031 0.196,0.046 0.251,0.046 0.193,0 0.338,-0.069 0.435,-0.206 0.102,-0.142 0.152,-0.3 0.153,-0.473 h 1.236 z"
       clip-rule="evenodd"
       style="fill:#ffffff;fill-rule:evenodd" /><path
       id="path2900"
       d="m 871.18432,408.2612 c -0.402,0.158 -0.773,0.285 -1.114,0.381 -0.341,0.096 -0.75,0.145 -1.229,0.145 -0.453,0 -0.769,-0.079 -0.947,-0.236 -0.178,-0.163 -0.305,-0.359 -0.381,-0.588 -0.295,0.239 -0.624,0.438 -0.985,0.595 -0.361,0.153 -0.834,0.229 -1.419,0.229 -0.565,0 -1.023,-0.097 -1.374,-0.29 -0.346,-0.198 -0.59,-0.445 -0.732,-0.74 -0.137,-0.3 -0.206,-0.608 -0.206,-0.924 0,-0.478 0.12,-0.872 0.359,-1.183 0.244,-0.315 0.57,-0.572 0.977,-0.771 0.407,-0.199 0.946,-0.405 1.618,-0.618 0.382,-0.122 0.669,-0.214 0.862,-0.275 0.199,-0.066 0.346,-0.117 0.443,-0.152 0.097,-0.035 0.198,-0.082 0.305,-0.138 0,-0.376 -0.076,-0.671 -0.229,-0.885 -0.152,-0.214 -0.483,-0.321 -0.992,-0.321 -0.601,0 -1.158,0.133 -1.671,0.397 -0.514,0.265 -0.984,0.606 -1.412,1.023 v -2.106 c 0.341,-0.244 0.71,-0.443 1.107,-0.596 0.397,-0.157 0.812,-0.274 1.244,-0.351 0.432,-0.076 0.87,-0.114 1.313,-0.114 1.125,0 1.969,0.219 2.534,0.656 0.57,0.433 0.854,1.031 0.855,1.793 v 3 c 0,0.285 0.025,0.499 0.076,0.641 0.056,0.138 0.155,0.206 0.298,0.206 0.173,0 0.407,-0.073 0.702,-0.221 v 1.443 z m -3.824,-1.489 v -1.84 c -0.651,0.265 -1.127,0.504 -1.427,0.718 -0.3,0.208 -0.45,0.494 -0.45,0.854 0,0.26 0.074,0.458 0.221,0.596 0.153,0.137 0.328,0.206 0.527,0.206 0.188,0 0.374,-0.051 0.557,-0.153 0.188,-0.106 0.379,-0.233 0.572,-0.381 z"
       clip-rule="evenodd"
       style="fill:#ffffff;fill-rule:evenodd" /><path
       id="path2902"
       d="m 887.23432,337.2412 1.056,6.42 -3.738,7.153 c 0,0 -1.436,-3.034 -3.82,-4.714 -2.009,-1.416 -3.318,-1.723 -5.364,-1.301 -2.628,0.542 -5.608,3.685 -6.908,7.559 -1.556,4.636 -1.571,6.879 -1.625,8.94 -0.087,3.304 0.434,5.256 0.434,5.256 0,0 -2.27,-4.199 -2.249,-10.349 0.015,-4.389 0.704,-8.371 2.736,-12.299 1.787,-3.454 4.443,-5.526 6.8,-5.77 2.437,-0.252 4.363,0.923 5.852,2.194 1.562,1.334 3.143,4.253 3.143,4.253 l 3.683,-7.342 z"
       style="fill:#ffffff" /><path
       id="path2904"
       d="m 887.69432,373.5702 c 0,0 -1.653,2.953 -2.682,4.091 -1.03,1.138 -2.872,3.143 -5.147,4.146 -2.275,1.001 -3.468,1.191 -5.716,0.975 -2.246,-0.216 -4.334,-1.517 -5.066,-2.06 -0.731,-0.541 -2.601,-2.14 -3.657,-3.629 -1.057,-1.49 -2.709,-4.471 -2.709,-4.471 0,0 0.921,2.986 1.497,4.254 0.332,0.729 1.351,2.96 2.797,4.902 1.349,1.813 3.969,4.932 7.951,5.635 3.982,0.705 6.719,-1.083 7.396,-1.517 0.677,-0.433 2.104,-1.628 3.007,-2.594 0.943,-1.009 1.835,-2.296 2.33,-3.067 0.361,-0.564 0.948,-1.707 0.948,-1.707 l -0.949,-4.958 z"
       style="fill:#ffffff" /><path
       id="path2906"
       d="m 818.93032,337.5252 9.003,30.611 9.003,-30.611 h 6.519 l -14.901,50.292 h -0.621 l -9.313,-31.168 -9.315,31.168 h -0.621 l -14.901,-50.292 h 6.519 l 9.003,30.611 6.085,-20.614 -2.98,-9.997 h 6.52 z"
       style="fill:#ffffff" /><path
       id="path2908"
       d="m 861.96732,371.6752 c 0,4.554 -1.211,8.383 -3.632,11.487 -2.422,3.104 -5.558,4.655 -9.407,4.655 -2.898,0 -5.423,-0.921 -7.576,-2.763 -2.152,-1.842 -3.746,-4.335 -4.781,-7.481 l 5.091,-2.11 c 0.746,1.904 1.729,3.405 2.95,4.501 1.221,1.097 2.659,1.645 4.315,1.645 1.738,0 3.208,-0.972 4.409,-2.917 1.201,-1.945 1.801,-4.284 1.801,-7.017 0,-3.022 -0.642,-5.361 -1.925,-7.016 -1.491,-1.945 -3.83,-2.918 -7.017,-2.918 h -2.483 v -2.98 l 8.693,-15.026 h -10.493 l -2.918,4.967 h -1.862 v -11.177 h 24.214 v 3.042 l -9.19,15.833 c 3.229,1.036 5.671,2.919 7.326,5.652 1.656,2.731 2.485,5.938 2.485,9.623 z"
       style="fill:#ffffff" /><path
       id="path2910"
       d="m 893.91032,336.9552 c -0.866,0 -1.642,0.313 -2.231,0.91 -0.625,0.634 -0.972,1.455 -0.972,2.302 0,0.847 0.33,1.633 0.937,2.249 0.616,0.625 1.41,0.963 2.267,0.963 0.839,0 1.65,-0.339 2.284,-0.955 0.606,-0.589 0.937,-1.374 0.937,-2.257 0,-0.857 -0.339,-1.66 -0.928,-2.258 -0.617,-0.624 -1.42,-0.954 -2.294,-0.954 z m 2.793,3.239 c 0,0.741 -0.286,1.428 -0.813,1.937 -0.553,0.535 -1.24,0.821 -1.999,0.821 -0.714,0 -1.418,-0.294 -1.945,-0.83 -0.527,-0.536 -0.821,-1.223 -0.821,-1.954 0,-0.732 0.304,-1.446 0.848,-1.999 0.509,-0.518 1.196,-0.794 1.945,-0.794 0.768,0 1.455,0.286 1.99,0.83 0.518,0.517 0.795,1.213 0.795,1.989 z m -2.704,-1.909 h -1.374 v 3.641 h 0.687 v -1.553 h 0.678 l 0.741,1.553 h 0.767 l -0.812,-1.66 c 0.526,-0.107 0.83,-0.464 0.83,-0.982 0,-0.66 -0.5,-0.999 -1.517,-0.999 z m -0.125,0.446 c 0.642,0 0.937,0.178 0.937,0.625 0,0.428 -0.295,0.58 -0.919,0.58 h -0.58 v -1.205 h 0.562 z"
       clip-rule="evenodd"
       style="fill:#ffffff;fill-rule:evenodd" /></g></g></svg>