<?xml version="1.0" encoding="UTF-8" standalone="no"?>
<!-- Generator: Adobe Illustrator 14.0.0, SVG Export Plug-In . SVG Version: 6.00 Build 43363)  -->

<svg
   xmlns:dc="http://purl.org/dc/elements/1.1/"
   xmlns:cc="http://creativecommons.org/ns#"
   xmlns:rdf="http://www.w3.org/1999/02/22-rdf-syntax-ns#"
   xmlns:svg="http://www.w3.org/2000/svg"
   xmlns="http://www.w3.org/2000/svg"
   xmlns:sodipodi="http://sodipodi.sourceforge.net/DTD/sodipodi-0.dtd"
   xmlns:inkscape="http://www.inkscape.org/namespaces/inkscape"
   version="1.1"
   id="Capa_1"
   x="0px"
   y="0px"
   width="1369.1969"
   height="377.92505"
   viewBox="0 0 1369.1968 377.92504"
   enable-background="new 0 0 595.28 841.89"
   xml:space="preserve"
   inkscape:version="0.48.0 r9654"
   sodipodi:docname="CTIC_CT-W3C.svg"><metadata
   id="metadata73"><rdf:RDF><cc:Work
       rdf:about=""><dc:format>image/svg+xml</dc:format><dc:type
         rdf:resource="http://purl.org/dc/dcmitype/StillImage" /><dc:title></dc:title></cc:Work></rdf:RDF></metadata><defs
   id="defs71"><inkscape:perspective
   sodipodi:type="inkscape:persp3d"
   inkscape:vp_x="0 : 420.94501 : 1"
   inkscape:vp_y="0 : 1000 : 0"
   inkscape:vp_z="595.28003 : 420.94501 : 1"
   inkscape:persp3d-origin="297.64001 : 280.63 : 1"
   id="perspective75" /><inkscape:perspective
   id="perspective2918"
   inkscape:persp3d-origin="61.081 : 30.775 : 1"
   inkscape:vp_z="122.162 : 46.1625 : 1"
   inkscape:vp_y="0 : 1000 : 0"
   inkscape:vp_x="0 : 46.1625 : 1"
   sodipodi:type="inkscape:persp3d" />
    
    
    
  
      
      
      
      
      
      
      
      
      
      
      
      
    
    
    </defs><sodipodi:namedview
   pagecolor="#ffffff"
   bordercolor="#666666"
   borderopacity="1"
   objecttolerance="10"
   gridtolerance="10"
   guidetolerance="10"
   inkscape:pageopacity="0"
   inkscape:pageshadow="2"
   inkscape:window-width="1024"
   inkscape:window-height="691"
   id="namedview69"
   showgrid="false"
   inkscape:zoom="0.39643468"
   inkscape:cx="800.68768"
   inkscape:cy="210.32073"
   inkscape:window-x="0"
   inkscape:window-y="24"
   inkscape:window-maximized="1"
   inkscape:current-layer="Capa_1" />































<path
   style="fill:#000000;fill-opacity:1;stroke:#000000;stroke-opacity:1"
   d="m 958.11908,227.50368 h 3.09842 v 1.37661 c 0.0139,1.88955 -0.14279,3.34241 -0.46996,4.35581 -0.49076,1.53465 -1.41682,2.57578 -2.78095,3.12337 -1.07579,0.45194 -2.65757,0.70702 -4.7426,0.76248 -0.92606,0 -2.31515,0 -4.17004,0 -2.38585,0 -4.21163,-0.19963 -5.47872,-0.59335 -2.75323,-0.85813 -4.30036,-3.27032 -4.64001,-7.23796 -0.16358,-1.90757 -0.24538,-4.0328 -0.24538,-6.37845 0,-4.42789 0.0887,-7.1936 0.26479,-8.29711 0.53235,-3.29943 2.7352,-5.207 6.60719,-5.7241 1.28234,-0.16359 3.36875,-0.24676 6.25922,-0.24676 2.9584,0 5.03233,0.32717 6.21763,0.98151 1.52773,0.84288 2.40665,2.33456 2.63817,4.46948 0.0818,0.80407 0.14972,1.92005 0.20379,3.34796 h -3.14001 c 0,-0.43669 -0.007,-0.72227 -0.0208,-0.85813 -0.0277,-2.31931 -0.46303,-3.7999 -1.30868,-4.44037 -0.7098,-0.54621 -2.28327,-0.81932 -4.7218,-0.81932 -2.61737,0 -4.22549,0.0333 -4.82438,0.10259 -2.18068,0.23152 -3.54066,0.83734 -4.07855,1.8133 -0.53789,0.97736 -0.80683,2.695 -0.80683,5.15433 0,6.74859 0.17606,10.94636 0.53095,12.59192 0.3549,1.64556 1.28096,2.69362 2.77818,3.14694 0.70841,0.2024 2.22643,0.30776 4.55544,0.30776 4.05914,0 6.48935,-0.38401 7.29342,-1.15203 0.65434,-0.63216 0.98151,-2.00461 0.98151,-4.11874 0,-0.37015 0,-0.92745 0,-1.66774 z"
   id="path3"
   inkscape:connector-curvature="0" /><path
   style="fill:#000000;fill-opacity:1;stroke:#000000;stroke-opacity:1"
   d="m 983.95726,230.91818 h 2.93206 c 0.0194,0.37014 0.0291,0.64186 0.0291,0.81931 0,2.29297 -0.90527,3.83594 -2.71857,4.62614 -1.15758,0.50462 -3.08733,0.75832 -5.78649,0.75832 -3.61274,0 -5.99859,-0.78466 -7.15617,-2.35536 -0.96765,-1.30868 -1.45147,-3.87475 -1.45147,-7.69545 0,-3.73889 0.45748,-6.28417 1.36968,-7.63583 1.10351,-1.63724 3.4949,-2.45517 7.1728,-2.45517 2.67005,0 4.55128,0.28004 5.64093,0.83734 1.68853,0.87199 2.62984,2.87661 2.81977,6.01384 0.0402,0.66682 0.0679,1.91589 0.0818,3.74167 h -14.06973 c 0.0139,2.85027 0.25924,4.6705 0.73613,5.46209 0.69455,1.10351 2.32208,1.65526 4.884,1.65526 3.02494,0 4.762,-0.43391 5.21116,-1.30452 0.20379,-0.39371 0.30499,-1.2158 0.30499,-2.46764 z m 0,-5.56607 c -0.0277,-1.67606 -0.0887,-2.73798 -0.18438,-3.18714 -0.24676,-1.28235 -0.8207,-2.10027 -1.72319,-2.45517 -0.72366,-0.28697 -1.87985,-0.42976 -3.46579,-0.42976 -1.43623,0 -2.4621,0.0832 -3.07763,0.24538 -1.0938,0.28697 -1.83271,0.90665 -2.21533,1.86044 -0.32856,0.81931 -0.48521,2.14047 -0.47135,3.96486 h 11.13767 z"
   id="path5"
   inkscape:connector-curvature="0" /><path
   style="fill:#000000;fill-opacity:1;stroke:#000000;stroke-opacity:1"
   d="m 997.21323,217.27265 h 2.86277 l -0.0985,2.66589 0.0818,0.061 c 0.5047,-1.16451 1.378,-1.97966 2.6202,-2.44546 1.0369,-0.38263 2.3332,-0.57533 3.8886,-0.57533 3.2481,0 5.3761,0.83734 6.3868,2.51617 0.4505,0.75138 0.6751,2.28327 0.6751,4.60396 v 12.72639 h -2.8475 V 224.3401 c 0,-1.29621 -0.061,-2.19177 -0.1844,-2.68252 -0.2454,-0.95518 -0.7888,-1.58872 -1.6344,-1.90342 -0.653,-0.23151 -1.586,-0.34796 -2.7962,-0.34796 -2.0948,0 -3.6059,0.40896 -4.5319,1.22827 -0.9663,0.87477 -1.4487,2.34565 -1.4487,4.41958 v 11.76984 h -2.97367 v -19.55124 z"
   id="path7"
   inkscape:connector-curvature="0" /><path
   style="fill:#000000;fill-opacity:1;stroke:#000000;stroke-opacity:1"
   d="m 1034.9044,217.27265 v 2.34427 h -7.5776 v 11.99719 c 0,1.20332 0.1705,2.00184 0.5143,2.39833 0.3854,0.45193 1.1632,0.67652 2.3318,0.67652 1.2394,0 2.0504,-0.3341 2.4358,-1.00508 0.2745,-0.46303 0.4131,-1.38632 0.4131,-2.76709 0,-0.28558 0,-0.628 0,-1.0231 h 2.6174 c 0.014,0.6682 0.021,1.15203 0.021,1.45286 0,2.006 -0.4312,3.45886 -1.2921,4.35997 -0.89,0.9413 -2.3318,1.41404 -4.3281,1.41404 -2.9126,0 -4.6719,-0.84843 -5.2721,-2.54251 -0.1927,-0.53234 -0.2884,-1.52495 -0.2884,-2.97226 v -11.98887 h -2.6797 v -2.34427 h 2.6797 v -4.69129 h 2.8489 v 4.69129 h 7.5762 z"
   id="path9"
   inkscape:connector-curvature="0" /><path
   style="fill:#000000;fill-opacity:1;stroke:#000000;stroke-opacity:1"
   d="m 1044.1623,217.27265 h 2.8488 l -0.2911,2.25693 0.061,0.061 c 0.6266,-1.02865 1.3004,-1.71488 2.0226,-2.0573 1.0107,-0.48105 2.2015,-0.72088 3.5795,-0.72088 3.5989,0 5.3969,1.85766 5.3969,5.57438 0,0.26063 -0,0.71257 -0.01,1.35443 h -2.8489 c 0,-0.6585 0,-1.18391 0,-1.58317 0,-1.94501 -1.0771,-2.91682 -3.2342,-2.91682 -2.1156,0 -3.4991,0.67375 -4.1507,2.0268 -0.3521,0.73614 -0.5282,2.01293 -0.5282,3.82762 v 11.73102 h -2.8488 v -19.55401 z"
   id="path11"
   inkscape:connector-curvature="0" /><path
   style="fill:#000000;fill-opacity:1;stroke:#000000;stroke-opacity:1"
   d="m 1075.1173,216.97875 c 3.2066,0 5.3623,0.46442 6.4686,1.39187 1.4459,1.21441 2.1682,4.10766 2.1682,8.67973 0,2.38862 -0.1165,4.13261 -0.3494,5.23889 -0.463,2.10166 -1.4043,3.4658 -2.8239,4.0938 -1.1188,0.49075 -2.9182,0.73752 -5.4011,0.73752 -3.2745,0 -5.4593,-0.4658 -6.5503,-1.39186 -0.9968,-0.84704 -1.6456,-2.24722 -1.9437,-4.19777 -0.1511,-0.98152 -0.2259,-2.56469 -0.2259,-4.74953 0,-4.4071 0.7236,-7.21023 2.1696,-8.41078 1.1049,-0.92745 3.2675,-1.39187 6.4879,-1.39187 z m 0,2.42883 c -2.2985,0 -3.7624,0.26479 -4.3918,0.79852 -0.8609,0.73752 -1.2935,2.95008 -1.2935,6.63908 0,3.98704 0.4326,6.3424 1.2935,7.06744 0.6169,0.51987 2.0878,0.77911 4.4126,0.77911 2.2847,0 3.7348,-0.25924 4.3503,-0.77911 0.8623,-0.73613 1.2934,-3.02633 1.2934,-6.86227 0,-3.83871 -0.4311,-6.12059 -1.2934,-6.84425 -0.6294,-0.53234 -2.0864,-0.79852 -4.3711,-0.79852 z"
   id="path13"
   inkscape:connector-curvature="0" /><polygon
   style="fill:#000000;fill-opacity:1;stroke:#000000;stroke-opacity:1"
   points="338.705,438.147 338.705,436.032 354.045,436.032 354.045,438.147 347.525,438.147 347.525,456.179 345.261,456.179 345.261,438.147 "
   id="polygon15"
   transform="matrix(1.3863173,0,0,1.3863173,638.243,-395.58218)" /><path
   style="fill:#000000;fill-opacity:1;stroke:#000000;stroke-opacity:1"
   d="m 1147.2904,230.91818 h 2.9293 c 0.021,0.37014 0.029,0.64186 0.029,0.81931 0,2.29297 -0.9067,3.83594 -2.72,4.62614 -1.1589,0.50462 -3.0873,0.75832 -5.7864,0.75832 -3.6114,0 -5.9973,-0.78466 -7.1562,-2.35536 -0.9677,-1.30868 -1.4515,-3.87475 -1.4515,-7.69545 0,-3.73889 0.4561,-6.28417 1.3697,-7.63583 1.1021,-1.63724 3.4935,-2.45517 7.1728,-2.45517 2.67,0 4.5499,0.28004 5.6395,0.83734 1.69,0.87199 2.6285,2.87661 2.8198,6.01384 0.04,0.66682 0.069,1.91589 0.082,3.74167 h -14.0684 c 0.014,2.85027 0.2593,4.6705 0.7348,5.46209 0.6945,1.10351 2.3235,1.65526 4.884,1.65526 3.0263,0 4.762,-0.43391 5.2125,-1.30452 0.2066,-0.39371 0.3092,-1.2158 0.3092,-2.46764 z m 0,-5.56607 c -0.029,-1.67606 -0.089,-2.73798 -0.1858,-3.18714 -0.2454,-1.28235 -0.8207,-2.10027 -1.7218,-2.45517 -0.725,-0.28697 -1.8812,-0.42976 -3.4672,-0.42976 -1.4362,0 -2.4607,0.0832 -3.079,0.24538 -1.0938,0.28697 -1.8313,0.90665 -2.2139,1.86044 -0.3286,0.81931 -0.4866,2.14047 -0.4728,3.96486 h 11.1405 z"
   id="path17"
   inkscape:connector-curvature="0" /><path
   style="fill:#000000;fill-opacity:1;stroke:#000000;stroke-opacity:1"
   d="m 1173.9229,229.77446 h 2.86 c 0.015,0.42283 0.021,0.75693 0.021,1.00231 0,2.59241 -0.7957,4.35304 -2.3914,5.28187 -1.1992,0.70979 -3.2107,1.06469 -6.0332,1.06469 -3.5712,0 -5.9293,-0.8207 -7.0744,-2.45655 -0.9275,-1.32394 -1.3905,-3.89555 -1.3905,-7.71624 0,-3.45193 0.4228,-5.86274 1.2671,-7.22688 1.1312,-1.82716 3.4755,-2.74213 7.0328,-2.74213 2.7671,0 4.7509,0.34796 5.9501,1.04389 0.9551,0.5476 1.5956,1.35998 1.9228,2.43992 0.2315,0.72366 0.3549,1.78974 0.3687,3.19685 h -2.8613 v -0.51155 c 0,-1.6719 -0.5532,-2.76016 -1.6553,-3.26616 -0.6945,-0.31608 -2.0157,-0.47274 -3.9635,-0.47274 -2.4371,0 -3.969,0.73059 -4.5956,2.19316 -0.3272,0.77772 -0.4908,2.64925 -0.4908,5.61319 0,3.63216 0.5116,5.87938 1.5319,6.74028 0.5864,0.49076 2.1044,0.73613 4.5568,0.73613 2.0975,0 3.4492,-0.29667 4.0564,-0.8914 0.6072,-0.59473 0.9039,-1.93946 0.8886,-4.02864 z"
   id="path19"
   inkscape:connector-curvature="0" /><path
   style="fill:#000000;fill-opacity:1;stroke:#000000;stroke-opacity:1"
   d="m 1186.6202,217.27265 h 2.8628 l -0.099,2.66589 0.082,0.061 c 0.5033,-1.16451 1.378,-1.97966 2.6202,-2.44546 1.0369,-0.38263 2.3345,-0.57533 3.8886,-0.57533 3.2481,0 5.3775,0.83734 6.3867,2.51617 0.4492,0.75138 0.6738,2.28327 0.6738,4.60396 v 12.72639 h -2.8489 V 224.3401 c 0,-1.29621 -0.061,-2.19177 -0.1844,-2.68252 -0.244,-0.95518 -0.7874,-1.58872 -1.633,-1.90342 -0.653,-0.23151 -1.586,-0.34796 -2.7962,-0.34796 -2.0962,0 -3.6059,0.40896 -4.5319,1.22827 -0.9663,0.87477 -1.4501,2.34565 -1.4501,4.41958 v 11.76984 h -2.9737 v -19.55124 z"
   id="path21"
   inkscape:connector-curvature="0" /><path
   style="fill:#000000;fill-opacity:1;stroke:#000000;stroke-opacity:1"
   d="m 1221.999,216.97875 c 3.208,0 5.3637,0.46442 6.4686,1.39187 1.4459,1.21441 2.1682,4.10766 2.1682,8.67973 0,2.38862 -0.1151,4.13261 -0.3466,5.23889 -0.4658,2.10166 -1.4071,3.4658 -2.8253,4.0938 -1.1174,0.49075 -2.9182,0.73752 -5.4025,0.73752 -3.2745,0 -5.4579,-0.4658 -6.5489,-1.39186 -0.9968,-0.84704 -1.6456,-2.24722 -1.945,-4.19777 -0.1498,-0.98152 -0.226,-2.56469 -0.226,-4.74953 0,-4.4071 0.725,-7.21023 2.171,-8.41078 1.1035,-0.92745 3.2675,-1.39187 6.4865,-1.39187 z m 0,2.42883 c -2.2971,0 -3.761,0.26479 -4.3904,0.79852 -0.8623,0.73752 -1.2935,2.95008 -1.2935,6.63908 0,3.98704 0.4312,6.3424 1.2935,7.06744 0.6141,0.51987 2.085,0.77911 4.4126,0.77911 2.2833,0 3.7348,-0.25924 4.3503,-0.77911 0.8623,-0.73613 1.2934,-3.02633 1.2934,-6.86227 0,-3.83871 -0.4311,-6.12059 -1.2934,-6.84425 -0.6308,-0.53234 -2.0878,-0.79852 -4.3725,-0.79852 z"
   id="path23"
   inkscape:connector-curvature="0" /><rect
   style="fill:#000000;fill-opacity:1;stroke:#000000;stroke-opacity:1"
   x="1240.8446"
   y="208.89655"
   width="2.8461094"
   height="27.928749"
   id="rect25" /><path
   style="fill:#000000;fill-opacity:1;stroke:#000000;stroke-opacity:1"
   d="m 1262.5405,216.97875 c 3.2065,0 5.3623,0.46442 6.4672,1.39187 1.4473,1.21441 2.1682,4.10766 2.1682,8.67973 0,2.38862 -0.1151,4.13261 -0.348,5.23889 -0.463,2.10166 -1.4043,3.4658 -2.8239,4.0938 -1.1188,0.49075 -2.9182,0.73752 -5.4025,0.73752 -3.2745,0 -5.4579,-0.4658 -6.549,-1.39186 -0.9967,-0.84704 -1.6441,-2.24722 -1.9436,-4.19777 -0.1511,-0.98152 -0.226,-2.56469 -0.226,-4.74953 0,-4.4071 0.7223,-7.21023 2.1696,-8.41078 1.1049,-0.92745 3.269,-1.39187 6.488,-1.39187 z m 0,2.42883 c -2.2985,0 -3.7625,0.26479 -4.3919,0.79852 -0.8609,0.73752 -1.2934,2.95008 -1.2934,6.63908 0,3.98704 0.4325,6.3424 1.2934,7.06744 0.6156,0.51987 2.0865,0.77911 4.4127,0.77911 2.2846,0 3.7347,-0.25924 4.3516,-0.77911 0.8609,-0.73613 1.2921,-3.02633 1.2921,-6.86227 0,-3.83871 -0.4312,-6.12059 -1.2921,-6.84425 -0.6307,-0.53234 -2.0878,-0.79852 -4.3724,-0.79852 z m 3.1234,-10.21716 1.4722,2.01571 -6.0318,3.72088 -0.9815,-1.52079 5.5411,-4.2158 z"
   id="path27"
   inkscape:connector-curvature="0" /><polygon
   style="fill:#000000;fill-opacity:1;stroke:#000000;stroke-opacity:1"
   points="452.581,436.244 453.643,437.698 449.292,440.382 448.584,439.285 "
   id="polygon29"
   transform="matrix(1.3863173,0,0,1.3863173,638.243,-395.58218)" /><path
   style="fill:#000000;fill-opacity:1;stroke:#000000;stroke-opacity:1"
   d="m 1297.7571,217.27265 v 20.81972 c 0,1.80082 -0.2052,3.17744 -0.6141,4.13122 -0.5448,1.25323 -1.5444,2.14741 -3.0028,2.67837 -1.1978,0.4256 -2.7851,0.63493 -4.7592,0.63493 -3.9094,0 -6.2786,-0.83179 -7.1104,-2.49398 -0.409,-0.81793 -0.6197,-2.11968 -0.6322,-3.90526 h 2.7546 c 0.029,1.12014 0.1303,1.90341 0.3078,2.35397 0.2856,0.70979 0.8706,1.16589 1.7564,1.37107 0.6793,0.16358 1.7149,0.24537 3.1026,0.24537 1.988,0 3.348,-0.29251 4.0841,-0.87892 0.8429,-0.66821 1.2643,-1.96441 1.2643,-3.88862 v -3.92744 l -0.061,-0.0208 c -0.3951,0.95656 -1.0342,1.62615 -1.92,2.00877 -1.1174,0.47828 -2.5592,0.7195 -4.3281,0.7195 -4.0716,0 -6.4949,-1.53604 -7.2685,-4.60535 -0.3008,-1.13262 -0.4505,-2.8267 -0.4505,-5.07808 0,-2.0462 0.069,-3.5254 0.2038,-4.43899 0.2467,-1.73428 0.7902,-3.07901 1.6372,-4.03418 1.1742,-1.32255 3.2315,-1.98521 6.1774,-1.98521 3.1096,0 5.1474,0.98568 6.1151,2.95979 l 0.062,-0.0208 -0.1678,-2.6451 h 2.8489 z m -8.4676,2.13493 c -2.4247,0 -3.9912,0.63494 -4.6996,1.9048 -0.4908,0.87477 -0.7362,2.67144 -0.7362,5.38862 0,3.70285 0.3882,5.97641 1.1659,6.82345 0.7084,0.77911 2.1391,1.16728 4.2907,1.16728 2.4912,0 4.0979,-0.77218 4.8216,-2.31515 0.463,-0.95517 0.6959,-2.89602 0.6959,-5.81837 0,-3.00415 -0.4034,-4.97272 -1.2061,-5.90017 -0.7236,-0.83318 -2.1654,-1.25046 -4.3322,-1.25046 z"
   id="path31"
   inkscape:connector-curvature="0" /><path
   style="fill:#000000;fill-opacity:1;stroke:#000000;stroke-opacity:1"
   d="m 1311.3638,208.89652 v 3.22458 h -2.8489 v -3.22458 h 2.8489 z m 0,8.37613 v 19.55262 h -2.8489 v -19.55262 h 2.8489 z"
   id="path33"
   inkscape:connector-curvature="0" /><rect
   style="fill:#000000;fill-opacity:1;stroke:#000000;stroke-opacity:1"
   x="1308.5149"
   y="208.89655"
   width="2.8488822"
   height="3.2245741"
   id="rect35" /><rect
   style="fill:#000000;fill-opacity:1;stroke:#000000;stroke-opacity:1"
   x="1308.5149"
   y="217.27266"
   width="2.8488822"
   height="19.55262"
   id="rect37" /><path
   style="fill:#000000;fill-opacity:1;stroke:#000000;stroke-opacity:1"
   d="m 1335.5218,229.77446 h 2.86 c 0.015,0.42283 0.022,0.75693 0.022,1.00231 0,2.59241 -0.7985,4.35304 -2.3927,5.28187 -1.2006,0.70979 -3.2108,1.06469 -6.0333,1.06469 -3.5712,0 -5.9293,-0.8207 -7.0744,-2.45655 -0.9288,-1.32394 -1.3918,-3.89555 -1.3918,-7.71624 0,-3.45193 0.4242,-5.86274 1.2684,-7.22688 1.1299,-1.82716 3.4755,-2.74213 7.0328,-2.74213 2.7685,0 4.7523,0.34796 5.9501,1.04389 0.9538,0.5476 1.5957,1.35998 1.9228,2.43992 0.2315,0.72366 0.3549,1.78974 0.3674,3.19685 h -2.86 v -0.51155 c 0,-1.6719 -0.5517,-2.76016 -1.6552,-3.26616 -0.696,-0.31608 -2.0157,-0.47274 -3.9635,-0.47274 -2.4372,0 -3.9704,0.73059 -4.597,2.19316 -0.3258,0.77772 -0.4894,2.64925 -0.4894,5.61319 0,3.63216 0.5102,5.87938 1.5305,6.74028 0.5864,0.49076 2.1058,0.73613 4.5568,0.73613 2.0989,0 3.4492,-0.29667 4.0578,-0.8914 0.6058,-0.5975 0.9011,-1.93946 0.8886,-4.02864 z"
   id="path39"
   inkscape:connector-curvature="0" /><path
   style="fill:#000000;fill-opacity:1;stroke:#000000;stroke-opacity:1"
   d="m 1356.2888,216.97875 c 3.2066,0 5.3623,0.46442 6.4686,1.39187 1.4459,1.21441 2.1696,4.10766 2.1696,8.67973 0,2.38862 -0.1165,4.13261 -0.348,5.23889 -0.4658,2.10166 -1.4071,3.4658 -2.8253,4.0938 -1.1188,0.49075 -2.9182,0.73752 -5.4025,0.73752 -3.2745,0 -5.4593,-0.4658 -6.5503,-1.39186 -0.9954,-0.84704 -1.6442,-2.24722 -1.9437,-4.19777 -0.1497,-0.98152 -0.2259,-2.56469 -0.2259,-4.74953 0,-4.4071 0.725,-7.21023 2.1696,-8.41078 1.1062,-0.92745 3.2689,-1.39187 6.4879,-1.39187 z m 0,2.42883 c -2.2957,0 -3.7611,0.26479 -4.3904,0.79852 -0.8623,0.73752 -1.2935,2.95008 -1.2935,6.63908 0,3.98704 0.4312,6.3424 1.2935,7.06744 0.6155,0.51987 2.085,0.77911 4.4126,0.77911 2.2833,0 3.7334,-0.25924 4.3503,-0.77911 0.8623,-0.73613 1.2934,-3.02633 1.2934,-6.86227 0,-3.83871 -0.4311,-6.12059 -1.2934,-6.84425 -0.6308,-0.53234 -2.0864,-0.79852 -4.3725,-0.79852 z"
   id="path41"
   inkscape:connector-curvature="0" /><path
   style="fill:#000000;fill-opacity:1;stroke:#000000;stroke-opacity:1"
   d="m 1045.1133,186.16231 v -34.86034 h -38.8682 c -3.7389,0 -7.34472,-0.0665 -10.81883,-0.20101 -3.47273,-0.13448 -6.67789,-0.53512 -9.61689,-1.20194 -2.93899,-0.66821 -5.57577,-1.73706 -7.9131,-3.20655 -2.33733,-1.4695 -4.24074,-3.6072 -5.71024,-6.41172 -0.26756,-0.53373 -0.60166,-1.33502 -1.0023,-2.40387 -0.40065,-1.06885 -0.76802,-2.50508 -1.10213,-4.30729 -0.3341,-1.8036 -0.63493,-4.04112 -0.9011,-6.71116 -0.26618,-2.67144 -0.40065,-5.94315 -0.40065,-9.8179 0,-1.73567 0.0665,-3.67236 0.20102,-5.80867 0.13447,-2.13632 0.3341,-4.37383 0.60166,-6.71116 0.26756,-2.33734 0.70148,-4.608123 1.30175,-6.812368 0.60166,-2.202858 1.43623,-4.174201 2.50508,-5.90987 1.60397,-2.80452 3.47272,-4.942222 5.61042,-6.411718 2.1377,-1.469496 4.54019,-2.570232 7.21301,-3.30498 2.67143,-0.734749 5.60904,-1.135394 8.81559,-1.201937 3.20655,-0.06654 6.67791,-0.09982 10.41821,-0.09982 h 37.4624 V 45.919677 h -59.30248 c -4.00645,0 -8.21393,0.167744 -12.62103,0.50046 -4.4071,0.334103 -8.78232,1.135394 -13.12288,2.403875 -4.34056,1.26848 -8.51476,3.10535 -12.5226,5.509225 -4.00646,2.403874 -7.61227,5.676969 -10.81882,9.817899 -5.07531,6.411717 -8.38168,14.023985 -9.91772,22.839577 -1.53604,8.814206 -2.30406,19.099297 -2.30406,30.852487 0,6.6779 0.26618,12.62104 0.8013,17.83082 0.53373,5.20978 1.33502,9.84978 2.40387,13.92417 1.06746,4.073 2.40387,7.6802 4.00646,10.81882 1.60258,3.13862 3.47272,5.9778 5.61042,8.51476 2.80452,3.60581 5.8766,6.51153 9.21485,8.71578 3.33826,2.20285 6.94545,3.93852 10.81882,5.207 3.87338,1.26987 8.11412,2.13771 12.72224,2.60351 4.60812,0.46857 9.65015,0.70147 15.12611,0.70147 h 62.10982 z"
   id="path43"
   inkscape:connector-curvature="0" /><polygon
   style="fill:#000000;fill-opacity:1;stroke:#000000;stroke-opacity:1"
   points="289.425,343.617 325.553,343.617 325.553,419.633 358.214,419.633 358.214,343.617 394.344,343.617 394.344,318.471 289.425,318.471 "
   id="polygon45"
   transform="matrix(1.3863173,0,0,1.3863173,638.243,-395.58218)" /><rect
   style="fill:#000000;fill-opacity:1;stroke:#000000;stroke-opacity:1"
   x="1193.0305"
   y="45.919689"
   width="45.277122"
   height="140.24263"
   id="rect47" /><path
   style="fill:#000000;fill-opacity:1;stroke:#000000;stroke-opacity:1"
   d="m 1369.1913,186.16231 v -34.86034 h -38.8668 c -3.7389,0 -7.3461,-0.0665 -10.8202,-0.20101 -3.4714,-0.13448 -6.6765,-0.53512 -9.6155,-1.20194 -2.939,-0.66821 -5.5772,-1.73706 -7.9145,-3.20655 -2.3387,-1.4695 -4.2408,-3.6072 -5.7089,-6.41172 -0.2675,-0.53373 -0.6016,-1.33502 -1.0037,-2.40387 -0.3992,-1.06885 -0.7666,-2.50508 -1.1021,-4.30729 -0.3327,-1.8036 -0.6335,-4.04112 -0.8997,-6.71116 -0.2662,-2.67005 -0.4006,-5.94315 -0.4006,-9.8179 0,-1.73567 0.066,-3.67236 0.201,-5.80867 0.1331,-2.1377 0.3327,-4.37383 0.6016,-6.71116 0.2662,-2.33734 0.7015,-4.608123 1.3018,-6.812368 0.6003,-2.204244 1.4362,-4.174201 2.5051,-5.90987 1.6025,-2.80452 3.4713,-4.942222 5.609,-6.411718 2.1377,-1.469496 4.5402,-2.570232 7.2116,-3.30498 2.6728,-0.734749 5.6104,-1.135394 8.8156,-1.201937 3.2052,-0.06654 6.6779,-0.09982 10.4182,-0.09982 h 37.4652 V 45.919677 h -59.3025 c -4.0078,0 -8.2153,0.167744 -12.621,0.50046 -4.4085,0.334103 -8.7823,1.135394 -13.1243,2.403875 -4.3405,1.26848 -8.5134,3.10535 -12.5212,5.509225 -4.0078,2.403874 -7.6123,5.676969 -10.8174,9.817899 -5.0767,6.411717 -8.3831,14.023985 -9.9177,22.839577 -1.5361,8.814206 -2.3041,19.099297 -2.3041,30.852487 0,6.6779 0.2676,12.62104 0.8027,17.83082 0.5337,5.20978 1.3336,9.84978 2.4011,13.92417 1.0688,4.073 2.4052,7.6802 4.0092,10.81882 1.6012,3.13862 3.4727,5.9778 5.6104,8.51476 2.8032,3.60581 5.8752,6.51153 9.2149,8.71578 3.3382,2.20285 6.9454,3.93852 10.8188,5.207 3.8734,1.26987 8.1155,2.13771 12.7209,2.60351 4.6095,0.46857 9.6515,0.70147 15.1274,0.70147 h 62.1057 z"
   id="path49"
   inkscape:connector-curvature="0" /><path
   style="fill:#000000;fill-opacity:1;stroke:#000000;stroke-opacity:1"
   d="m 638.35529,73.999534 c 1.74676,-20.818327 26.15565,-32.481415 54.28126,-26.528568 19.42785,4.111817 35.96107,15.655681 43.97814,29.279021 -8.82114,-8.254133 -20.93616,-14.711599 -34.45276,-17.571571 -28.12699,-5.952847 -52.53449,5.708854 -54.28125,26.527181 -0.56701,6.751365 1.31007,13.609477 5.07392,20.012873 -9.83454,-9.187121 -15.53369,-20.597899 -14.59931,-31.718936 z"
   id="path51"
   inkscape:connector-curvature="0" /><path
   style="fill:#000000;fill-opacity:1;stroke:#000000;stroke-opacity:1"
   d="m 724.15863,177.43405 c 1.05499,-29.65471 32.30951,-47.00863 69.35468,-39.66115 24.57663,4.87429 46.20457,19.55262 58.02847,37.55257 -12.30357,-12.4727 -29.52579,-22.08265 -48.50308,-25.8465 -37.04517,-7.3461 -68.30108,10.00782 -69.35469,39.66253 -0.37707,10.59147 3.12892,21.25779 9.49905,30.96617 -12.24395,-12.39229 -19.56094,-27.60989 -19.02443,-42.67362 z"
   id="path53"
   inkscape:connector-curvature="0" /><path
   style="fill:#000000;fill-opacity:1;stroke:#000000;stroke-opacity:1"
   d="m 795.19214,82.152466 c 0.0582,-13.879809 14.95005,-21.842816 33.14269,-17.997171 13.78554,2.914039 25.7245,11.825286 30.79842,22.017491 -5.79342,-4.85627 -13.21853,-8.607644 -21.27304,-10.311428 -18.19402,-3.845644 -33.08446,4.118749 -33.14407,17.997171 -0.0153,3.499065 0.9122,7.034171 2.60073,10.427881 -7.43205,-6.223181 -12.158,-14.266594 -12.12473,-22.133944 z"
   id="path55"
   inkscape:connector-curvature="0" /><path
   style="fill:#000000;fill-opacity:1;stroke:#000000;stroke-opacity:1"
   d="m 777.12565,101.4098 c -1.74676,20.81833 -26.15565,32.48003 -54.28264,26.52718 -19.42785,-4.11182 -35.96107,-15.65568 -43.97814,-29.27902 8.82114,8.25275 20.93755,14.7116 34.45276,17.57157 28.12699,5.95285 52.53588,-5.71024 54.28125,-26.52718 0.567,-6.752752 -1.31007,-13.609477 -5.07392,-20.012877 9.83592,9.187125 15.53368,20.599289 14.60069,31.720327 z"
   id="path57"
   inkscape:connector-curvature="0" /><path
   style="fill:#000000;fill-opacity:1;stroke:#000000;stroke-opacity:1"
   d="m 885.9377,195.66829 c -1.05499,29.65471 -32.30951,47.00724 -69.35468,39.66115 -24.57525,-4.87568 -46.20457,-19.55262 -58.02709,-37.55257 12.30357,12.46993 29.5244,22.08265 48.50309,25.84512 37.04517,7.34748 68.29969,-10.00783 69.35468,-39.66115 0.37569,-10.59285 -3.12892,-21.25918 -9.49905,-30.96756 12.24257,12.39368 19.55955,27.6099 19.02305,42.67501 z"
   id="path59"
   inkscape:connector-curvature="0" /><path
   style="fill:#000000;fill-opacity:1;stroke:#000000;stroke-opacity:1"
   d="m 890.85358,106.14685 c -0.0596,13.8798 -14.95005,21.84281 -33.14407,17.99717 -13.78416,-2.91266 -25.72451,-11.8239 -30.79843,-22.01611 5.79342,4.85766 13.21854,8.60765 21.27304,10.31143 18.19403,3.84564 33.08446,-4.11875 33.14269,-17.998558 0.0152,-3.499065 -0.9122,-7.034174 -2.59935,-10.427878 7.43482,6.223178 12.15939,14.266591 12.12612,22.133946 z"
   id="path61"
   inkscape:connector-curvature="0" /><g
   id="g63"
   transform="matrix(1.3863173,0,0,1.3863173,638.243,-395.58218)"
   style="fill:#000000;fill-opacity:1;stroke:#000000;stroke-opacity:1">
	<polygon
   style="fill:#000000;fill-opacity:1;stroke:#000000;stroke-opacity:1"
   points="527.263,488.943 0,488.943 0,476.185 0,476.185 527.263,476.185 "
   id="polygon65" />
	<path
   style="fill:#000000;fill-opacity:1;stroke:#000000;stroke-opacity:1"
   d="M 263.631,482.564"
   id="path67"
   inkscape:connector-curvature="0" />
</g><polygon
   id="polygon2890"
   clip-rule="evenodd"
   points="44.33,73.725 44.33,75.854 39.888,75.854 39.888,78.113 44.673,78.113 44.673,80.243 36.698,80.243 36.698,69.664 44.543,69.664 44.543,71.786 39.888,71.786 39.888,73.725 "
   style="fill-rule:evenodd;fill:#000000;fill-opacity:1;stroke:#000000;stroke-opacity:1"
   transform="matrix(5.0237951,0,0,5.0237951,-47.258887,-42.943418)" /><path
   id="path2892"
   d="m 212.14477,348.79203 c 0,3.57694 -1.31623,6.49074 -3.9487,8.7414 -2.60735,2.22554 -6.49074,3.3358 -11.6552,3.3358 -2.88869,0 -5.45585,-0.25621 -7.70651,-0.76361 -2.25066,-0.53755 -4.70227,-1.29112 -7.35986,-2.26574 v -9.81649 c 2.32602,1.3313 4.34559,2.33606 6.0587,3.02935 1.71311,0.69328 3.59201,1.0349 5.6367,1.0349 3.45135,0 5.17451,-0.94448 5.17451,-2.83342 0,-0.63802 -0.25622,-1.20069 -0.76864,-1.688 -0.48731,-0.51242 -1.35643,-1.07007 -2.60735,-1.68799 -1.22581,-0.63802 -2.87361,-1.39159 -4.94342,-2.26071 -2.55711,-1.12533 -4.72739,-2.63247 -6.51586,-4.52142 -1.78847,-1.88894 -2.68773,-4.20491 -2.68773,-6.94288 0,-1.94421 0.58778,-3.80804 1.76335,-5.59651 1.20069,-1.78847 3.00423,-3.24537 5.41063,-4.3707 2.40137,-1.15045 5.3001,-1.72316 8.70121,-1.72316 0.81888,0 1.85378,0.0653 3.10471,0.1909 1.27604,0.1055 2.87361,0.39688 4.7927,0.87917 1.94421,0.4873 3.78292,1.17556 5.52115,2.0698 v 9.55023 c -0.81888,-0.4873 -1.50714,-0.89423 -2.07483,-1.2258 -0.53252,-0.33157 -1.26097,-0.70333 -2.18535,-1.11528 -0.92438,-0.40693 -2.00952,-0.76362 -3.26044,-1.07007 -1.22581,-0.33157 -2.4918,-0.49736 -3.79799,-0.50238 -1.5825,0 -2.67266,0.31147 -3.25542,0.92438 -0.58778,0.6129 -0.88419,1.2258 -0.88419,1.83871 0,0.63802 0.30645,1.24087 0.91936,1.80354 0.6129,0.53252 1.9844,1.21576 4.10444,2.02961 3.06954,1.17557 5.52115,2.39133 7.35986,3.64225 1.83871,1.22581 3.14489,2.58223 3.90851,4.06425 0.79878,1.48202 1.19566,3.2303 1.19566,5.24987 z"
   clip-rule="evenodd"
   style="fill-rule:evenodd;fill:#000000;fill-opacity:1;stroke:#000000;stroke-opacity:1"
   inkscape:connector-curvature="0" /><path
   id="path2894"
   d="m 258.46416,340.39224 c 0,2.60735 -0.37176,5.1293 -1.11025,7.55077 -0.74353,2.43151 -1.8789,4.62691 -3.41619,6.59624 -1.50713,1.94421 -3.46139,3.48651 -5.86276,4.63696 -2.37626,1.12533 -5.14939,1.688 -8.31941,1.688 -2.55711,0 -4.57668,-0.26626 -6.0587,-0.80381 -1.4569,-0.53754 -2.9138,-1.25595 -4.3707,-2.15018 v 20.0148 h -13.80539 v -56.77894 h 13.80539 v 3.52671 c 1.38155,-1.20069 2.90376,-2.20042 4.56161,-2.98916 1.68799,-0.81888 3.96377,-1.22581 6.82734,-1.22581 2.83844,0 5.62162,0.70334 8.35959,2.11 2.73797,1.40666 4.98361,3.60206 6.74696,6.59624 1.76335,2.95902 2.64251,6.70677 2.64251,11.22818 z m -14.52881,0.30645 c 0,-2.35113 -0.37176,-4.25515 -1.11026,-5.71205 -0.74352,-1.48202 -1.70307,-2.54204 -2.87863,-3.18006 -1.17557,-0.66314 -2.39133,-0.99471 -3.64226,-0.99974 -1.63775,0 -2.97911,0.27129 -4.02406,0.80883 -1.04997,0.51243 -2.03463,1.1605 -2.95399,1.95426 v 14.91565 c 0.48731,0.25621 0.99471,0.54759 1.53226,0.88419 0.56266,0.30645 1.11026,0.57271 1.65283,0.8038 0.56266,0.2311 1.15045,0.422 1.76335,0.57774 0.63802,0.15071 1.31623,0.22607 2.02961,0.22607 2.17531,0 3.9889,-0.91935 5.4458,-2.75806 1.4569,-1.83871 2.18535,-4.34559 2.18535,-7.52063 z"
   clip-rule="evenodd"
   style="fill-rule:evenodd;fill:#000000;fill-opacity:1;stroke:#000000;stroke-opacity:1"
   inkscape:connector-curvature="0" /><path
   id="path2896"
   d="m 302.10587,358.22672 c -2.01956,0.79376 -3.88339,1.43178 -5.59651,1.91406 -1.71311,0.48731 -3.76784,0.72845 -6.17424,0.72845 -2.27578,0 -3.8633,-0.39688 -4.75251,-1.18561 -0.89424,-0.81888 -1.53728,-1.80355 -1.91909,-2.95399 -1.48202,1.20068 -3.13485,2.20042 -4.94341,2.98915 -1.81359,0.76864 -4.18985,1.15045 -7.13379,1.15045 -2.83342,0 -5.13432,-0.48731 -6.9027,-1.4569 -1.73823,-0.99471 -2.96404,-2.23559 -3.68244,-3.71761 -0.68826,-1.50714 -1.0349,-3.05446 -1.0349,-4.64198 0,-2.40138 0.60285,-4.38075 1.80354,-5.94315 1.22581,-1.5825 2.86356,-2.87361 4.90825,-3.87335 2.04468,-0.99973 4.75251,-2.03464 8.1285,-3.1047 1.91909,-0.61291 3.36092,-1.0751 4.33553,-1.38155 0.99472,-0.33157 1.73824,-0.58778 2.22052,-0.76361 0.48229,-0.17584 0.99471,-0.41196 1.53728,-0.69329 0,-1.88895 -0.38683,-3.37097 -1.15045,-4.44606 -0.76864,-1.07509 -2.43151,-1.61264 -4.9836,-1.61264 -3.0193,0 -5.81756,0.66817 -8.39979,1.99445 -2.58223,1.33131 -4.94341,3.04442 -7.09359,5.13934 v -10.58011 c 1.71311,-1.2258 3.56187,-2.22554 5.55631,-2.99418 1.99445,-0.78874 4.07932,-1.37652 6.2496,-1.76335 2.17531,-0.38181 4.37071,-0.57272 6.59625,-0.57272 5.65177,0 9.89185,1.10022 12.73029,3.29561 2.86357,2.17531 4.29032,5.17954 4.29535,9.00767 v 15.07138 c 0,1.43179 0.12559,2.50688 0.38181,3.22026 0.28133,0.69328 0.77868,1.0349 1.49709,1.0349 0.86911,0 2.04468,-0.36674 3.5267,-1.11026 v 7.24934 z m -19.21099,-7.48043 v -9.24379 c -3.27049,1.33131 -5.66182,2.53199 -7.16896,3.60709 -1.50713,1.04495 -2.26573,2.48175 -2.26573,4.29032 0,1.30618 0.37176,2.3009 1.11528,2.99418 0.76362,0.68826 1.64781,1.0349 2.64252,1.0349 0.94447,0 1.8789,-0.25621 2.79825,-0.76864 0.9495,-0.53252 1.90402,-1.17054 2.87864,-1.91406 z"
   clip-rule="evenodd"
   style="fill-rule:evenodd;fill:#000000;fill-opacity:1;stroke:#000000;stroke-opacity:1"
   inkscape:connector-curvature="0" /><path
   id="path2898"
   d="m 344.09475,360.18097 h -13.80539 v -20.24589 -0.80381 c 0,-2.14516 -0.35669,-4.01401 -1.07007,-5.59651 -0.69328,-1.60761 -2.22554,-2.41644 -4.60179,-2.41644 -1.12533,0 -2.12004,0.21602 -2.98916,0.65309 -0.844,0.41195 -1.61264,0.94447 -2.3009,1.60762 -0.66314,0.66816 -1.23083,1.30618 -1.68799,1.91909 -0.46219,0.6129 -0.93443,1.26599 -1.41671,1.95425 v 22.9286 h -13.80539 v -39.03489 h 13.80539 v 5.59651 c 2.17028,-2.32601 4.34558,-3.9487 6.51586,-4.86806 2.20042,-0.94447 4.63696,-1.41671 7.32469,-1.41671 9.35431,0 14.03146,5.59651 14.03146,16.79455 v 22.9286 z m -5.90296,-56.48253 c 0,2.60735 -0.37176,4.83289 -1.11026,6.6716 -0.73849,1.83871 -1.78847,3.23533 -3.14489,4.1798 -1.35643,0.94447 -2.93892,1.41671 -4.75251,1.41671 -0.81888,0 -1.69805,-0.12559 -2.64252,-0.38181 -0.92438,-0.25621 -2.22554,-0.68826 -3.91354,-1.30618 -1.68799,-0.61291 -2.90375,-1.03491 -3.64225,-1.266 -0.7184,-0.22607 -1.35642,-0.34162 -1.91406,-0.34162 -1.78847,0 -2.83845,1.10021 -3.1449,3.29561 h -6.10391 c 0,-2.7882 0.46219,-5.0891 1.38154,-6.90269 0.91936,-1.83871 2.08488,-3.19514 3.49154,-4.06425 1.40666,-0.86912 2.75807,-1.30117 4.06425,-1.30619 1.40666,0 3.63221,0.54759 6.6716,1.64781 1.02486,0.35668 1.86885,0.66314 2.53199,0.91935 0.66315,0.25621 1.26098,0.46219 1.80355,0.6129 0.56266,0.15574 0.98466,0.2311 1.26097,0.2311 0.96959,0 1.69804,-0.34664 2.18535,-1.0349 0.51243,-0.71338 0.76362,-1.50714 0.76864,-2.37626 h 6.20941 z"
   clip-rule="evenodd"
   style="fill-rule:evenodd;fill:#000000;fill-opacity:1;stroke:#000000;stroke-opacity:1"
   inkscape:connector-curvature="0" /><path
   id="path2900"
   d="m 388.84672,358.22672 c -2.01957,0.79376 -3.8834,1.43178 -5.59651,1.91406 -1.71311,0.48229 -3.76785,0.72845 -6.17424,0.72845 -2.27578,0 -3.8633,-0.39688 -4.75754,-1.18561 -0.89423,-0.81888 -1.53226,-1.80355 -1.91406,-2.95399 -1.48202,1.20068 -3.13485,2.20042 -4.94844,2.98915 -1.81359,0.76864 -4.18985,1.15045 -7.12877,1.15045 -2.83844,0 -5.13934,-0.48731 -6.90269,-1.4569 -1.73823,-0.99471 -2.96404,-2.23559 -3.67742,-3.71761 -0.68826,-1.50714 -1.0349,-3.05446 -1.0349,-4.64198 0,-2.40138 0.60285,-4.38075 1.80354,-5.94315 1.22581,-1.5825 2.86356,-2.87361 4.90825,-3.87335 2.04468,-0.99973 4.75251,-2.03464 8.1285,-3.1047 1.91909,-0.61291 3.36092,-1.0751 4.33051,-1.38155 0.99974,-0.33157 1.73823,-0.58778 2.22554,-0.76361 0.48731,-0.17584 0.99471,-0.41196 1.53226,-0.69329 0,-1.88895 -0.38181,-3.37097 -1.15045,-4.44606 -0.76362,-1.07509 -2.42649,-1.61264 -4.9836,-1.61264 -3.01931,0 -5.81756,0.66817 -8.39477,1.99445 -2.58223,1.33131 -4.94341,3.04442 -7.09359,5.13934 v -10.58011 c 1.71311,-1.2258 3.56689,-2.22554 5.56134,-2.99418 1.99444,-0.78874 4.07932,-1.37652 6.2496,-1.76335 2.17028,-0.38181 4.3707,-0.57272 6.59624,-0.57272 5.65177,0 9.89185,1.10022 12.7303,3.29561 2.86356,2.17531 4.29032,5.17954 4.29534,9.00767 v 15.07138 c 0,1.43179 0.1256,2.50688 0.38181,3.22026 0.28133,0.69328 0.77869,1.0349 1.49709,1.0349 0.86912,0 2.04469,-0.36674 3.52671,-1.11026 v 7.24934 z m -19.21099,-7.48043 v -9.24379 c -3.2705,1.33131 -5.66182,2.53199 -7.16896,3.60709 -1.50714,1.04495 -2.26071,2.48175 -2.26071,4.29032 0,1.30618 0.37176,2.3009 1.11026,2.99418 0.76864,0.68826 1.64781,1.0349 2.64754,1.0349 0.94447,0 1.8789,-0.25621 2.79825,-0.76864 0.94448,-0.53252 1.90402,-1.17054 2.87362,-1.91406 z"
   clip-rule="evenodd"
   style="fill-rule:evenodd;fill:#000000;fill-opacity:1;stroke:#000000;stroke-opacity:1"
   inkscape:connector-curvature="0" /><path
   id="path2902"
   d="m 469.47863,1.4367881 5.30513,32.2527649 -18.77895,35.935206 c 0,0 -7.21417,-15.242194 -19.1909,-23.68217 -10.0928,-7.113694 -16.66895,-8.655999 -26.94763,-6.535958 -13.20254,2.722897 -28.17345,18.512685 -34.70438,37.974868 -7.81703,23.290311 -7.89238,34.558691 -8.16367,44.912731 -0.43707,16.59862 2.18033,26.40506 2.18033,26.40506 0,0 -11.40401,-21.09491 -11.29851,-51.991252 0.0754,-22.049436 3.53675,-42.054188 13.7451,-61.787656 8.97752,-17.352188 22.32072,-27.7614913 34.16181,-28.9872973 12.24298,-1.2659964 21.91881,4.6369633 29.39924,11.0222063 7.84717,6.701743 15.78979,21.366201 15.78979,21.366201 L 469.47863,1.4367881 z"
   inkscape:connector-curvature="0"
   style="fill:#000000;fill-opacity:1;stroke:#000000;stroke-opacity:1" /><path
   id="path2904"
   d="m 471.78958,183.94624 c 0,0 -8.30434,14.83527 -13.47382,20.55235 -5.17451,5.71707 -14.42834,15.78978 -25.85748,20.82865 -11.42913,5.02882 -17.42252,5.98334 -28.71601,4.8982 -11.28344,-1.08514 -21.77313,-7.6211 -25.45055,-10.34902 -3.67239,-2.71787 -13.06689,-10.75092 -18.37201,-18.23135 -5.31016,-7.48545 -13.60947,-22.46139 -13.60947,-22.46139 0,0 4.62692,15.00105 7.52063,21.37123 1.6679,3.66234 6.78714,14.87043 14.05155,24.62664 6.7771,9.10814 19.93944,24.77736 39.9442,28.30909 20.00475,3.54177 33.75488,-5.44077 37.15598,-7.6211 3.40111,-2.1753 10.57007,-8.17874 15.10656,-13.03173 4.73744,-5.06901 9.21866,-11.53463 11.70544,-15.40798 1.81359,-2.83342 4.76256,-8.57561 4.76256,-8.57561 l -4.76758,-24.90798 z"
   inkscape:connector-curvature="0"
   style="fill:#000000;fill-opacity:1;stroke:#000000;stroke-opacity:1" /><path
   id="path2906"
   d="M 126.33333,2.8635459 171.56256,156.64694 216.79178,2.8635459 H 249.5419 L 174.68233,255.52025 h -3.11977 L 124.77595,98.938603 77.979301,255.52025 H 74.859524 L -4.6522267e-5,2.8635459 H 32.750074 L 77.979301,156.64694 108.54909,53.086426 93.578185,2.8635459 h 32.755145 z"
   style="fill:#000000;fill-opacity:1;stroke:#000000;stroke-opacity:1"
   inkscape:connector-curvature="0" /><path
   id="path2908"
   d="m 342.5424,174.42615 c 0,22.87836 -6.08382,42.11447 -18.24643,57.70833 -12.16763,15.59386 -27.92225,23.38577 -47.25884,23.38577 -14.55895,0 -27.24404,-4.62692 -38.06027,-13.88075 -10.8112,-9.25383 -18.81913,-21.77815 -24.01876,-37.58301 l 25.57614,-10.60021 c 3.74775,9.56531 8.68614,17.10603 14.82019,22.61211 6.13406,5.5111 13.35828,8.26414 21.67768,8.26414 8.73136,0 16.11634,-4.88313 22.14991,-14.65441 6.03358,-9.77128 9.04786,-21.52194 9.04786,-35.25197 0,-15.18191 -3.22528,-26.93257 -9.67081,-35.24695 -7.49048,-9.77128 -19.24113,-14.65943 -35.25197,-14.65943 h -12.47408 v -14.97091 l 43.67185,-75.487547 h -52.71468 l -14.65944,24.953191 h -9.3543 V 2.8635459 H 339.42262 V 18.145931 l -46.16868,79.541747 c 16.22184,5.204652 28.48995,14.664462 36.80433,28.394492 8.3194,13.71998 12.48413,29.83129 12.48413,48.34398 z"
   style="fill:#000000;fill-opacity:1;stroke:#000000;stroke-opacity:1"
   inkscape:connector-curvature="0" /><path
   id="path2910"
   d="m 503.01749,-1.732048e-5 c -4.35061,0 -8.24908,1.57244782048 -11.20809,4.57165352048 -3.13987,3.1850861 -4.88313,7.3096218 -4.88313,11.5647768 0,4.255154 1.65785,8.203857 4.7073,11.298515 3.09465,3.139872 7.08355,4.837914 11.38894,4.837914 4.21496,0 8.28926,-1.703066 11.47435,-4.797724 3.04442,-2.959015 4.70729,-6.902694 4.70729,-11.338705 0,-4.305393 -1.70306,-8.3395003 -4.66208,-11.3437298 C 511.44239,1.6578351 507.40828,-1.7320479e-5 503.01749,-1.7320479e-5 z M 517.04895,16.272055 c 0,3.722632 -1.43681,7.173979 -4.08435,9.731091 -2.77816,2.68773 -6.22951,4.124536 -10.04257,4.124536 -3.58699,0 -7.12374,-1.476996 -9.77128,-4.16975 -2.64754,-2.692754 -4.12453,-6.144101 -4.12453,-9.816496 0,-3.677418 1.52723,-7.2644074 4.26017,-10.0425661 2.55712,-2.6023258 6.00846,-3.9888933 9.77129,-3.9888933 3.85827,0 7.30962,1.4368054 9.99735,4.16975 2.60232,2.597302 3.99392,6.0938634 3.99392,9.9923284 z M 503.4646,6.6816302 h -6.90269 V 24.973268 h 3.45135 v -7.801954 h 3.40613 l 3.72263,7.801954 h 3.85325 l -4.07932,-8.3395 c 2.64252,-0.537546 4.16975,-2.331041 4.16975,-4.933367 0,-3.3157043 -2.5119,-5.0187708 -7.6211,-5.0187708 z m -0.62797,2.2406126 c 3.22528,0 4.70729,0.8942355 4.70729,3.1398722 0,2.150184 -1.48201,2.913801 -4.61686,2.913801 h -2.9138 V 8.9222428 h 2.82337 z"
   clip-rule="evenodd"
   style="fill-rule:evenodd;fill:#000000;fill-opacity:1;stroke:#000000;stroke-opacity:1"
   inkscape:connector-curvature="0" /></svg>