<?xml version="1.0" encoding="UTF-8" standalone="no"?>
<svg
   xmlns:dc="http://purl.org/dc/elements/1.1/"
   xmlns:cc="http://creativecommons.org/ns#"
   xmlns:rdf="http://www.w3.org/1999/02/22-rdf-syntax-ns#"
   xmlns:svg="http://www.w3.org/2000/svg"
   xmlns="http://www.w3.org/2000/svg"
   xmlns:sodipodi="http://sodipodi.sourceforge.net/DTD/sodipodi-0.dtd"
   xmlns:inkscape="http://www.inkscape.org/namespaces/inkscape"
   xml:space="preserve"
   version="1.1"
   overflow="visible"
   viewBox="0 0 122.162 92.325"
   id="svg2"
   inkscape:version="0.48.0 r9654"
   width="100%"
   height="100%"
   sodipodi:docname="eslogo-short-v.svg"><metadata
   id="metadata37"><rdf:RDF><cc:Work
       rdf:about=""><dc:format>image/svg+xml</dc:format><dc:type
         rdf:resource="http://purl.org/dc/dcmitype/StillImage" /><dc:title></dc:title></cc:Work></rdf:RDF></metadata><defs
   id="defs35">
    
    
    
  
      
      
      
      
      
      
      
      
      
      
      
      
    
    
    </defs><sodipodi:namedview
   pagecolor="#ffffff"
   bordercolor="#666666"
   borderopacity="1"
   objecttolerance="10"
   gridtolerance="10"
   guidetolerance="10"
   inkscape:pageopacity="0"
   inkscape:pageshadow="2"
   inkscape:window-width="640"
   inkscape:window-height="480"
   id="namedview33"
   showgrid="false"
   inkscape:zoom="3.1302464"
   inkscape:cx="61.081"
   inkscape:cy="46.1625"
   inkscape:window-x="0"
   inkscape:window-y="24"
   inkscape:window-maximized="0"
   inkscape:current-layer="svg2" />
  <g
   id="g3041"><polygon
     style="fill-rule:evenodd"
     id="polygon11"
     clip-rule="evenodd"
     points="44.543,71.786 39.888,71.786 39.888,73.725 44.33,73.725 44.33,75.854 39.888,75.854 39.888,78.113 44.673,78.113 44.673,80.243 36.698,80.243 36.698,69.664 44.543,69.664 " /><path
     style="fill-rule:evenodd"
     inkscape:connector-curvature="0"
     id="path13"
     d="m 51.635,77.976 c 0,0.712 -0.262,1.292 -0.786,1.74 -0.519,0.443 -1.292,0.664 -2.32,0.664 -0.575,0 -1.086,-0.051 -1.534,-0.152 -0.448,-0.107 -0.936,-0.257 -1.465,-0.451 v -1.954 c 0.463,0.265 0.865,0.465 1.206,0.603 0.341,0.138 0.715,0.206 1.122,0.206 0.687,0 1.03,-0.188 1.03,-0.564 0,-0.127 -0.051,-0.239 -0.153,-0.336 -0.097,-0.102 -0.27,-0.213 -0.519,-0.336 -0.244,-0.127 -0.572,-0.277 -0.984,-0.45 -0.509,-0.224 -0.941,-0.524 -1.297,-0.9 C 45.579,75.67 45.4,75.209 45.4,74.664 c 0,-0.387 0.117,-0.758 0.351,-1.114 0.239,-0.356 0.598,-0.646 1.077,-0.87 0.478,-0.229 1.055,-0.343 1.732,-0.343 0.163,0 0.369,0.013 0.618,0.038 0.254,0.021 0.572,0.079 0.954,0.175 0.387,0.097 0.753,0.234 1.099,0.412 v 1.901 c -0.163,-0.097 -0.3,-0.178 -0.413,-0.244 -0.106,-0.066 -0.251,-0.14 -0.435,-0.222 -0.184,-0.081 -0.4,-0.152 -0.649,-0.213 -0.244,-0.066 -0.496,-0.099 -0.756,-0.1 -0.315,0 -0.532,0.062 -0.648,0.184 -0.117,0.122 -0.176,0.244 -0.176,0.366 0,0.127 0.061,0.247 0.183,0.359 0.122,0.106 0.395,0.242 0.817,0.404 0.611,0.234 1.099,0.476 1.465,0.725 0.366,0.244 0.626,0.514 0.778,0.809 0.159,0.295 0.238,0.643 0.238,1.045 z"
     clip-rule="evenodd" /><path
     style="fill-rule:evenodd"
     inkscape:connector-curvature="0"
     id="path15"
     d="m 60.855,76.304 c 0,0.519 -0.074,1.021 -0.221,1.503 -0.148,0.484 -0.374,0.921 -0.68,1.313 -0.3,0.387 -0.689,0.694 -1.167,0.923 -0.473,0.224 -1.025,0.336 -1.656,0.336 -0.509,0 -0.911,-0.053 -1.206,-0.16 -0.29,-0.107 -0.58,-0.25 -0.87,-0.428 v 3.984 H 52.307 V 72.473 h 2.748 v 0.702 c 0.275,-0.239 0.578,-0.438 0.908,-0.595 0.336,-0.163 0.789,-0.244 1.359,-0.244 0.565,0 1.119,0.14 1.664,0.42 0.545,0.28 0.992,0.717 1.343,1.313 0.351,0.589 0.526,1.335 0.526,2.235 z m -2.892,0.061 c 0,-0.468 -0.074,-0.847 -0.221,-1.137 -0.148,-0.295 -0.339,-0.506 -0.573,-0.633 -0.234,-0.132 -0.476,-0.198 -0.725,-0.199 -0.326,0 -0.593,0.054 -0.801,0.161 -0.209,0.102 -0.405,0.231 -0.588,0.389 v 2.969 c 0.097,0.051 0.198,0.109 0.305,0.176 0.112,0.061 0.221,0.114 0.329,0.16 0.112,0.046 0.229,0.084 0.351,0.115 0.127,0.03 0.262,0.045 0.404,0.045 0.433,0 0.794,-0.183 1.084,-0.549 0.29,-0.366 0.435,-0.865 0.435,-1.497 z"
     clip-rule="evenodd" /><path
     style="fill-rule:evenodd"
     inkscape:connector-curvature="0"
     id="path17"
     d="m 69.542,79.854 c -0.402,0.158 -0.773,0.285 -1.114,0.381 -0.341,0.097 -0.75,0.145 -1.229,0.145 -0.453,0 -0.769,-0.079 -0.946,-0.236 -0.178,-0.163 -0.306,-0.359 -0.382,-0.588 -0.295,0.239 -0.624,0.438 -0.984,0.595 -0.361,0.153 -0.834,0.229 -1.42,0.229 -0.564,0 -1.022,-0.097 -1.374,-0.29 -0.346,-0.198 -0.59,-0.445 -0.733,-0.74 -0.137,-0.3 -0.206,-0.608 -0.206,-0.924 0,-0.478 0.12,-0.872 0.359,-1.183 0.244,-0.315 0.57,-0.572 0.977,-0.771 0.407,-0.199 0.946,-0.405 1.618,-0.618 0.382,-0.122 0.669,-0.214 0.863,-0.275 0.198,-0.066 0.346,-0.117 0.442,-0.152 0.096,-0.035 0.198,-0.082 0.306,-0.138 0,-0.376 -0.077,-0.671 -0.229,-0.885 -0.153,-0.214 -0.484,-0.321 -0.992,-0.321 -0.601,0 -1.158,0.133 -1.672,0.397 -0.514,0.265 -0.984,0.606 -1.412,1.023 v -2.106 c 0.341,-0.244 0.709,-0.443 1.106,-0.596 0.397,-0.157 0.812,-0.274 1.244,-0.351 0.433,-0.076 0.87,-0.114 1.313,-0.114 1.125,0 1.969,0.219 2.534,0.656 0.57,0.433 0.854,1.031 0.855,1.793 v 3 c 0,0.285 0.025,0.499 0.076,0.641 0.056,0.138 0.155,0.206 0.298,0.206 0.173,0 0.407,-0.073 0.702,-0.221 v 1.443 z m -3.824,-1.489 v -1.84 c -0.651,0.265 -1.127,0.504 -1.427,0.718 -0.3,0.208 -0.451,0.494 -0.451,0.854 0,0.26 0.074,0.458 0.222,0.596 0.152,0.137 0.328,0.206 0.526,0.206 0.188,0 0.374,-0.051 0.557,-0.153 0.189,-0.106 0.379,-0.233 0.573,-0.381 z"
     clip-rule="evenodd" /><path
     style="fill-rule:evenodd"
     inkscape:connector-curvature="0"
     id="path19"
     d="m 77.9,80.243 h -2.748 v -4.03 -0.16 c 0,-0.427 -0.071,-0.799 -0.213,-1.114 -0.138,-0.32 -0.443,-0.481 -0.916,-0.481 -0.224,0 -0.422,0.043 -0.595,0.13 -0.168,0.082 -0.321,0.188 -0.458,0.32 -0.132,0.133 -0.245,0.26 -0.336,0.382 -0.092,0.122 -0.186,0.252 -0.282,0.389 v 4.564 h -2.748 v -7.77 h 2.748 v 1.114 c 0.432,-0.463 0.865,-0.786 1.297,-0.969 0.438,-0.188 0.923,-0.282 1.458,-0.282 1.862,0 2.793,1.114 2.793,3.343 v 4.564 z M 76.725,69 c 0,0.519 -0.074,0.962 -0.221,1.328 -0.147,0.366 -0.356,0.644 -0.626,0.832 -0.27,0.188 -0.585,0.282 -0.946,0.282 -0.163,0 -0.338,-0.025 -0.526,-0.076 -0.184,-0.051 -0.443,-0.137 -0.779,-0.26 -0.336,-0.122 -0.578,-0.206 -0.725,-0.252 -0.143,-0.045 -0.27,-0.068 -0.381,-0.068 -0.356,0 -0.565,0.219 -0.626,0.656 H 70.68 c 0,-0.555 0.092,-1.013 0.275,-1.374 0.183,-0.366 0.415,-0.636 0.695,-0.809 0.28,-0.173 0.549,-0.259 0.809,-0.26 0.28,0 0.723,0.109 1.328,0.328 0.204,0.071 0.372,0.132 0.504,0.183 0.132,0.051 0.251,0.092 0.359,0.122 0.112,0.031 0.196,0.046 0.251,0.046 0.193,0 0.338,-0.069 0.435,-0.206 0.102,-0.142 0.152,-0.3 0.153,-0.473 h 1.236 z"
     clip-rule="evenodd" /><path
     style="fill-rule:evenodd"
     inkscape:connector-curvature="0"
     id="path21"
     d="m 86.808,79.854 c -0.402,0.158 -0.773,0.285 -1.114,0.381 -0.341,0.096 -0.75,0.145 -1.229,0.145 -0.453,0 -0.769,-0.079 -0.947,-0.236 -0.178,-0.163 -0.305,-0.359 -0.381,-0.588 -0.295,0.239 -0.624,0.438 -0.985,0.595 -0.361,0.153 -0.834,0.229 -1.419,0.229 -0.565,0 -1.023,-0.097 -1.374,-0.29 -0.346,-0.198 -0.59,-0.445 -0.732,-0.74 -0.137,-0.3 -0.206,-0.608 -0.206,-0.924 0,-0.478 0.12,-0.872 0.359,-1.183 0.244,-0.315 0.57,-0.572 0.977,-0.771 0.407,-0.199 0.946,-0.405 1.618,-0.618 0.382,-0.122 0.669,-0.214 0.862,-0.275 0.199,-0.066 0.346,-0.117 0.443,-0.152 0.097,-0.035 0.198,-0.082 0.305,-0.138 0,-0.376 -0.076,-0.671 -0.229,-0.885 -0.152,-0.214 -0.483,-0.321 -0.992,-0.321 -0.601,0 -1.158,0.133 -1.671,0.397 -0.514,0.265 -0.984,0.606 -1.412,1.023 v -2.106 c 0.341,-0.244 0.71,-0.443 1.107,-0.596 0.397,-0.157 0.812,-0.274 1.244,-0.351 0.432,-0.076 0.87,-0.114 1.313,-0.114 1.125,0 1.969,0.219 2.534,0.656 0.57,0.433 0.854,1.031 0.855,1.793 v 3 c 0,0.285 0.025,0.499 0.076,0.641 0.056,0.138 0.155,0.206 0.298,0.206 0.173,0 0.407,-0.073 0.702,-0.221 v 1.443 z m -3.824,-1.489 v -1.84 c -0.651,0.265 -1.127,0.504 -1.427,0.718 -0.3,0.208 -0.45,0.494 -0.45,0.854 0,0.26 0.074,0.458 0.221,0.596 0.153,0.137 0.328,0.206 0.527,0.206 0.188,0 0.374,-0.051 0.557,-0.153 0.188,-0.106 0.379,-0.233 0.572,-0.381 z"
     clip-rule="evenodd" /><path
     inkscape:connector-curvature="0"
     id="path23"
     d="m 102.858,8.834 1.056,6.42 -3.738,7.153 c 0,0 -1.436,-3.034 -3.82,-4.714 -2.009,-1.416 -3.318,-1.723 -5.364,-1.301 -2.628,0.542 -5.608,3.685 -6.908,7.559 -1.556,4.636 -1.571,6.879 -1.625,8.94 -0.087,3.304 0.434,5.256 0.434,5.256 0,0 -2.27,-4.199 -2.249,-10.349 0.015,-4.389 0.704,-8.371 2.736,-12.299 1.787,-3.454 4.443,-5.526 6.8,-5.77 2.437,-0.252 4.363,0.923 5.852,2.194 1.562,1.334 3.143,4.253 3.143,4.253 l 3.683,-7.342 z" /><path
     inkscape:connector-curvature="0"
     id="path25"
     d="m 103.318,45.163 c 0,0 -1.653,2.953 -2.682,4.091 -1.03,1.138 -2.872,3.143 -5.147,4.146 -2.275,1.001 -3.468,1.191 -5.716,0.975 -2.246,-0.216 -4.334,-1.517 -5.066,-2.06 -0.731,-0.541 -2.601,-2.14 -3.657,-3.629 -1.057,-1.49 -2.709,-4.471 -2.709,-4.471 0,0 0.921,2.986 1.497,4.254 0.332,0.729 1.351,2.96 2.797,4.902 1.349,1.813 3.969,4.932 7.951,5.635 3.982,0.705 6.719,-1.083 7.396,-1.517 0.677,-0.433 2.104,-1.628 3.007,-2.594 0.943,-1.009 1.835,-2.296 2.33,-3.067 0.361,-0.564 0.948,-1.707 0.948,-1.707 l -0.949,-4.958 z" /><path
     style="fill:#005a9c"
     inkscape:connector-curvature="0"
     id="path27"
     d="M 34.554,9.118 43.557,39.729 52.56,9.118 h 6.519 L 44.178,59.41 H 43.557 L 34.244,28.242 24.929,59.41 H 24.308 L 9.407,9.118 h 6.519 l 9.003,30.611 6.085,-20.614 -2.98,-9.997 h 6.52 z" /><path
     style="fill:#005a9c"
     inkscape:connector-curvature="0"
     id="path29"
     d="m 77.591,43.268 c 0,4.554 -1.211,8.383 -3.632,11.487 -2.422,3.104 -5.558,4.655 -9.407,4.655 -2.898,0 -5.423,-0.921 -7.576,-2.763 -2.152,-1.842 -3.746,-4.335 -4.781,-7.481 l 5.091,-2.11 c 0.746,1.904 1.729,3.405 2.95,4.501 1.221,1.097 2.659,1.645 4.315,1.645 1.738,0 3.208,-0.972 4.409,-2.917 1.201,-1.945 1.801,-4.284 1.801,-7.017 0,-3.022 -0.642,-5.361 -1.925,-7.016 -1.491,-1.945 -3.83,-2.918 -7.017,-2.918 h -2.483 v -2.98 L 68.029,15.328 H 57.536 l -2.918,4.967 H 52.756 V 9.118 H 76.97 v 3.042 l -9.19,15.833 c 3.229,1.036 5.671,2.919 7.326,5.652 1.656,2.731 2.485,5.938 2.485,9.623 z" /><path
     style="fill-rule:evenodd"
     inkscape:connector-curvature="0"
     id="path31"
     d="m 109.534,8.548 c -0.866,0 -1.642,0.313 -2.231,0.91 -0.625,0.634 -0.972,1.455 -0.972,2.302 0,0.847 0.33,1.633 0.937,2.249 0.616,0.625 1.41,0.963 2.267,0.963 0.839,0 1.65,-0.339 2.284,-0.955 0.606,-0.589 0.937,-1.374 0.937,-2.257 0,-0.857 -0.339,-1.66 -0.928,-2.258 -0.617,-0.624 -1.42,-0.954 -2.294,-0.954 z m 2.793,3.239 c 0,0.741 -0.286,1.428 -0.813,1.937 -0.553,0.535 -1.24,0.821 -1.999,0.821 -0.714,0 -1.418,-0.294 -1.945,-0.83 -0.527,-0.536 -0.821,-1.223 -0.821,-1.954 0,-0.732 0.304,-1.446 0.848,-1.999 0.509,-0.518 1.196,-0.794 1.945,-0.794 0.768,0 1.455,0.286 1.99,0.83 0.518,0.517 0.795,1.213 0.795,1.989 z m -2.704,-1.909 h -1.374 v 3.641 h 0.687 v -1.553 h 0.678 l 0.741,1.553 h 0.767 l -0.812,-1.66 c 0.526,-0.107 0.83,-0.464 0.83,-0.982 0,-0.66 -0.5,-0.999 -1.517,-0.999 z m -0.125,0.446 c 0.642,0 0.937,0.178 0.937,0.625 0,0.428 -0.295,0.58 -0.919,0.58 h -0.58 v -1.205 h 0.562 z"
     clip-rule="evenodd" /></g>
</svg>