<?xml version="1.0" encoding="UTF-8"?><svg xmlns="http://www.w3.org/2000/svg" xmlns:xlink="http://www.w3.org/1999/xlink" fill-opacity="1" color-rendering="auto" color-interpolation="auto" text-rendering="auto" stroke="black" stroke-linecap="square" width="941" stroke-miterlimit="10" shape-rendering="auto" stroke-opacity="1" fill="black" stroke-dasharray="none" font-weight="normal" stroke-width="1" height="525" font-family="'Dialog'" font-style="normal" stroke-linejoin="miter" font-size="12px" stroke-dashoffset="0" image-rendering="auto">
  <!--Generated by ySVG 2.5-->
  <defs id="genericDefs"/>
  <g>
    <defs id="defs1">
      <clipPath clipPathUnits="userSpaceOnUse" id="clipPath1">
        <path d="M0 0 L941 0 L941 525 L0 525 L0 0 Z"/>
      </clipPath>
      <clipPath clipPathUnits="userSpaceOnUse" id="clipPath2">
        <path d="M5 59 L946 59 L946 584 L5 584 L5 59 Z"/>
      </clipPath>
    </defs>
    <g fill="white" text-rendering="geometricPrecision" shape-rendering="geometricPrecision" transform="translate(-5,-59)" stroke="white">
      <rect x="5" width="941" height="525" y="59" clip-path="url(#clipPath2)" stroke="none"/>
    </g>
    <g fill="rgb(153,204,255)" text-rendering="geometricPrecision" shape-rendering="geometricPrecision" transform="matrix(1,0,0,1,-5,-59)" stroke="rgb(153,204,255)">
      <rect x="269" width="418" height="128" y="74" clip-path="url(#clipPath2)" stroke="none"/>
    </g>
    <g stroke-linecap="butt" transform="matrix(1,0,0,1,-5,-59)" fill="gray" text-rendering="geometricPrecision" shape-rendering="geometricPrecision" stroke="gray" stroke-width="6" stroke-miterlimit="1.45">
      <rect fill="none" x="269" width="418" height="128" y="74" clip-path="url(#clipPath2)"/>
    </g>
    <g stroke-linecap="butt" font-size="28px" transform="matrix(1,0,0,1,-5,-59)" fill="rgb(51,51,51)" text-rendering="geometricPrecision" font-family="'Arial'" shape-rendering="geometricPrecision" stroke="rgb(51,51,51)" stroke-miterlimit="1.45">
      <text x="309.9043" xml:space="preserve" y="132.0664" clip-path="url(#clipPath2)" stroke="none">Publishing Business Group</text>
      <text x="386.1797" xml:space="preserve" y="163.3477" clip-path="url(#clipPath2)" stroke="none">(Coordinación)</text>
    </g>
    <g fill="rgb(153,204,255)" text-rendering="geometricPrecision" shape-rendering="geometricPrecision" transform="matrix(1,0,0,1,-5,-59)" stroke="rgb(153,204,255)">
      <rect x="20" width="418" height="128" y="441" clip-path="url(#clipPath2)" stroke="none"/>
    </g>
    <g stroke-linecap="butt" transform="matrix(1,0,0,1,-5,-59)" fill="gray" text-rendering="geometricPrecision" shape-rendering="geometricPrecision" stroke="gray" stroke-width="6" stroke-miterlimit="1.45">
      <rect fill="none" x="20" width="418" height="128" y="441" clip-path="url(#clipPath2)"/>
    </g>
    <g stroke-linecap="butt" font-size="28px" transform="matrix(1,0,0,1,-5,-59)" fill="rgb(51,51,51)" text-rendering="geometricPrecision" font-family="'Arial'" shape-rendering="geometricPrecision" stroke="rgb(51,51,51)" stroke-miterlimit="1.45">
      <text x="66.3662" xml:space="preserve" y="499.0664" clip-path="url(#clipPath2)" stroke="none">Publishing Working Group</text>
      <text x="150.4072" xml:space="preserve" y="530.3477" clip-path="url(#clipPath2)" stroke="none">(estándares)</text>
    </g>
    <g fill="rgb(153,204,255)" text-rendering="geometricPrecision" shape-rendering="geometricPrecision" transform="matrix(1,0,0,1,-5,-59)" stroke="rgb(153,204,255)">
      <rect x="512.3333" width="418" height="128" y="441" clip-path="url(#clipPath2)" stroke="none"/>
    </g>
    <g stroke-linecap="butt" transform="matrix(1,0,0,1,-5,-59)" fill="gray" text-rendering="geometricPrecision" shape-rendering="geometricPrecision" stroke="gray" stroke-width="6" stroke-miterlimit="1.45">
      <rect fill="none" x="512.3333" width="418" height="128" y="441" clip-path="url(#clipPath2)"/>
    </g>
    <g stroke-linecap="butt" font-size="28px" transform="matrix(1,0,0,1,-5,-59)" fill="rgb(51,51,51)" text-rendering="geometricPrecision" font-family="'Arial'" shape-rendering="geometricPrecision" stroke="rgb(51,51,51)" stroke-miterlimit="1.45">
      <text x="557.9407" xml:space="preserve" y="499.0664" clip-path="url(#clipPath2)" stroke="none">EPUB3 Community Group</text>
      <text x="560.2718" xml:space="preserve" y="530.3477" clip-path="url(#clipPath2)" stroke="none">(desarrollo técnico EPUB)</text>
    </g>
    <g stroke-linecap="butt" transform="matrix(1,0,0,1,-5,-59)" fill="gray" text-rendering="geometricPrecision" shape-rendering="geometricPrecision" stroke="gray" stroke-width="5" stroke-miterlimit="1.45">
      <path fill="none" d="M386.2835 202 L377.9 207.85 L367.8647 215.1924 L358.2336 222.932 L349.0068 231.069 L340.1844 239.6031 L331.7662 248.5346 L323.7523 257.8633 L316.1428 267.5893 L308.9375 277.7125 L302.1365 288.233 L295.7398 299.1508 L289.7475 310.4658 L284.1594 322.1781 L278.9756 334.2877 L274.1961 346.7945 L269.8209 359.6986 L265.85 373 L250.0933 429.4419" clip-path="url(#clipPath2)"/>
      <path d="M246.8667 441 L258.9304 425.6795 L250.4966 427.9972 L244.4828 421.6463 Z" clip-path="url(#clipPath2)" stroke="none"/>
    </g>
    <g stroke-linecap="butt" font-size="20px" transform="matrix(1,0,0,1,-5,-59)" fill="rgb(51,51,51)" text-rendering="geometricPrecision" font-family="'Arial'" shape-rendering="geometricPrecision" stroke="rgb(51,51,51)" stroke-miterlimit="1.45">
      <text x="191.9512" xml:space="preserve" y="292.5385" clip-path="url(#clipPath2)" stroke="none">Feedback </text>
      <text x="68.5332" xml:space="preserve" y="314.8822" clip-path="url(#clipPath2)" stroke="none">estratégico y de negocio</text>
    </g>
    <g stroke-linecap="butt" transform="matrix(1,0,0,1,-5,-59)" fill="gray" text-rendering="geometricPrecision" shape-rendering="geometricPrecision" stroke="gray" stroke-width="5" stroke-miterlimit="1.45">
      <path fill="none" d="M564.1539 202 L574.25 209.5 L583.9062 217.0006 L593.1875 224.8773 L602.0938 233.1303 L610.625 241.7594 L618.7812 250.7646 L626.5625 260.1461 L633.9688 269.9037 L641 280.0375 L647.6562 290.5475 L653.9375 301.4336 L659.8438 312.6959 L665.375 324.3344 L675.3125 348.7399 L683.75 374.65 L699.5567 429.4722" clip-path="url(#clipPath2)"/>
      <path d="M702.8812 441.0025 L705.1009 421.6292 L699.1411 428.0309 L690.688 425.7848 Z" clip-path="url(#clipPath2)" stroke="none"/>
    </g>
    <g stroke-linecap="butt" font-size="20px" transform="matrix(1,0,0,1,-5,-59)" fill="rgb(51,51,51)" text-rendering="geometricPrecision" font-family="'Arial'" shape-rendering="geometricPrecision" stroke="rgb(51,51,51)" stroke-miterlimit="1.45">
      <text x="671.4362" xml:space="preserve" y="301.0159" clip-path="url(#clipPath2)" stroke="none">Supervisión</text>
    </g>
  </g>
</svg>
