<?xml version="1.0" encoding="utf-8"?>
<!-- Generator: Adobe Illustrator 16.0.3, SVG Export Plug-In . SVG Version: 6.00 Build 0)  -->
<!DOCTYPE svg PUBLIC "-//W3C//DTD SVG 1.1 Tiny//EN" "http://www.w3.org/Graphics/SVG/1.1/DTD/svg11-tiny.dtd">
<svg version="1.1" baseProfile="tiny" id="Capa_1" xmlns="http://www.w3.org/2000/svg" xmlns:xlink="http://www.w3.org/1999/xlink"
	 x="0px" y="0px" width="960px" height="560px" viewBox="0 0 960 560" xml:space="preserve">
<polygon fill="#F9B233" points="303.826,137.297 303.826,45.024 99.317,272.783 303.826,500.564 303.826,407.557 186.403,272.427 
	"/>
<polygon fill="#F9B233" points="666.586,44.875 666.586,133.765 787.728,273.058 666.786,412.328 666.586,412.129 666.586,500.564 
	860.684,272.316 "/>
<path fill="#FFC900" d="M439.197,272.806"/>
<g>
	<polygon fill="#FFC900" points="303.826,45.039 303.559,137.609 303.826,137.297 348.349,181.824 394.448,136.859 	"/>
	<polygon fill="#005A9C" points="483.973,227.567 394.448,136.859 348.349,181.824 438.952,272.435 	"/>
</g>
<g>
	<polygon fill="#EF7C00" points="666.838,412.27 666.786,412.328 616.531,361.873 572.954,406.592 666.586,500.564 	"/>
	<polyline fill="#005A9C" points="484.592,317.91 528.592,273.578 616.531,361.873 	"/>
	<polygon fill="#005A9C" points="528.592,273.578 484.592,317.91 572.954,406.592 616.531,361.873 	"/>
</g>
<g>
	<polygon fill="#FFC900" points="666.838,134.062 666.586,45.039 572.906,138.67 616.865,184.488 	"/>
	<polygon fill="#FFC900" points="484.084,227.448 483.969,227.567 528.592,273.578 483.973,227.567 	"/>
	<polygon fill="#005A9C" points="572.906,138.67 484.084,227.448 483.973,227.567 528.592,273.578 616.865,184.488 	"/>
</g>
<g>
	<polygon fill="#EF7C00" points="393.788,409.412 348.523,362.674 303.556,407.246 303.826,500.564 395.183,408.002 	"/>
	<polygon fill="#005A9C" points="395.183,408.002 484.6,317.91 438.952,272.435 348.523,362.674 393.788,409.412 	"/>
</g>
</svg>
