<?xml version="1.0" encoding="UTF-8"?><svg xmlns="http://www.w3.org/2000/svg" xmlns:xlink="http://www.w3.org/1999/xlink" fill-opacity="1" color-rendering="auto" color-interpolation="auto" text-rendering="auto" stroke="black" stroke-linecap="square" width="975" stroke-miterlimit="10" shape-rendering="auto" stroke-opacity="1" fill="black" stroke-dasharray="none" font-weight="normal" stroke-width="1" height="443" font-family="'Dialog'" font-style="normal" stroke-linejoin="miter" font-size="12px" stroke-dashoffset="0" image-rendering="auto">
  <!--Generated by ySVG 2.5-->
  <defs id="genericDefs"/>
  <g>
    <defs id="defs1">
      <clipPath clipPathUnits="userSpaceOnUse" id="clipPath1">
        <path d="M0 0 L975 0 L975 443 L0 443 L0 0 Z"/>
      </clipPath>
      <clipPath clipPathUnits="userSpaceOnUse" id="clipPath2">
        <path d="M-16 25 L959 25 L959 468 L-16 468 L-16 25 Z"/>
      </clipPath>
    </defs>
    <g fill="white" text-rendering="geometricPrecision" shape-rendering="geometricPrecision" transform="translate(16,-25)" stroke="white">
      <rect x="-16" width="975" height="443" y="25" clip-path="url(#clipPath2)" stroke="none"/>
    </g>
    <g fill="rgb(245,245,245)" text-rendering="geometricPrecision" shape-rendering="geometricPrecision" transform="matrix(1,0,0,1,16,-25)" stroke="rgb(245,245,245)">
      <rect x="4" y="45" clip-path="url(#clipPath2)" width="535" rx="4" ry="4" height="403" stroke="none"/>
      <rect x="4" y="45" clip-path="url(#clipPath2)" fill="rgb(235,235,235)" width="535" height="24" stroke="none"/>
    </g>
    <g font-size="20px" stroke-linecap="butt" transform="matrix(1,0,0,1,16,-25)" text-rendering="geometricPrecision" font-family="'Eurostile'" shape-rendering="geometricPrecision" stroke-miterlimit="1.45">
      <text x="458.3184" xml:space="preserve" y="62.9961" clip-path="url(#clipPath2)" stroke="none">System A</text>
      <rect x="4" y="45" clip-path="url(#clipPath2)" fill="none" width="535" stroke-dasharray="6,2" rx="4" ry="4" height="403"/>
    </g>
    <g fill="rgb(204,255,204)" text-rendering="geometricPrecision" shape-rendering="geometricPrecision" transform="matrix(1,0,0,1,16,-25)" stroke="rgb(204,255,204)">
      <ellipse rx="112.5" ry="52.5" clip-path="url(#clipPath2)" cx="131.5" cy="308" stroke="none"/>
    </g>
    <g stroke-linecap="butt" transform="matrix(1,0,0,1,16,-25)" fill="rgb(153,204,255)" text-rendering="geometricPrecision" shape-rendering="geometricPrecision" stroke="rgb(153,204,255)" stroke-width="5" stroke-miterlimit="1.45">
      <ellipse rx="112.5" fill="none" ry="52.5" clip-path="url(#clipPath2)" cx="131.5" cy="308"/>
    </g>
    <g stroke-linecap="butt" font-size="40px" transform="matrix(1,0,0,1,16,-25)" fill="rgb(51,51,51)" text-rendering="geometricPrecision" font-family="'Eurostile'" shape-rendering="geometricPrecision" stroke="rgb(51,51,51)" stroke-miterlimit="1.45">
      <text x="44.4297" xml:space="preserve" y="319.9922" clip-path="url(#clipPath2)" stroke="none">Sport Club</text>
    </g>
    <g fill="rgb(204,255,204)" text-rendering="geometricPrecision" shape-rendering="geometricPrecision" transform="matrix(1,0,0,1,16,-25)" stroke="rgb(204,255,204)">
      <ellipse rx="112.5" ry="52.5" clip-path="url(#clipPath2)" cx="286.128" cy="136.5" stroke="none"/>
    </g>
    <g stroke-linecap="butt" transform="matrix(1,0,0,1,16,-25)" fill="rgb(153,204,255)" text-rendering="geometricPrecision" shape-rendering="geometricPrecision" stroke="rgb(153,204,255)" stroke-width="5" stroke-miterlimit="1.45">
      <ellipse rx="112.5" fill="none" ry="52.5" clip-path="url(#clipPath2)" cx="286.128" cy="136.5"/>
    </g>
    <g stroke-linecap="butt" font-size="40px" transform="matrix(1,0,0,1,16,-25)" fill="rgb(51,51,51)" text-rendering="geometricPrecision" font-family="'Eurostile'" shape-rendering="geometricPrecision" stroke="rgb(51,51,51)" stroke-miterlimit="1.45">
      <text x="226.7823" xml:space="preserve" y="148.4922" clip-path="url(#clipPath2)" stroke="none">Athlete</text>
    </g>
    <g fill="rgb(204,255,204)" text-rendering="geometricPrecision" shape-rendering="geometricPrecision" transform="matrix(1,0,0,1,16,-25)" stroke="rgb(204,255,204)">
      <ellipse rx="112.5" ry="52.5" clip-path="url(#clipPath2)" cx="411.5" cy="364.5" stroke="none"/>
    </g>
    <g stroke-linecap="butt" transform="matrix(1,0,0,1,16,-25)" fill="rgb(153,204,255)" text-rendering="geometricPrecision" shape-rendering="geometricPrecision" stroke="rgb(153,204,255)" stroke-width="5" stroke-miterlimit="1.45">
      <ellipse rx="112.5" fill="none" ry="52.5" clip-path="url(#clipPath2)" cx="411.5" cy="364.5"/>
    </g>
    <g stroke-linecap="butt" font-size="40px" transform="matrix(1,0,0,1,16,-25)" fill="rgb(51,51,51)" text-rendering="geometricPrecision" font-family="'Eurostile'" shape-rendering="geometricPrecision" stroke="rgb(51,51,51)" stroke-miterlimit="1.45">
      <text x="311.7051" xml:space="preserve" y="376.4922" clip-path="url(#clipPath2)" stroke="none">Competition</text>
    </g>
    <g stroke-linecap="butt" transform="matrix(1,0,0,1,16,-25)" fill="rgb(153,204,255)" text-rendering="geometricPrecision" shape-rendering="geometricPrecision" stroke="rgb(153,204,255)" stroke-width="4" stroke-miterlimit="1.45">
      <path fill="none" d="M242.4977 184.891 L182.4962 251.4394" clip-path="url(#clipPath2)"/>
      <path d="M175.1303 259.609 L191.2852 251.9583 L183.417 250.4182 L181.0732 242.7508 Z" clip-path="url(#clipPath2)" stroke="none"/>
    </g>
    <g stroke-linecap="butt" font-size="20px" transform="matrix(1,0,0,1,16,-25)" fill="rgb(51,51,51)" text-rendering="geometricPrecision" font-family="'Eurostile'" shape-rendering="geometricPrecision" stroke="rgb(51,51,51)" stroke-miterlimit="1.45">
      <text x="209.5901" xml:space="preserve" y="231.71" clip-path="url(#clipPath2)" stroke="none">affiliation</text>
    </g>
    <g stroke-linecap="butt" transform="matrix(1,0,0,1,16,-25)" fill="rgb(153,204,255)" text-rendering="geometricPrecision" shape-rendering="geometricPrecision" stroke="rgb(153,204,255)" stroke-width="5" stroke-miterlimit="1.45">
      <path fill="none" d="M314.0906 187.3524 L377.7554 303.1324" clip-path="url(#clipPath2)"/>
      <path d="M383.5374 313.6476 L381.4363 294.2611 L377.0326 301.8181 L368.2924 301.4886 Z" clip-path="url(#clipPath2)" stroke="none"/>
    </g>
    <g stroke-linecap="butt" font-size="20px" transform="matrix(1,0,0,1,16,-25)" fill="rgb(51,51,51)" text-rendering="geometricPrecision" font-family="'Eurostile'" shape-rendering="geometricPrecision" stroke="rgb(51,51,51)" stroke-miterlimit="1.45">
      <text x="261.0706" xml:space="preserve" y="258.0258" clip-path="url(#clipPath2)" stroke="none">takes part in</text>
    </g>
    <g fill="rgb(245,245,245)" text-rendering="geometricPrecision" shape-rendering="geometricPrecision" transform="matrix(1,0,0,1,16,-25)" stroke="rgb(245,245,245)">
      <rect x="618" y="45" clip-path="url(#clipPath2)" width="321" rx="4" ry="4" height="175" stroke="none"/>
      <rect x="618" y="45" clip-path="url(#clipPath2)" fill="rgb(235,235,235)" width="321" height="24" stroke="none"/>
    </g>
    <g font-size="20px" stroke-linecap="butt" transform="matrix(1,0,0,1,16,-25)" text-rendering="geometricPrecision" font-family="'Eurostile'" shape-rendering="geometricPrecision" stroke-miterlimit="1.45">
      <text x="858.1426" xml:space="preserve" y="62.9961" clip-path="url(#clipPath2)" stroke="none">System B</text>
      <rect x="618" y="45" clip-path="url(#clipPath2)" fill="none" width="321" stroke-dasharray="6,2" rx="4" ry="4" height="175"/>
    </g>
    <g fill="rgb(255,255,153)" text-rendering="geometricPrecision" shape-rendering="geometricPrecision" transform="matrix(1,0,0,1,16,-25)" stroke="rgb(255,255,153)">
      <ellipse rx="128.5" ry="52.5" clip-path="url(#clipPath2)" cx="774.5" cy="136.5" stroke="none"/>
    </g>
    <g stroke-linecap="butt" transform="matrix(1,0,0,1,16,-25)" fill="rgb(153,204,255)" text-rendering="geometricPrecision" shape-rendering="geometricPrecision" stroke="rgb(153,204,255)" stroke-width="5" stroke-miterlimit="1.45">
      <ellipse rx="128.5" fill="none" ry="52.5" clip-path="url(#clipPath2)" cx="774.5" cy="136.5"/>
    </g>
    <g stroke-linecap="butt" font-size="40px" transform="matrix(1,0,0,1,16,-25)" fill="rgb(51,51,51)" text-rendering="geometricPrecision" font-family="'Eurostile'" shape-rendering="geometricPrecision" stroke="rgb(51,51,51)" stroke-miterlimit="1.45">
      <text x="664.5293" xml:space="preserve" y="148.4922" clip-path="url(#clipPath2)" stroke="none">Performance</text>
    </g>
    <g stroke-linecap="butt" transform="matrix(1,0,0,1,16,-25)" fill="rgb(153,204,255)" text-rendering="geometricPrecision" shape-rendering="geometricPrecision" stroke="rgb(153,204,255)" stroke-width="4" stroke-miterlimit="1.45">
      <path fill="none" d="M398.6526 136.5 L635 136.5" clip-path="url(#clipPath2)"/>
      <path d="M646 136.5 L629.5 129.625 L633.625 136.5 L629.5 143.375 Z" clip-path="url(#clipPath2)" stroke="none"/>
    </g>
    <g stroke-linecap="butt" font-size="20px" transform="matrix(1,0,0,1,16,-25)" fill="rgb(51,51,51)" text-rendering="geometricPrecision" font-family="'Eurostile'" shape-rendering="geometricPrecision" stroke="rgb(51,51,51)" stroke-miterlimit="1.45">
      <text x="465.6392" xml:space="preserve" y="121.99" clip-path="url(#clipPath2)" stroke="none">personal best</text>
    </g>
  </g>
</svg>
