<?xml version="1.0" encoding="UTF-8"?><svg xmlns="http://www.w3.org/2000/svg" xmlns:xlink="http://www.w3.org/1999/xlink" fill-opacity="1" color-rendering="auto" color-interpolation="auto" text-rendering="auto" stroke="black" stroke-linecap="square" width="684" stroke-miterlimit="10" shape-rendering="auto" stroke-opacity="1" fill="black" stroke-dasharray="none" font-weight="normal" stroke-width="1" height="475" font-family="'Dialog'" font-style="normal" stroke-linejoin="miter" font-size="12px" stroke-dashoffset="0" image-rendering="auto">
  <!--Generated by ySVG 2.5-->
  <defs id="genericDefs"/>
  <g>
    <defs id="defs1">
      <clipPath clipPathUnits="userSpaceOnUse" id="clipPath1">
        <path d="M0 0 L684 0 L684 475 L0 475 L0 0 Z"/>
      </clipPath>
      <clipPath clipPathUnits="userSpaceOnUse" id="clipPath2">
        <path d="M-280 -584 L404 -584 L404 -109 L-280 -109 L-280 -584 Z"/>
      </clipPath>
    </defs>
    <g fill="white" text-rendering="geometricPrecision" shape-rendering="geometricPrecision" transform="translate(280,584)" stroke="white">
      <rect x="-280" width="684" height="475" y="-584" clip-path="url(#clipPath2)" stroke="none"/>
    </g>
    <g transform="matrix(1,0,0,1,280,584)" fill-opacity="0.5176" fill="rgb(202,236,255)" text-rendering="geometricPrecision" shape-rendering="geometricPrecision" stroke="rgb(202,236,255)" stroke-opacity="0.5176">
      <rect x="-265" y="-568.5" clip-path="url(#clipPath2)" width="311" rx="4" ry="4" height="443.6667" stroke="none"/>
    </g>
    <g fill="rgb(153,204,255)" text-rendering="geometricPrecision" shape-rendering="geometricPrecision" transform="matrix(1,0,0,1,280,584)" stroke="rgb(153,204,255)">
      <rect x="-265" width="311" height="24" y="-568.5" clip-path="url(#clipPath2)" stroke="none"/>
    </g>
    <g font-size="20px" stroke-linecap="butt" transform="matrix(1,0,0,1,280,584)" text-rendering="geometricPrecision" font-family="'Eurostile'" shape-rendering="geometricPrecision" stroke-miterlimit="1.45">
      <text x="-148.1875" xml:space="preserve" y="-550.5039" clip-path="url(#clipPath2)" stroke="none">OpenTrack Linked Data</text>
    </g>
    <g stroke-linecap="round" transform="matrix(1,0,0,1,280,584)" stroke-dashoffset="2" fill="rgb(102,102,153)" text-rendering="geometricPrecision" shape-rendering="geometricPrecision" stroke-dasharray="0,4" stroke="rgb(102,102,153)" stroke-miterlimit="1.45">
      <rect x="-265" y="-568.5" clip-path="url(#clipPath2)" fill="none" width="311" rx="4" ry="4" height="443.6667"/>
    </g>
    <g fill="rgb(204,255,204)" text-rendering="geometricPrecision" shape-rendering="geometricPrecision" transform="matrix(1,0,0,1,280,584)" stroke="rgb(204,255,204)">
      <ellipse rx="112.5" ry="52.5" clip-path="url(#clipPath2)" cx="-112.5" cy="-472.3333" stroke="none"/>
    </g>
    <g stroke-linecap="butt" transform="matrix(1,0,0,1,280,584)" fill="rgb(153,204,255)" text-rendering="geometricPrecision" shape-rendering="geometricPrecision" stroke="rgb(153,204,255)" stroke-width="5" stroke-miterlimit="1.45">
      <ellipse rx="112.5" fill="none" ry="52.5" clip-path="url(#clipPath2)" cx="-112.5" cy="-472.3333"/>
    </g>
    <g stroke-linecap="butt" font-size="40px" transform="matrix(1,0,0,1,280,584)" fill="rgb(51,51,51)" text-rendering="geometricPrecision" font-family="'Eurostile'" shape-rendering="geometricPrecision" stroke="rgb(51,51,51)" stroke-miterlimit="1.45">
      <text x="-204.0234" xml:space="preserve" y="-460.3412" clip-path="url(#clipPath2)" stroke="none">Vocabulary</text>
    </g>
    <g fill="rgb(204,255,204)" text-rendering="geometricPrecision" shape-rendering="geometricPrecision" transform="matrix(1,0,0,1,280,584)" stroke="rgb(204,255,204)">
      <ellipse rx="112.5" ry="52.5" clip-path="url(#clipPath2)" cx="-112.5" cy="-345.3333" stroke="none"/>
    </g>
    <g stroke-linecap="butt" transform="matrix(1,0,0,1,280,584)" fill="rgb(153,204,255)" text-rendering="geometricPrecision" shape-rendering="geometricPrecision" stroke="rgb(153,204,255)" stroke-width="5" stroke-miterlimit="1.45">
      <ellipse rx="112.5" fill="none" ry="52.5" clip-path="url(#clipPath2)" cx="-112.5" cy="-345.3333"/>
    </g>
    <g stroke-linecap="butt" font-size="40px" transform="matrix(1,0,0,1,280,584)" fill="rgb(51,51,51)" text-rendering="geometricPrecision" font-family="'Eurostile'" shape-rendering="geometricPrecision" stroke="rgb(51,51,51)" stroke-miterlimit="1.45">
      <text x="-211.4062" xml:space="preserve" y="-333.3412" clip-path="url(#clipPath2)" stroke="none">Taxonomies</text>
    </g>
    <g fill="rgb(204,255,204)" text-rendering="geometricPrecision" shape-rendering="geometricPrecision" transform="matrix(1,0,0,1,280,584)" stroke="rgb(204,255,204)">
      <ellipse rx="112.5" ry="52.5" clip-path="url(#clipPath2)" cx="-112.5" cy="-218.3333" stroke="none"/>
    </g>
    <g stroke-linecap="butt" transform="matrix(1,0,0,1,280,584)" fill="rgb(153,204,255)" text-rendering="geometricPrecision" shape-rendering="geometricPrecision" stroke="rgb(153,204,255)" stroke-width="5" stroke-miterlimit="1.45">
      <ellipse rx="112.5" fill="none" ry="52.5" clip-path="url(#clipPath2)" cx="-112.5" cy="-218.3333"/>
    </g>
    <g stroke-linecap="butt" font-size="40px" transform="matrix(1,0,0,1,280,584)" fill="rgb(51,51,51)" text-rendering="geometricPrecision" font-family="'Eurostile'" shape-rendering="geometricPrecision" stroke="rgb(51,51,51)" stroke-miterlimit="1.45">
      <text x="-210.3223" xml:space="preserve" y="-206.3411" clip-path="url(#clipPath2)" stroke="none">ID schemas</text>
    </g>
    <g transform="matrix(1,0,0,1,280,584)" fill-opacity="0.5176" fill="rgb(202,236,255)" text-rendering="geometricPrecision" shape-rendering="geometricPrecision" stroke="rgb(202,236,255)" stroke-opacity="0.5176">
      <rect x="164" y="-484.5" clip-path="url(#clipPath2)" width="225" rx="4" ry="4" height="275.6667" stroke="none"/>
    </g>
    <g fill="rgb(153,204,255)" text-rendering="geometricPrecision" shape-rendering="geometricPrecision" transform="matrix(1,0,0,1,280,584)" stroke="rgb(153,204,255)">
      <rect x="164" width="225" height="24" y="-484.5" clip-path="url(#clipPath2)" stroke="none"/>
    </g>
    <g font-size="20px" stroke-linecap="butt" transform="matrix(1,0,0,1,280,584)" text-rendering="geometricPrecision" font-family="'Eurostile'" shape-rendering="geometricPrecision" stroke-miterlimit="1.45">
      <text x="262.3906" xml:space="preserve" y="-466.5039" clip-path="url(#clipPath2)" stroke="none">OpenTrack Lite</text>
    </g>
    <g stroke-linecap="round" transform="matrix(1,0,0,1,280,584)" stroke-dashoffset="2" fill="rgb(102,102,153)" text-rendering="geometricPrecision" shape-rendering="geometricPrecision" stroke-dasharray="0,4" stroke="rgb(102,102,153)" stroke-miterlimit="1.45">
      <rect x="164" y="-484.5" clip-path="url(#clipPath2)" fill="none" width="225" rx="4" ry="4" height="275.6667"/>
    </g>
    <g fill="rgb(204,255,204)" text-rendering="geometricPrecision" shape-rendering="geometricPrecision" transform="matrix(1,0,0,1,280,584)" stroke="rgb(204,255,204)">
      <ellipse rx="83" ry="35" clip-path="url(#clipPath2)" cx="280.5" cy="-378.8333" stroke="none"/>
    </g>
    <g stroke-linecap="butt" transform="matrix(1,0,0,1,280,584)" fill="rgb(153,204,255)" text-rendering="geometricPrecision" shape-rendering="geometricPrecision" stroke="rgb(153,204,255)" stroke-width="5" stroke-miterlimit="1.45">
      <ellipse rx="83" fill="none" ry="35" clip-path="url(#clipPath2)" cx="280.5" cy="-378.8333"/>
    </g>
    <g stroke-linecap="butt" font-size="30px" transform="matrix(1,0,0,1,280,584)" fill="rgb(51,51,51)" text-rendering="geometricPrecision" font-family="'Eurostile'" shape-rendering="geometricPrecision" stroke="rgb(51,51,51)" stroke-miterlimit="1.45">
      <text x="211.8574" xml:space="preserve" y="-369.8392" clip-path="url(#clipPath2)" stroke="none">Vocabulary</text>
    </g>
    <g fill="rgb(204,255,204)" text-rendering="geometricPrecision" shape-rendering="geometricPrecision" transform="matrix(1,0,0,1,280,584)" stroke="rgb(204,255,204)">
      <ellipse rx="83" ry="35" clip-path="url(#clipPath2)" cx="280.5" cy="-278.8333" stroke="none"/>
    </g>
    <g stroke-linecap="butt" transform="matrix(1,0,0,1,280,584)" fill="rgb(153,204,255)" text-rendering="geometricPrecision" shape-rendering="geometricPrecision" stroke="rgb(153,204,255)" stroke-width="5" stroke-miterlimit="1.45">
      <ellipse rx="83" fill="none" ry="35" clip-path="url(#clipPath2)" cx="280.5" cy="-278.8333"/>
    </g>
    <g stroke-linecap="butt" font-size="30px" transform="matrix(1,0,0,1,280,584)" fill="rgb(51,51,51)" text-rendering="geometricPrecision" font-family="'Eurostile'" shape-rendering="geometricPrecision" stroke="rgb(51,51,51)" stroke-miterlimit="1.45">
      <text x="206.3203" xml:space="preserve" y="-269.8392" clip-path="url(#clipPath2)" stroke="none">Taxonomies</text>
    </g>
    <g stroke-linecap="butt" transform="matrix(1,0,0,1,280,584)" fill="rgb(153,204,255)" text-rendering="geometricPrecision" shape-rendering="geometricPrecision" stroke="rgb(153,204,255)" stroke-width="5" stroke-miterlimit="1.45">
      <path fill="none" d="M152.0266 -346.6667 L57.9948 -346.6667" clip-path="url(#clipPath2)"/>
      <path d="M164.0266 -346.6667 L146.0266 -354.1667 L150.5266 -346.6667 L146.0266 -339.1667 Z" clip-path="url(#clipPath2)" stroke="none"/>
      <path d="M45.9948 -346.6667 L63.9948 -339.1667 L59.4948 -346.6667 L63.9948 -354.1667 Z" clip-path="url(#clipPath2)" stroke="none"/>
    </g>
  </g>
</svg>
