<svg width="1920" height="1080" xmlns="http://www.w3.org/2000/svg">
<defs>
<filter id="filter6" x="1048.4302" y="-318.65103" width="882.2521" height="1414.1664" filterUnits="userSpaceOnUse">
<feFlood color-interpolation-filters="sRGB" flood-color="#000000" flood-opacity="0.698039" result="flood"/>
<feGaussianBlur color-interpolation-filters="sRGB" in="SourceGraphic" stdDeviation="4 4" result="blur"/>
<feOffset color-interpolation-filters="sRGB" in="blur" dx="1" dy="3.1" result="offset"/>
<feComposite color-interpolation-filters="sRGB" in="flood" in2="offset" operator="in" result="comp1"/>
<feComposite color-interpolation-filters="sRGB" in="SourceGraphic" in2="comp1" operator="over" result="comp2"/>
</filter>
</defs>
<g id="layer1">
<path id="rect30" fill="#fafafa" stroke="none" d="M 0 0 L 1920 0 L 1920 1080 L 0 1080 Z"/>
<g id="g1" filter="url(#filter6)">
<path id="path13" fill="#005a9c" stroke="none" d="M 1776.375 -6 L 1825.352 42.977 L 1722.332 145.996 L 1805.649 229.313 L 1750.479 284.482 L 1798.893 332.897 L 1729.088 402.701 L 1787.635 461.248 L 1757.234 491.647 L 1797.203 531.615 L 1750.479 578.34 L 1793.826 621.688 L 1744.85 670.664 L 1809.588 735.402 L 1772.998 771.994 L 1838.863 837.859 L 1758.361 918.361 L 1920 1080 L 1920 -6 L 1776.375 -6 Z M 1838.35 84.84 C 1852.961 84.841 1864.806 96.685 1864.807 111.297 C 1864.807 125.909 1852.962 137.755 1838.35 137.756 C 1831.332 137.756 1824.602 134.968 1819.64 130.006 C 1814.678 125.044 1811.891 118.314 1811.891 111.297 C 1811.892 96.685 1823.737 84.84 1838.35 84.84 Z M 1873.815 167.029 C 1878.294 167.029 1882.589 168.809 1885.757 171.976 C 1888.924 175.143 1890.703 179.439 1890.703 183.918 C 1890.703 188.397 1888.924 192.693 1885.757 195.86 C 1882.589 199.027 1878.294 200.807 1873.815 200.807 C 1869.335 200.807 1865.04 199.027 1861.872 195.86 C 1858.705 192.693 1856.926 188.397 1856.926 183.918 C 1856.926 179.439 1858.705 175.143 1861.872 171.976 C 1865.04 168.809 1869.335 167.029 1873.815 167.029 Z M 1834.971 228.953 C 1838.704 228.953 1842.283 230.436 1844.923 233.075 C 1847.562 235.715 1849.045 239.295 1849.045 243.027 C 1849.045 246.76 1847.562 250.34 1844.923 252.979 C 1842.283 255.619 1838.704 257.102 1834.971 257.102 C 1827.198 257.101 1820.898 250.8 1820.899 243.027 C 1820.898 235.255 1827.198 228.954 1834.971 228.953 Z M 1827.299 319.906 L 1896.131 342.273 L 1896.131 366.945 L 1827.299 389.602 L 1827.299 369.346 L 1840.162 365.986 L 1840.162 343.715 L 1827.299 340.258 L 1827.299 319.906 Z M 1855.33 347.555 L 1855.33 362.147 L 1866.563 359.17 C 1867.779 358.85 1869.506 358.402 1871.746 357.826 C 1874.05 357.25 1876.418 356.674 1878.85 356.098 C 1881.282 355.522 1883.267 355.074 1884.803 354.754 C 1883.267 354.498 1881.347 354.082 1879.043 353.506 C 1876.739 352.994 1874.467 352.449 1872.227 351.873 C 1869.987 351.361 1868.099 350.913 1866.563 350.529 L 1855.33 347.555 Z M 1861.379 402.578 C 1868.291 402.578 1874.403 403.858 1879.715 406.418 C 1885.027 408.978 1889.187 412.722 1892.195 417.65 C 1895.267 422.642 1896.803 428.689 1896.803 435.793 C 1896.803 439.121 1896.419 442.61 1895.65 446.258 C 1894.883 449.906 1893.666 453.49 1892.002 457.01 L 1877.41 451.346 C 1878.626 448.85 1879.619 446.322 1880.387 443.762 C 1881.219 441.202 1881.635 438.482 1881.635 435.602 C 1881.635 431.25 1879.842 427.826 1876.258 425.33 C 1872.674 422.834 1867.683 421.586 1861.283 421.586 C 1854.819 421.586 1849.89 422.834 1846.498 425.33 C 1843.17 427.826 1841.506 431.602 1841.506 436.658 C 1841.506 439.666 1841.922 442.579 1842.754 445.395 C 1843.586 448.275 1844.61 451.153 1845.826 454.033 L 1830.178 454.033 C 1828.834 451.025 1827.875 447.923 1827.299 444.723 C 1826.659 441.587 1826.338 438.227 1826.338 434.643 C 1826.338 427.219 1827.81 421.138 1830.754 416.402 C 1833.698 411.666 1837.795 408.178 1843.043 405.938 C 1848.355 403.698 1854.467 402.578 1861.379 402.578 Z M 1885.859 507.059 C 1887.716 509.107 1889.475 511.282 1891.139 513.586 C 1892.803 515.954 1894.146 518.706 1895.17 521.842 C 1896.258 524.978 1896.803 528.817 1896.803 533.361 C 1896.803 538.033 1895.971 542.065 1894.307 545.457 C 1892.707 548.849 1890.498 551.474 1887.682 553.33 C 1884.866 555.25 1881.666 556.209 1878.082 556.209 C 1874.114 556.209 1870.562 555.474 1867.426 554.002 C 1864.354 552.594 1861.251 550.419 1858.115 547.475 C 1855.043 544.595 1851.523 540.977 1847.555 536.625 L 1843.043 531.635 L 1842.563 531.635 L 1842.563 557.555 L 1827.299 557.555 L 1827.299 507.826 L 1839.49 507.826 L 1856.387 524.529 C 1860.035 527.985 1862.947 530.674 1865.123 532.594 C 1867.299 534.578 1869.155 535.955 1870.691 536.723 C 1872.227 537.491 1873.826 537.873 1875.49 537.873 C 1877.538 537.873 1879.01 537.201 1879.906 535.857 C 1880.802 534.577 1881.25 533.042 1881.25 531.25 C 1881.25 529.074 1880.642 526.899 1879.426 524.723 C 1878.21 522.547 1876.387 520.05 1873.955 517.234 L 1885.859 507.059 Z M 1861.475 574.563 C 1868.899 574.563 1875.234 575.329 1880.482 576.865 C 1885.73 578.465 1889.762 581.09 1892.578 584.738 C 1895.394 588.386 1896.803 593.25 1896.803 599.33 C 1896.803 607.906 1893.698 614.178 1887.49 618.147 C 1881.282 622.115 1872.611 624.098 1861.475 624.098 C 1854.179 624.098 1847.906 623.297 1842.658 621.697 C 1837.41 620.161 1833.379 617.57 1830.563 613.922 C 1827.747 610.338 1826.338 605.474 1826.338 599.33 C 1826.338 590.754 1829.442 584.482 1835.65 580.514 C 1841.858 576.546 1850.467 574.563 1861.475 574.563 Z M 1861.475 592.994 C 1854.755 592.994 1849.667 593.41 1846.211 594.242 C 1842.819 595.074 1841.123 596.77 1841.123 599.33 C 1841.123 601.89 1842.819 603.586 1846.211 604.418 C 1849.603 605.25 1854.691 605.666 1861.475 605.666 C 1868.259 605.666 1873.378 605.25 1876.834 604.418 C 1880.29 603.586 1882.018 601.89 1882.018 599.33 C 1882.018 596.77 1880.29 595.074 1876.834 594.242 C 1873.378 593.41 1868.259 592.994 1861.475 592.994 Z M 1885.859 639.57 C 1887.716 641.618 1889.475 643.794 1891.139 646.098 C 1892.803 648.466 1894.146 651.218 1895.17 654.354 C 1896.258 657.49 1896.803 661.329 1896.803 665.873 C 1896.803 670.545 1895.971 674.579 1894.307 677.971 C 1892.707 681.363 1890.498 683.986 1887.682 685.842 C 1884.866 687.762 1881.666 688.723 1878.082 688.723 C 1874.114 688.723 1870.562 687.986 1867.426 686.514 C 1864.354 685.106 1861.251 682.93 1858.115 679.986 C 1855.043 677.106 1851.523 673.491 1847.555 669.139 L 1843.043 664.147 L 1842.563 664.147 L 1842.563 690.066 L 1827.299 690.066 L 1827.299 640.338 L 1839.49 640.338 L 1856.387 657.043 C 1860.035 660.499 1862.947 663.186 1865.123 665.106 C 1867.299 667.09 1869.155 668.466 1870.691 669.234 C 1872.227 670.002 1873.826 670.387 1875.49 670.387 C 1877.538 670.387 1879.01 669.713 1879.906 668.369 C 1880.802 667.089 1881.25 665.554 1881.25 663.762 C 1881.25 661.586 1880.642 659.41 1879.426 657.234 C 1878.21 655.058 1876.387 652.562 1873.955 649.746 L 1885.859 639.57 Z M 1856.291 706.979 C 1860.195 706.979 1864.098 707.266 1868.002 707.842 C 1871.906 708.418 1875.587 709.442 1879.043 710.914 C 1882.499 712.386 1885.538 714.466 1888.162 717.154 C 1890.85 719.842 1892.962 723.266 1894.498 727.426 C 1896.034 731.65 1896.803 736.803 1896.803 742.883 C 1896.803 744.227 1896.706 745.857 1896.514 747.777 C 1896.386 749.761 1896.227 751.394 1896.035 752.674 L 1881.539 752.674 C 1881.795 751.394 1881.987 749.954 1882.115 748.354 C 1882.307 746.754 1882.402 744.802 1882.402 742.498 C 1882.402 737.89 1881.699 734.243 1880.291 731.555 C 1878.947 728.867 1876.962 726.913 1874.338 725.697 C 1871.778 724.545 1868.675 723.874 1865.027 723.682 L 1865.027 724.258 C 1867.267 725.474 1869.155 727.106 1870.691 729.154 C 1872.227 731.266 1872.994 734.147 1872.994 737.795 C 1872.994 743.811 1871.043 748.514 1867.139 751.906 C 1863.299 755.298 1857.827 756.994 1850.723 756.994 C 1843.043 756.994 1837.058 754.819 1832.77 750.467 C 1828.482 746.179 1826.338 740.291 1826.338 732.803 C 1826.338 727.939 1827.394 723.554 1829.506 719.65 C 1831.682 715.746 1834.979 712.642 1839.395 710.338 C 1843.811 708.098 1849.443 706.979 1856.291 706.979 Z M 1851.299 725.41 C 1849.699 725.41 1848.098 725.634 1846.498 726.082 C 1844.898 726.594 1843.587 727.363 1842.563 728.387 C 1841.539 729.475 1841.027 730.818 1841.027 732.418 C 1841.027 734.402 1841.763 736.003 1843.234 737.219 C 1844.77 738.435 1847.138 739.043 1850.338 739.043 C 1852.962 739.043 1855.01 738.53 1856.482 737.506 C 1857.954 736.482 1858.691 734.849 1858.691 732.609 C 1858.691 730.305 1857.923 728.514 1856.387 727.234 C 1854.851 726.018 1853.155 725.41 1851.299 725.41 Z M 1892.955 795.279 C 1900.417 795.28 1906.465 801.329 1906.465 808.791 C 1906.464 816.252 1900.416 822.3 1892.955 822.301 C 1885.493 822.301 1879.444 816.253 1879.443 808.791 C 1879.443 805.207 1880.867 801.771 1883.401 799.237 C 1885.935 796.703 1889.372 795.279 1892.955 795.279 Z M 1868.186 858.33 C 1881.865 858.33 1892.955 869.42 1892.955 883.1 C 1892.955 896.779 1881.865 907.869 1868.186 907.869 C 1854.506 907.869 1843.416 896.779 1843.416 883.1 C 1843.416 869.42 1854.506 858.33 1868.186 858.33 Z M 1874.941 938.27 C 1884.268 938.271 1891.828 945.832 1891.828 955.158 C 1891.828 964.485 1884.268 972.046 1874.941 972.047 C 1870.462 972.047 1866.167 970.268 1862.999 967.1 C 1859.832 963.933 1858.053 959.637 1858.053 955.158 C 1858.053 950.679 1859.832 946.383 1862.999 943.216 C 1866.167 940.049 1870.462 938.27 1874.941 938.27 Z"/>
<g transform="matrix(0.7071 -0.7071 0.7071 0.7071 2229.3992 -476.4051)">
<path id="rect2" fill="#75336c" stroke="none" d="M -702.56 -106.96 L -837.667 -106.96 L -837.667 28.148 L -702.56 28.148 L -702.56 -106.96 Z M -859.176 -237.832 L -968.54 -230.184 L -960.892 -120.82 L -851.527 -128.468 L -859.176 -237.832 Z M -988.369 -337.057 L -1067.764 -325.898 L -1056.605 -246.503 L -977.21 -257.662 L -988.369 -337.057 Z M -1086.775 -412.685 L -1143.393 -400.651 L -1131.358 -344.032 L -1074.74 -356.067 L -1086.775 -412.685 Z M -1160.902 -462.876 L -1193.585 -453.505 L -1184.213 -420.824 L -1151.53 -430.194 L -1160.902 -462.876 Z M -784.841 -56.995 C -777.031 -49.185 -777.031 -36.522 -784.841 -28.711 C -788.592 -24.96 -793.679 -22.853 -798.983 -22.853 C -804.288 -22.853 -809.375 -24.96 -813.126 -28.711 C -820.936 -36.522 -820.936 -49.185 -813.126 -56.995 C -809.375 -60.746 -804.288 -62.853 -798.983 -62.853 C -793.679 -62.853 -788.592 -60.746 -784.841 -56.995 Z"/>
</g>
</g>
</g>
</svg>
