<svg height="1080" viewBox="0 0 1920 1080" width="1920" xmlns="http://www.w3.org/2000/svg" xmlns:xlink="http://www.w3.org/1999/xlink">
<filter id="a" color-interpolation-filters="sRGB" height="1.02" width="1.024" x="-.012" y="-.011">
<feFlood flood-color="#fff" flood-opacity=".698" in="SourceGraphic" result="flood"/>
<feGaussianBlur in="SourceGraphic" result="blur" stdDeviation="4"/>
<feOffset dx="-1" dy="-3.1" in="blur" result="offset"/>
<feComposite in="flood" in2="offset" operator="in" result="comp1"/>
<feComposite in="SourceGraphic" in2="comp1" operator="over" result="comp2"/>
</filter>
<path d="m0 0h1920v1080h-1920z" fill="#111"/>
<path d="m857.711 0h1062.289v1080h-1062.289z" fill="#002a56"/>
<g filter="url(#a)">
<path d="m1776.375-6 48.977 48.977-103.02 103.02 83.316 83.316-55.17 55.17 48.414 48.414-69.805 69.805 58.547 58.547-30.4 30.398 39.969 39.969-46.725 46.725 43.348 43.348-48.977 48.977 64.738 64.738-36.59 36.592 65.865 65.865-80.502 80.502 161.64 161.637v-1086zm61.975 90.84a26.459 26.459 0 0 1 26.457 26.457 26.459 26.459 0 0 1 -26.457 26.459 26.459 26.459 0 0 1 -26.459-26.459 26.459 26.459 0 0 1 26.459-26.457zm35.465 82.189a16.888 16.888 0 0 1 16.889 16.889 16.888 16.888 0 0 1 -16.889 16.889 16.888 16.888 0 0 1 -16.889-16.889 16.888 16.888 0 0 1 16.889-16.889zm-38.844 61.924a14.074 14.074 0 0 1 14.074 14.074 14.074 14.074 0 0 1 -14.074 14.074 14.074 14.074 0 0 1 -14.072-14.074 14.074 14.074 0 0 1 14.072-14.074zm-7.672 90.953 68.832 22.367v24.672l-68.832 22.656v-20.255l12.863-3.359v-22.271l-12.863-3.457zm28.031 27.648v14.592l11.232-2.977c1.216-.32 2.944-.768 5.184-1.344 2.304-.576 4.672-1.153 7.104-1.729s4.417-1.024 5.953-1.344c-1.536-.256-3.456-.672-5.76-1.248-2.304-.512-4.576-1.057-6.816-1.633-2.24-.512-4.128-.96-5.664-1.344zm6.049 55.023c6.912 0 13.024 1.28 18.336 3.84s9.473 6.304 12.481 11.232c3.072 4.992 4.607 11.039 4.607 18.143 0 3.328-.384 6.817-1.152 10.465s-1.984 7.232-3.648 10.752l-14.592-5.664c1.216-2.496 2.209-5.024 2.977-7.584.832-2.56 1.248-5.28 1.248-8.16 0-4.352-1.793-7.775-5.377-10.271s-8.575-3.744-14.975-3.744c-6.464 0-11.393 1.248-14.785 3.744-3.328 2.496-4.992 6.272-4.992 11.328 0 3.008.416 5.92 1.248 8.736.832 2.88 1.856 5.759 3.072 8.639h-15.649c-1.344-3.008-2.303-6.111-2.879-9.311-.64-3.136-.961-6.496-.961-10.08 0-7.424 1.472-13.504 4.416-18.24s7.041-8.225 12.289-10.465c5.312-2.24 11.424-3.359 18.336-3.359zm24.481 104.48c1.856 2.048 3.615 4.223 5.279 6.527 1.664 2.368 3.007 5.12 4.031 8.256 1.088 3.136 1.633 6.976 1.633 11.52 0 4.672-.832 8.704-2.496 12.096-1.6 3.392-3.809 6.017-6.625 7.873-2.816 1.92-6.016 2.879-9.6 2.879-3.968 0-7.52-.735-10.656-2.207-3.072-1.408-6.175-3.583-9.311-6.527-3.072-2.88-6.593-6.498-10.561-10.85l-4.512-4.99h-.481v25.92h-15.264v-49.729h12.191l16.897 16.703c3.648 3.456 6.56 6.144 8.736 8.064 2.176 1.984 4.032 3.361 5.568 4.129s3.135 1.15 4.799 1.15c2.048 0 3.52-.672 4.416-2.016.896-1.28 1.344-2.815 1.344-4.607 0-2.176-.608-4.351-1.824-6.527s-3.039-4.672-5.471-7.488zm-24.385 67.504c7.424 0 13.76.767 19.008 2.303 5.248 1.6 9.28 4.225 12.096 7.873s4.225 8.512 4.225 14.592c0 8.576-3.105 14.848-9.313 18.816s-14.88 5.951-26.016 5.951c-7.296 0-13.568-.8-18.816-2.4-5.248-1.536-9.28-4.127-12.096-7.775-2.816-3.584-4.225-8.448-4.225-14.592 0-8.576 3.105-14.848 9.313-18.816s14.816-5.951 25.824-5.951zm0 18.432c-6.72 0-11.808.416-15.264 1.248-3.392.832-5.088 2.528-5.088 5.088s1.696 4.256 5.088 5.088 8.48 1.248 15.264 1.248 11.903-.416 15.359-1.248 5.184-2.528 5.184-5.088-1.728-4.256-5.184-5.088-8.575-1.248-15.359-1.248zm24.385 46.576c1.856 2.048 3.615 4.223 5.279 6.527 1.664 2.368 3.007 5.12 4.031 8.256 1.088 3.136 1.633 6.976 1.633 11.52 0 4.672-.832 8.706-2.496 12.098-1.6 3.392-3.809 6.015-6.625 7.871-2.816 1.92-6.016 2.881-9.6 2.881-3.968 0-7.52-.737-10.656-2.209-3.072-1.408-6.175-3.583-9.311-6.527-3.072-2.88-6.593-6.496-10.561-10.848l-4.512-4.992h-.481v25.92h-15.264v-49.729h12.191l16.897 16.705c3.648 3.456 6.56 6.143 8.736 8.063 2.176 1.984 4.032 3.361 5.568 4.129s3.135 1.152 4.799 1.152c2.048 0 3.52-.674 4.416-2.018.896-1.28 1.344-2.815 1.344-4.607 0-2.176-.608-4.351-1.824-6.527s-3.039-4.672-5.471-7.488zm-29.568 67.408c3.904 0 7.807.287 11.711.863s7.585 1.6 11.041 3.072 6.495 3.552 9.119 6.24c2.688 2.688 4.8 6.111 6.336 10.271 1.536 4.224 2.305 9.377 2.305 15.457 0 1.344-.097 2.975-.289 4.895-.128 1.984-.287 3.616-.479 4.896h-14.496c.256-1.28.448-2.72.576-4.32.192-1.6.287-3.551.287-5.855 0-4.608-.703-8.255-2.111-10.943-1.344-2.688-3.329-4.641-5.953-5.857-2.56-1.152-5.663-1.824-9.311-2.016v.576c2.24 1.216 4.128 2.848 5.664 4.896 1.536 2.112 2.303 4.993 2.303 8.641 0 6.016-1.951 10.719-5.855 14.111-3.84 3.392-9.312 5.088-16.416 5.088-7.68 0-13.665-2.175-17.953-6.527-4.288-4.288-6.432-10.176-6.432-17.664 0-4.864 1.056-9.248 3.168-13.152 2.176-3.904 5.473-7.009 9.889-9.313 4.416-2.24 10.049-3.359 16.897-3.359zm-4.992 18.432c-1.6 0-3.201.224-4.801.672-1.6.512-2.912 1.281-3.936 2.305-1.024 1.088-1.535 2.431-1.535 4.031 0 1.984.735 3.585 2.207 4.801 1.536 1.216 3.904 1.824 7.104 1.824 2.624 0 4.673-.513 6.145-1.537s2.209-2.656 2.209-4.896c0-2.304-.769-4.095-2.305-5.375-1.536-1.216-3.232-1.824-5.088-1.824zm41.656 69.869a13.511 13.511 0 0 1 13.51 13.512 13.511 13.511 0 0 1 -13.51 13.51 13.511 13.511 0 0 1 -13.512-13.51 13.511 13.511 0 0 1 13.512-13.512zm-24.77 63.051a24.77 24.77 0 0 1 24.77 24.77 24.77 24.77 0 0 1 -24.77 24.77 24.77 24.77 0 0 1 -24.77-24.77 24.77 24.77 0 0 1 24.77-24.77zm6.756 79.939a16.888 16.888 0 0 1 16.887 16.889 16.888 16.888 0 0 1 -16.887 16.889 16.888 16.888 0 0 1 -16.889-16.889 16.888 16.888 0 0 1 16.889-16.889z" fill="#3a80b1"/>
<path d="m-702.56-106.96h-135.107v135.108h135.107zm-156.616-130.873-109.364 7.648 7.648 109.364 109.364-7.648zm-129.193-99.224-79.395 11.159 11.159 79.395 79.395-11.159zm-98.405-75.629-56.618 12.035 12.035 56.618 56.618-12.035zm-74.127-50.191-32.683 9.371 9.372 32.682 32.683-9.371zm376.061 405.881a20 20 0 0 1 0 28.284 20 20 0 0 1 -28.284 0 20 20 0 0 1 0-28.284 20 20 0 0 1 28.284 0z" fill="#9587c9" transform="matrix(.7071 -.7071 .7071 .7071 2229.399 -476.405)"/>
</g>
</svg>
