<?xml version="1.0" encoding="utf-8"?>
<!-- Generator: Adobe Illustrator 9.0, SVG Export Plug-In  -->
<svg viewBox="0 0 211.7 48">
	<style type="text/css">
	<![CDATA[
		.st0arch{fill-rule:nonzero;clip-rule:nonzero;fill:#99FFFF;stroke:#000000;stroke-miterlimit:4;}
		.st1arch{fill:#FFFFFF;}
		.st2arch{fill-rule:nonzero;clip-rule:nonzero;fill:#FFFF00;}
		.st3arch{fill-rule:nonzero;clip-rule:nonzero;fill:#000066;}
		.st4arch{fill-rule:evenodd;clip-rule:evenodd;stroke:none;}
	]]>
	</style>
	<g id="Layer_x0020_1" class="st0arch">
		<g class="st4arch">
			<g class="st3arch">
				<path d="M0,0h211.7v48H0V0z"/>
				<path d="M105.9,24"/>
			</g>
			<g class="st2arch">
				<path d="M0,29.3h211.7v1.1H0v-1.1z"/>
				<path d="M105.9,29.8"/>
			</g>
			<g>
				<path d="M82.6,27.2l2.2-5h9.1l2,5h3L91,7.7h-2.8l-8.3,19.5h2.7z M93,19.9h-7.4l3.8-9.6l3.6,9.6z"/>
				<path d="M98.9,27.2h2.5v-7.6c0-2.4,1.3-3.7,3.5-3.7c0.4,0,0.8,0.1,1.4,0.2v-2.4c-0.3-0.1-0.7-0.1-1-0.1c-2,0-3.3,0.9-3.8,2.6l-0.1-2.6h-2.5c0.1,0.9,0.1,1.7,0.1,2.1c0,0.2,0,0.4,0,0.5v10.9z"/>
				<path d="M117.4,22.6h-2.4c0,1.8-1.2,3-2.9,3c-2.2,0-3.4-1.9-3.4-5.5c0-3.3,1.4-5.1,3.4-5.1c1.5,0,2.8,1.2,2.8,2.8h2.4c0,0,0,0,0-0.1c0-2.8-2-4.6-5-4.6c-3.9,0-6.2,2.7-6.2,7.4c0,4.4,2.2,6.8,6,6.8c3.2,0,5.1-1.7,5.3-4.9z"/>
				<path d="M121.2,15.8V7.7h-2.5v19.5h2.5v-8.8c0-1.8,1.5-3.1,3.6-3.1c2.1,0,3,1.1,3,3.3v8.6h2.5v-8.4c0-1.6,0-2.7-0.7-3.5c-0.8-1.1-2.4-1.8-4.2-1.8c-2,0-3.7,1-4.3,2.4z"/>
				<path d="M132.4,27.2h2.5V13.6h-2.5v13.6z M135.1,10.4V7.7h-2.9v2.8h2.9z"/>
				<path d="M135.2,13.6v1.8h2.3v9.2c0,2.2,1.1,2.9,3.5,2.9c0.5,0,1.2-0.1,2-0.3v-1.9c-0.4,0.1-0.8,0.2-1.2,0.2c-1.4,0-1.7-0.4-1.7-1.7v-8.3h3v-1.8h-3V10l-2.5,0.8v2.8h-2.3z"/>
				<path d="M154.6,22.8h-2.4c0,1.7-1.3,2.8-3.3,2.8c-2.4,0-3.8-1.4-3.8-4c0-0.2,0-0.4,0-0.5c0-0.1,0-0.2,0-0.3h9.6c0.1-0.6,0.1-1.1,0.1-1.7c0-3.6-2.2-5.9-5.9-5.9c-4,0-6.3,2.5-6.3,7.4c0,4.5,2.2,6.9,6.4,6.9c3.3,0,5.5-1.8,5.5-4.7z M145.3,19
					c0-2.5,1.5-4.1,3.7-4.1c1.9,0,3.4,1.4,3.4,3.8c0,0.1,0,0.2,0,0.3h-7z"/>
				<path d="M166.7,22.6h-2.4c0,1.8-1.2,3-2.9,3c-2.2,0-3.4-1.9-3.4-5.5c0-3.3,1.4-5.1,3.4-5.1c1.5,0,2.8,1.2,2.8,2.8h2.4c0,0,0,0,0-0.1c0-2.8-2-4.6-5-4.6c-3.9,0-6.2,2.7-6.2,7.4c0,4.4,2.2,6.8,6,6.8c3.2,0,5.1-1.7,5.3-4.9z"/>
				<path d="M166.2,13.6v1.8h2.3v9.2c0,2.2,1.1,2.9,3.5,2.9c0.5,0,1.2-0.1,2-0.3v-1.9c-0.4,0.1-0.8,0.2-1.2,0.2c-1.4,0-1.7-0.4-1.7-1.7v-8.3h3v-1.8h-3V10l-2.5,0.8v2.8h-2.3z"/>
				<path d="M183.5,25.1l0.1,2.1h2.5c-0.1-0.8-0.1-1.7-0.1-2.7V13.6h-2.5v8.9c0,1.8-1.5,3.1-3.6,3.1c-2.1,0-3-1.1-3-3.3v-8.7h-2.5v8.5c0,1.6,0,2.6,0.7,3.5c0.8,1.1,2.4,1.9,4.2,1.9c2,0,3.7-1,4.3-2.4z"/>
				<path d="M188.1,27.2h2.5v-7.6c0-2.4,1.3-3.7,3.5-3.7c0.4,0,0.8,0.1,1.4,0.2v-2.4c-0.3-0.1-0.7-0.1-1-0.1c-2,0-3.3,0.9-3.8,2.6l-0.1-2.6h-2.5c0.1,0.9,0.1,1.7,0.1,2.1c0,0.2,0,0.4,0,0.5v10.9z"/>
				<path d="M207.3,22.8h-2.4c0,1.7-1.3,2.8-3.3,2.8c-2.4,0-3.8-1.4-3.8-4c0-0.2,0-0.4,0-0.5c0-0.1,0-0.2,0-0.3h9.6c0.1-0.6,0.1-1.1,0.1-1.7c0-3.6-2.2-5.9-5.9-5.9c-4,0-6.3,2.5-6.3,7.4c0,4.5,2.2,6.9,6.5,6.9c3.3,0,5.5-1.8,5.5-4.7z M197.9,19
					c0-2.5,1.5-4.1,3.7-4.1c1.9,0,3.4,1.4,3.4,3.8c0,0.1,0,0.2,0,0.3h-7z"/>
			</g>
			<g class="st1arch">
				<path d="M123.6,29.7H119v7c-1.4-1.3-3.1-2-5.2-2c-3.8,0-6.2,2.4-6.2,6.2c0,4.1,2.3,6.4,6.1,6.4c2.2,0,4-0.9,5.2-2.5c0,0.1,0,0.3,0,0.4c0,0.6,0,1.2,0.1,1.9h4.7c-0.1-0.9-0.2-1.8-0.2-2.7V29.7z M115.7,37c2.2,0,3.4,1.3,3.4,3.7c0,2.4-1.2,3.7-3.3,3.7
					c-2.1,0-3.3-1.4-3.3-3.9c0-2.2,1.2-3.6,3.3-3.6z"/>
				<path d="M133.5,44.5c-2.2,0-3.4-1.3-3.4-3.8c0-2.4,1.2-3.8,3.3-3.8c2,0,3.3,1.4,3.3,3.8c0,2.3-1.3,3.7-3.3,3.7z M133.2,47.2c5.6,0,8.4-2.1,8.4-6.3c0-4.1-2.8-6.4-8.2-6.4c-5.4,0-8.2,2.3-8.2,6.3c0,4.1,2.7,6.3,8,6.3z"/>
				<path d="M143.2,46.9h4.5v-6.1c0-2.4,0.9-3.5,3-3.5c1.4,0,2.3,0.8,2.3,2.3v7.3h4.5v-6.1c0-2.4,0.9-3.5,2.9-3.5c1.5,0,2.3,0.8,2.3,2.3v7.3h4.6v-7.2c0-3.3-1.9-5.1-5.3-5.1c-2.1,0-3.8,0.8-4.9,2.5c-0.6-1.6-2.1-2.5-4.3-2.5c-2,0-3.6,0.7-5,2.2
					c0-0.6-0.1-1.3-0.2-1.9h-4.5c0.1,0.9,0.1,1.9,0.1,2.8v9.2z"/>
				<path d="M178.9,45.2c0,0.1,0,0.1,0,0.2c0,0.6,0.1,1.1,0.3,1.6h4.3c-0.2-0.5-0.2-1-0.2-1.6v-6.1c0-3.2-2.1-4.6-6.6-4.6c-4.7,0-7,1.2-7.3,3.9h4.7c0.2-1.1,1-1.5,2.6-1.5c1.5,0,2.3,0.7,2.3,2c0,0.1,0,0.2,0,0.3h-2.2c-2.9,0-5,0.1-6.2,0.8c-1.2,0.7-1.9,1.9-1.9,3.4
					c0,2.3,1.7,3.6,4.8,3.6c2.7,0,4.7-0.8,5.6-2.1z M178.8,41.6c0,0.1,0,0.2,0,0.3c0,1.8-1.1,2.8-3.2,2.8c-1.5,0-2.3-0.5-2.3-1.3c0-1.3,1.6-1.7,5.1-1.7c0.1,0,0.2,0,0.4,0z"/>
				<path d="M185.5,46.9h4.6v-12h-4.6v12z M185.3,33h5v-3.4h-5V33z"/>
				<path d="M192.3,46.9h4.6v-6.1c0-2.4,1-3.5,3.2-3.5c1.7,0,2.5,0.8,2.5,2.5v7.2h4.6v-7.4c0-3.1-2-5-5.2-5c-2.3,0-3.8,0.8-5.2,2.2c0-0.7,0-1.3-0.1-1.9h-4.6c0.1,0.9,0.1,1.9,0.1,2.8v9.2z"/>
			</g>
		</g>
	</g>
</svg>
