<?xml version="1.0" standalone="no"?>
<!-- <?xml-stylesheet type="text/css" href="http://www.w3.org/Consortium/Offices/Presentations/svgs/slide.css" ?> -->
<?xml-stylesheet type="text/css" href="slide.css" ?>
<svg viewBox="0 0 1027 740">
<!-- **************  Screen Display Area  ******************** -->
  <rect class="background" width="1027" height="740" />
  <desc>Inherited from Dave Duce (I guess...)</desc>
  <g transform="translate(100,40)">
    <defs>
      <linearGradient id="aaa" x1="0%" y1="0%" x2="0%" y2="100%"
      gradientUnits="objectBoundingBox">
        <stop offset="0%"
        style="stop-color:#000040; stop-opacity:0.992157" />

        <stop offset="78%" style="stop-color:#150080" />

        <stop offset="100%"
        style="stop-color:#8080ff; stop-opacity:0.992157" />
      </linearGradient>

      <linearGradient id="eee" x1="0%" y1="0%" x2="0%" y2="100%"
      gradientUnits="objectBoundingBox">
        <stop offset="0%"
        style="stop-color:#eae0d0; stop-opacity:0.992157" />

        <stop offset="100%"
        style="stop-color:#8f816b; stop-opacity:0.992157" />
      </linearGradient>

      <linearGradient id="bbb" x1="0%" y1="100%" x2="100%"
      y2="0%" gradientUnits="objectBoundingBox">
        <stop offset="0%"
        style="stop-color:#3e2900; stop-opacity:0.992157" />

        <stop offset="78%" style="stop-color:#805400" />

        <stop offset="100%"
        style="stop-color:#ffd481; stop-opacity:0.992157" />
      </linearGradient>

      <linearGradient id="ddd" x1="50%" y1="0%" x2="50%"
      y2="100%" gradientUnits="objectBoundingBox">
        <stop offset="0%"
        style="stop-color:#140d00; stop-opacity:0.992157" />

        <stop offset="78%" style="stop-color:#462e00" />

        <stop offset="100%"
        style="stop-color:#aa7000; stop-opacity:0.992157" />
      </linearGradient>

      <linearGradient id="metallic2" x1="0%" y1="0%" x2="100%"
      y2="0%" gradientUnits="objectBoundingBox">
        <stop offset="0%"
        style="stop-color:#ffffff; stop-opacity:0.992157" />

        <stop offset="12%" style="stop-color:#606060" />

        <stop offset="41%" style="stop-color:#e1e1e1" />

        <stop offset="73%" style="stop-color:#e1e1e1" />

        <stop offset="100%"
        style="stop-color:#606060; stop-opacity:0.992157" />
      </linearGradient>

      <linearGradient id="streetlight" x1="0%" y1="0%" x2="0%"
      y2="100%" gradientUnits="objectBoundingBox">
        <stop offset="0%"
        style="stop-color:#ffffff; stop-opacity:0.992157" />

        <stop offset="4%" style="stop-opacity:0.494118" />

        <stop offset="5%" style="stop-color:#ffffff" />

        <stop offset="16%" style="stop-color:#ffff00" />

        <stop offset="91%" style="stop-opacity:0.247059" />

        <stop offset="100%"
        style="stop-color:#ffff00; stop-opacity:0" />
      </linearGradient>

      <linearGradient id="fff" x1="0%" y1="0%" x2="0%" y2="100%"
      gradientUnits="objectBoundingBox">
        <stop offset="0%"
        style="stop-color:#45576d; stop-opacity:0.992157" />

        <stop offset="16%" style="stop-color:#4a5164" />

        <stop offset="100%"
        style="stop-color:#140d00; stop-opacity:0.992157" />
      </linearGradient>

      <linearGradient id="fff1" x1="0%" y1="100%" x2="0%" y2="0%"
      gradientUnits="objectBoundingBox">
        <stop offset="0%"
        style="stop-color:#45576d; stop-opacity:0.992157" />

        <stop offset="16%" style="stop-color:#4a5164" />

        <stop offset="100%"
        style="stop-color:#140d00; stop-opacity:0.992157" />
      </linearGradient>

      <linearGradient id="Forest Greens" x1="0%" y1="100%"
      x2="100%" y2="66.6667%" gradientUnits="objectBoundingBox">
        <stop offset="0%"
        style="stop-color:#005600; stop-opacity:0.992157" />

        <stop offset="34%" style="stop-color:#008000" />

        <stop offset="47%" style="stop-color:#005600" />

        <stop offset="50%" style="stop-color:#008000" />

        <stop offset="82%" style="stop-color:#718200" />

        <stop offset="100%" style="stop-opacity:0.992157" />
      </linearGradient>

      <linearGradient id="grass" x1="0%" y1="100%" x2="0%"
      y2="0%" gradientUnits="objectBoundingBox">
        <stop offset="0%"
        style="stop-color:#008000; stop-opacity:0.992157" />

        <stop offset="50%" style="stop-color:#6d976d" />

        <stop offset="100%"
        style="stop-color:#598559; stop-opacity:0.992157" />
      </linearGradient>

      <pattern id="black squares" x="0" y="0" width="6"
      height="6" patternUnits="userSpace">
        <g>
          <polygon
          style="stroke:none; stroke-width:1; stroke-opacity:1; stroke-miterlimit:10; fill:#000000; fill-opacity:1"
           points="0,0,1,0,1,1,0,1" />

          <polygon
          style="stroke:none; stroke-width:1; stroke-opacity:1; stroke-miterlimit:10; fill:#000000; fill-opacity:1"
           points="2,0,3,0,3,1,2,1" />

          <polygon
          style="stroke:none; stroke-width:1; stroke-opacity:1; stroke-miterlimit:10; fill:#000000; fill-opacity:1"
           points="4,0,5,0,5,1,4,1" />

          <polygon
          style="stroke:none; stroke-width:1; stroke-opacity:1; stroke-miterlimit:10; fill:#000000; fill-opacity:1"
           points="0,2,1,2,1,3,0,3" />

          <polygon
          style="stroke:none; stroke-width:1; stroke-opacity:1; stroke-miterlimit:10; fill:#000000; fill-opacity:1"
           points="2,2,3,2,3,3,2,3" />

          <polygon
          style="stroke:none; stroke-width:1; stroke-opacity:1; stroke-miterlimit:10; fill:#000000; fill-opacity:1"
           points="4,2,5,2,5,3,4,3" />

          <polygon
          style="stroke:none; stroke-width:1; stroke-opacity:1; stroke-miterlimit:10; fill:#000000; fill-opacity:1"
           points="0,4,1,4,1,5,0,5" />

          <polygon
          style="stroke:none; stroke-width:1; stroke-opacity:1; stroke-miterlimit:10; fill:#000000; fill-opacity:1"
           points="2,4,3,4,3,5,2,5" />

          <polygon
          style="stroke:none; stroke-width:1; stroke-opacity:1; stroke-miterlimit:10; fill:#000000; fill-opacity:1"
           points="4,4,5,4,5,5,4,5" />
        </g>
      </pattern>
    </defs>

    <polygon
    style="stroke:none; stroke-width:1; stroke-opacity:1; stroke-miterlimit:10; fill:url(#grass); fill-opacity:1"
     points="632,315,0,315,0,357,632,357" />

    <polygon id="sky"
    style="stroke:none; stroke-width:1; stroke-opacity:1; stroke-miterlimit:10; fill:url(#aaa); fill-opacity:1"
     points="0,0,830,0,830,316,0,316" />

    <g>
      <polygon
      style="stroke:none; stroke-width:5; stroke-opacity:1; fill:url(#Forest Greens); fill-opacity:1"
       points="-20,252,6,244,32,250,52,268,60,294,54,320,36,340,10,348,-16,342,-36,324,-44,298,-38,272"
       transform="matrix(1 0 0 1 1 -25)" />

      <g>
        <polygon
        style="stroke:none; stroke-width:1; stroke-opacity:1; stroke-miterlimit:10; fill-opacity:1"
         points="28,298,66,298,66,345,28,345" />

        <polygon
        style="stroke:none; stroke-width:1; stroke-opacity:1; stroke-miterlimit:10; fill-opacity:1"
         points="80,310,93,310,93,345,80,345" />

        <polygon
        style="stroke:none; stroke-width:1; stroke-opacity:1; stroke-miterlimit:10; fill-opacity:1"
         points="90,289,121,289,121,346,90,346" />

        <polygon
        style="stroke:none; stroke-width:1; stroke-opacity:1; stroke-miterlimit:10; fill-opacity:1"
         points="142,310,162,310,162,346,142,346" />

        <polygon
        style="stroke:none; stroke-width:1; stroke-opacity:1; stroke-miterlimit:10; fill-opacity:1"
         points="127,320,138,320,138,347,127,347" />

        <polygon
        style="stroke:none; stroke-width:1; stroke-opacity:1; stroke-miterlimit:10; fill-opacity:1"
         points="173,303,192,303,192,349,173,349" />

        <polygon
        style="stroke:none; stroke-width:1; stroke-opacity:1; stroke-miterlimit:10; fill-opacity:1"
         points="214,325,228,325,228,348,214,348" />

        <polygon
        style="stroke:none; stroke-width:1; stroke-opacity:1; stroke-miterlimit:10; fill-opacity:1"
         points="243,305,255,305,255,347,243,347" />

        <polygon
        style="stroke:none; stroke-width:1; stroke-opacity:1; stroke-miterlimit:10; fill-opacity:1"
         points="273,314,285,314,285,345,273,345"
        transform="matrix(1 0 0 1.06452 0 -20.2581)" />

        <polygon
        style="stroke:none; stroke-width:1; stroke-opacity:1; stroke-miterlimit:10; fill-opacity:1"
         points="196,319,208,319,208,349,196,349" />

        <polygon
        style="stroke:none; stroke-width:1; stroke-opacity:1; stroke-miterlimit:10; fill-opacity:1"
         points="46,287,60,287,60,347,46,347" />
      </g>

      <polygon
      style="stroke:none; stroke-width:5; stroke-opacity:1; fill:url(#Forest Greens); fill-opacity:1"
       points="303,266,321,269,336,280,343,298,340,316,329,331,311,338,293,335,278,324,271,306,274,288,285,273"
       transform="matrix(1 0 0 1 4 0)" />

      <polygon
      style="stroke:none; stroke-width:5; stroke-opacity:1; fill:url(#Forest Greens); fill-opacity:1"
       points="147,264,164,268,177,279,183,296,179,313,168,326,151,332,134,328,121,317,115,300,119,283,130,270" />

      <polygon
      style="stroke:none; stroke-width:5; stroke-opacity:1; fill:url(#Forest Greens); fill-opacity:0.894118"
       points="349,281,365,284,378,294,384,310,381,326,371,339,355,345,339,342,326,332,320,316,323,300,333,287" />

      <polygon
      style="stroke:none; stroke-width:5; stroke-opacity:1; fill:url(#Forest Greens); fill-opacity:0.894118"
       points="450,285,464,292,473,305,475,320,468,334,455,343,440,345,426,338,417,325,415,310,422,296,435,287" />

      <g
      transform="matrix(0.717322 0 0 0.690156 -34.0524 100.145)">
        <polygon
        style="stroke:none; stroke-width:5; stroke-opacity:1; fill:url(#Forest Greens); fill-opacity:0.894118"
         points="149,113,181,142,194,183,185,225,156,257,115,270,73,261,41,232,28,191,37,149,66,117,107,104" />

        <polygon
        style="stroke:none; stroke-width:5; stroke-opacity:1; fill:url(#Forest Greens); fill-opacity:0.894118"
         points="122,65,158,74,185,99,195,134,186,170,161,197,126,207,90,198,63,173,53,138,62,102,87,75" />

        <polygon
        style="stroke:none; stroke-width:5; stroke-opacity:1; fill:url(#Forest Greens); fill-opacity:0.894118"
         points="147,97,184,114,208,147,212,188,195,225,162,249,121,253,84,236,60,203,56,162,73,125,106,101" />

        <polygon
        style="stroke:none; stroke-width:5; stroke-opacity:1; fill:url(#Forest Greens); fill-opacity:0.894118"
         points="181,176,216,186,242,213,251,250,241,285,214,311,177,320,142,310,116,283,107,246,117,211,144,185" />
      </g>

      <polygon
      style="stroke:none; stroke-width:5; stroke-opacity:1; fill:url(#Forest Greens); fill-opacity:1"
       points="217,233,234,238,247,251,252,269,247,287,234,300,217,305,199,300,186,287,181,269,186,251,199,238"
       transform="matrix(1 0 0 1 4 0)" />

      <polygon
      style="stroke:none; stroke-width:5; stroke-opacity:1; fill:url(#Forest Greens); fill-opacity:0.894118"
       points="252,188,273,194,289,212,295,236,289,259,273,277,252,283,230,277,214,259,208,236,214,212,230,194"
       transform="matrix(1 0 0 1 4 0)" />

      <polygon
      style="stroke:none; stroke-width:5; stroke-opacity:1; fill:url(#Forest Greens); fill-opacity:0.894118"
       points="169,145,194,151,212,168,220,192,214,217,197,235,173,243,148,237,130,220,122,196,128,171,145,153"
       transform="matrix(1 0 0 1 4 0)" />

      <polygon
      style="stroke:none; stroke-width:5; stroke-opacity:1; fill:url(#Forest Greens); fill-opacity:0.894118"
       points="134,168,164,165,192,176,211,201,214,231,203,259,178,278,148,281,120,270,101,245,98,215,109,187"
       transform="matrix(1 0 0 1 4 0)" />

      <polygon
      style="stroke:none; stroke-width:5; stroke-opacity:1; fill:url(#Forest Greens); fill-opacity:1"
       points="204,210,237,207,268,221,288,248,291,281,277,312,250,332,217,335,186,321,166,294,163,261,177,230"
       transform="matrix(1 0 0 1 4 0)" />

      <polygon
      style="stroke:none; stroke-width:5; stroke-opacity:1; fill:url(#Forest Greens); fill-opacity:0.894118"
       points="203,158,222,162,236,174,242,191,238,210,226,224,209,230,190,226,176,214,170,197,174,178,186,164"
       transform="matrix(1 0 0 1 4 0)" />

      <polygon
      style="stroke:none; stroke-width:5; stroke-opacity:1; fill:url(#Forest Greens); fill-opacity:0.894118"
       points="312,200,333,207,347,223,352,244,345,265,329,279,308,284,287,277,273,261,268,240,275,219,291,205"
       transform="matrix(1 0 0 1 4 0)" />

      <polygon
      style="stroke:none; stroke-width:5; stroke-opacity:1; fill:url(#Forest Greens); fill-opacity:0.894118"
       points="266,198,292,202,313,218,324,242,320,268,304,289,280,300,254,296,233,280,222,256,226,230,242,209"
       transform="matrix(1 0 0 1 4 0)" />

      <polygon
      style="stroke:none; stroke-width:5; stroke-opacity:1; fill:url(#Forest Greens); fill-opacity:0.894118"
       points="358,183,385,179,410,190,426,211,430,238,419,263,398,279,371,283,346,272,330,251,326,224,337,199" />

      <polygon
      style="stroke:none; stroke-width:5; stroke-opacity:1; fill:url(#Forest Greens); fill-opacity:0.894118"
       points="385,245,408,244,428,254,441,273,442,296,432,316,413,329,390,330,370,320,357,301,356,278,366,258" />

      <polygon
      style="stroke:none; stroke-width:5; stroke-opacity:1; fill:url(#Forest Greens); fill-opacity:0.894118"
       points="482,217,502,233,511,257,507,282,491,302,467,311,442,307,422,291,413,267,417,242,433,222,457,213" />

      <polygon
      style="stroke:none; stroke-width:5; stroke-opacity:1; fill:url(#Forest Greens); fill-opacity:0.894118"
       points="340,257,352,258,362,266,368,277,367,289,359,299,348,305,336,304,326,296,320,285,321,273,329,263" />
    </g>

    <path
    style="stroke:none; stroke-width:1; stroke-opacity:1; stroke-miterlimit:10; fill:url(#fff1); fill-opacity:1"
     d="M 25.0349 343 C 798.552 343.25 800 384 800 384 L 800 600 L 26 600 L 25.0349 343 L 25.0349 343 L 25.0349 343 L 25.0349 343 z z"
     transform="matrix(1.03618 0 0 1 -28.9406 0)" />

    <path id="reflect"
    style="stroke:none; stroke-width:1; stroke-opacity:1; stroke-miterlimit:30; fill:#706142; fill-opacity:0.494118"
     d="M 805 385 C 805 385 771 491 555 597 C 555 597 697.798 612.193 715 591 C 808.229 442.542 823 386 823 386 L 805 385 L 805 385 L 805 385 L 805 385 L 805 385 z z" />

    <path id="shadow"
    style="stroke:none; stroke-width:1; stroke-opacity:0.494118; stroke-miterlimit:30; fill:#343028; fill-opacity:0.494118"
     d="M 822 315 C 825 334 830 464 555 598 L 561 428 L 622 308 L 795 302 C 795 302 819 296 822 315 L 822 315 L 822 315 L 822 315 L 822 315 L 822 315 L 822 315 L 822 315 L 822 315 L 822 315 L 822 315 L 822 315 L 822 315 L 822 315 L 822 315 L 822 315 L 822 315 L 822 315 L 822 315 L 822 315 L 822 315 L 822 315 L 822 315 L 822 315 L 822 315 z z" />

    <path id="under"
    style="stroke:#000000; stroke-width:1; stroke-opacity:0.494118; stroke-miterlimit:30; fill:url(#fff); fill-opacity:1"
     d="M 849 388 C 803.381 172.762 642.009 202.665 607 383 L 849 388 L 849 388 L 849 388 L 849 388 L 849 388 L 849 388 L 849 388 L 849 388 L 849 388 L 849 388 L 849 388 z z"
     transform="matrix(1 0 0 1 -1 -2)" />

    <g>
      <g id="l4" transform="matrix(1 0 0 0.882813 148 12.0078)">
        <polygon
        style="stroke:none; stroke-width:1; stroke-opacity:1; stroke-miterlimit:10; fill:url(#metallic2); fill-opacity:1"
         points="448,239,453,239,453,111,448,111"
        transform="matrix(1.6 0 0 1 -268.8 0)" />

        <polygon
        style="stroke:none; stroke-width:1; stroke-opacity:1; stroke-miterlimit:10; fill:url(#metallic2); fill-opacity:1"
         points="447,111,468,111,468,117,447,117" />
      </g>

      <g id="l5" transform="matrix(1 0 0 1 -34 -23)">
        <polygon
        style="stroke:none; stroke-width:1; stroke-opacity:1; stroke-miterlimit:10; fill:url(#metallic2); fill-opacity:1"
         points="533,218,535,218,535,114,533,114"
        transform="matrix(3 0 0 1 -910 73)" />

        <polygon
        style="stroke:none; stroke-width:1; stroke-opacity:1; stroke-miterlimit:10; fill:url(#metallic2); fill-opacity:1"
         points="533,114,548,114,548,118,533,118"
        transform="matrix(1 0 0 1 156 73)" />
      </g>

      <path id="left top"
      style="stroke:#000000; stroke-width:1; stroke-opacity:0.494118; stroke-miterlimit:30; fill:url(#bbb); fill-opacity:1"
       d="M 0 535 C 347 211 524 215 580 215 C 442.239 203.96 138 420.25 -1 598"
       transform="matrix(1 0 0 1 -1 3)" />

      <path id="left inside"
      style="stroke:#000000; stroke-width:1; stroke-opacity:0.494118; stroke-miterlimit:10; fill:url(#ddd); fill-opacity:1"
       d="M 123.491 599 C 134.491 536 353.654 121 446.931 233 L 445.809 237 L 392.745 237 C 392.745 237 304.304 221 165.256 599 L 123.491 599 L 123.491 599 L 123.491 599 L 123.491 599 L 123.491 599 L 123.491 599 L 123.491 599 L 123.491 599 L 123.491 599 L 123.491 599 L 123.491 599 L 123.491 599 L 123.491 599 L 123.491 599 L 123.491 599 L 123.491 599 L 123.491 599 L 123.491 599 L 123.491 599 L 123.491 599 L 123.491 599 L 123.491 599 L 123.491 599 L 123.491 599 L 123.491 599 L 123.491 599 L 123.491 599 L 123.491 599 L 123.491 599 L 123.491 599 L 123.491 599 z z"
       transform="matrix(2.03526 0 0 1 -252.338 3)" />

      <path id="path"
      style="stroke:#000000; stroke-width:1; stroke-opacity:0.494118; stroke-miterlimit:30; fill:url(#eee); fill-opacity:1"
       d="M 163.526 601 C 241.526 373 344.035 226 405.035 226 L 454.144 226 C 454.144 226 399.115 258 319.518 601 L 163.526 601 L 163.526 601 L 163.526 601 L 163.526 601 L 163.526 601 L 163.526 601 L 163.526 601 L 163.526 601 L 163.526 601 L 163.526 601 L 163.526 601 L 163.526 601 L 163.526 601 L 163.526 601 L 163.526 601 L 163.526 601 L 163.526 601 L 163.526 601 L 163.526 601 L 163.526 601 L 163.526 601 L 163.526 601 L 163.526 601 L 163.526 601 L 163.526 601 L 163.526 601 L 163.526 601 L 163.526 601 L 163.526 601 L 163.526 601 L 163.526 601 z z"
       transform="matrix(2.03526 0 0 1 -250.302 3)" />

      <path
      style="stroke:none; stroke-width:1; stroke-opacity:1; stroke-miterlimit:10; fill:url(#metallic2); fill-opacity:1"
       d="M 32 512 C 47.17 522 69 512 69 512 L 69 116 L 32 116 L 32 512 L 32 512 L 32 512 L 32 512 L 32 512 L 32 512 L 32 512 L 32 512 L 32 512 L 32 512 L 32 512 L 32 512 L 32 512 L 32 512 L 32 512 L 32 512 z z"
       transform="matrix(0.675676 0 0 1 16.3784 0)" />

      <polygon
      style="stroke:none; stroke-width:1; stroke-opacity:1; stroke-miterlimit:10; fill:url(#metallic2); fill-opacity:1"
       points="34,115,107,115,107,129,34,129"
      transform="matrix(1 0 0 1 -2 0)" />

      <g id="l2" transform="matrix(1.17241 0 0 1 -58.7241 0)">
        <path
        style="stroke:none; stroke-width:1; stroke-opacity:1; stroke-miterlimit:10; fill:url(#metallic2); fill-opacity:1"
         d="M 226 360 C 235.452 367.148 242 360 242 360 L 242 111 L 226 111 L 226 360 L 226 360 L 226 360 L 226 360 L 226 360 L 226 360 L 226 360 L 226 360 L 226 360 L 226 360 L 226 360 L 226 360 L 226 360 L 226 360 L 226 360 L 226 360 z z"
         transform="matrix(0.733631 0 0 0.839357 134.89 13.8313)" />

        <polygon
        style="stroke:none; stroke-width:1; stroke-opacity:1; stroke-miterlimit:10; fill:url(#metallic2); fill-opacity:1"
         points="225,111,267,111,267,120,225,120"
        transform="matrix(0.690476 0 0 0.839357 144.643 13.8313)" />
      </g>

      <g id="l3" transform="matrix(0.689655 0 0 1 154.241 0)">
        <path
        style="stroke:none; stroke-width:1; stroke-opacity:1; stroke-miterlimit:10; fill:url(#metallic2); fill-opacity:1"
         d="M 347 282 C 347.962 286.975 357 282 357 282 L 357 111 L 347 111 L 347 282 L 347 282 L 347 282 L 347 282 L 347 282 L 347 282 L 347 282 L 347 282 L 347 282 L 347 282 L 347 282 L 347 282 L 347 282 L 347 282 L 347 282 L 347 282 z z"
         transform="matrix(1.3 0 0 0.703488 45.9 26.6163)" />

        <polygon
        style="stroke:none; stroke-width:1; stroke-opacity:1; stroke-miterlimit:10; fill:url(#metallic2); fill-opacity:1"
         points="347,110,376,110,376,118,347,118"
        transform="matrix(1 0 0 0.703488 150 26.6163)" />
      </g>

      <polygon
      style="stroke:none; stroke-width:1; stroke-opacity:1; stroke-miterlimit:10; fill:url(#streetlight); fill-opacity:1"
       points="35,128,103,128,171,573,3,573" />

      <polygon
      style="stroke:none; stroke-width:1; stroke-opacity:1; stroke-miterlimit:10; fill:url(#streetlight); fill-opacity:1"
       points="293,115,326,115,357,369,252,370" />

      <polygon
      style="stroke:none; stroke-width:1; stroke-opacity:1; stroke-miterlimit:10; fill:url(#streetlight); fill-opacity:1"
       points="497,110,516,110,537,246,476,246"
      transform="matrix(1 0 0 1 0 -1)" />

      <polygon
      style="stroke:none; stroke-width:1; stroke-opacity:1; stroke-miterlimit:10; fill:url(#streetlight); fill-opacity:1"
       points="595,114,615,114,634,229,580,229"
      transform="matrix(1.05 0 0 1 -29.75 0)" />

      <polygon
      style="stroke:none; stroke-width:1; stroke-opacity:1; stroke-miterlimit:10; fill:url(#streetlight); fill-opacity:1"
       points="655,167,670,167,676,227,648,227" />

      <polygon
      style="stroke:none; stroke-width:1; stroke-opacity:1; stroke-miterlimit:10; fill:url(#streetlight); fill-opacity:1"
       points="782,172,794,172,799,254,777,254"
      transform="matrix(1 0 0 1 1 -1)" />

      <polygon
      style="stroke:none; stroke-width:1; stroke-opacity:1; stroke-miterlimit:10; fill:url(#streetlight); fill-opacity:1"
       points="735,135,754,135,768,232,726,232" />

      <polygon
      style="stroke:none; stroke-width:1; stroke-opacity:1; stroke-miterlimit:10; fill:url(#streetlight); fill-opacity:1"
       points="673,110,691,110,704,235,655,237" />

      <polygon
      style="stroke:none; stroke-width:1; stroke-opacity:1; stroke-miterlimit:10; fill:url(#streetlight); fill-opacity:1"
       points="562,117,589,117,611,342,540,342" />

      <polygon
      style="stroke:none; stroke-width:1; stroke-opacity:1; stroke-miterlimit:10; fill:url(#streetlight); fill-opacity:1"
       points="418,132,477,132,516,557,361,557" />

      <path id="right top"
      style="stroke:#000000; stroke-width:1; stroke-opacity:0.494118; stroke-miterlimit:30; fill:url(#bbb); fill-opacity:1"
       d="M 398 599 C 578 208 694 215 730 215 C 730 215 597.366 184.747 452 599 L 398 599 L 398 599 L 398 599 L 398 599 L 398 599 L 398 599 L 398 599 L 398 599 L 398 599 L 398 599 L 398 599 L 398 599 L 398 599 L 398 599 L 398 599 L 398 599 L 398 599 L 398 599 L 398 599 L 398 599 L 398 599 L 398 599 L 398 599 L 398 599 L 398 599 L 398 599 L 398 599 L 398 599 L 398 599 L 398 599 L 398 599 z z"
       transform="matrix(1 0 0 1 3 3)" />

      <g id="r1">
        <polygon
        style="stroke:none; stroke-width:1; stroke-opacity:1; stroke-miterlimit:10; fill:url(#metallic2); fill-opacity:1"
         points="476,118,418,118,418,133,476,133" />

        <path
        style="stroke:none; stroke-width:1; stroke-opacity:1; stroke-miterlimit:10; fill:url(#metallic2); fill-opacity:1"
         d="M 458 509 C 469.25 521 479 509 479 509 L 479 118 L 458 118 L 458 509 L 458 509 L 458 509 L 458 509 L 458 509 L 458 509 L 458 509 L 458 509 L 458 509 L 458 509 L 458 509 L 458 509 L 458 509 L 458 509 L 458 509 L 458 509 z z" />
      </g>

      <g id="r2" transform="matrix(1.11538 0 0 1 -64.7308 0)">
        <polygon
        style="stroke:none; stroke-width:1; stroke-opacity:1; stroke-miterlimit:10; fill:url(#metallic2); fill-opacity:1"
         points="539,114,565,114,565,122,539,122"
        transform="matrix(1 0 0 0.852941 22 13.7647)" />

        <path
        style="stroke:none; stroke-width:1; stroke-opacity:1; stroke-miterlimit:10; fill:url(#metallic2); fill-opacity:1"
         d="M 554 354 C 559 361.034 566 354 566 354 L 566 116 L 554 116 L 554 354 L 554 354 L 554 354 L 554 354 L 554 354 L 554 354 L 554 354 L 554 354 L 554 354 L 554 354 L 554 354 L 554 354 L 554 354 L 554 354 L 554 354 L 554 354 z z"
         transform="matrix(1 0 0 0.852941 21 12.0588)" />
      </g>

      <g id="r3">
        <polygon
        style="stroke:none; stroke-width:1; stroke-opacity:1; stroke-miterlimit:10; fill:url(#metallic2); fill-opacity:1"
         points="596,117,613,117,613,123,596,123"
        transform="matrix(1 0 0 0.730061 77 20.5828)" />

        <path
        style="stroke:none; stroke-width:1; stroke-opacity:1; stroke-miterlimit:10; fill:url(#metallic2); fill-opacity:1"
         d="M 606.5 281.37 C 609.25 286.164 613.5 277.945 613.5 277.945 L 613.5 118.37 L 606.5 118.37 L 606.5 281.37 L 606.5 281.37 L 606.5 281.37 L 606.5 281.37 L 606.5 281.37 L 606.5 281.37 L 606.5 281.37 L 606.5 281.37 L 606.5 281.37 L 606.5 281.37 L 606.5 281.37 L 606.5 281.37 L 606.5 281.37 L 606.5 281.37 L 606.5 281.37 L 606.5 281.37 z z"
         transform="matrix(1 0 0 0.730061 77 20.5828)" />
      </g>

      <g id="r4" transform="matrix(1 0 0 0.758333 34 50.8583)">
        <polygon
        style="stroke:none; stroke-width:1; stroke-opacity:1; stroke-miterlimit:10; fill:url(#metallic2); fill-opacity:1"
         points="643,116,660,116,660,121,643,121"
        transform="matrix(1 0 0 1 58 -9)" />

        <polygon
        style="stroke:none; stroke-width:1; stroke-opacity:1; stroke-miterlimit:10; fill:url(#metallic2); fill-opacity:1"
         points="662,236,655,236,655,116,662,116"
        transform="matrix(1 0 0 1 58 -9)" />
      </g>

      <g id="r5" transform="matrix(1 0 0 1 86 49)">
        <polygon
        style="stroke:none; stroke-width:1; stroke-opacity:1; stroke-miterlimit:10; fill:url(#metallic2); fill-opacity:1"
         points="698,119,710,119,710,124,698,124"
        transform="matrix(1 0 0 1 -1 -1)" />

        <polygon
        style="stroke:none; stroke-width:1; stroke-opacity:1; stroke-miterlimit:10; fill:url(#metallic2); fill-opacity:1"
         points="710,217,704,217,704,118,710,118" />
      </g>

      <path id="right outside"
      style="stroke:#000000; stroke-width:1; stroke-opacity:0.494118; stroke-miterlimit:10; fill:url(#ddd); fill-opacity:1"
       d="M 347 599 C 362 480 455.971 79.9708 518 263 C 518 263 535.706 318 518.018 277 C 500.33 236 436.407 124.541 398.623 597 L 347 599 L 347 599 L 347 599 L 347 599 L 347 599 L 347 599 L 347 599 L 347 599 L 347 599 L 347 599 L 347 599 L 347 599 L 347 599 L 347 599 L 347 599 L 347 599 L 347 599 L 347 599 L 347 599 L 347 599 L 347 599 L 347 599 L 347 599 L 347 599 L 347 599 L 347 599 L 347 599 L 347 599 L 347 599 L 347 599 L 347 599 z z"
       transform="matrix(2.03526 0 0 1 -255.302 2)" />
    </g>
  </g>
</svg>

