<?xml version="1.0" standalone="yes"?>
<svg viewBox="0 0 754 712">
<path style="fill:rgb(73,72,77)" d="M 42 0 C 32.59 17.23 54.38 7.031 43 0 L 104 0 C 100.8 7.941 117.3 -2.086 116 5 L 104 6 C 90.37 9.183 104.5 28.48 99 38 C 96.94 40.63 88.64 36.61 90 43 C 90.91 49.28 94.46 57.94 88 62 L 80 67 L 69.25 68.75 C 72.42 42.02 48.5 41.84 27 43 C 16.03 45.35 8.994 40.18 0 38 L 0 17 C 10.65 17.65 8.604 2.345 0 3 L 0 0 L 42 0 z"/>
<path style="fill:rgb(93,92,104)" d="M 43 0 C 54.38 7.031 32.59 17.23 42 0 L 43 0 z"/>
<path style="fill:rgb(137,135,146)" d="M 117 0 L 116 5 C 117.3 -2.086 100.8 7.941 104 0 L 117 0 z"/>
<path style="fill:rgb(218,206,204)" d="M 628 0 C 638.6 237.7 650.7 474.7 663 712 L 581 712 C 584.5 693.9 574.1 673.9 574 656 C 586.3 636.4 569.3 606.9 567 584 C 565.2 557.7 572 529.5 565 505 L 565 504 C 574.7 454.7 549.2 411.9 517 379 C 482.2 335.3 464.9 268.7 444 213 C 443.8 204.2 442.1 195.4 437 188 L 434 181 C 428.9 170.6 425 164.2 418 156 L 406 141 C 398.2 129.6 385.5 122.1 372 122 C 371.1 121.8 369.1 122.6 369 121 C 345.1 114.7 328.3 129.5 316 134 C 308.6 134.7 302.9 140.1 300 146 C 292.4 148.8 286.8 156.6 283 164 C 279.5 167.4 277.6 171.5 276 176 C 264.1 183.9 266.3 203.9 273 214 L 273 216 C 276.1 226.5 266.5 232.9 267 242 C 265.4 245.7 257.5 257.4 265 255 L 274 271 C 273 269.3 268.3 263.4 268 268 C 279.7 283.8 272.4 295.5 261 307 C 260.9 320.8 275.6 331.8 282.8 336.3 L 283 351 C 281.8 360.7 277.2 373.5 281 384 C 276.1 434 280.8 469.7 290 516 L 284 550 L 120 555 L 120 554 C 127.6 531.8 175.1 529.4 160.8 501.3 C 130.3 498.8 132.9 539.5 113 554 C 98.88 556.7 81.29 558.4 68 552 C 66.57 550.1 64.68 547 62 547 C 60.99 545.4 58.25 544.5 56.25 545.3 C 53.17 568.3 18.31 553.6 0 559 L 0 38 C 8.994 40.18 16.03 45.35 27 43 C 46.73 43.82 70.74 44.63 68.25 69.75 C 72.33 70.54 77.23 69.72 80 67 L 88 62 C 97.19 61.51 95.06 45.63 90 43 C 88.64 36.61 96.94 40.63 99 38 C 109.1 31.33 92.99 11.64 104 6 L 116 5 L 117 0 L 628 0 z"/>
<path style="fill:rgb(197,183,179)" d="M 630 0 L 666 712 L 663 712 C 650.7 474.7 638.6 237.7 628 0 L 630 0 z"/>
<path style="fill:rgb(232,218,215)" d="M 708 0 L 733.3 449.8 C 741.4 439.9 736.5 418.4 749.8 415.3 C 718.1 471.2 746.3 600.5 747 712 L 666 712 L 630 0 L 708 0 z"/>
<path style="fill:rgb(200,187,181)" d="M 754 0 L 754 712 L 747 712 C 746.3 600.5 718.1 471.2 749.8 415.3 C 736.5 418.4 741.4 439.9 733.3 449.8 L 708 0 L 754 0 z"/>
<path style="fill:rgb(159,151,155)" d="M 0 17 L 0 3 C 8.604 2.345 10.65 17.65 0 17 z"/>
<path style="fill:rgb(134,130,132)" d="M 104 6 C 92.99 11.64 109.1 31.33 99 38 C 104.5 28.48 90.37 9.183 104 6 z"/>
<path style="fill:rgb(133,129,132)" d="M 80 67 C 77.23 69.72 72.33 70.54 68.25 69.75 C 70.74 44.63 46.73 43.82 27 43 C 48.5 41.84 72.42 42.02 69.25 68.75 L 80 67 z"/>
<path style="fill:rgb(137,131,133)" d="M 88 62 C 94.46 57.94 90.91 49.28 90 43 C 95.06 45.63 97.19 61.51 88 62 z"/>
<path style="fill:rgb(172,157,152)" d="M 369 121 C 352.3 119.1 339.1 128.6 325 133 L 316 134 C 328.3 129.5 345.1 114.7 369 121 z"/>
<path style="fill:rgb(120,105,102)" d="M 369 121 C 369.1 122.6 371.1 121.8 372 122 C 375.3 126 381.9 126.4 386 128 C 365.6 123.5 355.1 126.8 325 133 C 339.1 128.6 352.3 119.1 369 121 z"/>
<path style="fill:rgb(173,156,150)" d="M 406 141 L 402 139 C 397.2 134.4 391.6 129.8 386 128 C 381.9 126.4 375.3 126 372 122 C 385.5 122.1 398.2 129.6 406 141 z"/>
<path style="fill:rgb(92,79,81)" d="M 386 128 C 391.6 129.8 397.2 134.4 402 139 C 408.1 153.7 413.3 159.6 430 184 L 432 190 L 435.8 204.8 L 437.3 211.3 C 437.7 230.2 427.6 178.7 427 199 L 430 206 L 433 216 C 434.8 222 437.8 229.9 436 235 L 432 224 C 430.5 218.1 430.5 211.1 424 217 C 420.3 214.1 414.1 211.1 410 214 L 403.3 216.3 C 404.8 232 387.1 223.9 375 218 C 376.2 209 373.4 204.5 366 200 L 365 198 C 363.1 196 361.5 192.4 359 192 C 352.1 186 370.2 195.8 366.8 186.3 C 359.6 177.2 342.8 184.7 341 178 L 326 179 C 297.1 146.2 259.8 211.9 288 227 C 276.7 228.7 280.5 242.9 290 238 L 293 238 L 297 242 L 297 243 C 285.3 244.6 288.4 256.6 287 269 C 278.9 266 287 245 274 253 C 261.3 253.4 280.2 249.5 284.8 246.8 C 282 232.9 263.3 243.2 265 255 C 257.5 257.4 265.4 245.7 267 242 C 267.7 242 269.2 242.2 269 241 C 276.7 239.7 279.3 227.4 275 222 C 275.2 219.8 274.9 217.1 273 216 L 273 214 C 271.4 201.6 270.8 187.2 276 176 C 277.6 171.5 279.5 167.4 283 164 L 300 146 L 316 134 L 325 133 C 355.1 126.8 365.6 123.5 386 128 z"/>
<path style="fill:rgb(163,148,145)" d="M 316 134 L 300 146 C 302.9 140.1 308.6 134.7 316 134 z"/>
<path style="fill:rgb(140,118,109)" d="M 406 141 L 418 156 C 420.8 165.3 427.1 172.6 432 181 C 433.8 183.4 433 185.7 430 184 C 413.3 159.6 408.1 153.7 402 139 L 406 141 z"/>
<path style="fill:rgb(156,141,138)" d="M 300 146 L 283 164 C 286.8 156.6 292.4 148.8 300 146 z"/>
<path style="fill:rgb(189,170,161)" d="M 434 181 L 432 181 C 427.1 172.6 420.8 165.3 418 156 C 425 164.2 428.9 170.6 434 181 z"/>
<path style="fill:rgb(136,110,103)" d="M 361 162 C 372.6 157.5 405.4 193.1 402.8 175.8 C 399.1 175.8 392.4 160.3 403 173 C 411.2 184.5 428.3 194.7 419.8 206.8 C 384.7 157.1 356.7 201.6 361 162 z"/>
<path style="fill:rgb(158,123,113)" d="M 326 179 L 326 180 L 321 180 L 312 174 C 283.9 168.9 266.3 228.5 301 231 L 302 240 C 300.3 240.8 299.2 242.8 297 242 L 293 238 C 313 236.1 275.1 223.8 284.3 235.8 C 286.3 236.7 286.9 239 290 238 C 280.5 242.9 276.7 228.7 288 227 C 259.8 211.9 297.1 146.2 326 179 z"/>
<path style="fill:rgb(219,176,162)" d="M 312 174 C 297.7 178.3 304.4 191.7 285 196 C 296.7 205.4 286.1 223.8 301 231 C 266.3 228.5 283.9 168.9 312 174 z"/>
<path style="fill:rgb(244,204,194)" d="M 312 174 L 321 180 L 375 213 L 369 219 C 359.5 223.1 344.4 220.6 339 228 C 338.7 226.7 337.3 225.7 336 226 C 333.7 221 327.6 222 323 222 C 318.6 221.1 327.6 217.7 329.8 217.8 C 343.8 203.3 302.1 220.6 312.8 223.8 C 312.7 222.1 316.3 219.9 316.3 222.8 C 317.4 220.8 318.3 221.2 318 224 C 313 225.3 307.3 229.4 307 235 C 300.9 236.3 307.1 246.8 312 248 C 311.4 253.7 317.8 257.6 323 260 C 341.9 270.3 350.1 244.5 342.3 231.3 C 353.3 227.2 379.9 209.9 385 231 C 394.5 252.5 376.7 261.5 381.8 277.8 C 367.4 266.8 374.1 290.8 366 296 L 364 296 C 355 311.5 348.1 279.7 325.3 286.8 C 322.3 285.7 320.3 284.1 319 281 C 328.5 275 330.6 261.8 317.3 262.3 C 330.9 275.1 286.6 278.5 304.8 260.3 C 296.6 258.2 304.6 248.8 300 247 C 303.7 245.9 302.3 243.6 302 240 L 301 231 C 286.1 223.8 296.7 205.4 285 196 C 304.4 191.7 297.7 178.3 312 174 z"/>
<path style="fill:rgb(162,146,141)" d="M 276 176 C 270.8 187.2 271.4 201.6 273 214 C 266.3 203.9 264.1 183.9 276 176 z"/>
<path style="fill:rgb(136,106,97)" d="M 365 198 C 351.9 193.6 344.7 179.3 326 180 L 326 179 L 341 178 C 342.8 184.7 359.6 177.2 366.8 186.3 C 370.2 195.8 352.1 186 359 192 C 361.5 192.4 363.1 196 365 198 z"/>
<path style="fill:rgb(215,173,158)" d="M 326 180 C 339.5 187.4 351.7 193.9 366 200 C 373.4 204.5 376.2 209 375 218 L 369 219 L 375 213 L 321 180 L 326 180 z"/>
<path style="fill:rgb(175,132,117)" d="M 365 198 L 366 200 C 351.7 193.9 339.5 187.4 326 180 C 344.7 179.3 351.9 193.6 365 198 z"/>
<path style="fill:rgb(166,141,130)" d="M 434 181 L 437 188 L 442 210 L 432 190 L 430 184 C 433 185.7 433.8 183.4 432 181 L 434 181 z"/>
<path style="fill:rgb(200,180,171)" d="M 444 213 L 442 210 L 437 188 C 442.1 195.4 443.8 204.2 444 213 z"/>
<path style="fill:rgb(136,108,97)" d="M 442 210 L 444 213 L 452 258 C 451.3 268.5 456 278.2 461 286 L 464 292 C 472.9 315 479.1 335.1 490 357 C 484.6 353.3 479.5 350.4 480 347 C 468.4 331.2 445.3 235.3 431 254 L 424 250 L 425 246 C 430.4 234.4 429.8 228.8 436.8 241.8 L 436 235 C 437.8 229.9 434.8 222 433 216 L 430 206 L 427 199 C 427.6 178.7 437.7 230.2 437.3 211.3 L 435.8 204.8 L 432 190 L 442 210 z"/>
<path style="fill:rgb(190,145,134)" d="M 323 222 L 318 224 C 318.3 221.2 317.4 220.8 316.3 222.8 C 316.3 219.9 312.7 222.1 312.8 223.8 C 302.1 220.6 343.8 203.3 329.8 217.8 C 327.6 217.7 318.6 221.1 323 222 z"/>
<path style="fill:rgb(225,175,166)" d="M 424 217 L 425 219 C 428.4 228.8 427.6 232.2 420 223 C 418.4 218.5 408.5 218.8 410 214 C 414.1 211.1 420.3 214.1 424 217 z"/>
<path style="fill:rgb(193,175,164)" d="M 517 379 L 513 376 C 486.1 350 482.2 318.6 464 292 L 461 286 L 452 258 L 444 213 C 464.9 268.7 482.2 335.3 517 379 z"/>
<path style="fill:rgb(155,116,106)" d="M 410 214 C 408.5 218.8 418.4 218.5 420 223 L 418 225 C 414.3 222.3 407.3 220.2 405 224 C 400.3 230.5 393.3 238.9 403 243 L 403 244 C 398.4 246.1 386.3 241.3 387 232 C 402.5 254.8 395 217.7 387 232 L 385 231 C 379.9 209.9 353.3 227.2 342.3 231.3 C 350.1 244.5 341.9 270.3 323 260 L 323 259 C 330.3 263.3 341 259.7 343 251 C 345.5 245.6 342.3 237.7 338 235 L 339 228 C 344.4 220.6 359.5 223.1 369 219 L 375 218 C 387.1 223.9 404.8 232 403.3 216.3 L 410 214 z"/>
<path style="fill:rgb(141,110,99)" d="M 432 224 C 428 230.9 428.3 220.7 425 219 L 424 217 C 430.5 211.1 430.5 218.1 432 224 z"/>
<path style="fill:rgb(170,157,153)" d="M 275 222 L 269 241 C 269.2 242.2 267.7 242 267 242 C 266.5 232.9 276.1 226.5 273 216 C 274.9 217.1 275.2 219.8 275 222 z"/>
<path style="fill:rgb(181,138,124)" d="M 432 224 L 436 235 L 436.8 241.8 C 429.8 228.8 430.4 234.4 425 246 C 427.6 238.5 422.7 231.6 418 226 L 418 225 L 420 223 C 427.6 232.2 428.4 228.8 425 219 C 428.3 220.7 428 230.9 432 224 z"/>
<path style="fill:rgb(226,174,161)" d="M 418 225 L 418 226 C 414 225 410.4 226.9 410 231 L 408.3 229.3 C 405.3 239.8 401.8 229.6 405 224 C 407.3 220.2 414.3 222.3 418 225 z"/>
<path style="fill:rgb(142,130,126)" d="M 269 241 L 275 222 C 279.3 227.4 276.7 239.7 269 241 z"/>
<path style="fill:rgb(160,113,100)" d="M 336 226 L 329 230 C 325.1 236 318.6 233.2 322.8 226.3 C 319 225.8 314.8 228 312 230 L 307 235 C 307.3 229.4 313 225.3 318 224 L 323 222 C 327.6 222 333.7 221 336 226 z"/>
<path style="fill:rgb(200,149,134)" d="M 405 224 C 401.8 229.6 405.3 239.8 408.3 229.3 L 410 231 L 407.8 240.8 C 407.2 234.8 403 238.4 403 243 C 393.3 238.9 400.3 230.5 405 224 z"/>
<path style="fill:rgb(192,136,115)" d="M 329 230 C 328.6 233.4 331.1 237.2 335 236 C 340.6 246.9 317.2 250.5 325.8 235.3 L 320 236 C 315.3 234 318.6 226.6 312 230 C 314.8 228 319 225.8 322.8 226.3 C 318.6 233.2 325.1 236 329 230 z"/>
<path style="fill:rgb(110,86,82)" d="M 339 228 L 338 235 L 335 236 C 331.1 237.2 328.6 233.4 329 230 L 336 226 C 337.3 225.7 338.7 226.7 339 228 z"/>
<path style="fill:rgb(240,196,186)" d="M 418 226 C 422.7 231.6 427.6 238.5 425 246 L 424 250 L 418 256 L 410 261 C 406.4 258.9 413.2 257.5 410 255 C 407.9 260 398.2 257.8 402.3 248.3 C 408.3 257.8 412.7 237.8 403 244 L 403 243 C 403 238.4 407.2 234.8 407.8 240.8 L 410 231 C 410.4 226.9 414 225 418 226 z"/>
<path style="fill:rgb(115,88,83)" d="M 387 232 C 395 217.7 402.5 254.8 387 232 z"/>
<path style="fill:rgb(228,181,160)" d="M 320 236 C 317.9 243.3 329.4 261.6 343 251 C 341 259.7 330.3 263.3 323 259 C 308.7 256 326.3 240.1 312 248 C 307.1 246.8 300.9 236.3 307 235 L 312 230 C 318.6 226.6 315.3 234 320 236 z"/>
<path style="fill:rgb(207,168,158)" d="M 293 238 L 290 238 C 286.9 239 286.3 236.7 284.3 235.8 C 275.1 223.8 313 236.1 293 238 z"/>
<path style="fill:rgb(192,147,133)" d="M 387 232 C 386.3 241.3 398.4 246.1 403 244 C 412.7 237.8 408.3 257.8 402.3 248.3 C 398.2 257.8 407.9 260 410 255 C 413.2 257.5 406.4 258.9 410 261 C 407.1 260.9 403 256.7 402.8 264.8 C 400.2 263.6 395.5 252.5 399.8 251.3 C 379.3 239.1 403.9 294.4 379.3 285.3 C 382.6 293.7 382.9 296.3 372.3 290.8 C 374.5 293.2 372.5 302.8 366 296 C 374.1 290.8 367.4 266.8 381.8 277.8 C 376.7 261.5 394.5 252.5 385 231 L 387 232 z"/>
<path style="fill:rgb(215,161,140)" d="M 335 236 L 338 235 C 342.3 237.7 345.5 245.6 343 251 C 329.4 261.6 317.9 243.3 320 236 L 325.8 235.3 C 317.2 250.5 340.6 246.9 335 236 z"/>
<path style="fill:rgb(181,164,148)" d="M 274 253 C 271.1 260.9 282.2 277.4 287 270 C 290.9 274.2 284.9 276.2 281 275 L 279 274 L 274 271 L 265 255 C 263.3 243.2 282 232.9 284.8 246.8 C 280.2 249.5 261.3 253.4 274 253 z"/>
<path style="fill:rgb(204,154,144)" d="M 302 240 C 302.3 243.6 303.7 245.9 300 247 C 298.5 256.7 297.1 268 299.3 277.8 C 305.3 277.6 314.4 268 320.8 276.8 L 313.8 274.3 C 310.9 273.5 309.3 279.7 312 281 C 309 288.7 307.6 280.3 306 278 C 285.5 281.7 302.5 254.1 297 243 L 297 242 C 299.2 242.8 300.3 240.8 302 240 z"/>
<path style="fill:rgb(155,115,104)" d="M 297 243 C 302.5 254.1 285.5 281.7 306 278 C 307.6 280.3 309 288.7 312 281 L 317 281 C 329.5 313.8 326.1 267.3 355.3 303.8 C 362.3 301.2 367.9 307 364 296 L 366 296 C 372.5 302.8 374.5 293.2 372.3 290.8 C 382.9 296.3 382.6 293.7 379.3 285.3 C 403.9 294.4 379.3 239.1 399.8 251.3 C 395.5 252.5 400.2 263.6 402.8 264.8 C 403 256.7 407.1 260.9 410 261 L 418 256 C 399.6 289.4 369.4 294.5 369.8 324.8 C 360.6 314.8 360.3 324.6 351 324 C 352.5 311.3 360.2 311.8 348 306 C 343.1 307.3 339.6 302.9 338 299 C 331.4 296.2 324.7 301.9 321.8 308.8 L 317 306 C 310.1 312.9 326.9 310.8 330 317 C 331.4 316.5 332.5 317.6 332 319 C 323.5 319.9 329.9 337.8 334 328 C 333.5 334.6 337.9 325.4 339 330 C 331.6 343.2 307.4 322.1 326.8 316.3 C 324.4 314.6 321.4 316.6 321 317 C 285.4 318.4 339.3 289.3 307.3 294.8 C 306 291.1 308 278.4 303 286 C 293 268.8 286.4 283.8 300 294 C 300.9 316 293.7 273.6 281 275 C 284.9 276.2 290.9 274.2 287 270 L 287 269 C 288.4 256.6 285.3 244.6 297 243 z"/>
<path style="fill:rgb(195,153,129)" d="M 323 259 L 323 260 C 317.8 257.6 311.4 253.7 312 248 C 326.3 240.1 308.7 256 323 259 z"/>
<path style="fill:rgb(232,177,167)" d="M 319 281 L 317 281 L 312 281 C 309.3 279.7 310.9 273.5 313.8 274.3 L 320.8 276.8 C 314.4 268 305.3 277.6 299.3 277.8 C 297.1 268 298.5 256.7 300 247 C 304.6 248.8 296.6 258.2 304.8 260.3 C 286.6 278.5 330.9 275.1 317.3 262.3 C 330.6 261.8 328.5 275 319 281 z"/>
<path style="fill:rgb(94,81,79)" d="M 480 347 C 464.1 388.5 415.3 419.5 408 444 C 395.6 439.7 363.5 421.6 375.3 417.8 C 378.2 421.1 380 413.2 383.8 420.8 C 379.7 401.5 361.1 413.3 373 375 L 373 374 C 373.7 374 375.2 374.2 375 373 L 376 373 L 379 379 C 399.8 365 430.2 335 412 330 L 412 317 C 420.2 301.3 390.9 288.2 405 301 C 391.6 309.8 387.4 321.7 386 338 C 385.9 331.4 382 336.1 383 340 L 379.3 340.8 C 380.4 326.9 371.7 343.8 377 351 C 376.9 361.3 370.2 359.7 371.3 351.3 C 374.3 365.8 353.1 360.1 357 375 C 352.6 388.3 333.5 408.2 343.8 419.8 C 336.1 428 329.2 439.3 334 448 L 331 455 C 331.7 458.3 329.3 458.3 330 455 C 321.6 450.2 327.8 471.5 320 472 C 316.5 462.6 318.7 455.3 324 447 C 323.8 439.8 317.9 413.6 316.3 424.3 C 309.9 419.4 310.9 423.1 312 437 L 312 449 L 312 451 C 307.2 435.3 313.8 466 308 462 L 308 456 C 308.8 450.9 307.6 430.5 305 444 C 290 453.4 307.4 452.3 299 475 C 297.6 474.5 296.5 475.6 297 477 C 291.1 488.1 310.1 494.7 292 497 L 291 504 C 285.4 487.2 289.1 466.7 295 450 C 294.2 380.5 313.7 419.6 330.8 379.3 C 316.3 378.8 310.2 367 304 354 C 299.6 345.1 289.7 322.6 291.8 346.8 L 287.8 323.3 C 253.3 337.1 280.4 286.8 279 274 L 281 275 C 293.7 273.6 300.9 316 300 294 L 303 286 C 308 278.4 306 291.1 307.3 294.8 C 339.3 289.3 285.4 318.4 321 317 C 321.4 316.6 324.4 314.6 326.8 316.3 C 307.4 322.1 331.6 343.2 339 330 C 339 329.3 338.8 327.8 340 328 C 345.4 332.6 352.7 334.8 351 324 C 360.3 324.6 360.6 314.8 369.8 324.8 C 369.4 294.5 399.6 289.4 418 256 L 424 250 L 431 254 C 445.3 235.3 468.4 331.2 480 347 z"/>
<path style="fill:rgb(178,173,175)" d="M 33 248 C 37.59 246.4 34.53 252.4 38 253 C 59.04 246.7 33.74 269.6 33 248 z"/>
<path style="fill:rgb(178,173,175)" d="M 24 250 C 45.66 250.9 14.76 265.6 29.75 256.3 C 25.71 257.2 20.96 254.2 24 250 z"/>
<path style="fill:rgb(201,185,174)" d="M 287 269 L 287 270 C 282.2 277.4 271.1 260.9 274 253 C 287 245 278.9 266 287 269 z"/>
<path style="fill:rgb(160,137,125)" d="M 461 286 C 456 278.2 451.3 268.5 452 258 L 461 286 z"/>
<path style="fill:rgb(178,173,174)" d="M 34 262 C 55.85 275.7 17.84 273.3 33.75 291.8 C 31.38 293.7 28.15 294.2 25 294 C 28.27 282.8 17.22 265 34 262 z"/>
<path style="fill:rgb(173,159,154)" d="M 274 271 C 272 277.6 280.1 285 278 293 C 239.9 310.4 297.4 333.4 283 351 L 282.8 336.3 C 275.6 331.8 260.9 320.8 261 307 C 272.4 295.5 279.7 283.8 268 268 C 268.3 263.4 273 269.3 274 271 z"/>
<path style="fill:rgb(179,174,174)" d="M 56 271 C 58.88 277.1 68.18 282.7 61 290 C 63.57 280.5 53.98 283.7 56 271 z"/>
<path style="fill:rgb(150,124,114)" d="M 274 271 L 279 274 C 280.4 286.8 253.3 337.1 287.8 323.3 L 291.8 346.8 C 289.7 322.6 299.6 345.1 304 354 C 303.1 360.1 301.8 358.4 298.8 359.8 C 290.8 346.3 312.8 402.4 306.8 372.3 C 305.3 370.6 304.3 364.9 307.3 365.8 C 318.7 405.6 290.5 409.1 287.3 383.3 C 279 409.8 290.5 430.3 295 450 C 289.1 466.7 285.4 487.2 291 504 L 292 497 L 293 502 L 301 513 C 296.8 510.8 292.5 504.3 291 512 L 281 384 C 284.4 371.9 289.2 355.1 283 351 C 297.4 333.4 239.9 310.4 278 293 C 280.1 285 272 277.6 274 271 z"/>
<path style="fill:rgb(194,156,148)" d="M 303 286 L 300 294 C 286.4 283.8 293 268.8 303 286 z"/>
<path style="fill:rgb(197,153,138)" d="M 319 281 C 320.3 284.1 322.3 285.7 325.3 286.8 C 348.1 279.7 355 311.5 364 296 C 367.9 307 362.3 301.2 355.3 303.8 C 326.1 267.3 329.5 313.8 317 281 L 319 281 z"/>
<path style="fill:rgb(161,143,131)" d="M 513 376 L 490 357 C 479.1 335.1 472.9 315 464 292 C 482.2 318.6 486.1 350 513 376 z"/>
<path style="fill:rgb(147,113,103)" d="M 412 317 C 407.8 318.6 405.5 321.7 403 326 L 399.3 328.8 C 385.4 311 397.8 344.2 384 345 L 386 338 C 387.4 321.7 391.6 309.8 405 301 C 390.9 288.2 420.2 301.3 412 317 z"/>
<path style="fill:rgb(205,146,136)" d="M 338 299 C 332.8 298.7 317.6 312.3 330.8 311.3 L 330 317 C 326.9 310.8 310.1 312.9 317 306 L 321.8 308.8 C 324.7 301.9 331.4 296.2 338 299 z"/>
<path style="fill:rgb(237,196,182)" d="M 338 299 C 339.6 302.9 343.1 307.3 348 306 C 349.7 310.3 349.5 327.9 340 328 C 338.8 327.8 339 329.3 339 330 C 337.9 325.4 333.5 334.6 334 328 C 333.5 324.9 335.1 319.2 332 319 C 332.5 317.6 331.4 316.5 330 317 L 330.8 311.3 C 317.6 312.3 332.8 298.7 338 299 z"/>
<path style="fill:rgb(154,119,101)" d="M 452 356 C 451.3 348.7 450.2 340.6 448.3 334.3 C 447.3 343.3 437.5 361.7 450 368 C 449.1 373.6 445.9 380.1 440 382 L 439 370 C 433.5 376.9 425.9 389.2 415 400 C 409.4 381.3 401 397.8 395.3 411.8 C 391.3 398.8 401.8 380.3 416 373 C 410.9 377.9 406.3 383.1 406.3 389.8 C 410.7 384.9 419.5 376.8 417 373 C 425.5 357.2 419.1 337.1 425.3 329.8 C 425.3 314.3 435.8 337.1 433.3 344.8 C 433.5 329.2 436.8 309.9 441.3 317.8 C 447.2 320.9 442.2 296.3 446.8 311.3 C 446.8 312.7 447.3 315 448.8 312.8 C 459.8 304.5 449.8 345.5 452 356 z"/>
<path style="fill:rgb(183,144,132)" d="M 351 324 C 352.7 334.8 345.4 332.6 340 328 C 349.5 327.9 349.7 310.3 348 306 C 360.2 311.8 352.5 311.3 351 324 z"/>
<path style="fill:rgb(220,185,171)" d="M 412 317 L 412 330 L 407 344 L 405 345 C 405.5 338.2 412.5 315.5 401 330 L 403 326 C 405.5 321.7 407.8 318.6 412 317 z"/>
<path style="fill:rgb(204,156,142)" d="M 332 319 C 335.1 319.2 333.5 324.9 334 328 C 329.9 337.8 323.5 319.9 332 319 z"/>
<path style="fill:rgb(204,165,152)" d="M 403 326 L 401 330 C 394.9 334.3 393 347.9 382 355 L 384 345 C 397.8 344.2 385.4 311 399.3 328.8 L 403 326 z"/>
<path style="fill:rgb(237,207,196)" d="M 405 345 C 401.1 351.6 395.4 357.3 390 363 L 376 373 L 375 373 C 367.3 370.1 378.1 363.5 380 359 C 379.7 357.4 380.1 355.3 382 355 C 393 347.9 394.9 334.3 401 330 C 412.5 315.5 405.5 338.2 405 345 z"/>
<path style="fill:rgb(151,118,105)" d="M 412 330 C 430.2 335 399.8 365 379 379 L 376 373 L 390 363 C 398.2 360.2 405.2 352.4 407 344 L 412 330 z"/>
<path style="fill:rgb(141,110,101)" d="M 383 340 C 382.5 352.1 379.5 340 377 351 C 371.7 343.8 380.4 326.9 379.3 340.8 L 383 340 z"/>
<path style="fill:rgb(163,133,122)" d="M 386 338 L 384 345 L 382 355 C 380.1 355.3 379.7 357.4 380 359 C 374.2 357 367.3 364.4 368.8 370.8 C 358.8 360.6 360.8 379 373 374 L 373 375 L 357 375 C 353.1 360.1 374.3 365.8 371.3 351.3 C 370.2 359.7 376.9 361.3 377 351 C 379.5 340 382.5 352.1 383 340 C 382 336.1 385.9 331.4 386 338 z"/>
<path style="fill:rgb(181,146,125)" d="M 452 356 C 452.1 360.2 451.4 364.2 450 368 C 437.5 361.7 447.3 343.3 448.3 334.3 C 450.2 340.6 451.3 348.7 452 356 z"/>
<path style="fill:rgb(197,158,142)" d="M 407 344 C 405.2 352.4 398.2 360.2 390 363 C 395.4 357.3 401.1 351.6 405 345 L 407 344 z"/>
<path style="fill:rgb(97,110,116)" d="M 480 347 C 479.5 350.4 484.6 353.3 490 357 L 513 376 L 517 379 C 549.2 411.9 574.7 454.7 565 504 C 563.7 527.5 563.7 553.5 565 577 L 567 584 C 569.3 606.9 586.3 636.4 574 656 C 572.3 657.1 569.8 658.7 570 661 C 567.7 676.3 579 695.7 575 712 L 573 712 C 574.8 697.4 569.3 682.6 566.8 668.3 L 561 672 L 559 653 C 564.6 661.3 560.1 635.6 575.8 643.8 C 568.1 639.1 555.7 637.9 547 640 L 544 640 C 531.9 642.5 527.8 629 517 628 C 507.4 623.6 496.6 618.8 486 616 C 469.1 605 463.9 624.4 469 638 C 466.4 668 468.2 700.2 504 703 L 473.3 693.3 C 467.5 707.3 488.6 705.9 496 712 L 458 712 C 456.8 672.6 455.7 632.5 453 594 C 451.5 584.3 452.1 574.1 452 564 L 450 553 C 357.9 561.1 203.9 564.2 107.3 576.3 C 119.6 588 125.7 579 130 593 C 115.7 594.8 131.6 602.7 119 606 L 0 609 L 0 566 L 174.8 558.8 C 162 551.3 126.2 564.3 120 554 L 120 555 C 173.5 555.5 230.9 554.1 284 550 L 290 516 L 291 512 C 292.5 504.3 296.8 510.8 301 513 L 309 523 C 290.6 491.5 280.3 563.7 297 546 C 299.3 548.1 301.3 550.3 305 550 C 327.3 546.7 393.5 563.1 373 524 C 375.3 521.4 380.4 515.7 378 512 C 374.5 522.5 370.3 520 366 514 L 359 501 C 358.6 486.6 343.3 469.3 340 492 L 330 483 L 320 472 C 327.8 471.5 321.6 450.2 330 455 C 329.3 458.3 331.7 458.3 331 455 C 337.2 450.3 346.8 445.1 348.3 456.8 L 351 454 C 355.7 472.5 370 487.3 369.3 512.8 C 380 489.3 360.1 468.8 350 449 C 374.6 467.5 352.6 465.7 386.8 485.8 C 393.8 465.5 373.2 459.8 377 457 C 384.6 449.4 361.6 450.5 357 444 C 343 440.7 354.8 438.8 344 431 C 328 439.2 344.7 440.3 347 446 L 345 445 C 341.5 442.3 336.3 444.3 334 448 C 329.2 439.3 336.1 428 343.8 419.8 C 333.5 408.2 352.6 388.3 357 375 L 373 375 C 361.1 413.3 379.7 401.5 383.8 420.8 C 380 413.2 378.2 421.1 375.3 417.8 C 363.5 421.6 395.6 439.7 408 444 C 415.3 419.5 464.1 388.5 480 347 z"/>
<path style="fill:rgb(186,150,128)" d="M 426 346 C 434.1 350.8 421 376.5 431 367 C 420 389.6 427.5 355.3 426 346 z"/>
<path style="fill:rgb(175,155,145)" d="M 283 351 C 289.2 355.1 284.4 371.9 281 384 C 277.2 373.5 281.8 360.7 283 351 z"/>
<path style="fill:rgb(127,101,91)" d="M 304 354 C 310.2 367 316.3 378.8 330.8 379.3 C 313.7 419.6 294.2 380.5 295 450 C 290.5 430.3 279 409.8 287.3 383.3 C 290.5 409.1 318.7 405.6 307.3 365.8 C 304.3 364.9 305.3 370.6 306.8 372.3 C 312.8 402.4 290.8 346.3 298.8 359.8 C 301.8 358.4 303.1 360.1 304 354 z"/>
<path style="fill:rgb(194,161,149)" d="M 380 359 C 378.1 363.5 367.3 370.1 375 373 C 375.2 374.2 373.7 374 373 374 C 360.8 379 358.8 360.6 368.8 370.8 C 367.3 364.4 374.2 357 380 359 z"/>
<path style="fill:rgb(179,149,135)" d="M 417 373 C 419.5 376.8 410.7 384.9 406.3 389.8 C 406.3 383.1 410.9 377.9 416 373 L 417 373 z"/>
<path style="fill:rgb(174,159,155)" d="M 281 384 L 291 512 L 290 516 C 280.8 469.7 276.1 434 281 384 z"/>
<path style="fill:rgb(121,94,84)" d="M 324 447 C 319.2 444.5 316.3 419.6 317 434 C 317.2 436.9 315.9 435.2 315.3 433.8 C 314.6 426.1 313.5 435.2 312 437 C 310.9 423.1 309.9 419.4 316.3 424.3 C 317.9 413.6 323.8 439.8 324 447 z"/>
<path style="fill:rgb(144,116,103)" d="M 324 447 C 318.7 455.3 316.5 462.6 320 472 C 316.8 470.8 315.1 468.3 313 466 C 302.3 456.7 308.9 479.3 299 475 C 307.4 452.3 290 453.4 305 444 C 304.7 449.1 304.2 471.3 308 456 L 308 462 C 313.8 466 307.2 435.3 312 451 L 312 458 C 317.1 467 317.8 430.8 313.3 439.3 C 314.7 442.4 315 448.3 312 449 L 312 437 C 313.5 435.2 314.6 426.1 315.3 433.8 C 315.9 435.2 317.2 436.9 317 434 C 316.3 419.6 319.2 444.5 324 447 z"/>
<path style="fill:rgb(128,151,132)" d="M 357 444 C 359.2 449.9 370.5 456.5 377 457 C 373.2 459.8 393.8 465.5 386.8 485.8 C 352.6 465.7 374.6 467.5 350 449 L 347 446 C 344.7 440.3 328 439.2 344 431 C 354.8 438.8 343 440.7 357 444 z"/>
<path style="fill:rgb(179,147,128)" d="M 312 451 L 312 449 C 315 448.3 314.7 442.4 313.3 439.3 C 317.8 430.8 317.1 467 312 458 L 312 451 z"/>
<path style="fill:rgb(171,139,120)" d="M 308 456 C 304.2 471.3 304.7 449.1 305 444 C 307.6 430.5 308.8 450.9 308 456 z"/>
<path style="fill:rgb(128,146,130)" d="M 345 445 C 340.4 446.7 350.5 450 351 454 L 348.3 456.8 C 346.8 445.1 337.2 450.3 331 455 L 334 448 C 336.3 444.3 341.5 442.3 345 445 z"/>
<path style="fill:rgb(184,197,176)" d="M 357 444 C 361.6 450.5 384.6 449.4 377 457 C 370.5 456.5 359.2 449.9 357 444 z"/>
<path style="fill:rgb(161,176,157)" d="M 345 445 L 347 446 L 350 449 C 360.1 468.8 380 489.3 369.3 512.8 C 370 487.3 355.7 472.5 351 454 C 350.5 450 340.4 446.7 345 445 z"/>
<path style="fill:rgb(206,161,149)" d="M 313 466 C 301.4 464.3 306.7 480.3 311.8 483.8 C 306.3 483.2 304.2 472.3 297 477 C 296.5 475.6 297.6 474.5 299 475 C 308.9 479.3 302.3 456.7 313 466 z"/>
<path style="fill:rgb(233,196,184)" d="M 313 466 C 315.1 468.3 316.8 470.8 320 472 L 330 483 L 345.8 501.8 C 334.9 480.2 356.3 480.2 359 501 L 366 514 C 366.8 518 368.6 522.5 372 525 C 380.8 538.9 369.6 534.9 363 526 L 368.8 526.8 L 351.3 501.3 L 359 520 L 365.8 546.8 C 358.2 541.6 353.1 551 341 548 C 343.6 540.4 322.1 509.6 302.3 506.3 C 311.1 520.8 325.3 542.2 341 548 C 329.4 547.4 314.3 553.4 304 546 C 289.9 517.8 329.4 553.8 321.3 540.8 L 317.3 533.8 L 309 523 L 301 513 L 293 502 C 292.8 487.5 304.4 502 309.8 503.8 C 308.1 494.7 295.6 488.5 297 477 C 304.2 472.3 306.3 483.2 311.8 483.8 C 306.7 480.3 301.4 464.3 313 466 z"/>
<path style="fill:rgb(177,142,133)" d="M 297 477 C 295.6 488.5 308.1 494.7 309.8 503.8 C 304.4 502 292.8 487.5 293 502 L 292 497 C 310.1 494.7 291.1 488.1 297 477 z"/>
<path style="fill:rgb(77,93,99)" d="M 446 479 C 448.8 495.5 453.3 516.7 448.3 532.8 L 446 479 z"/>
<path style="fill:rgb(185,156,143)" d="M 359 501 C 356.3 480.2 334.9 480.2 345.8 501.8 L 330 483 L 340 492 C 343.3 469.3 358.6 486.6 359 501 z"/>
<path style="fill:rgb(252,225,215)" d="M 318 481 C 335.6 485.4 347.6 506.4 348.8 521.8 C 341 507.7 321.3 496.5 318 481 z"/>
<path style="fill:rgb(137,160,138)" d="M 384 489 C 387.4 494.6 376.9 497 380 502 C 374.7 501 380.9 482.2 384 489 z"/>
<path style="fill:rgb(252,227,219)" d="M 304 486 C 327.7 494.5 343.7 519.2 349.8 541.8 C 336.5 524.5 310.4 507.8 304 486 z"/>
<path style="fill:rgb(173,192,172)" d="M 380 502 C 376.9 497 387.4 494.6 384 489 C 389.3 491.7 383.8 511.6 380 502 z"/>
<path style="fill:rgb(76,93,98)" d="M 430 499 C 438.6 512.1 445.2 528.2 447.8 545.8 C 433.7 538.1 437.8 513.1 430 499 z"/>
<path style="fill:rgb(90,85,90)" d="M 120 554 C 126.2 564.3 162 551.3 174.8 558.8 L 0 566 L 0 560 L 113 554 C 132.9 539.5 130.3 498.8 160.8 501.3 C 175.1 529.4 127.6 531.8 120 554 z"/>
<path style="fill:rgb(252,216,206)" d="M 363 526 L 359 520 L 351.3 501.3 L 368.8 526.8 L 363 526 z"/>
<path style="fill:rgb(152,152,148)" d="M 565 504 L 565 505 C 567.4 529 565.3 552.6 565 577 C 563.7 553.5 563.7 527.5 565 504 z"/>
<path style="fill:rgb(190,182,177)" d="M 567 584 L 565 577 C 565.3 552.6 567.4 529 565 505 C 572 529.5 565.2 557.7 567 584 z"/>
<path style="fill:rgb(251,224,216)" d="M 341 548 C 325.3 542.2 311.1 520.8 302.3 506.3 C 322.1 509.6 343.6 540.4 341 548 z"/>
<path style="fill:rgb(171,179,156)" d="M 373 524 L 372 525 C 368.6 522.5 366.8 518 366 514 C 370.3 520 374.5 522.5 378 512 C 380.4 515.7 375.3 521.4 373 524 z"/>
<path style="fill:rgb(90,81,94)" d="M 309 523 L 317.3 533.8 L 321.3 540.8 C 329.4 553.8 289.9 517.8 304 546 L 305 550 C 301.3 550.3 299.3 548.1 297 546 C 280.3 563.7 290.6 491.5 309 523 z"/>
<path style="fill:rgb(183,151,138)" d="M 359 520 L 363 526 C 369.6 534.9 380.8 538.9 372 525 L 373 524 C 393.5 563.1 327.3 546.7 305 550 L 304 546 C 314.3 553.4 329.4 547.4 341 548 C 353.1 551 358.2 541.6 365.8 546.8 L 359 520 z"/>
<path style="fill:rgb(165,142,141)" d="M 62 547 C 53.64 543.7 55.11 559.8 64 557 C 71.53 557.9 73.22 555.9 66 553 C 65.85 551.8 67.34 552 68 552 C 81.29 558.4 98.88 556.7 113 554 L 0 560 L 0 559 C 18.31 553.6 53.17 568.3 56.25 545.3 C 58.25 544.5 60.99 545.4 62 547 z"/>
<path style="fill:rgb(211,158,149)" d="M 62 547 C 64.68 547 66.57 550.1 68 552 C 67.34 552 65.85 551.8 66 553 C 58.53 545 55.86 553.9 64 557 C 55.11 559.8 53.64 543.7 62 547 z"/>
<path style="fill:rgb(227,178,168)" d="M 66 553 C 73.22 555.9 71.53 557.9 64 557 C 55.86 553.9 58.53 545 66 553 z"/>
<path style="fill:rgb(155,146,146)" d="M 284 550 C 230.9 554.1 173.5 555.5 120 555 L 284 550 z"/>
<path style="fill:rgb(142,136,142)" d="M 452 564 C 439.6 582.4 451.9 639.5 453.8 668.8 L 453 645 L 453 594 C 455.7 632.5 456.8 672.6 458 712 L 448 712 C 342 701.3 216.8 709.5 109 712 L 48 712 C 166.2 689.5 322.5 700.2 447 686 L 447 678 L 446 665 L 444 637 C 445.5 620.4 424.1 629.1 414 627 L 444 626 C 443.2 609.9 447.8 586.8 437.3 573.3 C 437.3 578.9 435.8 586.3 438 591 C 390.1 607 321.3 591.5 270 604 C 271.1 600.3 267.3 600.9 265 601 C 227.9 605.2 178.7 592.4 147.3 612.8 L 158 618 C 148.9 616.4 136.3 612.1 148.8 604.3 C 136.5 600 130.2 615.3 119 606 C 131.6 602.7 115.7 594.8 130 593 C 125.7 579 119.6 588 107.3 576.3 C 203.9 564.2 357.9 561.1 450 553 L 452 564 z"/>
<path style="fill:rgb(177,172,177)" d="M 452 564 C 452.1 574.1 451.5 584.3 453 594 L 453 645 L 453.8 668.8 C 451.9 639.5 439.6 582.4 452 564 z"/>
<path style="fill:rgb(165,162,167)" d="M 432 565 C 431.7 570.1 432.8 583.1 436 573 L 436 584 L 435 594 C 431.3 555.3 374.1 586.7 350.3 570.3 L 365.3 568.8 L 384 566 L 432 565 z"/>
<path style="fill:rgb(193,189,193)" d="M 436 573 C 432.8 583.1 431.7 570.1 432 565 C 440.8 564.3 443 570.4 436 573 z"/>
<path style="fill:rgb(109,103,109)" d="M 444 626 L 443 624 C 442.6 609.9 444.8 593.1 438.3 582.3 L 438 591 C 435.8 586.3 437.3 578.9 437.3 573.3 C 447.8 586.8 443.2 609.9 444 626 z"/>
<path style="fill:rgb(86,80,90)" d="M 443 624 L 418 624 C 432.5 608.4 426.5 615 420.8 603.3 C 368.3 628.4 356.3 605.3 291.3 605.3 C 215.2 675.6 74.67 578.8 7 621 C -3.196 627.5 35.21 628 28 625 C 33.8 623.3 35.15 627.4 32.75 631.8 C 7.227 631.2 -0.341 637.3 31 644 C -44.4 657.3 71.51 741.5 70.25 658.8 C 63.7 650.8 87.03 644.6 82 657 C 41.31 721.4 237 681.9 151.3 679.8 C 157.2 676 133.4 672.4 128.3 671.8 L 124.3 668.8 C 132.8 662.2 79.19 658.8 95.75 649.3 C 202.7 664.9 298.7 626.1 406.3 661.8 C 478.7 707 400.8 655 390 636 L 398 642 L 427 664 L 447 678 L 447 686 C 392 686.6 335.3 692 282 686 L 282 681 L 283 670 L 284 664 C 288.2 650.7 264.8 657.8 256 656 L 254 656 C 207.9 655 159.2 648.1 114 655 C 117.3 657.5 121.9 659.8 126 661 L 127 661 C 156.3 675.4 188.8 688.1 221.8 690.8 L 0 700 L 0 609 L 119 606 C 130.2 615.3 136.5 600 148.8 604.3 C 136.3 612.1 148.9 616.4 158 618 L 165 618 L 166 618 C 175.7 623.1 190.2 625.7 203 626 C 218.7 627.5 238.7 628.2 254 625 C 254.9 624.8 256.9 625.6 257 624 L 270 604 C 321.3 591.5 390.1 607 438 591 L 438.3 582.3 C 444.8 593.1 442.6 609.9 443 624 z"/>
<path style="fill:rgb(180,192,195)" d="M 537 602 L 538 596 C 536.4 584.4 525.7 595.5 520.3 590.8 C 507.3 585.1 539.4 586.7 543.8 594.8 C 549.5 582.2 543.1 600.2 537 602 z"/>
<path style="fill:rgb(181,190,194)" d="M 550 587 C 569.1 588.2 536.7 603.6 550 587 z"/>
<path style="fill:rgb(227,230,236)" d="M 538 596 L 537 602 C 525.7 601.7 526.4 592.3 538 596 z"/>
<path style="fill:rgb(173,162,164)" d="M 265 601 C 229.7 607.3 181.5 594.4 153 613 L 165 618 L 158 618 L 147.3 612.8 C 178.7 592.4 227.9 605.2 265 601 z"/>
<path style="fill:rgb(212,200,199)" d="M 270 604 L 257 624 C 227.5 625.2 194.3 627 166 618 L 165 618 L 153 613 C 181.5 594.4 229.7 607.3 265 601 C 267.3 600.9 271.1 600.3 270 604 z"/>
<path style="fill:rgb(67,66,71)" d="M 418 624 C 405.6 627.2 390.4 621.8 378 627 C 379.1 628.7 380.7 631.2 383 631 L 390 633 L 390 636 C 400.8 655 478.7 707 406.3 661.8 C 298.7 626.1 202.7 664.9 95.75 649.3 C 79.19 658.8 132.8 662.2 124.3 668.8 L 128.3 671.8 C 133.4 672.4 157.2 676 151.3 679.8 C 237 681.9 41.31 721.4 82 657 C 87.03 644.6 63.7 650.8 70.25 658.8 C 71.51 741.5 -44.4 657.3 31 644 C -0.341 637.3 7.227 631.2 32.75 631.8 C 35.15 627.4 33.8 623.3 28 625 C 21.05 623.8 12.93 624 7 621 C 74.67 578.8 215.2 675.6 291.3 605.3 C 356.3 605.3 368.3 628.4 420.8 603.3 C 426.5 615 432.5 608.4 418 624 z"/>
<path style="fill:rgb(143,115,103)" d="M 486 616 C 468.6 609.6 466.9 623.9 469 638 C 463.9 624.4 469.1 605 486 616 z"/>
<path style="fill:rgb(169,129,115)" d="M 486 616 C 496.6 618.8 507.4 623.6 517 628 C 504.5 628.6 488.3 616 472.3 617.3 C 467.8 625.9 470.1 639.8 471 649 L 471 656 C 458.4 700.3 514.4 687.8 524 712 L 518 712 C 514.7 707.4 509.1 704.8 504 703 C 468.2 700.2 466.4 668 469 638 C 466.9 623.9 468.6 609.6 486 616 z"/>
<path style="fill:rgb(215,167,145)" d="M 517 628 C 527.8 629 531.9 642.5 544 640 C 545.1 641.9 547.8 642.2 550 642 C 556.9 654.4 552.3 663.8 559 674 C 559.9 688.5 552.3 701.7 544 712 L 524 712 C 514.4 687.8 458.4 700.3 471 656 C 482.1 677.8 509.8 674.1 518.3 690.3 L 533 705 C 588.5 676.1 466.7 590.1 471 649 C 470.1 639.8 467.8 625.9 472.3 617.3 C 488.3 616 504.5 628.6 517 628 z"/>
<path style="fill:rgb(167,156,155)" d="M 257 624 C 256.9 625.6 254.9 624.8 254 625 C 237.3 626.4 220.1 626 203 626 C 190.2 625.7 175.7 623.1 166 618 C 194.3 627 227.5 625.2 257 624 z"/>
<path style="fill:rgb(137,128,129)" d="M 7 621 C 12.93 624 21.05 623.8 28 625 C 35.21 628 -3.196 627.5 7 621 z"/>
<path style="fill:rgb(125,82,86)" d="M 418 624 L 443 624 L 444 626 L 414 627 C 413.3 627 411.8 626.8 412 628 C 403.5 626.7 396.4 624.5 388 627 C 383.6 626.7 377.5 626.4 383 631 C 380.7 631.2 379.1 628.7 378 627 C 390.4 621.8 405.6 627.2 418 624 z"/>
<path style="fill:rgb(236,193,172)" d="M 471 656 L 471 649 C 466.7 590.1 588.5 676.1 533 705 L 518.3 690.3 C 509.8 674.1 482.1 677.8 471 656 z"/>
<path style="fill:rgb(134,124,124)" d="M 254 625 C 238.7 628.2 218.7 627.5 203 626 C 220.1 626 237.3 626.4 254 625 z"/>
<path style="fill:rgb(154,112,95)" d="M 412 628 L 412 629 C 408.7 630.4 404.1 630.7 402 634 C 391.5 632.2 391.3 636.3 398 642 L 390 636 L 390 633 C 398.1 633.4 390.2 628.8 388 627 C 396.4 624.5 403.5 626.7 412 628 z"/>
<path style="fill:rgb(135,131,147)" d="M 388 627 C 390.2 628.8 398.1 633.4 390 633 L 383 631 C 377.5 626.4 383.6 626.7 388 627 z"/>
<path style="fill:rgb(206,165,149)" d="M 414 627 C 424.1 629.1 445.5 620.4 444 637 C 443.3 648.3 445.5 660.6 442 670 L 398 642 C 391.3 636.3 391.5 632.2 402 634 C 393.6 642.2 430.5 656.3 439.8 663.8 C 449.6 639.4 437.7 620 412 629 L 412 628 C 411.8 626.8 413.3 627 414 627 z"/>
<path style="fill:rgb(238,202,187)" d="M 402 634 C 404.1 630.7 408.7 630.4 412 629 C 437.7 620 449.6 639.4 439.8 663.8 C 430.5 656.3 393.6 642.2 402 634 z"/>
<path style="fill:rgb(163,131,120)" d="M 446 665 C 444.6 678.5 434.1 666.3 427 664 L 398 642 L 442 670 C 445.5 660.6 443.3 648.3 444 637 L 446 665 z"/>
<path style="fill:rgb(90,80,90)" d="M 559 653 C 561.3 644.8 553.3 641 547 640 C 555.7 637.9 568.1 639.1 575.8 643.8 C 560.1 635.6 564.6 661.3 559 653 z"/>
<path style="fill:rgb(158,123,111)" d="M 547 640 C 553.3 641 561.3 644.8 559 653 L 561 672 C 560.8 686.5 555.6 700 548 712 L 544 712 C 552.3 701.7 559.9 688.5 559 674 C 557.9 662.4 558 650.3 550 642 C 547.8 642.2 545.1 641.9 544 640 L 547 640 z"/>
<path style="fill:rgb(187,142,120)" d="M 559 674 C 552.3 663.8 556.9 654.4 550 642 C 558 650.3 557.9 662.4 559 674 z"/>
<path style="fill:rgb(88,110,114)" d="M 371 647 C 394.7 649.8 411.9 672 431.8 682.8 C 416.4 683.7 395.2 685.6 390 672 C 384.5 699.8 359.2 655.3 371 647 z"/>
<path style="fill:rgb(123,120,129)" d="M 75 652 C 84.85 656.8 74.45 680.8 74 692 C 71.02 679.4 79.44 664.7 75 652 z"/>
<path style="fill:rgb(133,100,94)" d="M 254 656 L 123.3 655.3 L 126 661 C 121.9 659.8 117.3 657.5 114 655 C 159.2 648.1 207.9 655 254 656 z"/>
<path style="fill:rgb(169,127,119)" d="M 254 656 L 256 656 C 263.7 659.9 277.7 655.3 284 660 C 234.3 662 165.8 646.5 128 661 L 127 661 L 126 661 L 123.3 655.3 L 254 656 z"/>
<path style="fill:rgb(202,163,156)" d="M 284 660 L 284 663 C 236.9 661.9 183.2 653.2 136 661 C 176.3 674.4 214.5 691.4 261 687 C 213.5 694.2 169.9 678.1 128 661 C 165.8 646.5 234.3 662 284 660 z"/>
<path style="fill:rgb(131,98,93)" d="M 284 664 L 284 663 L 284 660 C 277.7 655.3 263.7 659.9 256 656 C 264.8 657.8 288.2 650.7 284 664 z"/>
<path style="fill:rgb(184,171,166)" d="M 574 656 C 574.1 673.9 584.5 693.9 581 712 L 577 712 C 579.3 694.8 572.9 677.7 570 661 C 569.8 658.7 572.3 657.1 574 656 z"/>
<path style="fill:rgb(225,190,184)" d="M 284 663 L 284 664 L 283 670 C 250.1 657.5 192.6 659.8 152 662 C 193.1 675.2 239.6 695.7 282 681 L 282 686 L 261 687 C 214.5 691.4 176.3 674.4 136 661 C 183.2 653.2 236.9 661.9 284 663 z"/>
<path style="fill:rgb(243,212,210)" d="M 283 670 L 282 681 C 239.6 695.7 193.1 675.2 152 662 C 192.6 659.8 250.1 657.5 283 670 z"/>
<path style="fill:rgb(128,114,120)" d="M 128 661 C 169.9 678.1 213.5 694.2 261 687 L 282 686 C 335.3 692 392 686.6 447 686 C 322.5 700.2 166.2 689.5 48 712 L 0 712 L 0 700 L 221.8 690.8 C 188.8 688.1 156.3 675.4 127 661 L 128 661 z"/>
<path style="fill:rgb(147,134,129)" d="M 570 661 C 572.9 677.7 579.3 694.8 577 712 L 575 712 C 579 695.7 567.7 676.3 570 661 z"/>
<path style="fill:rgb(137,111,104)" d="M 446 665 L 447 678 L 427 664 C 434.1 666.3 444.6 678.5 446 665 z"/>
<path style="fill:rgb(81,75,78)" d="M 573 712 L 548 712 C 555.6 700 560.8 686.5 561 672 L 566.8 668.3 C 569.3 682.6 574.8 697.4 573 712 z"/>
<path style="fill:rgb(79,72,80)" d="M 504 703 C 509.1 704.8 514.7 707.4 518 712 L 496 712 C 488.6 705.9 467.5 707.3 473.3 693.3 L 504 703 z"/>
<path style="fill:rgb(165,162,168)" d="M 440 696 C 474.8 705.8 395.4 702.8 418 698 L 428 698 C 431.9 698.7 436.9 698.4 440 696 z"/>
<path style="fill:rgb(116,112,118)" d="M 448 712 L 109 712 C 216.8 709.5 342 701.3 448 712 z"/>
</svg>
