<?xml version="1.0" encoding="utf-8"?>
<!-- Generator: Adobe Illustrator 9.0, SVG Export Plug-In  -->
<svg viewBox="0 0 211.7 48">
	<style type="text/css">
	<![CDATA[
		.st0df{fill-rule:nonzero;clip-rule:nonzero;fill:#FF6666;stroke:#000000;stroke-miterlimit:4;}
		.st1df{fill:#FFFFFF;}
		.st2df{fill-rule:nonzero;clip-rule:nonzero;fill:#FFFF00;}
		.st3df{fill-rule:nonzero;clip-rule:nonzero;fill:#000066;}
		.st4df{fill-rule:evenodd;clip-rule:evenodd;stroke:none;}
	]]>
	</style>
	<g id="Layer_x0020_1" class="st0df">
		<g class="st4df">
			<g class="st3df">
				<path d="M0,0h211.7v48H0V0z"/>
				<path d="M105.9,24"/>
			</g>
			<g class="st2df">
				<path d="M0,29.3h211.7v1.1H0v-1.1z"/>
				<path d="M105.9,29.8"/>
			</g>
			<g>
				<path d="M26.6,27c2.9,0,4.9-0.3,6.6-2.1c1.4-1.5,2.2-3.8,2.2-6.6c0-3.4-1.1-6.1-3.1-7.7C30.5,9.2,28.5,9,25.9,9h-5v18h5.7z M27.1,24.9h-3.8V11h3.4c4,0,6.2,2.6,6.2,7.3c0,4.4-1.9,6.6-5.8,6.6z"/>
				<path d="M36,21c0,3.9,2.3,6.3,6,6.3c4,0,6.4-2.4,6.4-6.7c0-4.1-2.3-6.4-6.2-6.4c-3.9,0-6.2,2.6-6.2,6.8z M42.3,15.9c2.4,0,3.8,1.7,3.8,4.8c0,3.1-1.5,4.9-3.9,4.9c-2.4,0-3.8-1.7-3.8-4.7c0-3.1,1.5-5,3.9-5z"/>
				<path d="M59.4,22.8h-2.2c0,1.7-1.1,2.8-2.7,2.8c-2,0-3.1-1.7-3.1-5.1c0-3,1.3-4.7,3.2-4.7c1.4,0,2.5,1.1,2.5,2.6h2.2c0,0,0,0,0,0c0-2.6-1.8-4.2-4.6-4.2c-3.6,0-5.7,2.5-5.7,6.8c0,4,2,6.3,5.6,6.3c3,0,4.7-1.6,4.9-4.5z"/>
				<path d="M69,25.1l0.1,2h2.3c-0.1-0.8-0.1-1.6-0.1-2.5V14.5H69v8.2c0,1.7-1.4,2.9-3.3,2.9c-2,0-2.8-1-2.8-3.1v-8h-2.3v7.9c0,1.4,0,2.4,0.6,3.2c0.8,1.1,2.2,1.7,3.9,1.7c1.9,0,3.4-0.9,3.9-2.2z"/>
				<path d="M75.7,27v-7.6c0-2.2,1.3-3.4,3.2-3.4c2,0,2.7,1.2,2.7,3.4V27H84v-7.8c0-1.9,1.3-3.1,3.2-3.1c1.8,0,2.7,1,2.7,2.9v8h2.2v-7.7c0-1.4-0.1-2.4-0.4-3c-0.6-1.2-2.2-2-4-2c-1.7,0-2.9,0.7-4.2,2.2c-1.1-1.5-2.4-2.2-4.1-2.2c-1.7,0-3.2,0.9-3.8,2.3l-0.1-2.1
					h-2.3c0.1,1.4,0.1,2.2,0.1,2.6V27h2.3z"/>
				<path d="M104.4,23h-2.2c0,1.6-1.2,2.6-3,2.6c-2.2,0-3.5-1.3-3.5-3.7c0-0.1,0-0.3,0-0.5c0-0.1,0-0.2,0-0.3h8.9c0-0.5,0-1,0-1.5c0-3.3-2.1-5.4-5.5-5.4c-3.6,0-5.8,2.3-5.8,6.8c0,4.1,2,6.3,5.9,6.3c3,0,5-1.7,5.1-4.3z M95.8,19.5c0-2.3,1.4-3.7,3.4-3.7
					c1.8,0,3.1,1.3,3.1,3.5c0,0.1,0,0.2,0,0.3h-6.5z"/>
				<path d="M108.3,16.5l-0.1-2h-2.4c0.1,0.9,0.1,1.8,0.1,2.6v10h2.3v-8.1c0-1.7,1.4-2.8,3.3-2.8c2,0,2.8,1,2.8,3.1V27h2.3v-7.8c0-1.4,0-2.4-0.6-3.2c-0.8-1-2.2-1.7-3.9-1.7c-1.9,0-3.4,0.9-3.9,2.2z"/>
				<path d="M116.9,14.5v1.6h2.1v8.5c0,2,1,2.6,3.2,2.6c0.5,0,1.1-0.1,1.8-0.3v-1.7c-0.4,0.1-0.8,0.2-1.2,0.2c-1.3,0-1.6-0.3-1.6-1.6v-7.7h2.8v-1.6h-2.8v-3.3l-2.3,0.8v2.6h-2.1z"/>
				<path d="M129.6,27h2.4v-8.2h7.6v-2.1H132v-5.5h8.1V9h-10.5v18z"/>
				<path d="M139.6,21c0,3.9,2.3,6.3,6,6.3c4,0,6.4-2.4,6.4-6.7c0-4.1-2.3-6.4-6.2-6.4s-6.2,2.6-6.2,6.8z M145.8,15.9c2.4,0,3.8,1.7,3.8,4.8c0,3.1-1.5,4.9-3.9,4.9c-2.5,0-3.8-1.7-3.8-4.7c0-3.1,1.5-5,3.9-5z"/>
				<path d="M153.2,27h2.3v-7c0-2.2,1.2-3.4,3.2-3.4c0.3,0,0.8,0,1.3,0.1v-2.2c-0.3-0.1-0.6-0.1-1-0.1c-1.9,0-3.1,0.8-3.5,2.4l0-2.4h-2.3c0.1,0.9,0.1,1.5,0.1,2c0,0.2,0,0.4,0,0.5V27z"/>
				<path d="M162.9,27v-7.6c0-2.2,1.3-3.4,3.2-3.4c2,0,2.7,1.2,2.7,3.4V27h2.3v-7.8c0-1.9,1.3-3.1,3.2-3.1c1.8,0,2.7,1,2.7,2.9v8h2.3v-7.7c0-1.4-0.1-2.4-0.4-3c-0.6-1.2-2.2-2-4-2c-1.7,0-3,0.7-4.2,2.2c-1.1-1.5-2.4-2.2-4.1-2.2s-3.2,0.9-3.8,2.3l-0.1-2.1h-2.3
					c0.1,1.4,0.1,2.2,0.1,2.6V27h2.3z"/>
				<path d="M188.5,20.8v1.2c0,2.2-1.2,3.4-3.3,3.4c-1.4,0-2.4-0.9-2.4-2.1c0-1.5,1.3-2.5,3.8-2.5h2z M191,27c-0.1-0.6-0.1-1-0.1-1.2c0-0.3,0-0.5,0-0.8v-6.9c0-2.6-1.4-3.9-4.9-3.9c-3,0-4.6,1.2-4.6,3.4c0,0.1,0,0.1,0,0.2h2.2c0.1-1.3,1-2.1,2.5-2.1
					c1.6,0,2.5,0.7,2.5,2v1.5h-2.2c-3.8,0-5.9,1.7-5.9,4.3c0,2.2,1.6,3.8,4.2,3.8c2,0,3.4-0.8,4-2.3c0.1,0.9,0.1,1.6,0.3,2h2.1z"/>
				<path d="M190.9,14.5v1.6h2.1v8.5c0,2,1,2.6,3.2,2.6c0.5,0,1.1-0.1,1.8-0.3v-1.7c-0.4,0.1-0.8,0.2-1.1,0.2c-1.3,0-1.6-0.3-1.6-1.6v-7.7h2.8v-1.6h-2.8v-3.3l-2.3,0.8v2.6h-2.1z"/>
				<path d="M197.6,23.3c0,0.1,0,0.2,0,0.3c0,2.6,1.6,3.8,5.1,3.8c3.1,0,5-1.6,5-3.9c0-1.8-1-2.8-2.9-3.4l-2.8-0.8c-1.3-0.3-1.8-0.8-1.8-1.6c0-1,1-1.8,2.5-1.8c1.5,0,2.4,0.7,2.4,1.9c0,0,0,0.1,0,0.1h2.3c0-0.1,0-0.3,0-0.4c0-2-1.7-3.3-4.5-3.3
					c-3.2,0-5.1,1.6-5.1,3.8c0,1.7,1.1,2.7,3.3,3.3l2.7,0.6c1,0.3,1.5,0.8,1.5,1.6c0,1.1-1,2-2.6,2s-2.6-0.9-2.6-2.3c0,0,0,0,0-0.1h-2.3z"/>
			</g>
			<g class="st1df">
				<path d="M123.6,29.7H119v7c-1.4-1.3-3.1-2-5.2-2c-3.8,0-6.2,2.4-6.2,6.2c0,4.1,2.3,6.4,6.1,6.4c2.2,0,4-0.9,5.2-2.5c0,0.1,0,0.3,0,0.4c0,0.6,0,1.2,0.1,1.9h4.7c-0.1-0.9-0.2-1.8-0.2-2.7V29.7z M115.7,37c2.2,0,3.4,1.3,3.4,3.7c0,2.4-1.2,3.7-3.3,3.7
					c-2.1,0-3.3-1.4-3.3-3.9c0-2.2,1.2-3.6,3.3-3.6z"/>
				<path d="M133.5,44.5c-2.2,0-3.4-1.3-3.4-3.8c0-2.4,1.2-3.8,3.3-3.8c2,0,3.3,1.4,3.3,3.8c0,2.3-1.3,3.7-3.3,3.7z M133.2,47.2c5.6,0,8.4-2.1,8.4-6.3c0-4.1-2.8-6.4-8.2-6.4c-5.4,0-8.2,2.3-8.2,6.3c0,4.1,2.7,6.3,8,6.3z"/>
				<path d="M143.2,46.9h4.5v-6.1c0-2.4,0.9-3.5,3-3.5c1.4,0,2.3,0.8,2.3,2.3v7.3h4.5v-6.1c0-2.4,0.9-3.5,2.9-3.5c1.5,0,2.3,0.8,2.3,2.3v7.3h4.6v-7.2c0-3.3-1.9-5.1-5.3-5.1c-2.1,0-3.8,0.8-4.9,2.5c-0.6-1.6-2.1-2.5-4.3-2.5c-2,0-3.6,0.7-5,2.2
					c0-0.6-0.1-1.3-0.2-1.9h-4.5c0.1,0.9,0.1,1.9,0.1,2.8v9.2z"/>
				<path d="M178.9,45.2c0,0.1,0,0.1,0,0.2c0,0.6,0.1,1.1,0.3,1.6h4.3c-0.2-0.5-0.2-1-0.2-1.6v-6.1c0-3.2-2.1-4.6-6.6-4.6c-4.7,0-7,1.2-7.3,3.9h4.7c0.2-1.1,1-1.5,2.6-1.5c1.5,0,2.3,0.7,2.3,2c0,0.1,0,0.2,0,0.3h-2.2c-2.9,0-5,0.1-6.2,0.8c-1.2,0.7-1.9,1.9-1.9,3.4
					c0,2.3,1.7,3.6,4.8,3.6c2.7,0,4.7-0.8,5.6-2.1z M178.8,41.6c0,0.1,0,0.2,0,0.3c0,1.8-1.1,2.8-3.2,2.8c-1.5,0-2.3-0.5-2.3-1.3c0-1.3,1.6-1.7,5.1-1.7c0.1,0,0.2,0,0.4,0z"/>
				<path d="M185.5,46.9h4.6v-12h-4.6v12z M185.3,33h5v-3.4h-5V33z"/>
				<path d="M192.3,46.9h4.6v-6.1c0-2.4,1-3.5,3.2-3.5c1.7,0,2.5,0.8,2.5,2.5v7.2h4.6v-7.4c0-3.1-2-5-5.2-5c-2.3,0-3.8,0.8-5.2,2.2c0-0.7,0-1.3-0.1-1.9h-4.6c0.1,0.9,0.1,1.9,0.1,2.8v9.2z"/>
			</g>
		</g>
	</g>
</svg>
