<?xml version="1.0" encoding="iso-8859-1"?>
<svg  xmlns:xlink="http://www.w3.org/1999/xlink" xml:space="preserve" viewBox="0 0 401 301">
<!-- Generator: Adobe Illustrator 8.0, SVG Export Plug-In 1.0x27 -->
<style type="text/css">
 .st0 {fill:#FFFFFF;stroke:#000000;stroke-miterlimit:4;}
 .st1 {fill:#FF7F00;stroke:#000000;stroke-miterlimit:4;}
 .st2 {fill:none;fill-rule:nonzero;stroke:#000000;stroke-miterlimit:4;}
 .st3 {fill:#F881BF;}
 .st4 {fill:#F881BF;stroke:#000000;stroke-miterlimit:4;}
 .st5 {fill:#FF7F00;}
 .st6 {fill:#FFE600;}
 .st7 {fill:#34AACD;}
 .st8 {fill:#409D27;}
 .st9 {fill:#FFFFFF;stroke:none;}
 .st10 {fill:#FFFFFF;}
</style>

<g id="room">
	<path d="M0.5 0.5v207.86l198.688-51.334V0.5H0.5z" class="st3"/>
	<path d="M199.188 0.5v156.526L400.5 254.36V0.5H199.188z" class="st5"/>
	<path d="M0.5 208.36l198.688-51.334L400.5 254.36H0.5v-46z" class="st6"/>
	<path d="M62.99 46.36l74.536-5.333v61.265L62.99 115.548V46.36z" class="st8"/>
	<path d="M327.764 51.026v81.833l-75.672-24.587V44.693l75.672 6.333z" class="st4"/>
	<path d="M316.32 59.013v61.141l-57.764-16.789l0.001-51.59l57.763 7.238z" class="st0"/>
	<path d="M252.092 44.693l6.466 7.081" class="st0"/>
	<path d="M316.32 59.013l11.443-7.986" class="st2"/>
	<path d="M316.32 120.153l11.443 12.706" class="st2"/>
	<path d="M258.557 103.364l-6.465 4.908" class="st2"/>
	<path d="M264.402 45.724l23.078-9.6l25.907 13.699" class="st2"/>
	<path d="M287.48 36.124l-3.872-2.357" class="st2"/>
	<path d="M285.124 33.431c0 1.022-0.829 1.852-1.853 1.852c-1.022 0-1.852-0.829-1.852-1.852c0-1.023 0.829-1.852 1.852-1.852c1.023 0 1.853 0.829 1.853 1.852z"/>
	<path d="M81.877 45.008c0 0 31.478 5.019 20.811 27.019S82.895 100.95 82.895 100.95l-19.905 3.077V46.36l18.888-1.352z" class="st7"/>
	<path d="M62.99 46.36l74.536-5.333v61.265L62.99 115.548V46.36z" class="st2"/>
	<path d="M137.526 102.291L62.99 115.548v-11.521l62.532-9.667V41.885l12.004-0.859v61.265l-12.004-7.931" class="st1"/>
	<g class="st2">
		<path d="M258.248 170.886c0 10.561-27.657 19.121-61.776 19.121s-61.776-8.563-61.776-19.121s27.658-19.119 61.776-19.119c34.119 0 61.776 8.563 61.776 19.119z" class="st10"/>
		<path d="M246.223 253.243h-98.694v-56.305h98.694v56.305z" class="st9"/>
		<path d="M258.242 170.956c-0.121 10.525-27.728 19.051-61.771 19.051s-61.649-8.523-61.771-19.051h-0.006v15.258h0.076c1.582 10.123 28.6 18.182 61.701 18.182c33.104 0 60.119-8.059 61.701-18.182h0.094v-15.258h-0.023h-0.002z" class="st10"/>
		<path d="M147.534 196.938v56.307"/>
		<path d="M245.832 196.938v56.307"/>
		<path d="M156.243 205.841v47.402"/>
		<path d="M236.699 205.841v47.402"/>
		<path d="M173.734 209.292v43.951"/>
		<path d="M219.208 209.292v43.951"/>
		<path d="M196.47 211.593v41.65"/>
	</g>
</g><!-- room -->
<g id="contents">
</g><!-- contents -->
<defs>
	<g id="bomb">
		<path d="M183.734,119.848v6.643c11.666,4.752,17.5,12.871,17.5,24.357c0,7.16-2.535,13.262-7.604,18.305s-11.188,7.564-18.359,7.564c-7.139,0-13.242-2.521-18.311-7.564s-7.602-11.113-7.602-18.207c0-11.193,5.832-19.345,17.5-24.455v-6.643c1.613-0.84,3.613-1.453,6-1.842v-1.023c0-3.346,1.09-6.164,3.271-8.455c2.182-2.289,4.852-3.436,8.012-3.436c4.266,0,9.412,2.578,15.438,7.734l2.588,2.238c6.252,5.352,11.348,8.027,15.289,8.027c1.336,0,2.996-0.504,4.982-1.514c0.293-0.156,0.684-0.236,1.174-0.236c1.496,0,2.246,0.602,2.246,1.803c0,1.268-0.887,2.389-2.66,3.361c-1.773,0.975-3.799,1.461-6.076,1.461c-4.85,0-10.869-3.016-18.059-9.049l-2.783-2.334c-5.271-4.41-9.338-6.617-12.201-6.617c-4.23,0-6.346,2.68-6.346,8.039c2.131,0.453,4.131,1.066,6,1.842z M206.916,102.473l1.957-1.631l12.049,15.857l-14.006-14.227z M223.859,100.842h2.375l-1.117,14.355l-1.258-14.355z M241.049,100.842l1.998,1.531l-13.645,14.375l11.646-15.906z M245.533,117.038l0.389,2.277l-14.326,1.307l13.938-3.584z M248.359,134.018l-1.17,2.002l-16.424-11.008l17.594,9.006z M233.252,140.948l-2.34,0.83l-3.605-13.859l5.945,13.029z M216.855,146.803l-2.301-0.83l8.178-18.154l-5.877,18.984z"/>
		<rect style="opacity:0" x="148" y="98" width="100" height="80"/>
	</g><!-- bomb -->
	<g id="phone">
		<path d="M191.706,134.568v4.25h-6.125v-4.25h6.125z M220.29,103.783c-6.766-1.143-13.871-1.715-21.316-1.715c-7.188,0-14.123,0.572-20.807,1.715s-13.115,2.873-19.293,5.191c-2.701,4.727-4.508,9.709-5.418,14.951c2.852,1.096,5.719,1.643,8.602,1.643c4.859,0,9.783-1.498,14.773-4.498v-1.01c0-4.744,7.559-7.117,22.68-7.117c14.629,0,21.945,2.418,21.945,7.254v1.029c5.242,2.479,10.242,3.717,14.998,3.717c2.801,0,5.635-0.32,8.502-0.965c-0.949-5.586-2.746-10.586-5.395-15.004c-6.082-2.318-12.506-4.049-19.271-5.191z M236.405,127.318c-5.342,0-10.324-1.238-14.949-3.717v2.172c0,3.539,1.18,6.16,3.541,7.863c2.361,1.705,5.984,2.557,10.871,2.557c3.484,0,5.871-0.551,7.158-1.656c1.285-1.105,1.93-3.146,1.93-6.127v-2.307c-2.639,0.811-5.488,1.215-8.551,1.215z M162.349,127.943c-2.656,0-5.621-0.547-8.893-1.643v2.074c0,3.281,0.639,5.51,1.92,6.684c1.279,1.174,3.701,1.76,7.266,1.76c4.955,0,8.559-0.879,10.811-2.637s3.379-4.574,3.379-8.445v-1.791c-4.666,2.666-9.494,3.998-14.482,3.998z M191.831,120.068h-10.75v9.189l-12.521,20.387c-3.236,5.217-4.854,10.252-4.854,15.107v11.441h71v-11.441c0-3.129-0.293-5.646-0.875-7.553s-1.813-4.357-3.688-7.357l-12.813-20.584v-9.189h-10.75v6.625h-14.75v-6.625z M201.831,134.568v4.25h-5.875v-4.25h5.875z M212.206,134.568v4.25h-6.125v-4.25h6.125z M191.706,141.818v4.25h-6.125v-4.25h6.125z M201.831,141.818v4.25h-5.875v-4.25h5.875z M212.206,141.818v4.25h-6.125v-4.25h6.125z M191.706,149.068v4.25h-6.125v-4.25h6.125z M201.831,149.068v4.25h-5.875v-4.25h5.875z M212.206,149.068v4.25h-6.125v-4.25h6.125z"/>
		<rect style="opacity:0" x="148" y="98" width="100" height="80"/>
	</g><!-- phone -->
	<g id="airplane">
		<path d="M159.329,139.994l-6.275-14h7.035l6.655,10.074l36.383-1.141l-17.241-41.859h9.38l26.62,41.036h6.148c3.635,0,6.929,0.463,9.89,1.386l4.055,1.323c3,1.009,4.501,2.058,4.501,3.147c0,1.176-1.501,2.269-4.501,3.274l-4.055,1.323c-2.961,0.925-6.318,1.386-10.079,1.386l-5.959-0.124l-26.62,40.998h-9.38l17.241-41.758l-36.383-1.139l-6.655,10.133h-7.035l6.275-14.061z"/>
		<rect style="opacity:0" x="148" y="98" width="100" height="80"/>
	</g><!-- airplane -->
	<g id="flag">
		<path d="M154.844,115.349c8.031-4.766,14.854-7.149,20.472-7.149c4.718,0,8.588,1.011,11.614,3.032c3.025,2.023,4.538,4.604,4.538,7.741c0,1.444-0.233,3.339-0.7,5.686l-1.997,9.853c-2.559-2.049-5.945-3.075-10.16-3.075c-7.099,0-14.017,2.699-20.753,8.096l-3.015-24.183z M158.613,145.317c6.311-5.658,12.982-8.487,20.014-8.487l-2.714,19.519c-0.326,2.17,1.132,3.977,4.374,5.42c3.207,1.449,7.385,2.17,12.537,2.17c11.601,0,22.335-2.662,32.207-7.991c9.872-5.327,18.556-13.138,26.051-23.433c-6.629,4.538-14.337,6.805-23.125,6.805c-14.049,0-25.81-3.728-35.282-11.188l1.372-6.95c0.402-2.049,0.604-3.754,0.604-5.12c0-3.808-1.769-6.967-5.302-9.483s-7.968-3.773-13.302-3.773c-7.789,0-15.072,2.377-21.849,7.127l-0.86-6.492l-4.253-10.732l-1.184,10.732l9.958,79.309h5.394l-4.64-37.433z M181.277,137.114c4.119,0.832,6.181,2.369,6.181,4.61c0,1.88-1.991,3.832-5.969,5.856c-0.396,0.182-0.951,0.469-1.668,0.867l1.457-11.333z M226.936,144.714c1.153,0,3.081-0.086,5.785-0.264c-11.312,9.397-24.929,14.094-40.85,14.094c-4.037,0-7.071-0.455-9.107-1.371c-2.036-0.914-3.051-2.287-3.051-4.117c0-0.621,0.268-1.242,0.808-1.865c1.007-0.542,1.761-0.94,2.265-1.195c4.028-1.99,6.222-3.818,6.583-5.487l2.265-10.646c9.298,7.236,21.064,10.851,35.303,10.851z"/>
		<rect style="opacity:0" x="148" y="98" width="100" height="80"/>
	</g><!-- flag -->
	<g id="hourglass">
		<path d="M184.602,106.956c-4.277-1.104-6.414-2.292-6.414-3.562c0-1.377,1.927-2.527,5.786-3.453c3.859-0.923,8.663-1.386,14.413-1.386c5.714,0,10.489,0.454,14.331,1.36c3.839,0.906,5.794,2.03,5.868,3.37c0.072,1.305-2.021,2.521-6.278,3.643c-4.259,1.124-8.898,1.685-13.92,1.685c-4.915,0-9.509-0.552-13.785-1.656z M180.305,178.124c4.112,1.707,10.133,2.563,18.066,2.563c7.932,0,13.955-0.855,18.066-2.563c4.112-1.709,6.168-4.236,6.168-7.584v-4.146c0-3.527-0.447-6.318-1.338-8.374c-0.891-2.057-2.736-4.575-5.537-7.559l-7.202-7.584c-2.257-2.436-3.383-4.018-3.383-4.745c0-0.799,1.382-2.619,4.146-5.457l7.202-7.42c2.437-2.473,4.064-4.764,4.883-6.875c0.818-2.108,1.229-5.02,1.229-8.73v-4.474c0-6.183-8.079-9.276-24.234-9.276c-8.08,0-14.138,0.775-18.176,2.32c-4.04,1.545-6.059,3.865-6.059,6.956v4.474c0,3.71,0.406,6.622,1.222,8.73c0.816,2.11,2.438,4.402,4.869,6.875l7.181,7.42c2.791,2.837,4.188,4.658,4.188,5.457c0,0.727-1.144,2.309-3.427,4.745l-7.18,7.584c-2.793,2.983-4.633,5.502-5.521,7.559c-0.889,2.056-1.332,4.847-1.332,8.374v4.146c0,3.348,2.056,5.875,6.168,7.584z M185.942,110.072c3.588,0.797,7.73,1.194,12.429,1.194c9.396,0,16.589-1.573,21.58-4.721v5.243c0,2.514-0.364,4.452-1.089,5.818s-2.593,3.669-5.6,6.908l-6.094,6.552c-3.119,3.387-4.678,5.698-4.678,6.936c0,1.567,1.415,3.878,4.243,6.936l7.071,7.59c2.754,2.951,4.468,5.153,5.14,6.609c0.67,1.458,1.006,3.66,1.006,6.608v3.931c0,2.368-0.857,4.007-2.568,4.917c-4.151,2.294-10.489,3.439-19.012,3.439c-8.488,0-14.826-1.146-19.012-3.439c-1.713-0.91-2.569-2.549-2.569-4.917v-3.931c0-2.948,0.334-5.15,1.006-6.608c0.67-1.456,2.383-3.658,5.14-6.609l7.071-7.59c2.829-3.058,4.243-5.297,4.243-6.718c0-1.384-1.541-3.767-4.623-7.154l-6.148-6.552c-3.01-3.239-4.878-5.542-5.603-6.908s-1.087-3.304-1.087-5.818v-5.243c2.512,1.556,5.563,2.732,9.151,3.527z M188.539,124.538l4.533,4.972c2.038,2.222,3.278,3.76,3.714,4.616c0.437,0.856,0.801,2.486,1.093,4.887c0.072,0.729,0.236,1.822,0.491,3.278c0.253-1.456,0.417-2.549,0.491-3.278c0.292-2.401,0.657-4.031,1.093-4.887c0.437-0.855,1.674-2.394,3.714-4.616l4.535-4.972c3.095-3.348,5.099-5.751,6.011-7.209c-5.428,3.409-10.709,5.111-15.842,5.111c-5.136,0-10.397-1.702-15.789-5.111c0.873,1.458,2.859,3.861,5.954,7.209z M198.382,174.121c7.936,0,14.215-1.144,18.837-3.431c-0.585-2.183-2.77-4.258-6.556-6.227l-4.809-2.457c-3.022-1.565-4.825-2.621-5.408-3.167c-0.583-0.546-1.274-1.766-2.075-3.66c-0.764,1.895-1.447,3.114-2.047,3.66c-0.6,0.546-2.409,1.602-5.428,3.167l-4.804,2.457c-3.784,1.969-5.967,4.044-6.547,6.227c4.623,2.287,10.901,3.431,18.837,3.431z"/>
		<rect style="opacity:0" x="148" y="98" width="100" height="80"/>
	</g><!-- hourglass -->
	<g id="floppy">
		<path d="M213.63,127.388h-44.912v-15.591h44.912v15.591z M164.18,107.259v67.252h67.252v-47.124h-4.422v-6.632h4.422v-13.497H164.18z M204.178,147.192c-1.804,1.769-3.931,2.652-6.381,2.652c-2.455,0-4.56-0.876-6.316-2.631c-1.756-1.752-2.634-3.855-2.634-6.307c0-2.479,0.878-4.596,2.634-6.35c1.757-1.753,3.861-2.631,6.316-2.631c2.45,0,4.577,0.893,6.381,2.676c1.802,1.785,2.703,3.887,2.703,6.305c0,2.422-0.901,4.517-2.703,6.285z M197.806,169.973c-2.251,0-3.374-1.113-3.374-3.342v-8.906c0-2.229,1.123-3.342,3.374-3.342c2.249,0,3.374,1.113,3.374,3.342v8.906c-0.182,2.229-1.307,3.342-3.374,3.342z"/>
		<rect style="opacity:0" x="148" y="98" width="100" height="80"/>
	</g><!-- floppy -->
	<g id="hand">
		<path d="M216.157,163.115c-3.037,3.871-6.989,7.159-11.852,9.868l-2.141,0.059c-0.77,0-1.702-0.12-2.799-0.36l6.748-2.956c-1.134-2.368-2.633-4.198-4.498-5.487l3.401-1.612c-1.429-2.578-2.981-4.402-4.664-5.471l2.141-0.919c-1.245-2.746-3.019-4.673-5.321-5.779l1.866-0.861c-2.15-4.782-5.553-7.174-10.215-7.174c-0.874,0-1.839,0.135-2.895,0.406c-1.058,0.271-2.222,0.695-3.496,1.271h-4.5l2.678,2.807l2.519-0.107c1.383-0.573,2.584-1.003,3.605-1.292c1.018-0.286,1.854-0.43,2.51-0.43c2.513,0,4.514,1.112,6.008,3.334l-9.933,4.355h-3.349c-2.198,0-4.057-0.729-5.575-2.193c-1.521-1.464-2.279-3.255-2.279-5.378c0-2.342,1.464-4.087,4.391-5.241c2.928-1.151,7.301-1.728,13.121-1.728h1.977l-0.055-1.527c0-4.291-1.455-8.802-4.363-13.531l-0.728-1.202c-1.267-2.071-1.9-4-1.9-5.783c0-3.419,1.863-5.748,5.592-6.984l2.222,10.1l11.028,11.703c1.865,2.335,3.272,4.14,4.225,5.416c2.34,3.281,4.097,5.197,5.268,5.743c1.171,0.546,4.059,0.819,8.668,0.819c1.243,3.476,1.866,7.006,1.866,10.588c0,3.037-0.568,6.218-1.702,9.545h-7.569z M228.085,152.883c0-4.387-0.941-8.667-2.82-12.837h-6.421c-1.498,0-2.586-0.245-3.264-0.738c-0.677-0.492-1.839-1.851-3.484-4.079l-1.536-2.023c-1.719-2.298-2.927-3.849-3.622-4.653l-10.149-10.781l-2.744-12.12l-1.582,0.382c-5.707,1.348-8.56,4.734-8.56,10.156c0,1.966,0.933,4.75,2.803,8.352l0.86,1.529c1.545,3.059,2.532,6.226,2.965,9.501h-1.363c-5.339,0-9.625,0.913-12.859,2.739c-3.233,1.827-4.85,4.236-4.85,7.229c0,2.595,0.966,4.95,2.897,7.067c-0.721,1.263-1.08,2.451-1.08,3.567c0,1.372,0.363,2.508,1.09,3.408c0.728,0.899,1.8,1.549,3.22,1.944c-0.079,0.645-0.116,1.145-0.116,1.501c0,3.359,1.994,5.201,5.983,5.522c-0.074,0.437-0.111,0.767-0.111,0.985c0,3.829,2.674,5.743,8.024,5.743h2.346l1.975-1.007c2.377,0.673,4.498,1.007,6.363,1.007c0.66,0,1.685-0.055,3.074-0.168c4.389-1.979,8.468-5.093,12.236-9.34h8.17c1.7-4.314,2.552-8.611,2.552-12.889z M188.46,159.48h-5.693c-2.185,0-3.823-0.28-4.916-0.839c-1.092-0.56-1.638-1.396-1.638-2.515c0-0.577,0.209-1.188,0.629-1.84c1.409,0.761,3.469,1.139,6.18,1.139h2.873l8.203-3.57c1.792,0.461,3.329,1.525,4.609,3.189l-10.248,4.436z M190.475,166.052h-4.042c-4.203,0-6.305-1.025-6.305-3.076l0.162-0.839h8.675l8.48-3.684c1.206,0.586,2.25,1.392,3.128,2.416c0.109,0.146,0.256,0.33,0.439,0.549l-10.539,4.634z M193.16,172.623h-1.817c-3.561,0-5.342-1.197-5.342-3.594v-0.321h5.034l7.893-3.345c1.059,0.767,1.938,1.621,2.634,2.561c0.145,0.175,0.346,0.419,0.604,0.731l-9.005,3.968z"/>
		<rect style="opacity:0" x="148" y="98" width="100" height="80"/>
	</g><!-- hand -->
	<g id="bigx">
		<path d="M199.891,160.322l-0.871,1.221c-6.053,9.154-11.02,13.73-14.898,13.73c-4.462,0-8.845-3.639-13.151-10.922c0.581,0.039,1.007,0.059,1.281,0.059c5.081,0,10.745-3.865,16.99-11.596l1.572-1.972l-2.042-2.202c-5.717-6.027-8.575-11.149-8.575-15.362c0-3.437,3.132-7.494,9.396-12.172c0.893,5.98,3.548,11.807,7.971,17.476l1.746,2.199l1.397-1.799c6.479-8.245,12.354-12.37,17.632-12.37c4.111,0,7.233,3.116,9.368,9.343c-0.621-0.077-1.067-0.116-1.339-0.116c-1.863,0-4.481,1.251-7.857,3.752c-3.376,2.502-6.227,5.322-8.552,8.461l-1.746,2.383l1.688,1.627c6.245,6.051,12.763,9.074,19.552,9.074c-3.648,7.342-7.45,11.012-11.405,11.012c-3.571,0-8.73-3.131-15.48-9.393l-2.677-2.434z"/>
		<rect style="opacity:0" x="148" y="98" width="100" height="80"/>
	</g><!-- bigx -->

	<g id="snowflake_def">
		<path d="M22.341 33.5v-4.093l-3.572 2.037l-0.651-1.124l4.224-2.425v-6.271l-5.438 3.146v4.855h-1.313v-4.118l-3.539 2.057l-0.648-1.125l3.539-2.056l-3.539-2.038l0.648-1.142l4.187 2.424L21.69 20.5l-5.451-3.127l-4.187 2.406l-0.648-1.124l3.539-2.038l-3.539-2.055l0.648-1.125l3.539 2.038v-4.102h1.313v4.856l5.438 3.145v-6.289l-4.206-2.406l0.651-1.143l3.555 2.055V7.499h1.313v4.093l3.555-2.055l0.651 1.143l-4.206 2.406v6.289l5.438-3.145v-4.856h1.313v4.102l3.524-2.038l0.663 1.125l-3.524 2.055l3.524 2.038l-0.646 1.124l-4.198-2.406L24.307 20.5l5.442 3.127l4.181-2.424l0.663 1.142l-3.524 2.038l3.524 2.056l-0.646 1.125l-3.542-2.057v4.118h-1.313V24.77l-5.438-3.146v6.271l4.224 2.425l-0.651 1.124l-3.572-2.037V33.5h-1.313h-0.001z"/>
		<rect style="opacity:0" x="0" y="0" width="45" height="40"/>
	</g><!-- snowflake -->
	<g id="sun_def">
		<path d="M17.638 26.276c-1.487-1.481-2.231-3.271-2.231-5.37c0-2.098 0.741-3.888 2.224-5.369c1.483-1.482 3.272-2.225 5.37-2.225c2.099 0 3.888 0.741 5.37 2.225c1.482 1.482 2.225 3.271 2.225 5.369c0 2.099-0.742 3.889-2.225 5.37c-1.482 1.482-3.271 2.225-5.37 2.225c-2.086 0-3.872-0.741-5.36-2.225h-0.002zM 27.435 33.123l1.018-5.714h5.786l-2.894-5.026l4.437-3.744l-5.437-1.986l1-5.713l-5.436 1.986l-2.91-5.051l-2.893 5.051l-5.436-1.986l0.981 5.713l-5.437 1.986l4.437 3.744l-2.894 5.026h5.787l1.016 5.714l4.437-3.728l4.437 3.728z"/>
		<rect style="opacity:0" x="0" y="0" width="45" height="40"/>
	</g><!-- sun -->
	<g id="flower_def">
		<path d="M22.603 24.645l-0.816-0.176l0.034-0.983l-1.168 1.354l-0.664-0.511l0.873-1.567l-0.943 0.327l-0.401-0.74l0.752-0.628l-0.963-0.035l-0.086-0.818l0.943-0.267l-1.662-0.712l0.28-0.796l1.731 0.396l-0.578-0.828l0.578-0.599l0.784 0.547l-0.243-0.951l0.783-0.385l0.51 0.862l0.164-1.854h0.911l0.146 1.854l0.613-0.862l0.781 0.385l-0.26 0.969l0.781-0.547l0.56 0.6l-0.612 0.759l1.77-0.414l0.229 0.794l-1.613 0.729l0.947 0.284l-0.104 0.872l-0.946 0.035l0.754 0.593l-0.402 0.74l-0.926-0.345l0.978 1.516l-0.716 0.527l-1.149-1.331v1.032l-0.862 0.157l-0.383-0.912l-0.4 0.931h-0.002zM 24.86 22.715c0.508-0.502 0.763-1.116 0.763-1.842c0-0.725-0.255-1.338-0.763-1.84c-0.51-0.502-1.131-0.754-1.862-0.754c-0.733 0-1.354 0.252-1.862 0.754c-0.509 0.502-0.763 1.115-0.763 1.84c0 0.726 0.251 1.34 0.754 1.842s1.126 0.753 1.871 0.753c0.731 0 1.354-0.251 1.862-0.753zM 22.146 21.692c-0.182-0.184-0.272-0.46-0.272-0.827s0.091-0.641 0.272-0.817 c0.183-0.179 0.455-0.268 0.82-0.268c0.364 0 0.639 0.089 0.82 0.268c0.182 0.178 0.273 0.45 0.273 0.817s-0.092 0.645-0.273 0.827c-0.184 0.184-0.456 0.275-0.82 0.275c-0.365 0-0.639-0.093-0.82-0.275zM 26.407 32.968c1.064 0 1.912-0.527 2.545-1.582l0.229-0.405c0.396-0.68 1.088-1.137 2.07-1.371l0.51-0.141c1.449-0.353 2.176-1.213 2.176-2.585c0-1.535-1.153-2.797-3.459-3.78c0.959 0.16 1.729 0.239 2.313 0.239c0.911 0 1.675-0.286 2.287-0.859c0.612-0.572 0.92-1.286 0.92-2.141c0-0.644-0.295-1.292-0.885-1.947l-0.337-0.386c-0.52-0.572-0.778-1.163-0.778-1.771c0-0.188 0.017-0.368 0.047-0.544l0.095-0.421c0.03-0.141 0.047-0.298 0.047-0.474c0-0.854-0.254-1.55-0.758-2.088c-0.504-0.537-1.149-0.808-1.936-0.808c-1.186 0-2.458 0.769-3.818 2.301c0.799-1.166 1.198-2.216 1.198-3.148c0-0.828-0.276-1.539-0.827-2.134c-0.551-0.596-1.213-0.894-1.986-0.894c-0.375 0-0.85 0.113-1.424 0.339l-0.511 0.203c-0.479 0.181-0.844 0.271-1.09 0.271 c-0.306 0-0.763-0.127-1.372-0.383l-0.439-0.197c-0.375-0.154-0.772-0.232-1.194-0.232c-0.75 0-1.382 0.265-1.892 0.794s-0.765 1.185-0.765 1.962c0 1.001 0.37 2.129 1.11 3.385c-1.342-1.51-2.6-2.266-3.777-2.266c-1.889 0-2.833 0.969-2.833 2.905v0.334l0.063 0.458c0.041 0.398 0.063 0.65 0.063 0.757c0 0.481-0.248 0.992-0.743 1.532l-0.425 0.475c-0.555 0.611-0.832 1.245-0.832 1.901c0 0.822 0.326 1.509 0.979 2.061s1.47 0.827 2.449 0.827c0.536 0 1.248-0.068 2.135-0.206c-2.334 0.984-3.5 2.262-3.5 3.832c0 1.441 0.824 2.36 2.473 2.759l0.563 0.142c0.816 0.211 1.406 0.649 1.771 1.317l0.263 0.492c0.538 0.984 1.352 1.478 2.438 1.478c1.884 0 3.029-1.517 3.438-4.549c0.222 3.032 1.356 4.549 3.404 4.549l-0.003-0.001z"/>
		<rect style="opacity:0" x="0" y="0" width="45" height="40"/>
	</g><!-- flower -->
	<g id="target_def">
		<path d="M15.665 13.165c2.026-2.027 4.471-3.041 7.334-3.041s5.307 1.014 7.334 3.041s3.041 4.472 3.041 7.334c0 2.863-1.014 5.309-3.041 7.335c-2.027 2.027-4.471 3.04-7.334 3.04s-5.308-1.013-7.334-3.04c-2.027-2.026-3.041-4.472-3.041-7.335c0-2.862 1.014-5.307 3.041-7.334zM 13.801 29.696c2.535 2.535 5.603 3.803 9.197 3.803c3.596 0 6.662-1.268 9.197-3.803c2.533-2.535 3.803-5.603 3.803-9.197s-1.27-6.661-3.803-9.196c-2.535-2.534-5.602-3.804-9.197-3.804c-3.595 0-6.662 1.27-9.197 3.804c-2.534 2.535-3.803 5.602-3.803 9.196s1.269 6.662 3.803 9.197zM 17.518 25.98c1.513 1.513 3.34 2.269 5.48 2.269s3.969-0.756 5.48-2.269c1.512-1.514 2.27-3.34 2.27-5.481c0-2.141-0.756-3.968-2.27-5.479c-1.514-1.513-3.34-2.271-5.48-2.271c-2.142 0-3.969 0.757-5.48 2.271c-1.512 1.513-2.27 3.34-2.27 5.479c0 2.143 0.756 3.969 2.27 5.481zM 19.372 16.872c0.998-0.998 2.207-1.498 3.627-1.498s2.629 0.5 3.627 1.498s1.498 2.207 1.498 3.627s-0.5 2.63-1.498 3.628 s-2.207 1.497-3.627 1.497s-2.629-0.499-3.627-1.497s-1.498-2.208-1.498-3.628s0.5-2.629 1.498-3.627zM 21.233 22.265c0.49 0.489 1.078 0.733 1.766 0.733s1.274-0.244 1.766-0.733c0.49-0.49 0.734-1.078 0.734-1.767c0-0.687-0.244-1.273-0.734-1.765s-1.078-0.735-1.766-0.735s-1.274 0.245-1.766 0.735c-0.49 0.49-0.734 1.078-0.734 1.765c0 0.688 0.244 1.275 0.734 1.767z"/>
		<rect style="opacity:0" x="0" y="0" width="45" height="40"/>
	</g><!-- target -->
	<g id="pointystar_def">
		<path d="M25.685 13.999l6.5-2.688l-2.705 6.5L36 20.499l-6.52 2.688l2.705 6.5l-6.5-2.688l-2.688 6.5l-2.688-6.5l-6.5 2.688l2.688-6.5l-6.5-2.688l6.5-2.688l-2.688-6.5l6.482 2.688l2.705-6.5l2.688 6.5z"/>
		<rect style="opacity:0" x="0" y="0" width="45" height="40"/>
	</g><!-- pointystar -->
	<g id="shipswheel_def">
		<path d="M19.89 19.277c-0.244-0.06-0.436-0.089-0.574-0.089c-0.23 0-0.512 0.124-0.836 0.372c-0.313-0.248-0.613-0.372-0.904-0.372s-0.6 0.124-0.924 0.372c-0.314-0.248-0.598-0.372-0.844-0.372c-0.141 0-0.328 0.029-0.563 0.089c0.246-1.231 0.721-2.37 1.424-3.416c0.256 0.453 0.656 0.72 1.201 0.801c0.094 0.755 0.521 1.185 1.289 1.288c0.057 0.535 0.316 0.93 0.781 1.186l-0.051 0.143v-0.001zM 21.685 32.196c0 0.87 0.432 1.305 1.291 1.305c0.848 0 1.271-0.435 1.271-1.305c0-0.505-0.262-0.91-0.783-1.216c2.514-0.117 4.701-1.032 6.561-2.744c-0.061 0.248-0.09 0.438-0.09 0.566c0 0.841 0.439 1.261 1.314 1.261s1.313-0.438 1.313-1.313s-0.426-1.313-1.277-1.313c-0.131 0-0.313 0.029-0.551 0.089c1.725-1.851 2.646-4.026 2.766-6.529c0.314 0.544 0.717 0.815 1.207 0.815c0.861 0 1.293-0.438 1.293-1.313s-0.432-1.313-1.293-1.313c-0.502 0-0.904 0.267-1.207 0.798c0-2.362-0.922-4.533-2.766-6.513c0.248 0.061 0.438 0.09 0.568 0.09c0.84 0 1.26-0.438 1.26-1.313 s-0.438-1.313-1.313-1.313s-1.314 0.42-1.314 1.26c0 0.131 0.029 0.313 0.09 0.55c-1.895-1.699-4.082-2.608-6.561-2.727c0.521-0.293 0.783-0.698 0.783-1.217c0-0.869-0.424-1.305-1.271-1.305c-0.859 0-1.291 0.436-1.291 1.305c0 0.519 0.268 0.924 0.803 1.217c-2.463 0.117-4.635 1.026-6.516 2.727c0.059-0.236 0.088-0.419 0.088-0.55c0-0.84-0.438-1.26-1.313-1.26s-1.313 0.438-1.313 1.313s0.414 1.313 1.242 1.313c0.143 0 0.336-0.029 0.584-0.09c-1.844 1.979-2.764 4.149-2.764 6.513c-0.305-0.531-0.705-0.798-1.207-0.798c-0.863 0-1.293 0.438-1.293 1.313s0.43 1.313 1.293 1.313c0.49 0 0.893-0.271 1.207-0.815c0.119 2.503 1.033 4.68 2.746 6.529c-0.236-0.06-0.42-0.089-0.549-0.089c-0.842 0-1.262 0.438-1.262 1.313s0.439 1.313 1.314 1.313s1.313-0.42 1.313-1.261c0-0.13-0.029-0.318-0.09-0.566c1.846 1.712 4.02 2.627 6.518 2.744c-0.535 0.306-0.803 0.711-0.803 1.216zM 19.943 21.866c-0.465 0.256-0.73 0.651-0.801 1.186c-0.766 0.095-1.195 0.522-1.289 1.288 c-0.521 0.07-0.916 0.337-1.184 0.802c-0.703-1.046-1.178-2.189-1.424-3.435c0.232 0.071 0.422 0.106 0.563 0.106c0.234 0 0.518-0.131 0.846-0.392c0.313 0.261 0.619 0.392 0.922 0.392c0.291 0 0.592-0.131 0.904-0.392c0.324 0.261 0.6 0.392 0.818 0.392c0.15 0 0.342-0.035 0.574-0.106l0.068 0.159h0.002zM 21.773 23.608c-0.059 0.244-0.088 0.436-0.088 0.574c0 0.231 0.123 0.506 0.367 0.817c-0.244 0.337-0.367 0.65-0.367 0.94c0 0.278 0.123 0.581 0.367 0.904c-0.244 0.328-0.367 0.61-0.367 0.846c0 0.141 0.029 0.328 0.088 0.563c-1.23-0.246-2.369-0.721-3.414-1.425c0.465-0.255 0.725-0.655 0.783-1.201c0.777-0.081 1.205-0.505 1.287-1.271c0.543-0.069 0.949-0.336 1.221-0.802l0.123 0.053v0.001zM 21.65 17.445c-0.26-0.464-0.66-0.726-1.201-0.783c-0.082-0.777-0.512-1.206-1.289-1.288c-0.07-0.545-0.336-0.945-0.801-1.201c1.045-0.703 2.184-1.185 3.414-1.442c-0.059 0.247-0.088 0.439-0.088 0.581c0 0.245 0.129 0.527 0.385 0.845 c-0.256 0.325-0.385 0.633-0.385 0.923c0 0.291 0.129 0.593 0.385 0.905c-0.256 0.325-0.385 0.604-0.385 0.836c0 0.14 0.035 0.331 0.105 0.574l-0.143 0.052l0.002-0.001zM 21.763 21.738c-0.344-0.342-0.516-0.754-0.516-1.237c0-0.481 0.172-0.896 0.516-1.237c0.344-0.341 0.758-0.513 1.244-0.513c0.484 0 0.895 0.171 1.234 0.513c0.338 0.343 0.506 0.756 0.506 1.237c0 0.483-0.168 0.896-0.506 1.237s-0.75 0.513-1.234 0.513c-0.486 0-0.9-0.171-1.244-0.513zM 26.847 17.95c0.764-0.104 1.191-0.533 1.283-1.288c0.543-0.081 0.938-0.348 1.18-0.801c0.715 1.046 1.195 2.185 1.441 3.416c-0.234-0.06-0.428-0.089-0.58-0.089c-0.234 0-0.51 0.124-0.826 0.372c-0.324-0.248-0.629-0.372-0.918-0.372s-0.59 0.124-0.902 0.372c-0.324-0.248-0.602-0.372-0.834-0.372c-0.139 0-0.33 0.029-0.57 0.089l-0.07-0.143c0.475-0.256 0.74-0.649 0.799-1.186l-0.002 0.001zM 26.691 21.813c0.232 0 0.51-0.131 0.834-0.392c0.313 0.261 0.623 0.392 0.938 0.392c0.266 0 0.561-0.131 0.885-0.392 c0.328 0.261 0.604 0.392 0.824 0.392c0.152 0 0.346-0.035 0.58-0.106c-0.246 1.244-0.721 2.389-1.422 3.435c-0.268-0.465-0.66-0.73-1.182-0.802c-0.092-0.766-0.52-1.193-1.283-1.288c-0.07-0.533-0.336-0.93-0.799-1.186l0.055-0.159c0.242 0.071 0.434 0.106 0.57 0.106zM 25.564 24.357c0.092 0.766 0.525 1.188 1.301 1.271c0.059 0.546 0.318 0.946 0.781 1.201c-1.063 0.704-2.223 1.179-3.484 1.425c0.1-0.233 0.148-0.422 0.148-0.563c0-0.234-0.143-0.518-0.428-0.846c0.285-0.323 0.428-0.632 0.428-0.923c0-0.277-0.143-0.586-0.428-0.923c0.285-0.313 0.428-0.586 0.428-0.818c0-0.139-0.049-0.329-0.148-0.573l0.205-0.053c0.258 0.466 0.656 0.731 1.197 0.802zM 24.31 16.819c0-0.244-0.143-0.522-0.428-0.836c0.285-0.313 0.428-0.614 0.428-0.905c0-0.29-0.143-0.598-0.428-0.923c0.285-0.316 0.428-0.593 0.428-0.827c0-0.152-0.049-0.352-0.148-0.599c1.262 0.259 2.424 0.739 3.484 1.442c-0.463 0.256-0.729 0.656-0.799 1.201c-0.773 0.082-1.203 0.511-1.283 1.288 c-0.541 0.059-0.947 0.319-1.217 0.783l-0.186-0.052c0.1-0.243 0.148-0.436 0.148-0.574v0.001z"/>
		<rect style="opacity:0" x="0" y="0" width="45" height="40"/>
	</g><!-- shipswheel -->
	<g id="smiley_def">
		<path d="M14.579 28.922c-2.324-2.322-3.486-5.128-3.486-8.414c0-3.287 1.162-6.096 3.486-8.424c2.324-2.327 5.131-3.491 8.42-3.491s6.096 1.164 8.42 3.491c2.324 2.328 3.486 5.137 3.486 8.424c0 3.286-1.162 6.092-3.486 8.414c-2.324 2.321-5.131 3.482-8.42 3.482s-6.096-1.161-8.42-3.482zM 32.657 30.157c2.666-2.666 3.998-5.885 3.998-9.658c0-3.771-1.332-6.99-3.998-9.656s-5.887-3.999-9.658-3.999c-3.773 0-6.992 1.333-9.658 3.999s-3.998 5.885-3.998 9.656c0 3.773 1.332 6.992 3.998 9.658s5.885 3.998 9.658 3.998c3.771 0 6.992-1.332 9.658-3.998zM 17.5 26.954c1.42 1.386 3.25 2.076 5.49 2.076s4.07-0.69 5.498-2.076c1.424-1.384 2.271-3.296 2.541-5.735h-1.063c-0.859 3.75-3.182 5.625-6.969 5.625s-6.111-1.875-6.969-5.625h-1.064c0.271 2.439 1.113 4.353 2.533 5.735H17.5zM 20.143 17.649c0.426-0.42 0.639-0.929 0.639-1.525c0-0.596-0.211-1.104-0.629-1.524c-0.42-0.42-0.932-0.631-1.537-0.631c-0.594 0-1.102 0.211-1.52 0.631c-0.42 0.421-0.629 0.93-0.629 1.524 c0 0.598 0.209 1.105 0.629 1.525c0.418 0.421 0.926 0.631 1.52 0.631s1.104-0.21 1.527-0.631zM 28.901 17.649c0.42-0.42 0.629-0.929 0.629-1.525c0-0.596-0.209-1.104-0.629-1.524c-0.418-0.42-0.926-0.631-1.52-0.631s-1.104 0.211-1.527 0.631c-0.426 0.421-0.637 0.93-0.637 1.524c0 0.598 0.211 1.105 0.637 1.525c0.426 0.421 0.936 0.631 1.527 0.631c0.594 0 1.102-0.21 1.52-0.631z"/>
		<rect style="opacity:0" x="0" y="0" width="45" height="40"/>
	</g><!-- smiley -->
	<g id="star_def">
		<path d="M25.932 16.499l-2.934-9c2.846 0 5.375 0.809 7.588 2.422c2.215 1.615 3.807 3.809 4.779 6.578h-9.434zM 27.725 22.061l7.641-5.544c0.422 1.498 0.633 2.849 0.633 4.053c0 4.27-1.785 7.755-5.357 10.456l-2.916-8.965zM 22.999 25.481l7.643 5.544c-2.412 1.648-4.959 2.474-7.643 2.474c-2.67 0-5.217-0.824-7.641-2.474l7.641-5.544zM 18.274 22.061l-2.916 8.965c-3.572-2.818-5.359-6.315-5.359-10.491c0-1.216 0.219-2.555 0.65-4.018l7.625 5.544zM 20.083 16.499h-9.434c0.949-2.759 2.535-4.948 4.762-6.569c2.225-1.619 4.754-2.431 7.588-2.431l-2.916 9z"/>
		<rect style="opacity:0" x="0" y="0" width="45" height="40"/>
	</g><!-- star -->
</defs>
<rect id="hilite_box" style="fill:none;stroke:black;visibility:hidden" x="0" y="0" width="45" height="40"/>
<use id="snowflake" xlink:href="#snowflake_def" x="10" y="258" onclick="clone_me(evt)" onmouseover="hilite_btn(evt)" onmouseout="hilite_btn(evt)"/>
<use id="sun" xlink:href="#sun_def" x="57" y="258" onclick="clone_me(evt)" onmouseover="hilite_btn(evt)" onmouseout="hilite_btn(evt)"/>
<use id="flower" xlink:href="#flower_def" x="105" y="258" onclick="clone_me(evt)" onmouseover="hilite_btn(evt)" onmouseout="hilite_btn(evt)"/>
<use id="target" xlink:href="#target_def" x="152" y="258" onclick="clone_me(evt)" onmouseover="hilite_btn(evt)" onmouseout="hilite_btn(evt)"/>
<use id="pointystar" xlink:href="#pointystar_def" x="200" y="258" onclick="clone_me(evt)" onmouseover="hilite_btn(evt)" onmouseout="hilite_btn(evt)"/>
<use id="shipswheel" xlink:href="#shipswheel_def" x="247" y="258" onclick="clone_me(evt)" onmouseover="hilite_btn(evt)" onmouseout="hilite_btn(evt)"/>
<use id="smiley" xlink:href="#smiley_def" x="295" y="258" onclick="clone_me(evt)" onmouseover="hilite_btn(evt)" onmouseout="hilite_btn(evt)"/>
<use id="star" xlink:href="#star_def" x="342" y="258" onclick="clone_me(evt)" onmouseover="hilite_btn(evt)" onmouseout="hilite_btn(evt)"/>
<g id="border">
	<path d="M400.5 300.5H0.5V0.5h400v300z" class="st2"/>
</g><!-- border -->
<g id="zorder">
	<use id="zbomb" xlink:href="#bomb" style="fill:#D90000" onclick="arrange_me(evt)"/>
	<use id="zphone" xlink:href="#phone" style="fill:#34AACD" onclick="arrange_me(evt)"/>
	<use id="zairplane" xlink:href="#airplane" style="fill:#409D27" onclick="arrange_me(evt)"/>
	<use id="zflag" xlink:href="#flag" style="fill:#0000FF" onclick="arrange_me(evt)"/>
	<use id="zhourglass" xlink:href="#hourglass" style="fill:#FF00FF" onclick="arrange_me(evt)"/>
	<use id="zfloppy" xlink:href="#floppy" style="fill:#666600" onclick="arrange_me(evt)"/>
	<use id="zhand" xlink:href="#hand" style="fill:#00FF00" onclick="arrange_me(evt)"/>
	<use id="zbigx" xlink:href="#bigx" style="fill:#00FFFF" onclick="arrange_me(evt)"/>
</g>

<script><![CDATA[
	/*
	* This function returns the innermost SVG object that triggered the event
	* and that has a non-null id attribute. This can be either the event's
	* target itself, or its parent node, or the first ancestor of the target
	* with a non-null id.
	*
	* Input Parameters:
	*   event - The JavaScript object describing the triggering event
	* Return Value:
	*   The target node or first target's ancestor with a non-null id.
	*/
	function get_target (event)
	{
		var target = event.getTarget();
		while (target && !target.getAttribute('id'))
			target = target.getParentNode();
		return target;
	}

	/*
	* This function places the highlighting box around the indicated object and
	* makes it visible or invisible.
	*
	* Input Parameters:
	*   target     - SVG element where the box should be positioned on.
	*   visibility - the setting for the box's visibility property.
	*/
	function move_box (target, visibility)
	{
		var box_name = 'hilite_box';
		var svgdoc = target.getOwnerDocument();
		var svgobj = svgdoc.getElementById (box_name);
		if (svgobj)
		{
			svgobj.setAttribute ('x', target.getAttribute('x'));
			svgobj.setAttribute ('y', target.getAttribute('y'));
			var svgstyle = svgobj.getStyle();
			if (svgstyle)
				svgstyle.setProperty ('visibility', visibility);
		}
	}

	/*
	* This function makes the highlighting box visible or invisible around
	* an icon depending on whether the mouse was moved over or out-of the icon.
	*
	* Input Parameters:
	*   event - The JavaScript object describing the triggering event
	*/
	function hilite_btn (event)
	{
		var target = get_target(event);
		switch (event.getType()+'')
		{
			case 'mouseover':
				move_box (target, 'visible');
				break;
			case 'mouseout':
				move_box (target, 'hidden');
				break;
		}
	}

	/*
	* This function creates a duplicate of the object that was clicked and
	* adds it to the "contents" group:
	* The object's node is the event.target.
	* The node is cloned.
	* The cloned node's x & y attributes and its fill property or set to
	* random values.
	* The cloned node is appended to the contents group.
	* 
	* Input Parameters:
	*   event - The JavaScript object describing the triggering event
	*/
	function clone_me (event)
	{
		// List of colors assigned randomly to the clone object.
		var colors = new Array
			('red', 'blue', 'yellow', 'cyan', 'green', 'gray', 'white', 'brown');

		// Retrieve node of object that was clicked on.
		var target = get_target(event);

		var svgdoc = target.getOwnerDocument();

		// Show highlight box around the icon that was clicked on.
		// (This should already be done because of the mouseover event, but the
		// display might not be updated by the time this event is triggered. This
		// call makes sure the display gets updated.)
		move_box (target, 'visible');

		// Determine random values for the new elements x, y, and fill attributes
		// and properties.
		var x = 10+335*Math.random();
		var y = 10+200*Math.random();
		var fill = Math.floor(colors.length*Math.random());
		if (fill == colors.length) fill = colors.length-1;
		fill = colors[fill];

		// Clone the object and set its attributes and properties.
		var newnode = target.cloneNode(false);
		newnode.setAttribute ('x', x);
		newnode.setAttribute ('y', y);
		newnode.getStyle().setProperty ('fill', fill);

		// Retrieve the node for "contents" group.
		var contents = svgdoc.getElementById ('contents');

		// Insert the cloned object into the contents group node.
		newnode = contents.appendChild (newnode);
	}

	/*
	* This function moves the object that was clicked to the back of all other 
	* objects in its group:
	* The object's node is the event.target.
	* The node is removed from its parent node (its container group).
	* The node is reinserted into its parent node before the first child node
	* in the parent.
	* 
	* Input Parameters:
	*   event - The JavaScript object describing the triggering event
	*/
	function arrange_me (event)
	{
		// Retrieve node of object that was clicked on.
		var target = get_target(event);

		// Retrieve node of object's parent group.
		var groupnode = target.getParentNode();

		// Remove object's node from its group node.
		groupnode.removeChild (target);

		// Insert object's node into its group node before the first child of the
		// group.
		groupnode.insertBefore (target, groupnode.getFirstChild());
	}
]]></script>
</svg>
