<?xml version="1.0" standalone="yes"?>
<svg viewBox="0 0 125 137">
<path style="fill:rgb(29,76,133)" d="M 125 0 L 125 1 C 71.43 8.69 2.029 -22.03 0 37 L 0 0 L 125 0 z"/>
<path style="fill:rgb(36,104,180)" d="M 125 1 L 125 25 L 103 36 C 98.43 30.91 100.8 19.22 90 20 C 83.3 16.24 76.37 10.26 68 10 C 63.13 6.371 52.28 6.981 50 14 L 34 23 C 22.73 26.57 19.77 47.89 24 55 C 26.83 58.42 24.26 63.7 22 67 C 18.08 76.31 29.83 83.8 32 91 L 32 93 L 31 93 L 23 102 C 16.71 103.9 10.24 107.6 5 111 L 0 114 L 0 37 C 2.029 -22.03 71.43 8.69 125 1 z"/>
<path style="fill:rgb(49,59,98)" d="M 68 10 C 61.32 8.999 55.92 12.39 50 14 C 52.28 6.981 63.13 6.371 68 10 z"/>
<path style="fill:rgb(54,25,23)" d="M 68 10 C 76.37 10.26 83.3 16.24 90 20 C 98.64 24.08 97.78 33.38 99 41 C 103.9 45.74 108.3 53.56 103 61 C 99.08 69.76 91.45 81.19 92 96 L 88 104 C 86.18 108.9 83.21 113.9 79 117 C 76.54 112.1 69.89 114 75.75 107.3 L 70 109 C 64.75 113.7 70.31 77.11 58 91 C 53.69 89.18 48.76 95.94 51 100 L 45 109 L 43 112 L 42 111 L 32 93 L 32 91 C 29.95 80.97 25.86 74.62 22 67 C 24.26 63.7 26.83 58.42 24 55 C 25.59 43.67 26.74 30.16 34 23 L 50 14 C 55.92 12.39 61.32 8.999 68 10 z"/>
<path style="fill:rgb(33,76,119)" d="M 125 25 L 125 94 C 109 91.15 114.3 108.3 101 108 L 97 107 C 108.7 104.4 96.91 77.77 92 96 C 91.45 81.19 99.08 69.76 103 61 C 107.5 57.82 109.4 46.35 103.3 44.75 C 108.4 38.13 103.2 40.69 99 41 C 97.78 33.38 98.64 24.08 90 20 C 100.8 19.22 98.43 30.91 103 36 L 125 25 z"/>
<path style="fill:rgb(100,49,22)" d="M 78 27 L 76 27 L 72 26 L 62 24 C 56.55 20 52.11 24.77 49 29 C 46.56 14.66 69.42 23.16 78 27 z"/>
<path style="fill:rgb(174,100,53)" d="M 62 24 C 57.9 22.83 55.69 27.38 53 29 C 46.19 32.97 43.3 41.59 40 49 C 38.2 42.67 44.28 34.02 49 29 C 52.11 24.77 56.55 20 62 24 z"/>
<path style="fill:rgb(33,49,84)" d="M 34 23 C 26.74 30.16 25.59 43.67 24 55 C 19.77 47.89 22.73 26.57 34 23 z"/>
<path style="fill:rgb(249,136,55)" d="M 62 24 L 72 26 C 74.78 32.34 86.49 43.85 72 50 C 70.53 40.24 65.88 28.51 53 29 C 55.69 27.38 57.9 22.83 62 24 z"/>
<path style="fill:rgb(223,109,50)" d="M 76 27 C 87.94 33.29 88.56 53.78 72 53 L 70 50 L 72 50 C 86.49 43.85 74.78 32.34 72 26 L 76 27 z"/>
<path style="fill:rgb(164,83,35)" d="M 78 27 C 80.95 28.47 86.38 28.56 88 33 C 89.92 38.73 90.72 44.24 90.75 49.75 C 85.13 51.09 74.78 50.33 75.75 58.75 L 74 56 C 70.55 56.61 69.51 55.41 72 53 C 88.56 53.78 87.94 33.29 76 27 L 78 27 z"/>
<path style="fill:rgb(249,163,75)" d="M 53 29 C 65.88 28.51 70.53 40.24 72 50 L 70 50 L 64 49 L 63 47 C 72.27 31.27 47.37 27.76 49 47 C 48.33 48.46 46.85 50.33 45 50 L 40 49 C 43.3 41.59 46.19 32.97 53 29 z"/>
<path style="fill:rgb(252,192,97)" d="M 63 47 L 49 47 C 47.37 27.76 72.27 31.27 63 47 z"/>
<path style="fill:rgb(119,64,30)" d="M 92 67 C 91.66 60.19 81.54 61.51 78 64 C 81.39 72.61 87.14 77.04 92 68 C 92.36 71.55 89.42 74.01 87.75 76.75 C 78.89 69.93 68.31 74.62 55.25 72.25 C 53.98 86.92 39.21 77.16 39 70 C 46.07 73.69 47.03 78.97 55 70 C 58.03 71.84 62.4 71.7 66 71 L 71 72 C 78.93 71.61 71.76 61.21 74 56 L 75.75 58.75 C 74.78 50.33 85.13 51.09 90.75 49.75 C 90.72 44.24 89.92 38.73 88 33 C 94.45 39.66 96.31 58.54 92 67 z"/>
<path style="fill:rgb(30,48,78)" d="M 103 61 C 108.3 53.56 103.9 45.74 99 41 C 103.2 40.69 108.4 38.13 103.3 44.75 C 109.4 46.35 107.5 57.82 103 61 z"/>
<path style="fill:rgb(189,123,75)" d="M 63 47 L 64 49 C 57.17 48.05 53.25 50.39 50 55 C 45.93 55.91 50.75 51.05 47 52 L 45 50 C 46.85 50.33 48.33 48.46 49 47 L 63 47 z"/>
<path style="fill:rgb(151,85,48)" d="M 27 61 C 34.54 66.09 32.64 42.03 27.25 53.75 L 26 52 C 38.13 32.88 35.19 85.94 27 61 z"/>
<path style="fill:rgb(149,93,54)" d="M 45 50 L 47 52 C 29.42 46.27 39.85 76.49 55 69 C 60.03 65.23 60.6 69.4 55 70 C 47.03 78.97 46.07 73.69 39 70 C 36.77 64.11 33.99 50.54 40 49 L 45 50 z"/>
<path style="fill:rgb(151,88,54)" d="M 64 49 L 70 50 L 72 53 C 68.88 52.16 66.31 54.46 65 57 C 64.34 56.98 62.85 56.82 63 58 C 50.51 61.81 60.93 54.3 50 55 C 53.25 50.39 57.17 48.05 64 49 z"/>
<path style="fill:rgb(229,139,80)" d="M 27 61 C 25.18 58.44 26.31 55 26 52 L 27.25 53.75 C 32.64 42.03 34.54 66.09 27 61 z"/>
<path style="fill:rgb(245,151,78)" d="M 47 52 C 50.75 51.05 45.93 55.91 50 55 C 60.93 54.3 50.51 61.81 63 58 C 73.16 62.83 56.26 65.46 55 69 C 39.85 76.49 29.42 46.27 47 52 z"/>
<path style="fill:rgb(228,139,76)" d="M 72 53 C 69.51 55.41 70.55 56.61 74 56 C 71.76 61.21 78.93 71.61 71 72 C 70.72 67.56 75.41 57.33 70 57 C 67.48 59.66 67.53 57.58 65 57 C 66.31 54.46 68.88 52.16 72 53 z"/>
<path style="fill:rgb(198,113,67)" d="M 65 57 C 67.53 57.58 67.48 59.66 70 57 C 70.65 63.27 58.58 67.84 66 71 C 62.4 71.7 58.03 71.84 55 70 C 60.6 69.4 60.03 65.23 55 69 C 56.26 65.46 73.16 62.83 63 58 C 62.85 56.82 64.34 56.98 65 57 z"/>
<path style="fill:rgb(250,188,107)" d="M 71 72 L 66 71 C 58.58 67.84 70.65 63.27 70 57 C 75.41 57.33 70.72 67.56 71 72 z"/>
<path style="fill:rgb(184,96,47)" d="M 92 67 L 92 68 C 87.14 77.04 81.39 72.61 78 64 C 81.54 61.51 91.66 60.19 92 67 z"/>
<path style="fill:rgb(36,32,67)" d="M 22 67 C 25.86 74.62 29.95 80.97 32 91 C 29.83 83.8 18.08 76.31 22 67 z"/>
<path style="fill:rgb(121,70,41)" d="M 58 80 L 69 80 C 85.31 82.67 52.04 90.23 58 80 z"/>
<path style="fill:rgb(36,119,209)" d="M 22 86 C 30.18 85.12 27.4 98.83 21 100 C 16.62 93.47 12.52 89.88 22 86 z"/>
<path style="fill:rgb(98,64,37)" d="M 79 117 L 78 119 C 73.07 120.6 69.86 113.5 67 116 C 63.72 93.85 58.41 88.53 51 100 C 48.76 95.94 53.69 89.18 58 91 C 70.31 77.11 64.75 113.7 70 109 L 75.75 107.3 C 69.89 114 76.54 112.1 79 117 z"/>
<path style="fill:rgb(37,99,167)" d="M 97 107 C 93.59 107.3 90.6 105.9 88 104 L 92 96 C 96.91 77.77 108.7 104.4 97 107 z"/>
<path style="fill:rgb(252,248,231)" d="M 31 93 L 33 107 C 30.48 117.8 49.26 117.8 47 127 C 46.65 121.7 41.43 121.5 38 119 C 35.06 112 30.35 120.5 26 120 C 18.1 119.8 18.97 113.4 22 108 L 23 102 L 31 93 z"/>
<path style="fill:rgb(237,219,170)" d="M 32 93 L 42 111 C 39.13 114.4 35.87 103.6 33 107 L 31 93 L 32 93 z"/>
<path style="fill:rgb(117,90,59)" d="M 67 116 C 56.93 121.9 58.94 106 57.75 99.25 C 54.1 105.5 58.03 118.6 45 109 L 51 100 C 58.41 88.53 63.72 93.85 67 116 z"/>
<path style="fill:rgb(27,47,85)" d="M 125 94 L 125 114 L 123 114 C 122.7 112.7 121.3 111.7 120 112 L 101 108 C 114.3 108.3 109 91.15 125 94 z"/>
<path style="fill:rgb(164,105,67)" d="M 67 116 C 69.86 113.5 73.07 120.6 78 119 L 77 122 C 74.43 126 74.14 130.6 73 135 L 63 136 L 60 131 C 67.3 123.6 41.44 110.9 54 124 C 50.21 120.5 44.81 116.8 43 112 L 45 109 C 58.03 118.6 54.1 105.5 57.75 99.25 C 58.94 106 56.93 121.9 67 116 z"/>
<path style="fill:rgb(232,178,130)" d="M 23 102 L 22 108 C 19.44 108.9 16.91 109.4 18 113 L 5 111 C 10.24 107.6 16.71 103.9 23 102 z"/>
<path style="fill:rgb(145,104,64)" d="M 97 107 L 101 108 L 120 112 C 111.6 113.1 109.7 112.4 104 117 C 95.17 114.6 88.42 112.4 79 117 C 83.21 113.9 86.18 108.9 88 104 C 90.6 105.9 93.59 107.3 97 107 z"/>
<path style="fill:rgb(250,211,112)" d="M 42 111 L 43 112 C 44.81 116.8 50.21 120.5 54 124 L 56 126 C 54.54 126.8 50.29 134 46 129 C 48.02 129.5 47.93 128.2 47 127 C 49.26 117.8 30.48 117.8 33 107 C 35.87 103.6 39.13 114.4 42 111 z"/>
<path style="fill:rgb(251,242,180)" d="M 22 108 C 18.97 113.4 18.1 119.8 26 120 L 14 122 L 18 113 C 16.91 109.4 19.44 108.9 22 108 z"/>
<path style="fill:rgb(249,189,85)" d="M 18 113 L 14 122 C 17.38 125.4 21.86 128.5 28 127 C 26.98 132.4 28.12 132.2 32 136 L 9 136 L 0 120 L 0 114 L 5 111 L 18 113 z"/>
<path style="fill:rgb(183,123,64)" d="M 120 112 C 121.3 111.7 122.7 112.7 123 114 C 115.4 110.6 111.8 122.5 105 119 L 104 117 C 109.7 112.4 111.6 113.1 120 112 z"/>
<path style="fill:rgb(192,144,91)" d="M 104 117 L 105 119 C 104.4 120.8 106.6 122 103 123 C 98.91 123.9 97.48 119.8 95 118 C 90.79 112.9 83.39 118.6 78 119 L 79 117 C 88.42 112.4 95.17 114.6 104 117 z"/>
<path style="fill:rgb(218,152,77)" d="M 123 114 L 125 114 L 125 119 C 114.9 114 120.3 128.2 119 136 L 116 136 C 117.4 127.2 114.6 110.6 111 126 C 109.8 125.8 110 127.3 110 128 C 107 129.9 110.2 122.4 105 125 C 107.9 123.2 105.8 122.7 103 123 C 106.6 122 104.4 120.8 105 119 C 111.8 122.5 115.4 110.6 123 114 z"/>
<path style="fill:rgb(154,104,60)" d="M 38 119 C 35.35 124.3 23.84 118.3 28 126 L 28 127 C 21.86 128.5 17.38 125.4 14 122 L 26 120 C 30.35 120.5 35.06 112 38 119 z"/>
<path style="fill:rgb(208,180,152)" d="M 95 118 C 97.67 122.8 91.19 122.2 88 122 C 82.68 116.7 80.96 126 77 122 L 78 119 C 83.39 118.6 90.79 112.9 95 118 z"/>
<path style="fill:rgb(143,78,35)" d="M 60 131 L 56 126 L 54 124 C 41.44 110.9 67.3 123.6 60 131 z"/>
<path style="fill:rgb(252,201,111)" d="M 125 119 L 125 136 L 119 136 C 120.3 128.2 114.9 114 125 119 z"/>
<path style="fill:rgb(163,104,54)" d="M 103 123 C 105.8 122.7 107.9 123.2 105 125 L 89 136 L 83 136 L 88 122 C 91.19 122.2 97.67 122.8 95 118 C 97.48 119.8 98.91 123.9 103 123 z"/>
<path style="fill:rgb(251,213,120)" d="M 116 136 L 111 136 L 111 126 C 114.6 110.6 117.4 127.2 116 136 z"/>
<path style="fill:rgb(216,175,129)" d="M 47 127 C 47.93 128.2 48.02 129.5 46 129 C 43.06 131.7 39.87 119.6 37 125 C 34.14 124.5 30.67 123.2 28 126 C 23.84 118.3 35.35 124.3 38 119 C 41.43 121.5 46.65 121.7 47 127 z"/>
<path style="fill:rgb(251,239,189)" d="M 9 136 L 0 136 L 0 120 L 9 136 z"/>
<path style="fill:rgb(249,244,225)" d="M 88 122 L 83 136 L 73 135 C 74.14 130.6 74.43 126 77 122 C 80.96 126 82.68 116.7 88 122 z"/>
<path style="fill:rgb(251,239,169)" d="M 46 129 C 50.29 134 54.54 126.8 56 126 L 60 131 L 63 136 L 43 136 C 35.32 131.3 42.74 132.2 37 125 C 39.87 119.6 43.06 131.7 46 129 z"/>
<path style="fill:rgb(252,224,119)" d="M 37 125 C 42.74 132.2 35.32 131.3 43 136 L 32 136 C 28.12 132.2 26.98 132.4 28 127 L 28 126 C 30.67 123.2 34.14 124.5 37 125 z"/>
<path style="fill:rgb(246,180,83)" d="M 105 125 C 110.2 122.4 107 129.9 110 128 C 110 127.3 109.8 125.8 111 126 L 111 136 L 89 136 L 105 125 z"/>
<path style="fill:rgb(134,134,138)" d="M 73 135 L 83 136 L 89 136 L 111 136 L 116 136 L 119 136 L 125 136 L 125 137 L 0 137 L 0 136 L 9 136 L 32 136 L 43 136 L 63 136 L 73 135 z"/>
</svg>
