<?xml version="1.0" standalone="no"?>
<!DOCTYPE svg PUBLIC "-//W3C//DTD SVG 20001102//EN"
  "http://www.w3.org/TR/2000/CR-SVG-20001102/DTD/svg-20001102.dtd">

<svg viewBox="144 0 337 287">
<style type="text/css">
<![CDATA[
	@font-face{font-family:"Palatino-Bold";src:url(Palatino-Bold.eo1)}
	@font-face{font-family:"Palatino-BoldItalic";src:url(Palatino-BoldItalic.eo1)}
]]>
</style>
<g transform="matrix(1 0 0 -1 0 579)">

<!-- clip -->
<clipPath  id="clip1">
<rect x="144" y="292" width="337" height="287"  style="fill: none; stroke: black; stroke-width: 0"/>
</clipPath>
<!-- end clip -->



<g id="_LAYER_Land_and_Water" style="clip-path: url(#clip1)">

<path d="M363.5 493.5 l 0 53.5 40 0 0-53.5-40 0z" style="fill: #7BB3D4"/>

<path d="M481 578.5 l-340 0 0-32.5 340 0z" style="fill: #7BB3D4"/>

<path d="M401.43 292.5 l 79.57 0 0 286-79.57 0 0-286z" style="fill: #7BB3D4"/>

<path d="M457.93 298.89 l -.11.16c-4.36 6.29-10.79 15.76-11.47 17.13l-.48 1.05c-.72 1.63-1.67 3.22-4.63 3.17 0 0-.22-.01-.42-.02-.32.32-.94 1.01-2.16 2.55-1.38 1.74-2.81 2.84-4.17 3.55 .68.03 0 0 1.37.06l-.44 19.45-2.94-.01c-.22 0-3.38-.02-6.44-.06 .09.14.17.24.26.39l.92 1.52-.89 1.54c-.54.93-1.5 2.57-1.96 3.15-.76.97-1.8 1.36-2.8 1.43 .97.92 1.38 2.11 1.38 3.07 0 .08 0 .15-.01.23-.02.56-.25 6.25-.63 8.45-.2 1.11-.53 2.01-.82 2.79-.26.7-.43 1.27-.52 1.9 1 .28 0 0 5.5 1.53l-.71 20.17c0 0-2.35-.04-2.72-.05-.01.4 0 0-.04 2.92l-7.43-.47c0 0 .01-.43.01-.67-.18 0-.19-.01-.38-.01-.05.65 0 0-.1 1.31l-7.58-.42c0 0 .03-1 .05-1.86-1.4-.08-2.64-.91-3.41-2.15-.05-.01-.08-.02-.13-.04 0 1.05.29 2.7.44 3.6l.23 1.41c.03.23.13.71.58.89 .87-.04 0 0 8.88-.54 0 0 2.12 4.66 2.15 4.72 .53-.01 0 0 1.14-.02 0 0 .01 1.88.02 2.56 .33.72 0 0 .7 1.53 0 0-.53.02-.71.03 0 .73 0 0 .03 4.75l-3.23-.24c-.6-.04-1.22-.06-1.81-.08 .13.31 0 0 2.08 4.78l-3.19 1.48c-4.76 2.1-5.69 3.2-5.84 3.44-.36.81-.69 2.26-.95 3.74 1.35 0 2.04 0 2.71 0 1.31-1.04 0 0 11.77-9.39l-.37 21.01c0 0-6.2-.11-9.18-.16-.02.76 0 0-.1 5.63 0 0-4.37.2-5.93.27 .03.82 0 0 .1 2.52 0 0-1.07-.01-2-.03 .96.93 1.26 2.22 1.26 3.24 0 .34-.03.64-.08.89l.03-.12c0 0-.56 3.74-.62 4.16 0 .2.01 1.26.01 2.52 1.62.1 0 0 5.99.36 0 0 .12 3.33.14 3.92 .91.04 0 0 1.99.09l-.62 8.08c0 0-.85 0-1.64-.01-.01.33-.03 1.5-.04 2.23 0 .09.03.7.05 1.35 .16 0 0 0 3.96.07l-.6 12.97c0 0-.72-.01-1.44-.02 0 .79 0 0 .02 4.58 0 0-.45 0-.7 0-.18.55-1.17 3.54-1.23 3.71 .2.15 0 0 .59.44 0 0-.56.58-1.12 1.17-.06.19 0 0-.19.57 0 0-.23-.06-.28-.08-.34.35 0 0-4.13 4.3 0 0-3.11-2-4.13-2.66-.36.33-.69.65-.78.73-2.5 3.09-5.36 6.74-6.37 8.19 .02.29.05.56.05.87 0 1.15-.13 2.33-.45 2.92l-.08.15c0 0-.72 1.05-1.35 1.95 .9 1.14 0 0 3.09 3.9l-3.03 5.42-1.96-.36c0 0-3.14-.58-3.56-.66 .61.94 0 0 2.97 4.53 0 0-2.23 1.55-2.34 1.62 .01.01 0 0 .09.11 0 0-3.18 3.84-3.76 4.53 .63.64 0 0 1.36 1.37 0 0-3.6 3.48-3.64 3.52 .02.02 0 0 .15.14 0 0-2.47 2.49-2.69 2.71-.18.21-3.49 4-4.48 5.15 .02.02 0 0 .13.12 0 0-2.34 3.08-2.66 3.5 .51.47 
0  0 1.04.95l-5.93 5.46-2.03-1.96c-.61-.59-1.25-1.2-1.89-1.79-.17 4.12 0 0-.43 10.62l-4.2 3.62c0 0-.4-.35-.78-.68-.02.01 0 0-4.34 3.91 0 0-.35-.39-.59-.65-.66.4-5.73 3.44-6.22 3.74-.02.53 0 0-.11 2.73l-8.95-.56c0 0 .15-4.17.19-5.13-.79.33-1.26.53-1.68.71-.43.87-.83 1.68-1.29 2.62 .16.48 0 0 .75 2.18l-.6 1.14c-1.64 3.13-2.83 4.71-4.84 4.68-.44 0-1.05-.01-4.88-1.49l-1.76-.68c0 0-.01-.12-.01-.15-.55-.15-3.54-.98-3.68-1.02-.46.45 0 0-.97.96 0 0-5.19-2.71-6.22-3.25-2.13 1.87 0 0-5.22 4.57l-11.87-.73c0 0 6.05-6.87 7.82-8.87-.43-.01-.45-.01-.88-.01 0 .1 0 0 .01.32l-10.87 7.11c0 0-.81-.56-1.27-.88-1.15 1.64-3.18 2.22-4.98 2.01-5.09-.35-7.32-4.62-8.11-8.48-1.49.14-2.47-.37-3.07-.7-.22-.12-.43-.22-.69-.31-.01.21 0 0-.19 3.44l-7.64.13c0 0-.01-.2-.01-.23-.35-.01 0 0-3.74-.07 0 0 .06-3.16.06-3.17-.3 0 0 0-3.74-.06 0 0 .24-4.15.27-4.58-.61-.05-4.03-.36-5.03-.45-.01.2 0 0-.27 3.67 0 0-13.08-1.51-19.58-2.25-.09.34 0 0-.81 3.33l-2.57-.23c-.31-.03-7.48-.66-9.48-.97-.82-.12-2.31-.56-5.31-1.46-3.44-1.03-10.6-3.18-12.2-3.1-3.23.21-20.64-1.12-24.6-2.37-3.21-1.01-17.36-3.29-19.39-3.32-.38-.01-.55.03-.63.05-.03.05 0 0-.05.09-.32.61-.72 1.37-8.87 7.47l-.16.12-.27.14c-.05.03-1.35.77-2.11 2.92-.28.8-.73 1.55-1.32 2.24L141 568.68 l 0-24.18 L 348 548 l 46-98.5-38.5-36 L 389 350.33 l -4.67-28 44-29.66 28.39-.17c.52 1.02.94 1.85 1.17 2.22 .89 1.42.65 3 .13 4l-.09.17M411.92 408.04c.04-.07.08-.14.11-.2-.04.06-.08.12-.12.18 0 .01 0 .01.01.02M256.17 554.79c.01.3.01.32.01.64 .01-.25.03-.51.04-.68-.01.01-.03.02-.05.04M287.37 560.21 l -.89-.05c-1.06-.09-1.65-.13-2.7.71-1.23.99-1.36 2.45-1.36 2.51l-.03.39-.14.43c-.01.05-.02.11-.02.17 0 .57.65 1.63 1.29 2.28 .46-.27 0 0 1.91-1.14 0 0 .34.39.64.74 .64-.7 4.67-5.09 4.76-5.18-1.58-.47-3.04-.84-3.49-.87l.02 0M290.97 560.3c0 0 0 0 0 .01 0-.02 0 0 0-.12 .01.04 0 .08 0 .11M415.77 352.06c-.05.17-.06.2-.11.35 .41.01.78.02 1.14.03-.39-.15-.74-.28-1.03-.38z" style="fill: #B1D1E5"/>

<path d="M444.3 293.58c-1.2 2.18 0 0 2.42 1.98 0 0 5.17.09 8.41.02 3.23-.07 0 0 2.3 1.72 0 0-10.63 15.33-11.7 17.51-1.07 2.18-.82 2.57-2.37 2.55-1.56-.03-1.54-.67-4.98 3.66-3.44 4.34 0 0-6.92 3.5 0 0-34.13-.87-38-1.07-3.88-.2 0 0-7.55 2.45l1.61 4.04 4.83-2.5 42.51 1.93-.3 13.57c0 0-9.12-.04-11.51-.21-2.39-.17 0 0-1.64 1.46 0 0 3 2.12 3.32 2.26 .32.13 0 0 1.08 1.38 0 0-1.34 2.3-1.74 2.81-.39.51 0 0-1.29.24 0 0-3.79-1.88-5.34-2.04-1.54-.16 0 0-1.95.61l-.89 2.89c-.16 1.68 0 0-1.51 1.33 0 0-1.88.03-2.07.09l.04 1.62c0 0 6.92-.13 8.99.1 2.06.23 0 0 1.98 1.52 0 0-.25 6.07-.61 8.14-.36 2.06-1.42 3.34-1.46 5.73-.04 2.39 0 0 1.51 2.16l3.99 1.11-.52 14.86-1.49-.02 .22-12.35-1.35-.15-.21 15.25-1.42-.09 .28-15.38-1.62-.22-.72 14.79-2.06-.1-.04-5.18-1.62-.02-.5 6.39-1.75-.1 .19-6.72-1.87-.16c0 0-.14 3.88-.47 4.52-.34.64-1.5.43-1.93-.68-.43-1.11 0 0-3.01-1.29-3.75-.26-2.24 5.39-1.78 8.57 .46 3.18 0 0 3.24 3.49l7.32-.45 1.31 2.87c0 0-7.97.37-7.98.76 0 .39 0 0 .04 1.16l8.8-.16 .02 2.59c0 0-4.9-.35-5.11.17-.2.51 0 0-.92.69l-2.52.08-2.43 5.84 6.13-2.86 .99 2.28c-.45.25-6.77 2.72-7.85 5.16-1.08 2.44 0 0-1.69 7.99l7.24 0 7.61-6.07-.21 11.63-15.13-.27-.03 1.94 5.94.62-.06 3.36-6.09.28 .09 2.33-7.5-.13-29.52-27.04-1.59 2.04 23.04 20.72c0 0 6.3 5.87 7.13 6.27 .83.4 0 0 4.19.79 0 0 2.48 2.05 3.13 2.38 .64.33 0 0 .49 1.56l-.66 4.39 .03 5.56 6.07.37 .09 2.46-5.44-.11-.02 1.36 7.17.32-.17 2.2-6.92-.06-.02 1.23 5.11.09-.05 2.46-5.04-.16 .04 1.49 4.98.22 .09 2.39-5.05.04 .03 1.75 8.79.16-.32 6.98-6.72-.13-.16 1.61 5.3.22 .01 2.91-5.3.03-.21 1.03 4.62 2.09-.69 2.06-4.44-1.23-.4.9 3.57 2.65-1.64 1.72-4.03-2.6-2.63 2.48c0 0-7.41 9.11-7.22 9.57 .19.46 0 0 .01 3.04l-2.52 3.64 3.23 4.07-1.01 1.79c0 0-1.74-.23-3.48-.65-1.74-.42 0 0-2.65-.05-2.17 1.84 0 0-1.1 3.47l2.14 3.27-1.18.82-4.01-3.17-.47.64 3.61 4.27-.79.96-4.14-3.57-.73.96 3.3 3.36-.92 1.08-3.5-3.11-.8 1.28 4.83 4.87-1.26 1.21-5.28-4.62-2.12 2.61 5.09 4.62-1.38 1.4-5.29-4.17-1.06 1.15 5.22 4.43-3.49 4.01-4.27-3.64c-1.22-.41 0 0-1.11.76l4.64 4.29-1.26 1.66-4.96-4.3-1.33 1.66 5.54 
 5.08-1.45 1.33c0 0-4.64-4.49-5.41-4.89-.77-.4 0 0-1.37.56l-.57 13.89-1.25 1.08-6.49-5.61-.99 1.08 4.55 5.71-1.97 1.78-5.2-5.79-1.31 1.21 2.73 6.45-2.09 1.26-2.61-6.39-1.18.88-.36 9.24-2.97-.18 .25-6.92-7.03 2.98-2.35 4.74 .74 2.15c0 0-1.61 3.08-2.13 3.07-.51-.01 0 0-3.85-1.3l-.06-.65 4.01-7.3c-.04-1.1 0 0-1.34-.47l-1.31.36-4.45 6.84-1.99-.55c0 0 3.18-4.47 3.59-5.24 .4-.77 0 0-.71-.47l-5.79 5.72-1.93-1.01 4.15-4.45c0 0 0 0-1.48.23-1.5.23 0 0-3.41-.96l-9.27 8.11-4.52-.28c0 0 4.75-5.47 5.94-6.74 1.19-1.28 2.48-.99 3.72-1.75 1.24-.75 0 0 .5-2.58l-2.26-.04c0 0-.6.96-1.46 1.66-.85.7 0 0-2.13.22l-6.73-.06 .03 1.75-7.78 5.1-1.15-.8c0 0 3.76-4.2 5.08-5.53 1.32-1.34.8-1.35.95-2.57 .15-1.23 0 0-.74-1.89 0 0-4.44-1.44-5.8-1.46-1.36-.03-3.16-.58-5.52 1.32-2.36 1.9 0 0-2.48 4.68-.88 2.51 1.52 5.39 2.73 6.26 1.21.86 0 0 2.65-.09l.7.85c-.53 1.28 0 0-2.47.99-5.94-.36 0 0-5.72-9.21 0 0-1.36.49-2.73.73-1.36.23-1.34-.68-3.79-1.17-2.45-.5 0 0-2.72.34l-.19 3.29-1.88.03-.14-6.21-1.55-.09-.05 6.14-1.87-.03 .11-6.21c0 0-1.43-.09-1.94-.03l-.19 3.04-1.55-.04 .47-8.07c-3.15-4.71 0 0-6.14-.05l.07 3.23c0 0-1.68-.15-3.62-.31-1.93-.17 0 0-1.57 1.14l-.17 2.33-22.59-2.62 .18-2.97-14.45-1.55-.55 1.93c0 0 3.86.97 6.56 2.06 2.7 1.08 0 0 11.19 3.17l-.28 1.16c0 0-7.36-.65-9.29-.94-1.94-.3-15.05-4.8-18.16-4.59-3.11.2-20.02-1.14-23.5-2.24-3.47-1.09-17.91-3.42-20.24-3.46-2.33-.04-2.99.98-3.39 1.75-.41.77 0 0-8.01 6.45 0 0-2.35 1.12-3.57 4.59-.17.48-.44.9-.76 1.27l0-271.58 302.41 0c-.4.52 0 0-1.18 1.12z" style="fill: #B18665"/>

<path d="M248.22 555.37 l -.1 1.23-.09 1.13-.17 2.33-22.59-2.61 .18-2.97 L 211 552.93 l -.55 1.93c0 0 3.86.97 6.56 2.06 2.7 1.08 0 0 11.19 3.17l-.28 1.16c0 0-7.36-.65-9.29-.94-1.94-.3-15.05-4.8-18.16-4.6-3.1.2-20.02-1.13-23.5-2.23-3.47-1.09-17.91-3.42-20.24-3.46-2.33-.05-2.99.98-3.39 1.75-.4.77 0 0-8.01 6.45 0 0-2.35 1.12-3.57 4.59-.17.48-.44.9-.76 1.27l0-85.42 9.59.23 0 5.49 21.15 5.75 27.17 5.22 16.72 3.27-3.66 39.05 2.48 0-.78 12.41 10.32 2.09 24.23 3.2z" style="fill: #008F68"/>

</g>

<!-- end _LAYER_Land And Water -->

<g id="_LAYER_Streets" style="clip-path: url(#clip1); stroke-width: 0.951; stroke-miterlimit:4;shape-rendering:optimizeSpeed">

<g>
<path d="M353.18 474.79 l -5.31-5.14 3.98-3.95 5.24 5.21-3.91 3.87z" style="fill: #FECC2D"/>
<path d="M357.03 460.55 l 5.24 5.21-4.52 4.49-5.23-5.22 4.51-4.48z" style="fill: #FECC2D"/>
</g>

<path d="M187.09 431.74 l -26.25-4.11-19.84-.71 0-28.02 14.68.71 16.06.78c0 0 2.35.52 3.27-.91 0 0 2.71-2.02 6.92-1.44 0 0 6.92.98 8.16 1.44l1.37.46-4.37 31.8z" style="fill: #008F68"/>

<path d="M335.34 467.09 l 34.33-33.92" style="fill: none; stroke: black"/>

<g>
<path d="M377.02 475.91c0 0-1.49-10.17-3.21-12.09" style="fill: none; stroke: black; stroke-width: 2.852"/>
<g>

<g>

<g>
<path d="M220.18 525.65 l -18.24 17.09c-3.71 4.59 0 0-7.94 2.44l-15.84-3.51c-16.21-4.95 0 0-35.51 4.02" style="fill: none; stroke: black; stroke-width: 2.852"/>
</g>
</g>
</g>
<path d="M196.64 545.69c0 0 13.84 4.06 24.41 5.93" style="fill: none; stroke: black; stroke-width: 2.852"/>

<path d="M375.29 496.57c0 0 7.56-3.23 3.11-14.69-4.45-11.46 0 0 2.81-12.62" style="fill: none; stroke: black; stroke-width: 2.852"/>

<path d="M339.9 277.37c-8.51 13.03-5.8 26.4-3.1 28.65 2.93 2.45 8.05 12.56 8.48 17.48 .43 4.92 0 0 4.05 19.48 2.37 12.2-.87 19.64-5.87 24.46-5 4.83 0 0-2.43 13.15 4.26 21.81 1.39 15.57-1.33 37.74-2.42 19.81 0 0 9.89 25.53 0 0 27.52 23.26 31.62 25.4 2.98 1.56 40.08 40.65 68.44 74.91 0 0 5.31 15.43 31.68 25.33" style="fill: none; stroke: black; stroke-width: 2.852"/>

<path d="M342.89 399.31c0 0 .34 9.96-16.77 12.06-19.46 2.37 0 0-31.6 2.02 0 0-7.49-.14-8.66 7.35-1.17 7.48-1.53 12.9-8.01 13.82" style="fill: none; stroke: black; stroke-width: 2.852"/>

<path d="M353.89 287.12c5.37 3.33 17.28 20.81 25.45 33.89 8.17 13.08 0 0 7.21 23.41 0 0-1.87 17.81-2.16 33.84-.28 16.04-9.72 22.85-11.03 24.12-1.32 1.27-4.72 3.54-5.09 9.48-.36 5.94 0 0-9.87 16.64" style="fill: none; stroke: black; stroke-width: 2.852"/>

</g>


<g>
<path d="M233.07 403 l -3.72-5.22-4.71-.13-2.74 3.13-.26 3.53 2.74 5.88 1.7 1.04c0 0 1.18.78.39 1.18-.78.39-2.48.65-2.61 2.87l10.58 1.18c0 0 4.18-3.27 4.31-6.66 0 0 .52-3.4-3.79-4.58 0 0-.98 1.44-1.89-2.22" style="fill: #008F68"/>

<path d="M202.05 352.19 l 11.75-2.22 0-3.65c0 0-2.87-1.31-2.35-3.79 .52-2.48.52-2.48.39-2.35-.13.13 0 0-1.17 0 0 0-.26-1.44-1.05-1.7-.78-.26-.26-1.18.52-1.83 .78-.65 3.13-2.48 4.18-3.52 1.04-1.05.91-4.32-2.08-3.53l-4.97 2.61 1.57 1.83-1.96 1.44-2.74-3.27c0 0-4.44-2.48-4.05 2.48 0 0 2.09 4.05 2.87 8.62 0 0 .52 1.7-.26 3.79-.78 2.09 0 0-.65 5.09" style="fill: #008F68"/>

<path d="M210.93 322.54c.3.06 2.82-6.49 3.4-7.18 1.44-1.7 0 0 1.57-4.31 0 0 .91-1.7 3.92-1.83 3-.13 4.96.52 6.27 2.87 0 0 1.96-1.95 2.48-6.26 0 0 .52-.92 2.87-2.09l1.57-.13 0-1.57 .91-.26c0 0-1.31-3.79.26-5.23 1.57-1.43 0 0-1.24-5.42 0 0-1.11-.46-.72-1.89 .39-1.44.72-11.5-.13-13.46l-2.74.98c0 0-.92-.19-1.11.98l-.4 1.24 .26 9.27-2.28 0c0 0 1.7 3.59-3.79 7.58 0 0-4.24 3.33-5.81 3.92-1.57.59-3.27 1.63-4.25 4.25 0 0-.65 3.07-3.52 2.94l0 2.29 5.36.13c0 0 .06 2.68-.99 4.7-1.05 2.03 0 0-3.98 8.1 0 0 1.76.33 2.09.39" style="fill: #008F68"/>

<path d="M175.79 294.46c0 0 1.24.06 1.37 1.76 .13 1.7-.84 1.63.59 2.61l.91-.51 1.76 1.31 1.31-1.25 2.29 1.57 1.89-1.63 2.94 1.5 1.57-1.05 2.22.2 .59-2.03 2.09-.13c0 0 1.24-2.15 1.18-3l-1.77 0 .52-1.05-.06-4.24-2.55-.07-3-3 .07-2.09c0 0-2.03-.46-2.55-1.11 0 0-1.5 1.44-3.33 2.09-1.83.65-2.48 1.17-2.88 2.81-.39 1.63-3.46 2.61-3.85 2.61l0 2.94c0 0-.26 1.57-1.31 1.76" style="fill: #008F68"/>

<g>

<path d="M305.12 308.05 l 3.38 6.23 1.28-.52 1.43 2.56 1.41-.5 .78 1.46 .77.02 0-1.99 2.12.05-.08-.72 2.89.16 .01-.46 5.82.23 .03-1.17 3.02.16-.07-.5c0 0 1.37-.69 1.19-2.73-.17-2.04-2.97-2.42-3.74-2.35-.77.07-4.61.12-6.02.67-1.42.55-3.89-.04-5.05-.39-1.17-.34-3.09-1.6-6.07-1.76l-.51-1.1-1.32.47 .51 1.19-1.78 1" style="fill: #008F68"/>

</g>

<path d="M381.2 502.5 l -85.01-82.08c0 0-2.43-2.83-1.57-9.65 .9-7.17 0 0 8.39-82.44" style="fill: none; stroke: black"/>

<path d="M220.18 525.65 l 117.17 16.93" style="fill: none; stroke: black"/>

<path d="M169.74 442.81c0 0 2.46.23 4.42-.03 2.66-.36 0 0 4.98-1.01l152.94 22.04" style="fill: none; stroke: black"/>
<path d="M247.11 383.44 377.2 506.63" style="fill: none; stroke: black"/>
<path d="M207.95 398.13c0 0-26.39-3.32-28.45-3.87-2.06-.56 0 0-5.94-1.88l-33.28-2.19" style="fill: none; stroke: black"/>

<path d="M207.17 401.99c-.24-.91 3.49-14.16 4.37-20.09 .88-5.94 7.89-14.74 9.35-16.52 1.45-1.79 3.02-2.4 6.01-3.38 2.99-.99-.13-7.38-.25-8.03-.11-.65.06-3.1-2.45-7.54-2.5-4.44 0 0-2.33-7.03 .43-2.32.49-5.55-1.04-6.61-1.54-1.07-.21-2.85-.42-5.57-.21-2.72-3.7-2.66-5.64-3.08-1.93-.42-2.05-.94-2.95-1.34-.9-.41 0 0-8.84-1.2-8.53-.28-8.67-3.19-14.66-8.15-5.99-4.96 0 0-9.66-9.61-3.8-4.34 0 0-8.7-4.81 0 0-9.68-1.08-15.11-1.7-5.42-.61-7.28-4.65-8.04-5.83" style="fill: none; stroke: black"/>

<path d="M212.44 378.93c0 0-2.37-1.46-2.34-3.27 .03-1.81 1.01-5.8-6.49-6.06-7.49-.27-17.45-7.43-17.47-13.51-.03-6.08 0 0-1.7-13.48 0 0-.99-2.41-4.36-2.02-4.19.48-13.66 5.55-16.53-.05" style="fill: none; stroke: black"/>

<path d="M171.33 325.28c0 0 .38-1.26 4-1.33 3.62-.06 8.97-2.29 10.66-3.3 1.7-1 5.85-1.57 7.14-1.55 1.29.02 3.13-1.24 4.18-2.51 1.06-1.28 5.42-6.76 7.52-8.02 2.09-1.25 2.48-1.37 3.65-1.61 1.17-.24 2.59.05 3.68-3.43 0 0 1.08-2.57 2.9-3.18 1.82-.61 7.06-4.53 7.85-5.16 .79-.63 3.55-3.17 3.08-6.03" style="fill: none; stroke: black"/>

<path d="M216.77 324.5c0 0 2.68-1.57 4.98-.1 2.3 1.46 2.52 3.54 2.91 3.8 .38.27.23 1.82 3.07 2 2.84.18 0 0 54.46 3.57" style="fill: none; stroke: black"/>

<path d="M220.98 324c0 0 2.29-1.98 4.41-.83 0 0 .61 1.82 2.68 1.86 2.07.04 3.79-2.13 3.58-4.72-.21-2.59.61-5.3 2.31-6.04 1.69-.75 5.6-2.36 7.45-4.39 1.85-2.04 8.23-4.77 2.98-14.82 0 0-1.4-8.31-5.71-5.8-4.32 2.51-7.04 2.85-6.47-.11 .57-2.97.25-6.59.4-7.89 .15-1.29-.3-5.04-.55-5.44" style="fill: none; stroke: black"/>

<path d="M152.4 296.9c0 0-.32 3.62 1.59 5.33 1.91 1.72 1.88 3.4 2.24 5.08 .36 1.69-1.48 3.34 3.11 6.78 4.59 3.45 6.22 6.71 7.36 7.76 1.14 1.06 6.78 4 6.22 6.58-.56 2.58-5.85 8.82-7.29 10.09-1.45 1.27-9.87 9.14-9.41 12.38 .46 3.24.6 2.47 1.3 6.88 .7 4.41-2.28 40.57-1.91 41.87" style="fill: none; stroke: black"/>

<path d="M343.62 516.89 l 4.93-36.84 39.38-39.12 9.02 9.21c0 0 .13 21.6.27 28.2 .14 6.6-1.49 10.71-2.28 11.47-.79.76 0 0-17.74 16.82" style="fill: none; stroke: black"/>

<path d="M336.5 519.83 l 6.16-45.67 39.37-39.13 9.02 9.21c0 0 .13 21.6.27 28.2 .14 6.6-1.48 10.71-2.28 11.47-.78.76 0 0-17.74 16.82" style="fill: none; stroke: black"/>

<path d="M216.71 370.93c0 0 3.2 5.94 5.77 6.63 0 0 5.89 3.08 7.99 1.82 2.09-1.25 2.85-.46 3.75.07 .9.53 1.69 1.32 7.21 1.94 0 0 3.52.45 5.69 2.04" style="fill: none; stroke: black"/>

<path d="M395.17 448.3 l -39.29 38.03" style="fill: none; stroke: black"/>

<path d="M354.22 484.88 l -3.37 25.87-51.64 43.86 34.59 5.37 5.1-2.89c8.87-3.98 0 0 15.38-14.08 0 0 18.43-25.02 21.32-27.55 2.89-2.54 7.24-6.99 8.45-9.55 1.21-2.57 3.35-6.28 7.55-10.21 4.21-3.94 0 0 3.87-6.79l-72.73-72.45c0 0-4.44-3.66-4.18-12.8l7.12-79.03" style="fill: none; stroke: black"/>

<path d="M220.92 551.62c0 0 24.25 3.67 25.42 3.3 1.17-.37 0 0 7.88-6.97l6.72.12 .82-6.52 81.39 12.97" style="fill: none; stroke: black"/>

<path d="M313.76 556.89 l 14.2-97.17 30.51-31.35" style="fill: none; stroke: black"/>

<path d="M200.1 522.08c0 0 .01-1.19 3.5-.13 3.6 1.1 10.9 2.83 16.58 3.7" style="fill: none; stroke: black"/>

<path d="M337.35 542.58c0 0 .15-1.54.58-3.35 .42-1.81 0 0 1.98-2.42 0 0 1.9-.12 1.13 1.96" style="fill: none; stroke: black"/>

<path d="M288.53 545.7 l 15.4-108.36" style="fill: none; stroke: black"/>

<path d="M310.29 328.72 l -6.69 74.3c-.65 3.4 0 0 .71 10.17-1.04 1.57 0 0-5.2 19.57L283.63 545.05" style="fill: none; stroke: black"/>

<path d="M278.47 544.24 l 16.3-115.78" style="fill: none; stroke: black"/>

<path d="M273.83 543.51 290.58 424.5" style="fill: none; stroke: black"/>

<path d="M138.37 556.94c0 0 3.72-3.21 3.33-4.9-.39-1.7 0-3.14.52-4.05 .52-.92 1.88-2.06 1.73-2.79 0 0-2.42-9.1 1.25-11.88 3.67-2.78 8.03-.63 10.84 1.49 2.81 2.12 5.12 3.2 10.3 2.25 5.19-.94 6.73-.4 8.79.42 2.05.81 2.68 1.86 6.98.13 5.26-2.13 5.22-2.5 7.03-2.47 1.81.03 4.71-3.02 5.52-5.07 .81-2.06 7.88-6.59 4.59-10.53-3.3-3.94 1.18-7.99 3.77-8.46 2.6-.48 4.34-1.16 4.76-4.64" style="fill: none; stroke: black"/>

<path d="M218.47 404.07 l -26.91-4.17c0 0-11.06-3.3-14.98-1.3-3.92 2-.3 2.06-9.6 1.64-9.3-.43 0 0-27.18-2.03" style="fill: none; stroke: black"/>

<path d="M208.73 394.26 l -17.55-1.86c-12.31-5.13 0 0-34.77-8.39l-15.64-.29" style="fill: none; stroke: black"/>

<path d="M213.8 471.06 l -15.15-2.62c0 0-19.29-1.71-25.96-1.1" style="fill: none; stroke: black"/>

<path d="M172.66 465.57 l -42.69-2.02 1.53-6.8 57.52 2.75 159.39 21.39" style="fill: none; stroke: black"/>

<path d="M368.13 524.7c0 0-142.47-21.24-148.4-22.12-5.94-.88-3.1-.57-7.77.64l-3.84 1.01" style="fill: none; stroke: black"/>

<path d="M374.13 503.79 212.09 480.38c.38-.09 0 0-57.27-8.78L141 471.5" style="fill: none; stroke: black"/>

<path d="M169.74 442.81 l -28.41-.98" style="fill: none; stroke: black"/>

<path d="M141 426.92 l 19.83.67 51.56 8.12" style="fill: none; stroke: black"/>

<path d="M134.42 420.09c8.94 6.11 27.28.49 34.04-1.46 6.76-1.95 19.18-2.24 20.45-.67 1.27 1.57 0 0 6.15 3.47l82.79 13.13" style="fill: none; stroke: black"/>

<path d="M136.78 411.08c8.56-1.4 11.67-5.03 11.79-11.75" style="fill: none; stroke: black"/>

<path d="M187.11 431.71 l 7.09-51.21 186.68 12.42" style="fill: none; stroke: black"/>

<path d="M189.29 418.36c0 0 5.72-1.84 12.04-.82 6.32 1.02 0 0 77.86 12.87 0 0 3.26.74 4.7-.4" style="fill: none; stroke: black"/>

<path d="M387.93 440.93 l 3.29-3.44 4.65-49.97 3.74-49.85c0 0-42.64-2.58-49.86-3.74-7.22-1.16-14.68-3.62-16.22-4.17-1.23-.43-19.65-.87-23.01-.93-2.32-.04 0 0-71.56-4.64l-4.08 58.88" style="fill: none; stroke: black"/>

<path d="M279.18 273.43 l 7.56 26.01" style="fill: none; stroke: black"/>

<path d="M303.01 328.33c0 0-14.35-26.06-16.27-28.89" style="fill: none; stroke: black"/>

<path d="M260.09 270.5c15.2 4.38 22.21 20.96 25.25 29.29l-9.48 110.94" style="fill: none; stroke: black"/>

<path d="M168.48 400.26c0 0 1.18 2.87 6.2 3.61 2.62.38 0 0 15.7 3.65" style="fill: none; stroke: black"/>

<path d="M282.63 417.14 l 6.77-85.84c0 0 1.52-21.42-4.06-31.51" style="fill: none; stroke: black"/>

<path d="M334.17 409.44 l 5.02-63.8c0 0 .78-6.85 3.28-9.77 1.85-2.17 0 0 1.35-3.15" style="fill: none; stroke: black"/>

<path d="M237.91 339.43 l 112.11 8.21" style="fill: none; stroke: black"/>

<path d="M351.68 334.22c0 0-3.44-17.39-5.93-22.61-2.49-5.21-5.65-9.28-5.65-9.67 .01-.39-3.1-7.43-.51-14.62" style="fill: none; stroke: black"/>

<path d="M399.6 337.67 l 2.55-19.87-6.17-23.26" style="fill: none; stroke: black"/>

	
<path d="M344.76 309.33 l 22.91-16.83" style="fill: none; stroke: black"/>
	
<path d="M349.93 300.77 l 2.21 3.3" style="fill: none; stroke: black"/>
	
<path d="M139.33 310.83c1.3-.49 0 0 17.47.76" style="fill: none; stroke: black"/>
	
<path d="M224.02 552.06 l 18.74-136.63c0 0 2.1-1.9 3.23-7.05 .95-4.36 0 0 6.28-83.44" style="fill: none; stroke: black"/>
	
<path d="M212.39 435.71 l 75.08 10.66" style="fill: none; stroke: black"/>
	
<path d="M218.47 404.07 l -9.61 50.07 2.73 8.33-2.02 9.79 3.04 3.42-4.84 30.76" style="fill: none; stroke: black"/>
	
<path d="M141 478.66 l 31.27.75" style="fill: none; stroke: black"/>
	
<path d="M172.08 490.17 l 1.57-60.4" style="fill: none; stroke: black"/>
	
<path d="M208.86 454.14 l -19.87-2.94-5.75-1.3-10.19-.79 L141 447.83" style="fill: none; stroke: black"/>
	
<path d="M212.61 475.68 l 3.02-12.46" style="fill: none; stroke: black"/>
	
<path d="M204.14 496.66 l 2.87-17.12" style="fill: none; stroke: black"/>
	
<path d="M198.65 495.35 l 3.4-19.85" style="fill: none; stroke: black"/>
	
<path d="M204.92 469.49 l -.65 4.31c0 0 0 2.22-3.53 1.7l-8.23-1.18c0 0-3.39.13-2.74-4.44l2.74-18.16" style="fill: none; stroke: black"/>
	
<path d="M186.5 467.61 l 5.1-35.22" style="fill: none; stroke: black"/>
	
<path d="M209.1 453.55 l 8.62 2.09 9.4 4.18 9.4 1.31" style="fill: none; stroke: black"/>
	
<path d="M141 375.83 l 26.04.92" style="fill: none; stroke: black"/>
	
<path d="M159.47 399.74 l 1.04-23.18" style="fill: none; stroke: black"/>
	
<path d="M168.87 386.29 l -.39 13.97" style="fill: none; stroke: black"/>
	
<path d="M207.17 401.99 l -2.9 16.1" style="fill: none; stroke: black"/>
	
<path d="M229.3 552.82 l 20.08-142.37" style="fill: none; stroke: black"/>
	
<path d="M238.75 409.8 l 59.4 3.53" style="fill: none; stroke: black"/>
	
<path d="M270.49 411.69 252.2 530.35" style="fill: none; stroke: black"/>
	
<path d="M250.64 541.85 l -2.09 11.43" style="fill: none; stroke: black"/>
	
<path d="M261.97 541.62 l 18.71-126.47" style="fill: none; stroke: black"/>
	
<path d="M345.72 476.8 l -56.62-7.57c-3.07.98 0 0-5.29 3.07 0 0 1.96 3.4 4.18 4.18" style="fill: none; stroke: black"/>
	
<path d="M360.09 490.39 214.13 469.42" style="fill: none; stroke: black"/>
	
<path d="M354.21 485.49 l -139.3-19.14" style="fill: none; stroke: black"/>
	
<path d="M392.49 495.09 l -74.45-73.93c0 0-8.1-6.27-6.28-22.99l7.58-83.59" style="fill: none; stroke: black"/>
	
<path d="M269.64 404.7 l 49.11 2.55" style="fill: none; stroke: black"/>
	
<path d="M247.09 396.6 l 71.79 4.18" style="fill: none; stroke: black"/>
	
<path d="M255.34 391.12 l 139.37 9.14" style="fill: none; stroke: black"/>
	
<path d="M279.11 373.09 l 41.8 2.87" style="fill: none; stroke: black"/>
	
<path d="M321.23 374.66 l 15.61.91" style="fill: none; stroke: black"/>
	
<path d="M279.63 366.56 l 57.47 3.66" style="fill: none; stroke: black"/>
	
<path d="M249.85 359.25 l 87.84 5.42" style="fill: none; stroke: black"/>
	
<path d="M237.58 345.4 l 101.09 7.05" style="fill: none; stroke: black"/>
	
<path d="M338.83 352.48 l 13.19 1" style="fill: none; stroke: black"/>
	
<path d="M397.06 459.23 l -49.51-46.69 6.01-78.11" style="fill: none; stroke: black"/>
	
<path d="M394.84 323.59 l 42.84-28.34" style="fill: none; stroke: black"/>
	
<path d="M368.78 335.54 l 4.64-12.86 58.77-38.14" style="fill: none; stroke: black"/>
	
<path d="M433.76 297.86 l -7.05-9.41" style="fill: none; stroke: black"/>
	
<path d="M275.63 411.88 l -4.55 32.02" style="fill: none; stroke: black"/>
	
<path d="M387.27 500.31 l -50.14-49.93" style="fill: none; stroke: black"/>
			</g>

<path d="M141 292.5 l 0 286 340 0 0-286-340 0z" style="fill: none"/>

<path d="M141 292.5 l 0 286 340 0 0-286-340 0z" style="fill: none"/>

<path d="M353.18 477.14 l -5.31-5.13 3.98-3.95 5.24 5.21-3.91 3.87z" style="fill: #FECC2D"/>

<path d="M351.84 465.7 l -3.97 3.95 0 2.35 3.98-3.94 0-2.36z" style="fill: #FFFFFF"/>

<path d="M357.03 462.9 l 5.24 5.21 0-2.36-5.24-5.2 0 2.35z"/>

<path d="M351.84 468.06 l 5.24 5.21 0-2.35-5.24-5.22 0 2.36z"/>

<path d="M357.03 462.9 l 5.24 5.21-4.52 4.49-5.23-5.21 4.51-4.49z" style="fill: #FECC2D"/>

<path d="M357.03 460.55 l -4.51 4.48 0 2.36 4.51-4.49 0-2.35z" style="fill: #FFFFFF"/>

<g style="shape-rendering:geometricPrecision">
	
<text style="font-family: Palatino-BoldItalic" transform="matrix(0.16667 0 0 -0.16667 356.14 464.96)">Moscone Center</text>
	
<text style="fill: #FFFFFF; font-family: Palatino-BoldItalic" transform="matrix(0.16667 0 0 -0.16667 356 465.06)">Moscone Center</text>
			</g>
		</g>
		<!-- end _LAYER_Streets -->
		<g id="_LAYER_Street_Names" style="clip-path: url(#clip1); fill: white; font-family: Palatino-Bold">

<text transform="matrix(0.33007 0.046234 0.046234 -0.33007 237.44 528.96)">Lombard</text>

<text transform="matrix(0.32977 0.048467 0.048467 -0.32977 241.13 506.09)">Broadway</text>

<text transform="matrix(0.33007 0.046234 0.046234 -0.33007 299.78 493.82)">California</text>

<text transform="matrix(0.33007 0.046234 0.046234 -0.33007 246.94 474.32)">Sutter</text>

<text transform="matrix(0.33008 0.046234 0.046235 -0.33008 307.45 478.72)">Post</text>

<text transform="matrix(0.33008 0.046234 0.046235 -0.33008 308.26 471.34)">O'Farrell</text>

<text transform="matrix(0.33007 0.046234 0.046234 -0.33007 249.47 452.29)">Turk</text>

<text transform="matrix(0.33007 0.046234 0.046234 -0.33007 250.68 441.38)">Fulton</text>

<text transform="matrix(0.33008 0.046234 0.046235 -0.33008 247.8 466.74)">Geary</text>

<text transform="matrix(0.3332 0.0075022 0.0075022 -0.3332 174 467.74)">Euclid</text>

<text transform="matrix(0.33277 0.018967 0.018967 -0.33277 283 405.52)">14th St</text>

<text transform="matrix(0.33277 0.019002 0.019002 -0.33277 283.21 398.75)">15th St</text>

<text transform="matrix(0.33247 0.023636 0.023636 -0.33247 286.24 373.8)">19th St</text>

<text transform="matrix(0.3326 0.022334 0.022334 -0.3326 287.35 367.13)">20th St</text>

<text transform="matrix(0.3326 0.022334 0.022334 -0.3326 289.37 343.39)">24th St</text>

<text transform="matrix(0.3326 0.022202 0.022202 -0.3326 289.17 349.25)">23rd St</text>

<text transform="matrix(0.3324 0.024501 0.024501 -0.3324 290.99 327.94)">Army</text>

<text transform="matrix(0.27834 -0.1834 -0.1834 -0.27834 409.38 315.2)">Cargo</text>

<text transform="matrix(0.27834 -0.1834 -0.1834 -0.27834 402.91 304.8)">Evans</text>

<text transform="matrix(0.27244 -0.19207 -0.19207 -0.27244 368.87 292.08)">Oakdale</text>

<text transform="matrix(-0.0077006 0.3332 0.3332 0.0077006 171.89 435.93)">Arguello</text>

<text transform="matrix(-0.045334 0.33024 0.33024 0.045334 228.66 503.97)">Divisadero</text>

<text transform="matrix(-0.048101 0.32983 0.32983 0.048101 234.07 505.03)">Scott</text>

<text transform="matrix(-0.048101 0.32983 0.32983 0.048101 268.11 488.77)">Laguna</text>

<text transform="matrix(-0.050634 0.32947 0.32947 0.050634 257.3 487.25)">Webster</text>

<text transform="matrix(-0.045634 0.3302 0.3302 0.045634 289.37 492.1)">Van Ness</text>

<text transform="matrix(-0.045634 0.3302 0.3302 0.045634 279.78 490.69)">Gough</text>

<text transform="matrix(-0.045634 0.3302 0.3302 0.045634 319.93 502.72)">Taylor</text>

<text transform="matrix(-0.045634 0.3302 0.3302 0.045634 346.25 484.63)">Kearny</text>

<text transform="matrix(0.25384 -0.21603 -0.21603 -0.25384 322.49 535.74)">Columbus</text>

<text transform="matrix(0.2433 0.22783 0.22783 -0.2433 307.61 441.53)">Market</text>

<text transform="matrix(0.2433 0.22783 0.22783 -0.2433 312.46 437.49)">Mission</text>

<text transform="matrix(0.2433 0.22783 0.22783 -0.2433 322.76 427.39)">Folsom</text>

<text transform="matrix(0.2433 0.22783 0.22783 -0.2433 327.21 422.34)">Harrison</text>

<text transform="matrix(0.2433 0.22783 0.22783 -0.2433 364.18 429.41)">Townsend</text>

<text transform="matrix(-0.024501 0.3324 0.3324 0.024501 349.23 369.46)">Kansas</text>

<text transform="matrix(-0.024501 0.3324 0.3324 0.024501 336.85 355.87)">Potrero</text>

<text transform="matrix(-0.029668 0.332 0.332 0.029668 316.09 332.23)">Folsom</text>

<text transform="matrix(-0.029668 0.332 0.332 0.029668 323.32 332.84)">Harrison</text>

<text transform="matrix(-0.025635 0.3323 0.3323 0.025635 277.94 363.81)">Dolores</text>

<text transform="matrix(-0.022034 0.3326 0.3326 0.022034 250.33 332.49)">Castro</text>

<text transform="matrix(-0.021001 0.33267 0.33267 0.021001 236.79 332.59)">Douglass</text>

<text transform="matrix(-0.0516 0.32926 0.32926 0.0516 210.38 480.38)">Presidio</text>

<text transform="matrix(-0.0516 0.32926 0.32926 0.0516 199.47 478.76)">Laurel</text>

<text transform="matrix(0.071065 0.32563 0.32563 -0.071065 154.79 350.32)">7</text>

<text transform="matrix(0.066966 0.3265 0.3265 -0.066966 155.23 352.35)">t</text>

<text transform="matrix(0.061269 0.32763 0.32763 -0.061269 155.52 353.69)">h</text>

<text transform="matrix(0.0013326 0.33333 0.33333 -0.0013326 156.25 357.36)">A</text>

<text transform="matrix(-0.0121 0.3331 0.3331 0.0121 156.24 360.59)">v</text>

<text transform="matrix(-0.015299 0.33297 0.33297 0.015299 156.15 362.84)">e</text>

<text transform="matrix(0.29867 -0.14796 -0.14796 -0.29867 190.49 535.9)">L</text>

<text transform="matrix(0.25523 -0.21437 -0.21437 -0.25523 192.48 534.83)">i</text>

<text transform="matrix(0.22437 -0.2465 -0.2465 -0.22437 193.42 534.09)">n</text>

<text transform="matrix(0.1712 -0.286 -0.286 -0.1712 194.98 532.38)">c</text>

<text transform="matrix(0.21413 -0.25543 -0.25543 -0.21413 195.92 530.43)">o</text>

<text transform="matrix(0.21593 -0.2539 -0.2539 -0.21593 197.36 528.71)">l</text>

<text transform="matrix(0.21937 -0.25093 -0.25093 -0.21937 198.22 527.7)">n</text>

<text transform="matrix(0.32977 0.048401 0.048401 -0.32977 302.55 555.54)">North Point</text>

<text transform="matrix(0.32964 0.049535 0.049535 -0.32964 317.3 550.69)">Bay</text>

<text transform="matrix(0.23993 -0.23137 -0.23137 -0.23993 347.91 551.38)">E</text>

<text transform="matrix(0.23264 -0.2387 -0.2387 -0.23264 349.65 549.71)">m</text>

<text transform="matrix(0.2213 -0.24923 -0.24923 -0.2213 352.1 547.19)">b</text>

<text transform="matrix(0.2023 -0.2649 -0.2649 -0.2023 353.64 545.47)">a</text>

<text transform="matrix(0.1986 -0.2677 -0.2677 -0.1986 354.76 543.8)">rcadero</text>

<text transform="matrix(-0.044169 0.33037 0.33037 0.044169 352.51 485.43)">Montgomery</text>

<text transform="matrix(0.2398 -0.2315 -0.2315 -0.2398 361.68 481.16)">2nd St</text>

<text transform="matrix(0.23978 -0.23148 -0.23148 -0.23978 355.44 475.31)">3rd St</text>

<text transform="matrix(0.2398 -0.2315 -0.2315 -0.2398 341.46 461.48)">5th St</text>

<text transform="matrix(0.2398 -0.2315 -0.2315 -0.2398 333.94 454.25)">6th St</text>

<text transform="matrix(0.031667 -0.3318 -0.3318 -0.031667 394.69 415.02)">3rd St</text>

<text transform="matrix(0.33277 0.019002 0.019002 -0.33277 283.41 393.14)">16th St</text>

<text transform="matrix(0.33277 0.019002 0.019002 -0.33277 284.12 386.73)">17th St</text>

<text transform="matrix(0.3326 0.022334 0.022334 -0.3326 287.75 361.78)">21st St</text>

<text transform="matrix(0.33277 0.019302 0.019302 -0.33277 251.07 411.26)">Duboce</text>

<text transform="matrix(0.25496 0.21467 0.21467 -0.25496 163.32 341.66)">C</text>

<text transform="matrix(0.2996 0.14607 0.14607 -0.2996 165.42 343.38)">l</text>

<text transform="matrix(0.3293 -0.051565 -0.051565 -0.3293 166.35 344.15)">arend</text>

<text transform="matrix(0.3138 -0.11237 -0.11237 -0.3138 176.41 342.33)">o</text>

<text transform="matrix(0.32907 -0.053131 -0.053131 -0.32907 178.77 341.48)">n</text>

<text transform="matrix(0.3227 0.083399 0.083399 -0.3227 169.93 298.65)">P</text>

<text transform="matrix(0.2924 0.15997 0.15997 -0.2924 172.77 299.51)">o</text>

<text transform="matrix(0.26933 0.19637 0.19637 -0.26933 174.92 300.73)">r</text>

<text transform="matrix(0.2529 0.2171 0.2171 -0.2529 176.25 301.71)">t</text>

<text transform="matrix(0.23327 0.2381 0.2381 -0.23327 177.36 302.65)">o</text>

<text transform="matrix(0.2148 0.25487 0.25487 -0.2148 178.97 304.32)">l</text>

<text transform="matrix(0.22166 0.24893 0.24893 -0.22166 179.82 305.35)">a</text>

<text transform="matrix(0.2594 0.2093 0.2093 -0.2594 156.81 312.14)">D</text>

<text transform="matrix(0.25187 0.2183 0.2183 -0.25187 159.47 314.29)">e</text>

<text transform="matrix(0.22567 0.2453 0.2453 -0.22567 161.15 315.65)">w</text>

<text transform="matrix(0.21217 0.25706 0.25706 -0.21217 163.45 318.33)">e</text>

<text transform="matrix(0.22463 0.24623 0.24623 -0.22463 164.69 319.85)">y</text>

<text transform="matrix(0.3327 0.019801 0.019801 -0.3327 256.23 332.48)">Clipper</text>

<text transform="matrix(-0.025635 0.3323 0.3323 0.025635 287.21 334.75)">Guerrero</text>

<text transform="matrix(0.16183 0.2914 0.2914 -0.16183 291.95 310.06)">Mission</text>

<text transform="matrix(0.32947 0.050502 0.050502 -0.32947 251.99 430.73)">Fell</text>

<text transform="matrix(0.32866 0.055369 0.055369 -0.32866 252.45 425.98)">Oak</text>

<text transform="matrix(-0.044235 0.33037 0.33037 0.044235 272.91 419.26)">Buchanan</text>

<text transform="matrix(-0.059601 0.32797 0.32797 0.059601 215.17 411.64)">Masonic</text>

<text transform="matrix(-0.045034 0.33024 0.33024 0.045034 188.76 406.94)">Stanyan</text>

<text transform="matrix(0.33097 0.039434 0.039434 -0.33097 194.51 396.18)">Carl</text>

<text transform="matrix(-0.057536 0.32833 0.32833 0.057536 205.27 402.29)">Clayton</text>

<text transform="matrix(0.3152 0.10843 0.10843 -0.3152 187.24 390.62)">P</text>

<text transform="matrix(0.3146 0.11017 0.11017 -0.3146 189.4 391.36)">a</text>

<text transform="matrix(0.32997 0.047033 0.047033 -0.32997 191.09 392)">r</text>

<text transform="matrix(0.33106 0.038701 0.038701 -0.33106 192.5 392.2)">n</text>

<text transform="matrix(0.33133 0.036301 0.036301 -0.33133 194.77 392.47)">a</text>

<text transform="matrix(0.33147 0.035202 0.035202 -0.33147 196.69 392.68)">s</text>

<text transform="matrix(0.33153 0.034536 0.034536 -0.33153 198.34 392.85)">s</text>

<text transform="matrix(0.33157 0.033966 0.033966 -0.33157 199.97 393.02)">u</text>

<text transform="matrix(0.33163 0.033534 0.033534 -0.33163 202.24 393.25)">s</text>
		</g>
<!-- end _LAYER_Street Names -->
<!-- begin cup defs -->
		<g id="Cup_On" style="visibility: hidden">

<path d="M368.243 460.118c0-7.972-6.463-14.434-14.434-14.434-7.972 0-14.434 6.462-14.434 14.434 0 7.972 6.462 14.434 14.434 14.434 7.972 0 14.434-6.463 14.434-14.434z" style="fill: #ffffff; fill-opacity: 40%"/>
		</g>
		<defs>

<g id="Cup">
	
<path d="M345.293 459.163c0 2.083 3.813 3.77 8.516 3.77 4.703 0 8.516-1.688 8.516-3.77 0-2.536-3.813-4.592-8.516-4.592-4.704 0-8.516 2.057-8.516 4.592z" style="fill: #FFFFFF"/>
	
<path d="M353.809 462.761c-4.526 0-8.194-1.629-8.194-3.639 0-2.01 3.668-3.639 8.193-3.639 4.524 0 8.193 1.629 8.193 3.639 0 2.01-3.668 3.64-8.192 3.64z" style="fill: #7BB3D4"/>
	
<path d="M356.234 455.163 l 3.859 1.303 1.537 1.27-.351.582c0 1.581-2.562 2.863-5.724 2.863-3.162 0-5.726-1.283-5.726-2.864 0-1.582 2.563-2.864 5.726-2.864l.68-.29z" style="fill: #FFFFFF"/>
	
<path d="M361.387 457.737c.396.427.615.894.615 1.385 0 1.893-3.253 3.447-7.409 3.623-2.122-.488-3.624-1.692-3.624-3.1 0-1.839 2.565-3.33 5.726-3.33 1.941 0 3.657.562 4.692 1.422z" style="fill: #7BB3D4"/>
	
<path d="M356.428 459.21c.603-.234 1.311-.37 2.066-.37 2.205 0 3.992 1.147 3.992 2.563 0 .875-.734 1.585-1.64 1.585-.774 0-1.422-.517-1.596-1.212l.507-.457c.188.497.616.819 1.089.819 .486 0 .882-.378.882-.843 0-.893-1.445-1.658-2.626-1.658-.754 0-1.462.237-1.995.668l-.679-1.095z" style="fill: #FFFFFF"/>
	
<path d="M357.577 459.467c0-1.476-1.687-2.674-3.768-2.674-2.082 0-3.769 1.198-3.769 2.674l7.537 0z" style="fill: #7BB3D4"/>
	
<path d="M347.489 463.145c.479-4.77 3.613-6.109 6.319-6.109 2.706 0 5.839 1.34 6.318 6.109l-12.637 0z" style="fill: #FFFFFF"/>
	
<path d="M360.126 463.284c0-1.534-2.828-2.777-6.317-2.777-3.49 0-6.318 1.243-6.318 2.777 0 1.533 2.828 2.777 6.317 2.777 3.489 0 6.318-1.244 6.318-2.777z" style="fill: #FFFFFF"/>
	
<path d="M353.809 460.125c-3.112 0-5.697.989-6.22 2.289 .038-.22.081-.433.131-.637 .739-1.173 3.185-2.034 6.089-2.034 2.904 0 5.35.862 6.088 2.035 .051.205.094.417.133.638-.526-1.302-3.11-2.291-6.221-2.291z" style="fill: #D80000"/>
	
<path d="M353.809 460.836c-3.312 0-5.996 1.108-5.996 2.475 0 1.367 2.685 2.474 5.996 2.474l0-4.949z" style="fill: #7BB3D4"/>
	
<path d="M353.809 465.786c3.311 0 5.996-1.108 5.996-2.475 0-1.367-2.686-2.475-5.996-2.475l0 4.949z" style="fill: #FFFFFF"/>
				<!-- coffee --><!--<path              d="M353.809 460.836c2.765 0 5.092.773 5.785 1.824-.336 1.231-2.797 2.188-5.785 2.188-2.989 0-5.452-.957-5.786-2.188 .693-1.051 3.02-1.824 5.785-1.824z"/>-->
			</g> <!-- end Cup -->
			<!-- coffee only -->
	
<path d="M353.809 460.836c2.765 0 5.092.773 5.785 1.824-.335 1.231-2.797 2.188-5.785 2.188-2.989 0-5.452-.957-5.786-2.188 .692-1.051 3.021-1.824 5.785-1.824z" id="Coffee1"/>
	
<path d="M359.226 462.257c-.84.928-2.937 1.591-5.417 1.591-2.48 0-4.578-.663-5.418-1.591 .96-.839 3.022-1.421 5.418-1.421 2.395 0 4.458.582 5.417 1.42z" id="Coffee2"/>
	
<path d="M349.070 461.799c1.097-.585 2.809-.963 4.739-.963 1.93 0 3.642.378 4.738.962-1.055.632-2.776 1.049-4.738 1.049-1.963 0-3.684-.416-4.739-1.048z" id="Coffee3"/>
	
<path d="M350.254 461.321c.996-.303 2.222-.485 3.555-.485 1.332 0 2.559.182 3.554.485-.986.325-2.21.526-3.554.526-1.345 0-2.569-.201-3.555-.526z" id="Coffee4"/>
			<!-- end coffee only -->
		</defs>
		<g id="Cup_Zoom" style="visibility: hidden" >

<g>
	
<path d="M359.26 453.62c0 1.2 2.19 2.17 4.89 2.17 2.7 0 4.89-.98 4.89-2.17 0-1.46-2.18-2.64-4.88-2.64-2.7 0-4.9 1.18-4.9 2.64z" style="fill: #FFFFFF" transform="translate(-1 -1)"/>
	
<path d="M364.16 455.69c-2.6 0-4.71-.94-4.71-2.1 0-1.15 2.11-2.09 4.71-2.09 2.6 0 4.71.94 4.71 2.09 0 1.15-2.12 2.09-4.71 2.09z" style="fill: #7BB3D4" transform="translate(-1 -1)"/>
	
<path d="M365.55 451.32 l 2.22.75 .88.73-.2.33c0 .91-1.48 1.64-3.29 1.64-1.82 0-3.29-.73-3.29-1.64 0-.91 1.47-1.64 3.29-1.64l.39-.17z" style="fill: #FFFFFF" transform="translate(-1 -1)"/>
	
<path d="M368.51 452.8c.23.25.35.51.35.79 0 1.09-1.87 1.98-4.25 2.08-1.22-.27-2.08-.97-2.08-1.77 0-1.06 1.47-1.92 3.29-1.92 1.11 0 2.1.32 2.69.82z" style="fill: #7BB3D4" transform="translate(-1 -1)"/>
	
<path d="M365.66 453.65c.35-.14.75-.22 1.19-.22 1.27 0 2.29.66 2.29 1.47 0 .5-.42.91-.94.91-.45 0-.82-.29-.92-.69l.29-.26c.11.29.35.47.63.47 .28 0 .51-.22.51-.49 0-.51-.83-.95-1.51-.95-.44 0-.84.14-1.15.38l-.39-.62z" style="fill: #FFFFFF" transform="translate(-1 -1)"/>
	
<g>
		
<path d="M366.32 453.79c0-.84-.97-1.53-2.16-1.53-1.2 0-2.17.69-2.17 1.54l4.33 0z" style="fill: #7BB3D4" transform="translate(-1 -1)"/>
		
<path d="M360.53 455.91c.27-2.74 2.07-3.51 3.63-3.51 1.55 0 3.35.77 3.63 3.51l-7.26 0z" style="fill: #FFFFFF" transform="translate(-1 -1)"/>
				</g>
	
<path d="M367.78 455.99c0-.89-1.62-1.6-3.62-1.6-2.01 0-3.63.71-3.63 1.59 0 .88 1.63 1.59 3.63 1.59 2 0 3.63-.7 3.63-1.58z" style="fill: #FFFFFF" transform="translate(-1 -1)"/>
	
<path d="M364.16 454.17c-1.79 0-3.28.57-3.58 1.32 .02-.13.05-.25.08-.37 .42-.67 1.83-1.17 3.5-1.17 1.67 0 3.07.49 3.5 1.17 .03.12.05.24.08.37-.31-.75-1.8-1.32-3.58-1.32z" style="fill: #D80000" transform="translate(-1 -1)"/>
	
<path d="M364.16 454.58c-1.91 0-3.45.64-3.45 1.42 0 .79 1.54 1.42 3.44 1.42l0-2.84z" style="fill: #7BB3D4" transform="translate(-1 -1)"/>
	
<path d="M364.16 457.42c1.9 0 3.44-.63 3.44-1.42 0-.78-1.54-1.42-3.44-1.42l0 2.84z" style="fill: #FFFFFF" transform="translate(-1 -1)"/>
	
<path d="M364.16 454.58c1.59 0 2.92.44 3.32 1.05-.19.71-1.61 1.26-3.32 1.26-1.72 0-3.13-.56-3.33-1.26 .4-.61 1.73-1.05 3.32-1.05z" transform="translate(-1 -1)"/>
			</g>

<path d="M355.25 459.88c0-.59-.48-1.07-1.06-1.07-.59 0-1.06.48-1.06 1.06 0 .59.47 1.06 1.06 1.06 .59 0 1.06-.47 1.06-1.05z" style="fill: #D80000" transform="translate(-1 -1)"/>

<path d="M356.34 459.87c0-1.18-.96-2.15-2.15-2.15-1.19 0-2.15.96-2.15 2.15 0 1.19.96 2.15 2.15 2.15 1.19 0 2.15-.96 2.15-2.15z" style="fill: none; stroke: #D80000; stroke-width: 0.5; stroke-miterlimit: 4" transform="translate(-1 -1)"/>

<path d="M357.73 459.88c0-1.96-1.58-3.55-3.54-3.55-1.96 0-3.55 1.59-3.55 3.55 0 1.96 1.59 3.55 3.55 3.55 1.96 0 3.55-1.59 3.55-3.55z" style="fill: none; stroke: #D80000; stroke-width: 0.5; stroke-miterlimit: 4" transform="translate(-1 -1)"/>

<path d="M354.19 459.87 l 5.9-3.2" style="fill: none; stroke: #FFFFFF; stroke-linecap: round; stroke-width: 0.25; stroke-miterlimit: 4" transform="translate(-1 -1)"/>
		</g> <!-- Cup_Zoom -->
<!-- end cup defs -->
<!-- begin cups -->
		<g id="AllCups" style="visibility: hidden">
			<use x="-30" y="25" id="Cup0" xlink:href="#Cup"/>
			<use x="-30" y="25" id="Cup0_Coffee1" xlink:href="#Coffee1"/>
			<use x="-55" y="18" id="Cup1" xlink:href="#Cup"/>
			<use x="-55" y="18" id="Cup1_Coffee1" xlink:href="#Coffee1"/>
			<use x="-62" y="5" id="Cup2" xlink:href="#Cup"/>
			<use x="-62" y="5" id="Cup2_Coffee1" xlink:href="#Coffee1"/>
			<use id="Cup3" xlink:href="#Cup" />
			<use id="Cup3_Coffee1" xlink:href="#Coffee1"/>
			<use x="-12" y="30" id="Cup4" xlink:href="#Cup"/>
			<use x="-12" y="30" id="Cup4_Coffee1" xlink:href="#Coffee1"/>
			<use x="10" y="20" id="Cup5" xlink:href="#Cup"/>
			<use x="10" y="20" id="Cup5_Coffee1" xlink:href="#Coffee1"/>
			<use x="-55" y="-15" id="Cup6" xlink:href="#Cup"/>
			<use x="-55" y="-15" id="Cup6_Coffee1" xlink:href="#Coffee1"/>
			<use x="-32" y="2" id="Cup7" xlink:href="#Cup"/>
			<use x="-32" y="2" id="Cup7_Coffee1" xlink:href="#Coffee1"/>
			<use x="-42" y="-33" id="Cup8" xlink:href="#Cup"/>
			<use x="-42" y="-33" id="Cup8_Coffee1" xlink:href="#Coffee1"/>
			<use x="-10" y="-10" id="Cup9" xlink:href="#Cup"/>
			<use x="-10" y="-10" id="Cup9_Coffee1" xlink:href="#Coffee1"/>
			<use x="-10" y="-10" id="Cup9_Coffee2" xlink:href="#Coffee2" style="visibility: hidden"/>
			<use x="-10" y="-10" id="Cup9_Coffee3" xlink:href="#Coffee3" style="visibility: hidden"/>
			<use x="-10" y="-10" id="Cup9_Coffee4" xlink:href="#Coffee4" style="visibility: hidden"/>
			<use x="-10" y="10" id="Cup10" xlink:href="#Cup" style="visibility: hidden"/>
			<use x="-10" y="10" id="Cup10_Coffee1" xlink:href="#Coffee1" style="visibility: hidden"/>
			<use x="-10" y="10" id="Cup10_Coffee2" xlink:href="#Coffee2" style="visibility: hidden"/>
			<use x="-10" y="10" id="Cup10_Coffee3" xlink:href="#Coffee3" style="visibility: hidden"/>
			<use x="-10" y="10" id="Cup10_Coffee4" xlink:href="#Coffee4" style="visibility: hidden"/>
		</g>
<!-- end cups -->
<!-- begin steam defs -->
		<!-- after cups so that steam is above cup -->
		<g style="fill-opacity: 50%">

<g id="Steam4" style="visibility: hidden">
	
<path d="M353.596 461.885c-.06 1.027.549 1.813.879 2.234 .357.462 1.02 1.318.952 2.459-.068 1.147-.86 2.012-1.241 2.428-.376.412-1.077 1.18-1.138 2.207-.059 1.028.549 1.814.879 2.236 .354.459 1.019 1.315.954 2.458-.068 1.146-.861 2.01-1.241 2.427" style="fill: none"/>
	
<path d="M354.386 462.126c0-.003.278-.072-.201-.059l-.388-.028-.291-.1-.277.022c.123-.178-.538.737 1.144 3.094-.012.003.492.933.164 2.006 0 0-.133.505-.746 1.241-.63.61-2.064 2.457-1.202 4.276 2.495 2.727 1.409 4.604.952 5.073-.067.025 1.223-1.352.523-2.734-.793-1.009-2.108-3.38-1.704-3.736-.223-.018.487 2.336 1.602 3.348 .898 1.305.001 2.878-.146 3.066-.063.036 1.141-1.323.443-2.75-.733-1.137-1.99-3.059-1.567-3.489-.141.007.353 1.797 1.466 2.855 1.047 1.265.315 3.007.173 3.306 .047.018.47-1.055.477-1.365l-.053.54 .149-.857-.089-.495c.098-.014.105 1.353.05 1.483-.191-.02.156.627.025-1.89 .289-.152-1.151-1.122-1.782-3.48-.21-1.421 1.366-2.227 2.252-3.818 1.3-1.818-1.126-4.15-.974-5.509z" style="fill: #FFFFFF"/>
	
<path d="M353.101 461.857c.029-.049-.175 1.183.697 2.394 .861 1.077 1.216 2.33.345 3.458 .328.066-1.557.878-1.901 3.687 .553 2.795 2.149 3.594 1.831 4.023 .117-.005.047 1.536-.896 2.492" style="fill: none; stroke: #FFFFFF; stroke-width: 0.003006; stroke-miterlimit: 4"/>
	
<path d="M352.244 471.431c-.427-1.563 2.998-4.737 2.271-4.584 .667-.847-2.186-4.608-1.414-4.99" style="fill: none; stroke: #FFFFFF; stroke-width: 0.003006; stroke-miterlimit: 4"/>
	
<path d="M352.65 471.593c-.433.463 3.301 4.57 1.511 5.689" style="fill: none; stroke: #FFFFFF; stroke-width: 0.003006; stroke-miterlimit: 4"/>
	
<path d="M353.477 470.185c-.028-.068-.73 1.488.323 2.742 1.173 1.077 1.572 3.027 1.367 3.299" style="fill: none; stroke: #FFFFFF; stroke-width: 0.003006; stroke-miterlimit: 4"/>
			</g>

<g id="Steam3" style="visibility: hidden">
	
<path d="M353.596 461.885c-.06 1.027.549 1.813.879 2.234 .357.462 1.02 1.318.952 2.459-.068 1.147-.86 2.012-1.241 2.428-.376.412-1.077 1.18-1.138 2.207-.059 1.028.549 1.814.879 2.236" style="fill: none"/>
	
<path d="M354.151 462.073c0-.001.194-.053-.141-.05l-.274-.027-.204-.073-.194.014c.143-.066-.442.352.668 2.277-.014.029.484.681.759 1.527 .067-.031.493 1.634-1.098 3.098-1.971 1.732-.543 4.655-.233 4.565 .062.044-1.043-1.069-.746-2.646 .315-1.534 1.498-2.391 1.498-2.492 .084.017-.868.772-1.372 2.124-.457 1.456.51 2.726.625 2.801 .055.021-.884-1.007-.609-2.401 .269-1.361 1.37-2.207 1.474-2.311 .052.013-.773.731-1.214 1.853-.491 1.175.238 2.37.434 2.486-.03.02-.409-.697-.427-.923l.157.344c-.082-.185-.143-.375-.144-.578l-.063-.346c-.024.015.195.924.324.941 .118-.018-.175.454-.195-1.19-.004.029-.02-1.086 1.303-2.352 .561-.648 1.232-1.667 1.011-2.985-.177-1.307-1.588-2.414-1.339-3.656z" style="fill: #FFFFFF"/>
	
<path d="M353.248 461.865c-.594.108 1.188 2.804 1.558 4.419 .993.052-2.533 3.693-2.287 4.985-.108.012.268 1.859 1.06 2.451" style="fill: none; stroke: #FFFFFF; stroke-width: 0.0021057; stroke-miterlimit: 4"/>
	
<path d="M354.034 468.305c.594-.254 1.023-2.708.633-2.704-.482-.684-1.899-3.635-1.419-3.736" style="fill: none; stroke: #FFFFFF; stroke-width: 0.0021057; stroke-miterlimit: 4"/>
	
<path d="M354.18 468.555c-.261-.352-2.256 3.503-.865 4.294" style="fill: none; stroke: #FFFFFF; stroke-width: 0.0021057; stroke-miterlimit: 4"/>
	
<path d="M355.075 467.94c-.012.035-2.633 3.437-1.726 3.911" style="fill: none; stroke: #FFFFFF; stroke-width: 0.0021057; stroke-miterlimit: 4"/>
			</g>

<g id="Steam2" style="visibility: hidden">
	
<path d="M353.596 461.885c-.06 1.027.549 1.813.879 2.234 .357.462 1.02 1.318.952 2.459-.068 1.147-.86 2.012-1.241 2.428" style="fill: none"/>
	
<path d="M353.938 462.011c0-.001.119-.034-.089-.037l-.166-.019-.126-.047-.119.007c.08-.016-.208.146.211 1.425 .001-.014.188.526.61 1.05-.027.002.83.903.847 2.036 .053 1.147-.882 2.141-.958 2.28 .246.087 1.369-2.498.93-2.712 .381.023-.409 2.568-.805 2.691 .192.083 1.323-2.359.945-2.659 .325.016-.316 2.431-.717 2.643 .011.007.266-.421.353-.52l-.114.202 .21-.308 .077-.203c.023.011-.24.533-.256.578-.026-.017-.126.235.387-.696-.028.008.359-.584.238-1.679 .12-1.155-1.644-2.319-1.458-4.032z" style="fill: #FFFFFF"/>
	
<path d="M353.383 461.873c-.094-.043.057 1.787 1.091 2.857 .356-.077.88 2.677.276 2.944 .028.012-.415.73-.763 1.149" style="fill: none; stroke: #FFFFFF; stroke-width: 0.0012054; stroke-miterlimit: 4"/>
	
<path d="M355.027 466.077c.113-.251-.78-1.782-.859-1.764-.677-.567-.898-2.454-.785-2.44" style="fill: none; stroke: #FFFFFF; stroke-width: 0.0012054; stroke-miterlimit: 4"/>
	
<path d="M355.199 466.111c.256.009-.257 2.119-.759 2.447" style="fill: none; stroke: #FFFFFF; stroke-width: 0.0012054; stroke-miterlimit: 4"/>
	
<path d="M355.293 465.455c.374-.044.094 2.657-.311 2.786" style="fill: none; stroke: #FFFFFF; stroke-width: 0.0012054; stroke-miterlimit: 4"/>
			</g>

<g id="Steam1" style="visibility: hidden">
	
<path d="M353.596 461.885c-.06 1.027.549 1.813.879 2.234 .357.462 1.02 1.318.952 2.459" style="fill: none"/>
	
<path d="M353.817 461.971c0 0 .077-.022-.056-.026l-.109-.014-.082-.031-.077.004c.021-.002-.065.077.062.915 .018-.013.032.359.279.745 .071.047 1.807 2.526 1.435 2.884 .141-.042-.485-1.774-.67-1.836 .097-.041.827 1.583.716 1.773 .132-.039-.46-1.674-.62-1.793 .057-.033.808 1.431.715 1.688 0-.001-.05-.319-.051-.405l.029.147-.023-.241-.058-.129c.025-.007.114.359.125.388-.027.006.054.163-.121-.5 .346-.114-1.36-1.282-1.494-3.569z" style="fill: #FFFFFF"/>
	
<path d="M353.457 461.877c.004-.02-.087 1.09.508 1.943 .05.023 1.211 1.63 1.137 1.878 .047-.007.082.539.15.871" style="fill: none; stroke: #FFFFFF; stroke-width: 0.0007019; stroke-miterlimit: 4"/>
	
<path d="M354.599 464.677c-.099-.101-.845-1.142-.822-1.177-.342-.453-.348-1.633-.32-1.623" style="fill: none; stroke: #FFFFFF; stroke-width: 0.0007019; stroke-miterlimit: 4"/>
	
<path d="M354.709 464.649c.029-.021.73 1.249.621 1.605" style="fill: none; stroke: #FFFFFF; stroke-width: 0.0007019; stroke-miterlimit: 4"/>
	
<path d="M354.594 464.227c.075-.056.922 1.443.867 1.634" style="fill: none; stroke: #FFFFFF; stroke-width: 0.0007019; stroke-miterlimit: 4"/>
			</g> <!-- end Steam1 -->
		</g>
<!-- end steam defs -->
	<!--<text style="transform: matrix(1 0 0 -1 200 360); font-family: Palatino-Bold; fill: red">At end</text>-->
	</g> <!-- overall transform -->


<g transform="translate(150 0)">
<a xlink:href="../svgs/tomorrow.svg">
<path style="stroke:none;fill:#3717ff"
d="M 10 0 L 20 10, 15 10, 15 13, 5 13,5 10, 0 10,10 0 z" />
</a>
</g>

<g transform="translate(200 0)">
<g transform="rotate(90)">
<a xlink:href="../htmls/layers.htm">
<path style="stroke:none;fill:#3717ff"
d="M 10 0 L 20 10, 15 10, 15 13, 5 13,5 10, 0 10,10 0 z" />
</a>
</g>
</g>
</svg>
