<?xml version="1.0" standalone="no"?>
<!-- Generator: Mayura Draw 3.6 -->
<!DOCTYPE svg PUBLIC "-//W3C//DTD SVG 20000303 Stylable//EN"
  "http://www.w3.org/TR/2000/03/WD-SVG-20000303/DTD/svg-20000303-stylable.dtd" [
	<!ENTITY st0 "stroke:#000000;stroke-width:1;fill:#ff9966">
	<!ENTITY st1 "stroke:#000000;stroke-width:1;fill:#6633ff">
	<!ENTITY stt0 "fill:#fffbf7; font-family:Arial; font-size:24; text-anchor:middle">
]>
<svg xml:space="preserve" width="412" height="232" viewBox="0 0 412 232">
<desc>Smil_region.pdx</desc>
<rect style="&st0;" transform="matrix(0 1 1 0 -129.6 -86.27)" x="96.198" y="159.608" width="212.719" height="372.559"/>
<rect style="&st1;" transform="matrix(0 1 1 0 -129.6 -86.27)" x="141.867" y="235.322" width="135.804" height="260.791"/>
<text transform="matrix(1 0 0 1 19.18 -231.2)" style="&stt0;"><tspan x="216.979" y="319.36">width</tspan></text>
<text transform="matrix(1 0 0 1 -63.75 -180.3)" style="&stt0;"><tspan x="216.979" y="319.36">height</tspan></text>
<text transform="matrix(1 0 0 1 -36.11 -274.1)" style="&stt0;"><tspan x="216.979" y="319.36">top</tspan></text>
<text transform="matrix(1 0 0 1 -156.3 -174.3)" style="&stt0;"><tspan x="216.979" y="319.36">left</tspan></text>
<text transform="matrix(1 0 0 1 76.86 -144.3)" style="&stt0;"><tspan x="216.979" y="319.36">z index</tspan></text>
</svg>
