<?xml version="1.0" encoding="iso-8859-1"?>
<!-- Generator: Adobe Illustrator 12.0.0, SVG Export Plug-In . SVG Version: 6.00 Build 51448)  -->
<!DOCTYPE svg PUBLIC "-//W3C//DTD SVG 1.1//EN" "http://www.w3.org/Graphics/SVG/1.1/DTD/svg11.dtd" [
	<!ENTITY ns_svg "http://www.w3.org/2000/svg">
	<!ENTITY ns_xlink "http://www.w3.org/1999/xlink">
]>
<svg  version="1.1" id="Layer_1" xmlns="&ns_svg;" xmlns:xlink="&ns_xlink;" 
	 viewBox="0 0 431.028 316.8" style="overflow:visible;enable-background:new 0 0 431.028 316.8;" xml:space="preserve">
<g>
</g>
<g>
	<g>
		<rect x="0.5" y="284.789" style="fill:#D0F7DE;stroke:#000000;" width="429.251" height="31.512"/>
		<g>
			<path d="M172.517,307.54h-1.974l2.016-14.322h1.974L172.517,307.54z"/>
			<path d="M180.119,293.217c1.848,0,2.877,0.273,3.696,1.009c0.777,0.714,1.176,1.68,1.176,2.877c0,1.722-1.134,3.045-2.94,3.507
				c0.441,0.272,0.882,0.902,1.197,1.575l2.562,5.354h-2.058l-1.638-3.402c-1.176-2.457-1.68-2.919-2.982-2.919h-0.756l-0.882,6.321
				h-1.974l2.016-14.322H180.119z M178.627,299.517h1.008c2.625,0,3.318-1.364,3.318-2.52c0-1.344-0.882-2.079-2.583-2.079h-1.113
				L178.627,299.517z"/>
			<path d="M188.708,307.54h-1.974l2.016-14.322h1.974L188.708,307.54z"/>
			<path d="M195.658,293.029h1.47l-4.116,14.7h-1.47L195.658,293.029z"/>
			<path d="M208.993,302.058c-0.546,3.906-2.772,5.671-5.964,5.671c-3.276,0-5.292-2.101-4.851-5.292l1.302-9.22h1.89l-1.323,9.366
				c-0.315,2.289,1.218,3.423,3.087,3.423c1.008,0,2.037-0.356,2.751-1.07c0.735-0.735,0.987-1.765,1.218-3.486l1.155-8.232h1.974
				L208.993,302.058z"/>
			<path d="M213.697,299.77l0.042,0.042c1.029-1.261,2.079-1.849,3.129-1.849c1.995,0,2.499,2.079,2.247,3.633l-0.903,5.943h-1.764
				l0.861-6.006c0.231-1.638-0.483-2.101-1.029-2.101c-0.504,0-1.491,0.357-2.835,2.101l-0.861,6.006h-1.764l1.323-9.429h1.785
				L213.697,299.77z"/>
			<path d="M222.307,307.54h-1.785l1.323-9.429h1.785L222.307,307.54z M224.092,295.15c0,0.566-0.462,1.028-1.029,1.028
				s-1.029-0.462-1.029-1.028c0-0.567,0.462-1.029,1.029-1.029S224.092,294.583,224.092,295.15z"/>
			<path d="M231.274,307.162c-0.903,0.483-1.659,0.672-2.625,0.672c-2.541,0-4.158-1.701-4.158-4.347c0-3.066,2.394-5.67,6.111-5.67
				c0.483,0,1.029,0.063,1.617,0.168l-0.231,1.575c-0.483-0.105-0.924-0.147-1.365-0.147c-2.625,0-4.305,1.974-4.305,3.969
				c0,1.785,0.987,2.856,2.583,2.856c0.945,0,1.701-0.273,2.583-0.798L231.274,307.162z"/>
			<path d="M236.377,307.833c-2.226,0-3.549-1.575-3.549-4.221c0-3.297,1.953-5.796,4.515-5.796c2.142,0,3.507,1.638,3.507,4.115
				C240.85,305.46,238.854,307.833,236.377,307.833z M236.313,306.3c1.491,0,2.709-1.869,2.709-4.473c0-1.575-0.65-2.604-1.68-2.604
				c-1.533,0-2.688,2.185-2.688,4.578C234.655,305.314,235.39,306.3,236.313,306.3z"/>
			<path d="M249.501,307.54c-0.756,0.21-1.49,0.294-2.414,0.294c-3.172,0-4.956-1.554-4.956-4.368c0-2.016,1.7-5.648,6.194-5.648
				h0.756l0.651-4.6h1.785L249.501,307.54z M248.871,299.307h-0.462c-2.919,0-4.452,2.101-4.452,4.116c0,1.869,1.113,2.94,3.13,2.94
				c0.272,0,0.524,0,0.818-0.042L248.871,299.307z"/>
			<path d="M259.224,306.784c-0.944,0.692-2.016,1.05-3.149,1.05c-2.395,0-3.948-1.806-3.948-4.557c0-3.087,1.953-5.46,4.473-5.46
				c2.101,0,3.676,1.953,3.276,4.83h-5.88c-0.441,2.52,0.945,3.717,2.415,3.717c0.882,0,1.89-0.42,3.066-1.281L259.224,306.784z
				 M258.216,301.408c0-1.197-0.524-2.121-1.701-2.121c-1.05,0-1.764,0.693-2.246,2.121H258.216z"/>
		</g>
	</g>
	<g>
		<rect x="28.662" y="246.541" style="fill:#F4EB45;stroke:#000000;" width="311.341" height="31.512"/>
		<g>
			<path d="M105.93,255.465c1.848,0,2.877,0.273,3.696,1.009c0.777,0.714,1.176,1.68,1.176,2.877c0,1.722-1.134,3.045-2.94,3.507
				c0.441,0.272,0.882,0.902,1.197,1.575l2.562,5.354h-2.058l-1.638-3.402c-1.176-2.457-1.68-2.919-2.982-2.919h-0.756l-0.882,6.321
				h-1.974l2.016-14.322H105.93z M104.439,261.765h1.008c2.625,0,3.318-1.364,3.318-2.52c0-1.344-0.882-2.079-2.583-2.079h-1.113
				L104.439,261.765z"/>
			<path d="M114.582,255.465h1.701c2.814,0,5.124,0.756,6.594,2.289c1.197,1.239,1.806,2.877,1.806,4.894
				c0,3.717-2.1,7.14-7.476,7.14h-4.662L114.582,255.465z M114.729,268.086h1.722c2.667,0,3.717-0.42,4.725-1.386
				c0.819-0.777,1.47-2.289,1.47-4.116c0-4.011-3.444-5.396-5.733-5.396h-0.651L114.729,268.086z"/>
			<path d="M134.826,257.167h-4.977l-0.63,4.494h4.578l-0.252,1.701h-4.578l-0.903,6.426h-1.911l2.079-14.322h6.825L134.826,257.167
				z"/>
			<path d="M155.7,269.788h-1.89V258.93h-0.042l-5.754,10.857l-2.478-10.962h-0.042l-3.528,10.962h-1.89l4.725-14.322h1.638
				l2.226,9.702l5.145-9.702h1.89V269.788z"/>
			<path d="M161.475,270.082c-2.226,0-3.549-1.575-3.549-4.221c0-3.297,1.953-5.796,4.515-5.796c2.142,0,3.507,1.638,3.507,4.115
				C165.947,267.708,163.952,270.082,161.475,270.082z M161.412,268.548c1.491,0,2.709-1.869,2.709-4.473
				c0-1.575-0.651-2.604-1.68-2.604c-1.533,0-2.688,2.185-2.688,4.578C159.752,267.562,160.487,268.548,161.412,268.548z"/>
			<path d="M174.599,269.788c-0.756,0.21-1.491,0.294-2.415,0.294c-3.171,0-4.956-1.554-4.956-4.368
				c0-2.016,1.701-5.648,6.195-5.648h0.756l0.651-4.6h1.785L174.599,269.788z M173.969,261.555h-0.462
				c-2.919,0-4.452,2.101-4.452,4.116c0,1.869,1.113,2.94,3.129,2.94c0.273,0,0.525,0,0.819-0.042L173.969,261.555z"/>
			<path d="M184.322,269.032c-0.945,0.692-2.016,1.05-3.15,1.05c-2.394,0-3.948-1.806-3.948-4.557c0-3.087,1.953-5.46,4.473-5.46
				c2.1,0,3.675,1.953,3.276,4.83h-5.88c-0.441,2.52,0.945,3.717,2.415,3.717c0.882,0,1.89-0.42,3.066-1.281L184.322,269.032z
				 M183.314,263.656c0-1.197-0.525-2.121-1.701-2.121c-1.05,0-1.764,0.693-2.247,2.121H183.314z"/>
			<path d="M187.892,269.788h-1.785l2.016-14.322h1.785L187.892,269.788z"/>
			<path d="M209.122,262.584c-0.42,1.071-1.533,3.402-2.919,4.704c1.239,1.176,2.289,1.176,2.583,1.176c0.147,0,0.294,0,0.462-0.063
				l-0.693,1.491c-0.126,0.063-0.315,0.084-0.504,0.084c-0.945,0-2.289-0.693-3.066-1.575c-1.344,0.986-2.688,1.575-4.431,1.575
				c-2.751,0-4.074-1.891-4.074-4.012c0-1.68,1.323-3.359,3.339-4.241c-0.441-0.861-0.798-1.891-0.798-3.024
				c0-1.932,1.449-3.423,3.339-3.423c1.554,0,2.793,1.281,2.793,2.919c0,1.533-0.945,2.939-3.045,4.116
				c0.462,0.86,1.848,2.688,2.877,3.863c1.134-1.134,1.848-2.457,2.289-3.591H209.122z M200.995,268.422
				c0.819,0,1.764-0.378,2.772-1.112c-0.903-1.009-2.457-3.004-3.129-4.116c-1.47,0.818-2.226,1.785-2.226,2.793
				C198.412,267.415,199.483,268.422,200.995,268.422z M202.087,256.873c-0.756,0-1.365,0.819-1.365,1.89
				c0,0.673,0.147,1.197,0.588,2.143c1.218-0.609,2.016-1.638,2.016-2.604C203.326,257.46,202.822,256.873,202.087,256.873z"/>
			<path d="M224.641,257.796c-0.882-0.566-1.638-0.756-2.52-0.756c-1.533,0-2.52,0.861-2.52,2.163c0,2.31,4.851,3.276,4.851,6.993
				c0,1.785-1.386,3.78-4.242,3.78c-0.945,0-2.226-0.295-3.465-1.029l0.294-2.101c1.512,1.051,2.499,1.365,3.36,1.365
				c0.735,0,2.121-0.504,2.121-1.848c0-2.541-4.851-3.423-4.851-7.182c0-2.353,2.268-3.906,4.62-3.906
				c0.588,0,1.659,0.146,2.625,0.566L224.641,257.796z"/>
			<path d="M226.951,274.618h-1.89l2.562-5.397l-1.827-8.861h1.785l1.26,6.488h0.042l2.961-6.488h1.869L226.951,274.618z"/>
			<path d="M236.694,262.018l0.042,0.042c1.029-1.261,2.079-1.849,3.129-1.849c1.995,0,2.499,2.079,2.247,3.633l-0.903,5.943h-1.764
				l0.861-6.006c0.23-1.638-0.483-2.101-1.029-2.101c-0.504,0-1.491,0.357-2.835,2.101l-0.861,6.006h-1.764l1.323-9.429h1.785
				L236.694,262.018z"/>
			<path d="M248.832,261.745h-1.89l-0.903,5.166c-0.21,1.197,0.063,1.575,0.924,1.575c0.525,0,0.945-0.126,1.723-0.567l-0.105,1.743
				c-0.756,0.315-1.26,0.42-1.953,0.42c-1.848,0-2.709-1.176-2.457-2.625l0.987-5.712h-1.659l0.21-1.386h1.722l0.357-1.933h1.764
				l-0.336,1.933h1.807L248.832,261.745z"/>
			<path d="M256.979,269.788h-1.785l0.168-1.092l-0.042-0.042c-0.734,0.798-1.638,1.323-2.541,1.323
				c-1.743,0-3.107-1.681-3.107-3.738c0-3.003,1.806-6.174,6.404-6.174c0.672,0,1.701,0.126,2.227,0.294L256.979,269.788z
				 M256.35,261.619c-4.074-0.336-4.852,3.045-4.852,4.305c0,1.513,0.777,2.583,1.869,2.583c0.714,0,1.659-0.714,2.205-1.449
				L256.35,261.619z"/>
			<path d="M264.287,265.021l2.394,4.767h-1.91l-1.723-3.528l-2.729,3.528h-2.185l4.116-4.998l-2.226-4.431h1.911l1.49,3.171
				l2.457-3.171h2.205L264.287,265.021z"/>
		</g>
	</g>
	<g>
		<rect x="83.663" y="205.367" style="fill:#F4EB45;stroke:#000000;" width="255.879" height="31.512"/>
		<g>
			<path d="M162.201,212.889c1.848,0,2.877,0.273,3.696,1.009c0.777,0.714,1.176,1.68,1.176,2.877c0,1.722-1.134,3.045-2.94,3.507
				c0.441,0.272,0.882,0.902,1.197,1.575l2.562,5.354h-2.058l-1.638-3.402c-1.176-2.457-1.68-2.919-2.982-2.919h-0.756l-0.882,6.321
				h-1.974l2.016-14.322H162.201z M160.709,219.189h1.008c2.625,0,3.318-1.364,3.318-2.52c0-1.344-0.882-2.079-2.583-2.079h-1.113
				L160.709,219.189z"/>
			<path d="M170.853,212.889h1.701c2.814,0,5.124,0.756,6.594,2.289c1.197,1.239,1.806,2.877,1.806,4.894
				c0,3.717-2.1,7.14-7.476,7.14h-4.662L170.853,212.889z M171,225.51h1.722c2.667,0,3.717-0.42,4.725-1.386
				c0.819-0.777,1.47-2.289,1.47-4.116c0-4.011-3.444-5.396-5.733-5.396h-0.651L171,225.51z"/>
			<path d="M191.096,214.59h-4.977l-0.63,4.494h4.578l-0.252,1.701h-4.578l-0.903,6.426h-1.911l2.079-14.322h6.825L191.096,214.59z"
				/>
			<path d="M205.313,215.22c-0.882-0.566-1.638-0.756-2.52-0.756c-1.533,0-2.52,0.861-2.52,2.163c0,2.31,4.851,3.276,4.851,6.993
				c0,1.785-1.386,3.78-4.242,3.78c-0.945,0-2.226-0.295-3.465-1.029l0.294-2.101c1.512,1.051,2.499,1.365,3.36,1.365
				c0.735,0,2.121-0.504,2.121-1.848c0-2.541-4.851-3.423-4.851-7.182c0-2.353,2.268-3.906,4.62-3.906
				c0.588,0,1.659,0.146,2.625,0.566L205.313,215.22z"/>
			<path d="M213.272,226.833c-0.903,0.483-1.659,0.672-2.625,0.672c-2.541,0-4.158-1.701-4.158-4.347c0-3.066,2.394-5.67,6.111-5.67
				c0.483,0,1.029,0.063,1.617,0.168l-0.231,1.575c-0.483-0.105-0.924-0.147-1.365-0.147c-2.625,0-4.305,1.974-4.305,3.969
				c0,1.785,0.987,2.856,2.583,2.856c0.945,0,1.701-0.273,2.583-0.798L213.272,226.833z"/>
			<path d="M217.829,219.294l0.042,0.042c1.05-1.218,2.163-1.848,3.276-1.848c1.701,0,2.394,1.49,2.142,3.297l-0.903,6.426h-1.785
				l0.903-6.531c0.168-1.196-0.294-1.848-1.071-1.848c-0.861,0-1.953,1.008-2.856,2.247l-0.861,6.132h-1.785l2.016-14.322h1.785
				L217.829,219.294z"/>
			<path d="M232.235,226.456c-0.945,0.692-2.016,1.05-3.15,1.05c-2.394,0-3.948-1.806-3.948-4.557c0-3.087,1.953-5.46,4.473-5.46
				c2.1,0,3.675,1.953,3.276,4.83h-5.88c-0.441,2.52,0.945,3.717,2.415,3.717c0.882,0,1.89-0.42,3.066-1.281L232.235,226.456z
				 M231.227,221.08c0-1.197-0.525-2.121-1.701-2.121c-1.05,0-1.764,0.693-2.247,2.121H231.227z"/>
			<path d="M236.876,219.42l0.042,0.042c1.154-1.302,2.205-1.827,3.255-1.827c0.776,0,1.89,0.399,2.142,2.121
				c1.365-1.68,2.604-2.121,3.528-2.121c1.365,0,2.52,1.029,2.163,3.465l-0.861,6.111h-1.785l0.882-6.195
				c0.189-1.238-0.188-1.974-0.966-1.974c-0.63,0-1.659,0.462-2.961,2.184l-0.861,5.985h-1.784l0.84-5.964
				c0.21-1.365-0.042-2.205-1.05-2.205c-0.693,0-1.849,0.861-2.835,2.184l-0.84,5.985h-1.785l1.344-9.429h1.785L236.876,219.42z"/>
			<path d="M257.119,227.211h-1.785l0.168-1.092l-0.042-0.042c-0.734,0.798-1.638,1.323-2.541,1.323
				c-1.743,0-3.107-1.681-3.107-3.738c0-3.003,1.806-6.174,6.404-6.174c0.672,0,1.701,0.126,2.227,0.294L257.119,227.211z
				 M256.489,219.042c-4.074-0.336-4.852,3.045-4.852,4.305c0,1.513,0.777,2.583,1.869,2.583c0.714,0,1.659-0.714,2.205-1.449
				L256.489,219.042z"/>
			<path d="M265.708,220.344c-1.071-0.818-2.059-1.239-2.835-1.239c-0.735,0-1.281,0.441-1.281,0.987c0,1.344,3.759,1.995,3.759,4.6
				c0,1.7-1.26,2.813-2.919,2.813c-1.176,0-1.932-0.294-3.275-1.239l0.314-1.722c1.239,0.987,2.142,1.407,2.898,1.407
				c0.714,0,1.218-0.441,1.218-1.05c0-1.575-3.696-2.143-3.696-4.704c0-1.617,1.155-2.709,2.961-2.709
				c0.987,0,1.975,0.378,2.856,0.986V220.344z"/>
		</g>
	</g>
	<g>
		<rect x="82.499" y="164.193" style="fill:#F4EB45;stroke:#000000;" width="255.88" height="31.512"/>
		<g>
			<path d="M89.721,171.717h1.701c2.814,0,5.124,0.756,6.594,2.289c1.197,1.239,1.806,2.877,1.806,4.894
				c0,3.717-2.1,7.14-7.476,7.14h-4.662L89.721,171.717z M89.868,184.338h1.722c2.667,0,3.717-0.42,4.725-1.386
				c0.819-0.777,1.47-2.289,1.47-4.116c0-4.011-3.444-5.396-5.733-5.396h-0.651L89.868,184.338z"/>
			<path d="M103.413,184.444h5.88l-0.231,1.596h-7.686l2.016-14.322h1.89L103.413,184.444z"/>
			<path d="M120.275,171.717c2.226,0,4.641,0.819,4.641,4.054c0,1.596-1.113,4.221-4.578,4.221h-1.722l-0.84,6.048h-1.974
				l2.016-14.322H120.275z M118.868,178.291h1.386c1.974,0,2.73-1.386,2.73-2.583c0-1.155-0.693-2.289-2.604-2.289h-0.84
				L118.868,178.291z"/>
			<path d="M128.255,178.396l0.042,0.042c1.113-1.597,1.596-1.975,2.499-1.975c0.273,0,0.462,0.021,0.777,0.147v2.016
				c-0.42-0.23-0.714-0.314-1.092-0.314c-0.924,0-1.554,0.566-2.541,2.414l-0.735,5.313h-1.785l1.323-9.429h1.785L128.255,178.396z"
				/>
			<path d="M135.102,186.333c-2.226,0-3.549-1.575-3.549-4.221c0-3.297,1.953-5.796,4.515-5.796c2.142,0,3.507,1.638,3.507,4.115
				C139.574,183.96,137.579,186.333,135.102,186.333z M135.039,184.8c1.491,0,2.709-1.869,2.709-4.473
				c0-1.575-0.651-2.604-1.68-2.604c-1.533,0-2.688,2.185-2.688,4.578C133.379,183.814,134.114,184.8,135.039,184.8z"/>
			<path d="M149.15,177.997h-1.827c0.483,0.693,0.63,1.218,0.63,1.869c0,1.575-0.756,2.813-2.205,3.423
				c-1.113,0.462-3.213,0.357-3.213,1.26c0,1.176,5.166,0.504,5.166,3.633c0,1.555-1.617,2.688-3.843,2.688
				c-2.373,0-4.095-1.029-4.095-2.437c0-1.112,1.281-1.616,2.709-1.91v-0.042c-1.176-0.441-1.638-0.925-1.638-1.659
				c0-0.777,0.798-1.449,1.869-1.743c-1.113-0.525-1.701-1.47-1.701-2.709c0-2.163,1.596-3.759,3.507-3.759h4.83L149.15,177.997z
				 M143.9,187.005c-1.218,0.231-2.436,0.756-2.436,1.386c0,0.693,0.966,1.135,2.541,1.135c1.218,0,1.995-0.483,1.995-1.177
				C146,187.761,145.013,187.257,143.9,187.005z M144.572,178.06c-0.966,0-1.869,1.05-1.869,2.184c0,1.113,0.714,1.911,1.701,1.911
				c1.176,0,1.848-1.155,1.848-2.205C146.252,178.836,145.538,178.06,144.572,178.06z"/>
			<path d="M152.573,178.396l0.042,0.042c1.113-1.597,1.596-1.975,2.499-1.975c0.273,0,0.462,0.021,0.777,0.147v2.016
				c-0.42-0.23-0.714-0.314-1.092-0.314c-0.924,0-1.554,0.566-2.541,2.414l-0.735,5.313h-1.785l1.323-9.429h1.785L152.573,178.396z"
				/>
			<path d="M163.157,186.04h-1.785l0.168-1.092l-0.042-0.042c-0.735,0.798-1.638,1.323-2.541,1.323
				c-1.743,0-3.108-1.681-3.108-3.738c0-3.003,1.806-6.174,6.405-6.174c0.672,0,1.701,0.126,2.226,0.294L163.157,186.04z
				 M162.527,177.871c-4.074-0.336-4.851,3.045-4.851,4.305c0,1.513,0.777,2.583,1.869,2.583c0.714,0,1.659-0.714,2.205-1.449
				L162.527,177.871z"/>
			<path d="M168.302,178.249l0.042,0.042c1.155-1.302,2.205-1.827,3.255-1.827c0.777,0,1.89,0.399,2.142,2.121
				c1.365-1.68,2.604-2.121,3.528-2.121c1.365,0,2.52,1.029,2.163,3.465l-0.861,6.111h-1.785l0.882-6.195
				c0.189-1.238-0.189-1.974-0.966-1.974c-0.63,0-1.659,0.462-2.961,2.184l-0.861,5.985h-1.785l0.84-5.964
				c0.21-1.365-0.042-2.205-1.05-2.205c-0.693,0-1.848,0.861-2.835,2.184l-0.84,5.985h-1.785l1.344-9.429h1.785L168.302,178.249z"/>
			<path d="M183.842,178.249l0.042,0.042c1.155-1.302,2.205-1.827,3.255-1.827c0.777,0,1.89,0.399,2.142,2.121
				c1.365-1.68,2.604-2.121,3.528-2.121c1.365,0,2.52,1.029,2.163,3.465l-0.861,6.111h-1.785l0.882-6.195
				c0.189-1.238-0.189-1.974-0.966-1.974c-0.63,0-1.659,0.462-2.961,2.184l-0.861,5.985h-1.785l0.84-5.964
				c0.21-1.365-0.042-2.205-1.05-2.205c-0.693,0-1.848,0.861-2.835,2.184l-0.84,5.985h-1.785l1.344-9.429h1.785L183.842,178.249z"/>
			<path d="M198.312,186.04h-1.785l1.323-9.429h1.785L198.312,186.04z M200.097,173.65c0,0.566-0.462,1.028-1.029,1.028
				s-1.029-0.462-1.029-1.028c0-0.567,0.462-1.029,1.029-1.029S200.097,173.083,200.097,173.65z"/>
			<path d="M203.498,178.27l0.042,0.042c1.029-1.261,2.079-1.849,3.129-1.849c1.995,0,2.499,2.079,2.247,3.633l-0.903,5.943h-1.764
				l0.861-6.006c0.231-1.638-0.483-2.101-1.029-2.101c-0.504,0-1.491,0.357-2.835,2.101l-0.861,6.006h-1.764l1.323-9.429h1.785
				L203.498,178.27z"/>
			<path d="M218.996,177.997h-1.827c0.483,0.693,0.63,1.218,0.63,1.869c0,1.575-0.756,2.813-2.205,3.423
				c-1.113,0.462-3.213,0.357-3.213,1.26c0,1.176,5.166,0.504,5.166,3.633c0,1.555-1.617,2.688-3.843,2.688
				c-2.373,0-4.095-1.029-4.095-2.437c0-1.112,1.281-1.616,2.709-1.91v-0.042c-1.176-0.441-1.638-0.925-1.638-1.659
				c0-0.777,0.798-1.449,1.869-1.743c-1.113-0.525-1.701-1.47-1.701-2.709c0-2.163,1.596-3.759,3.507-3.759h4.83L218.996,177.997z
				 M213.746,187.005c-1.218,0.231-2.436,0.756-2.436,1.386c0,0.693,0.966,1.135,2.541,1.135c1.218,0,1.995-0.483,1.995-1.177
				C215.846,187.761,214.859,187.257,213.746,187.005z M214.418,178.06c-0.966,0-1.869,1.05-1.869,2.184
				c0,1.113,0.714,1.911,1.701,1.911c1.176,0,1.848-1.155,1.848-2.205C216.098,178.836,215.384,178.06,214.418,178.06z"/>
			<path d="M228.95,186.333c-2.226,0-3.549-1.575-3.549-4.221c0-3.297,1.953-5.796,4.515-5.796c2.142,0,3.507,1.638,3.507,4.115
				C233.423,183.96,231.428,186.333,228.95,186.333z M228.887,184.8c1.491,0,2.709-1.869,2.709-4.473
				c0-1.575-0.651-2.604-1.68-2.604c-1.533,0-2.688,2.185-2.688,4.578C227.228,183.814,227.963,184.8,228.887,184.8z"/>
			<path d="M239.85,178.186h-1.911l-1.513,11.822h-1.743l1.512-11.822h-1.512l0.231-1.575h1.491
				c0.188-2.856,1.575-5.082,4.536-5.082c0.798,0,1.512,0.168,2.289,0.44l-0.252,1.765c-0.609-0.336-1.303-0.525-1.849-0.525
				c-1.743,0-2.771,1.197-2.961,3.402h1.911L239.85,178.186z"/>
			<path d="M251.756,186.229c-3.003,0-5.103-2.499-5.103-6.049c0-3.759,2.373-8.651,6.95-8.651c3.046,0,5.062,2.436,5.062,6.006
				C258.665,182.679,255.431,186.229,251.756,186.229z M253.583,173.25c-3.381,0-4.998,4.137-4.998,7.203
				c0,2.52,1.26,4.053,3.213,4.053c2.667,0,4.936-3.255,4.936-7.308C256.733,174.678,255.473,173.25,253.583,173.25z"/>
			<path d="M272.084,186.166h-0.735l-2.772-10.164l-4.872,10.164h-0.756l-3.381-14.448h1.807l2.33,10.144h0.043l4.829-10.144h0.735
				l2.793,10.312l4.914-10.312h1.995L272.084,186.166z"/>
			<path d="M280.547,184.444h5.88l-0.231,1.596h-7.686l2.016-14.322h1.89L280.547,184.444z"/>
			<path d="M291.235,171.529h1.47l-4.116,14.7h-1.47L291.235,171.529z"/>
			<path d="M297.786,171.717c1.849,0,2.878,0.273,3.696,1.009c0.777,0.714,1.176,1.68,1.176,2.877c0,1.722-1.134,3.045-2.939,3.507
				c0.44,0.272,0.882,0.902,1.197,1.575l2.562,5.354h-2.058l-1.639-3.402c-1.176-2.457-1.68-2.919-2.981-2.919h-0.756l-0.883,6.321
				h-1.974l2.017-14.322H297.786z M296.296,178.017h1.008c2.625,0,3.318-1.364,3.318-2.52c0-1.344-0.883-2.079-2.583-2.079h-1.113
				L296.296,178.017z"/>
			<path d="M311.394,186.04h-1.764l0.21-1.554l-0.042-0.042c-0.734,0.776-1.827,1.743-3.107,1.743c-1.051,0-2.583-0.757-2.227-3.36
				l0.882-6.216h1.785l-0.882,6.216c-0.231,1.68,0.525,1.995,1.008,1.995c0.693,0,1.554-0.546,2.835-2.079l0.861-6.132h1.785
				L311.394,186.04z"/>
			<path d="M315.698,186.04h-1.784l2.016-14.322h1.785L315.698,186.04z"/>
			<path d="M325.273,185.284c-0.944,0.692-2.016,1.05-3.149,1.05c-2.395,0-3.948-1.806-3.948-4.557c0-3.087,1.953-5.46,4.473-5.46
				c2.101,0,3.676,1.953,3.276,4.83h-5.88c-0.441,2.52,0.945,3.717,2.415,3.717c0.882,0,1.89-0.42,3.066-1.281L325.273,185.284z
				 M324.266,179.908c0-1.197-0.524-2.121-1.701-2.121c-1.05,0-1.764,0.693-2.246,2.121H324.266z"/>
			<path d="M333.358,179.172c-1.071-0.818-2.059-1.239-2.835-1.239c-0.735,0-1.281,0.441-1.281,0.987c0,1.344,3.759,1.995,3.759,4.6
				c0,1.7-1.26,2.813-2.919,2.813c-1.176,0-1.932-0.294-3.275-1.239l0.314-1.722c1.239,0.987,2.142,1.407,2.898,1.407
				c0.714,0,1.218-0.441,1.218-1.05c0-1.575-3.696-2.143-3.696-4.704c0-1.617,1.155-2.709,2.961-2.709
				c0.987,0,1.975,0.378,2.856,0.986V179.172z"/>
		</g>
	</g>
	<g>
		<rect x="127.021" y="81.847" style="fill:#CCD7ED;stroke:#000000;" width="166.563" height="31.512"/>
		<g>
			<path d="M146.935,102.097h5.88l-0.231,1.596h-7.686l2.016-14.322h1.89L146.935,102.097z"/>
			<path d="M157.225,103.987c-2.226,0-3.549-1.575-3.549-4.221c0-3.297,1.953-5.796,4.515-5.796c2.142,0,3.507,1.638,3.507,4.116
				C161.697,101.614,159.702,103.987,157.225,103.987z M157.162,102.454c1.491,0,2.709-1.869,2.709-4.473
				c0-1.575-0.651-2.604-1.68-2.604c-1.533,0-2.688,2.184-2.688,4.578C155.502,101.467,156.237,102.454,157.162,102.454z"/>
			<path d="M171.273,95.65h-1.827c0.483,0.693,0.63,1.218,0.63,1.869c0,1.575-0.756,2.814-2.205,3.423
				c-1.113,0.462-3.213,0.357-3.213,1.26c0,1.176,5.166,0.504,5.166,3.633c0,1.554-1.617,2.688-3.843,2.688
				c-2.373,0-4.095-1.029-4.095-2.436c0-1.113,1.281-1.617,2.709-1.911v-0.042c-1.176-0.441-1.638-0.924-1.638-1.659
				c0-0.777,0.798-1.449,1.869-1.743c-1.113-0.525-1.701-1.47-1.701-2.709c0-2.163,1.596-3.759,3.507-3.759h4.83L171.273,95.65z
				 M166.023,104.659c-1.218,0.231-2.436,0.756-2.436,1.386c0,0.693,0.966,1.134,2.541,1.134c1.218,0,1.995-0.483,1.995-1.176
				C168.123,105.415,167.136,104.911,166.023,104.659z M166.695,95.713c-0.966,0-1.869,1.05-1.869,2.184
				c0,1.113,0.714,1.911,1.701,1.911c1.176,0,1.848-1.155,1.848-2.205C168.375,96.49,167.661,95.713,166.695,95.713z"/>
			<path d="M173.352,103.693h-1.785l1.323-9.429h1.785L173.352,103.693z M175.137,91.303c0,0.567-0.462,1.029-1.029,1.029
				s-1.029-0.462-1.029-1.029c0-0.567,0.462-1.029,1.029-1.029S175.137,90.736,175.137,91.303z"/>
			<path d="M182.319,103.315c-0.903,0.483-1.659,0.672-2.625,0.672c-2.541,0-4.158-1.701-4.158-4.347c0-3.066,2.394-5.67,6.111-5.67
				c0.483,0,1.029,0.063,1.617,0.168l-0.231,1.575c-0.483-0.105-0.924-0.147-1.365-0.147c-2.625,0-4.305,1.974-4.305,3.969
				c0,1.785,0.987,2.856,2.583,2.856c0.945,0,1.701-0.273,2.583-0.798L182.319,103.315z"/>
			<path d="M198.278,91.072h-4.977l-0.63,4.494h4.578l-0.252,1.701h-4.578l-0.903,6.426h-1.911l2.079-14.322h6.825L198.278,91.072z"
				/>
			<path d="M201.008,96.049l0.042,0.042c1.113-1.596,1.596-1.974,2.499-1.974c0.273,0,0.462,0.021,0.777,0.147v2.016
				c-0.42-0.231-0.714-0.315-1.092-0.315c-0.924,0-1.554,0.567-2.541,2.415l-0.735,5.313h-1.785l1.323-9.429h1.785L201.008,96.049z"
				/>
			<path d="M211.592,103.693h-1.785l0.168-1.092l-0.042-0.042c-0.735,0.798-1.638,1.323-2.541,1.323
				c-1.743,0-3.108-1.68-3.108-3.738c0-3.003,1.806-6.174,6.405-6.174c0.672,0,1.701,0.126,2.226,0.294L211.592,103.693z
				 M210.962,95.524c-4.074-0.336-4.851,3.045-4.851,4.305c0,1.512,0.777,2.583,1.869,2.583c0.714,0,1.659-0.714,2.205-1.449
				L210.962,95.524z"/>
			<path d="M216.737,95.902l0.042,0.042c1.155-1.302,2.205-1.827,3.255-1.827c0.777,0,1.89,0.399,2.142,2.121
				c1.365-1.68,2.604-2.121,3.528-2.121c1.365,0,2.52,1.029,2.163,3.465l-0.861,6.111h-1.785l0.882-6.195
				c0.189-1.239-0.189-1.974-0.966-1.974c-0.63,0-1.659,0.462-2.961,2.184l-0.861,5.985h-1.785l0.84-5.964
				c0.21-1.365-0.042-2.205-1.05-2.205c-0.693,0-1.848,0.861-2.835,2.184l-0.84,5.985h-1.785l1.344-9.429h1.785L216.737,95.902z"/>
			<path d="M236.834,102.937c-0.945,0.693-2.016,1.05-3.15,1.05c-2.394,0-3.948-1.806-3.948-4.557c0-3.087,1.953-5.46,4.473-5.46
				c2.1,0,3.675,1.953,3.276,4.83h-5.88c-0.441,2.52,0.945,3.717,2.415,3.717c0.882,0,1.89-0.42,3.066-1.281L236.834,102.937z
				 M235.826,97.561c0-1.197-0.525-2.121-1.701-2.121c-1.05,0-1.764,0.693-2.247,2.121H235.826z"/>
			<path d="M246.663,103.882h-0.841l-1.218-6.174h-0.042l-3.191,6.174h-0.819l-1.953-9.618h1.743l1.134,6.342h0.042l3.066-6.342
				h0.882l1.176,6.342h0.042l3.087-6.342h1.743L246.663,103.882z"/>
			<path d="M255.146,103.987c-2.226,0-3.549-1.575-3.549-4.221c0-3.297,1.953-5.796,4.515-5.796c2.143,0,3.508,1.638,3.508,4.116
				C259.62,101.614,257.625,103.987,255.146,103.987z M255.084,102.454c1.491,0,2.709-1.869,2.709-4.473
				c0-1.575-0.651-2.604-1.681-2.604c-1.532,0-2.688,2.184-2.688,4.578C253.425,101.467,254.16,102.454,255.084,102.454z"/>
			<path d="M263.862,96.049l0.042,0.042c1.112-1.596,1.596-1.974,2.499-1.974c0.272,0,0.462,0.021,0.776,0.147v2.016
				c-0.42-0.231-0.714-0.315-1.092-0.315c-0.924,0-1.554,0.567-2.541,2.415l-0.735,5.313h-1.784l1.322-9.429h1.785L263.862,96.049z"
				/>
			<path d="M269.826,98.317l0.042,0.042l3.948-4.095h2.268l-4.326,4.452l4.62,4.977h-2.268l-4.347-4.788l-0.673,4.788h-1.764
				l1.995-14.322h1.785L269.826,98.317z"/>
		</g>
	</g>
	<g>
		<rect x="194.045" y="0.5" style="fill:#CCD7ED;stroke:#000000;" width="236.483" height="31.512"/>
		<g>
			<path d="M304.505,9.808h-4.032l-1.764,12.537h-1.975l1.765-12.537h-4.032l0.252-1.785h10.038L304.505,9.808z"/>
			<path d="M305.282,14.701l0.042,0.042c1.112-1.596,1.596-1.974,2.499-1.974c0.272,0,0.462,0.021,0.776,0.147v2.016
				c-0.42-0.231-0.714-0.315-1.092-0.315c-0.924,0-1.554,0.567-2.541,2.415l-0.735,5.313h-1.784l1.322-9.429h1.785L305.282,14.701z"
				/>
			<path d="M316.055,22.345h-1.764l0.21-1.554l-0.042-0.042c-0.734,0.777-1.827,1.743-3.107,1.743c-1.051,0-2.583-0.756-2.227-3.36
				l0.882-6.216h1.785l-0.882,6.216c-0.231,1.68,0.525,1.995,1.008,1.995c0.693,0,1.554-0.546,2.835-2.079l0.861-6.132h1.785
				L316.055,22.345z"/>
			<path d="M324.875,15.478c-1.071-0.819-2.059-1.239-2.835-1.239c-0.735,0-1.281,0.441-1.281,0.987
				c0,1.344,3.759,1.995,3.759,4.599c0,1.701-1.26,2.814-2.919,2.814c-1.176,0-1.932-0.294-3.275-1.239l0.314-1.722
				c1.239,0.987,2.143,1.407,2.898,1.407c0.714,0,1.218-0.441,1.218-1.05c0-1.575-3.696-2.142-3.696-4.704
				c0-1.617,1.155-2.709,2.961-2.709c0.987,0,1.975,0.378,2.856,0.987V15.478z"/>
			<path d="M331.321,14.302h-1.89l-0.903,5.166c-0.21,1.197,0.063,1.575,0.924,1.575c0.525,0,0.945-0.126,1.723-0.567l-0.105,1.743
				c-0.756,0.315-1.26,0.42-1.953,0.42c-1.848,0-2.709-1.176-2.457-2.625l0.987-5.712h-1.659l0.21-1.386h1.722l0.357-1.932h1.764
				l-0.336,1.932h1.807L331.321,14.302z"/>
		</g>
	</g>
	<g>
		<rect x="399.017" y="42.034" style="fill:#D0F7DE;stroke:#000000;" width="31.512" height="237.653"/>
		<g>
			<path d="M419.642,60.668h-5.732l-0.63,4.494h5.061l-0.23,1.701h-5.082l-0.693,4.725h7.539l-0.252,1.701h-9.408l2.079-14.322
				h7.581L419.642,60.668z"/>
			<path d="M413.353,86.52l0.042,0.042c1.029-1.26,2.079-1.848,3.129-1.848c1.995,0,2.499,2.079,2.247,3.633l-0.903,5.943h-1.764
				l0.861-6.006c0.23-1.638-0.483-2.1-1.029-2.1c-0.504,0-1.491,0.357-2.835,2.1l-0.861,6.006h-1.764l1.323-9.429h1.785
				L413.353,86.52z"/>
			<path d="M418.015,114.912c-0.903,0.483-1.659,0.672-2.625,0.672c-2.541,0-4.158-1.701-4.158-4.347c0-3.066,2.395-5.67,6.111-5.67
				c0.482,0,1.028,0.063,1.617,0.168l-0.231,1.575c-0.483-0.105-0.924-0.147-1.365-0.147c-2.625,0-4.305,1.974-4.305,3.969
				c0,1.785,0.987,2.856,2.583,2.856c0.945,0,1.701-0.273,2.583-0.798L418.015,114.912z"/>
			<path d="M415.097,128.646l0.042,0.042c1.112-1.596,1.596-1.974,2.499-1.974c0.272,0,0.462,0.021,0.776,0.147v2.016
				c-0.42-0.231-0.714-0.315-1.092-0.315c-0.924,0-1.554,0.567-2.541,2.415l-0.735,5.313h-1.784l1.322-9.429h1.785L415.097,128.646z
				"/>
			<path d="M412.471,162.12h-1.89l2.562-5.397l-1.826-8.862h1.784l1.261,6.489h0.042l2.961-6.489h1.869L412.471,162.12z"/>
			<path d="M413.679,168.861c0.273-0.105,0.525-0.189,0.777-0.231s0.524-0.063,0.819-0.063c2.226,0,3.905,1.869,3.905,4.389
				c0,2.373-1.596,5.628-5.69,5.628h-1.177l-0.63,4.536h-1.784l1.68-11.928c-0.945,0.692-1.407,1.722-1.575,1.722
				c-0.063,0-0.084-0.042-0.084-0.126c0-0.651,0.861-2.1,1.827-2.856l0.482-3.465h1.785L413.679,168.861z M412.524,177.072h0.86
				c2.751,0,3.969-2.269,3.969-4.116c0-2.121-1.322-3.045-2.688-3.045c-0.462,0-0.672,0.042-1.176,0.272L412.524,177.072z"/>
			<path d="M417.616,191.247h-1.89l-0.903,5.166c-0.21,1.197,0.063,1.575,0.924,1.575c0.525,0,0.945-0.126,1.723-0.567l-0.105,1.743
				c-0.756,0.315-1.26,0.42-1.953,0.42c-1.848,0-2.709-1.176-2.457-2.625l0.987-5.712h-1.659l0.21-1.386h1.722l0.357-1.933h1.764
				l-0.336,1.933h1.807L417.616,191.247z"/>
			<path d="M415.064,220.29h-1.784l1.322-9.429h1.785L415.064,220.29z M416.85,207.9c0,0.566-0.462,1.028-1.028,1.028
				c-0.567,0-1.029-0.462-1.029-1.028c0-0.567,0.462-1.029,1.029-1.029C416.388,206.871,416.85,207.333,416.85,207.9z"/>
			<path d="M414.371,241.583c-2.226,0-3.549-1.575-3.549-4.221c0-3.297,1.953-5.796,4.515-5.796c2.143,0,3.508,1.638,3.508,4.115
				C418.845,239.21,416.85,241.583,414.371,241.583z M414.309,240.05c1.491,0,2.709-1.869,2.709-4.473
				c0-1.575-0.651-2.604-1.681-2.604c-1.532,0-2.688,2.185-2.688,4.578C412.649,239.064,413.385,240.05,414.309,240.05z"/>
			<path d="M413.353,254.52l0.042,0.042c1.029-1.261,2.079-1.849,3.129-1.849c1.995,0,2.499,2.079,2.247,3.633l-0.903,5.943h-1.764
				l0.861-6.006c0.23-1.638-0.483-2.101-1.029-2.101c-0.504,0-1.491,0.357-2.835,2.101l-0.861,6.006h-1.764l1.323-9.429h1.785
				L413.353,254.52z"/>
		</g>
	</g>
	<g>
		<rect x="353.114" y="42.034" style="fill:#D0F7DE;stroke:#000000;" width="31.512" height="237.653"/>
		<g>
			<path d="M373.006,71.8c-0.882-0.567-1.639-0.756-2.521-0.756c-1.533,0-2.52,0.861-2.52,2.163c0,2.31,4.851,3.276,4.851,6.993
				c0,1.785-1.386,3.78-4.242,3.78c-0.944,0-2.226-0.294-3.465-1.029l0.294-2.1c1.513,1.05,2.499,1.365,3.36,1.365
				c0.735,0,2.121-0.504,2.121-1.848c0-2.541-4.852-3.423-4.852-7.182c0-2.352,2.269-3.906,4.62-3.906
				c0.588,0,1.659,0.147,2.625,0.567L373.006,71.8z"/>
			<path d="M369.162,104.791h-1.784l1.322-9.429h1.785L369.162,104.791z M370.947,92.4c0,0.567-0.462,1.029-1.028,1.029
				c-0.567,0-1.029-0.462-1.029-1.029c0-0.567,0.462-1.029,1.029-1.029C370.485,91.372,370.947,91.833,370.947,92.4z"/>
			<path d="M373.541,117.748h-1.827c0.482,0.693,0.63,1.218,0.63,1.869c0,1.575-0.756,2.814-2.205,3.423
				c-1.113,0.462-3.213,0.357-3.213,1.26c0,1.176,5.166,0.504,5.166,3.633c0,1.554-1.617,2.688-3.843,2.688
				c-2.373,0-4.096-1.029-4.096-2.436c0-1.113,1.281-1.617,2.709-1.911v-0.042c-1.176-0.441-1.638-0.924-1.638-1.659
				c0-0.777,0.798-1.449,1.869-1.743c-1.113-0.525-1.701-1.47-1.701-2.709c0-2.163,1.596-3.759,3.507-3.759h4.83L373.541,117.748z
				 M368.291,126.756c-1.218,0.231-2.437,0.756-2.437,1.386c0,0.693,0.966,1.134,2.541,1.134c1.218,0,1.995-0.483,1.995-1.176
				C370.391,127.513,369.403,127.008,368.291,126.756z M368.963,117.811c-0.966,0-1.869,1.05-1.869,2.184
				c0,1.113,0.714,1.911,1.701,1.911c1.176,0,1.848-1.155,1.848-2.205C370.643,118.587,369.929,117.811,368.963,117.811z"/>
			<path d="M367.45,139.021l0.042,0.042c1.029-1.26,2.079-1.848,3.129-1.848c1.995,0,2.499,2.079,2.247,3.633l-0.903,5.943h-1.764
				l0.861-6.006c0.23-1.638-0.483-2.1-1.029-2.1c-0.504,0-1.491,0.357-2.835,2.1l-0.861,6.006h-1.764l1.323-9.429h1.785
				L367.45,139.021z"/>
			<path d="M371.986,167.791h-1.785l0.168-1.092l-0.042-0.042c-0.734,0.798-1.638,1.323-2.541,1.323
				c-1.743,0-3.107-1.681-3.107-3.738c0-3.003,1.806-6.174,6.404-6.174c0.672,0,1.701,0.126,2.227,0.294L371.986,167.791z
				 M371.356,159.622c-4.074-0.336-4.852,3.045-4.852,4.305c0,1.513,0.777,2.583,1.869,2.583c0.714,0,1.659-0.714,2.205-1.449
				L371.356,159.622z"/>
			<path d="M371.714,180.748h-1.89l-0.903,5.166c-0.21,1.197,0.063,1.575,0.924,1.575c0.525,0,0.945-0.126,1.723-0.567l-0.105,1.743
				c-0.756,0.315-1.26,0.42-1.953,0.42c-1.848,0-2.709-1.176-2.457-2.625l0.987-5.712h-1.659l0.21-1.386h1.722l0.357-1.933h1.764
				l-0.336,1.933h1.807L371.714,180.748z"/>
			<path d="M371.755,209.791h-1.764l0.21-1.554l-0.042-0.042c-0.734,0.776-1.827,1.743-3.107,1.743c-1.051,0-2.583-0.757-2.227-3.36
				l0.882-6.216h1.785l-0.882,6.216c-0.231,1.68,0.525,1.995,1.008,1.995c0.693,0,1.554-0.546,2.835-2.079l0.861-6.132h1.785
				L371.755,209.791z"/>
			<path d="M369.194,223.147l0.042,0.042c1.112-1.597,1.596-1.975,2.499-1.975c0.272,0,0.462,0.021,0.776,0.147v2.016
				c-0.42-0.23-0.714-0.314-1.092-0.314c-0.924,0-1.554,0.566-2.541,2.415l-0.735,5.313h-1.784l1.322-9.429h1.785L369.194,223.147z"
				/>
			<path d="M372.165,251.035c-0.944,0.692-2.016,1.05-3.149,1.05c-2.395,0-3.948-1.806-3.948-4.557c0-3.087,1.953-5.46,4.473-5.46
				c2.101,0,3.676,1.953,3.276,4.83h-5.88c-0.441,2.52,0.945,3.717,2.415,3.717c0.882,0,1.89-0.42,3.066-1.281L372.165,251.035z
				 M371.157,245.659c0-1.197-0.524-2.121-1.701-2.121c-1.05,0-1.764,0.693-2.246,2.121H371.157z"/>
		</g>
	</g>
	<g>
		<g>
			<rect x="219.797" y="125.035" style="fill:#E5A3C1;stroke:#000000;" width="119.745" height="31.509"/>
			<g>
				<path d="M264.233,132.558c1.849,0,2.878,0.273,3.696,1.008c0.777,0.714,1.176,1.68,1.176,2.877c0,1.722-1.134,3.045-2.939,3.507
					c0.44,0.273,0.882,0.903,1.197,1.575l2.562,5.355h-2.058l-1.639-3.402c-1.176-2.457-1.68-2.919-2.981-2.919h-0.756l-0.883,6.321
					h-1.974l2.017-14.322H264.233z M262.743,138.857h1.008c2.625,0,3.318-1.365,3.318-2.52c0-1.344-0.883-2.079-2.583-2.079h-1.113
					L262.743,138.857z"/>
				<path d="M277.841,146.879h-1.764l0.21-1.554l-0.042-0.042c-0.734,0.777-1.827,1.743-3.107,1.743
					c-1.051,0-2.583-0.756-2.227-3.36l0.882-6.216h1.785l-0.882,6.216c-0.231,1.68,0.525,1.995,1.008,1.995
					c0.693,0,1.554-0.546,2.835-2.079l0.861-6.132h1.785L277.841,146.879z"/>
				<path d="M282.146,146.879h-1.784l2.016-14.322h1.785L282.146,146.879z"/>
				<path d="M291.721,146.124c-0.944,0.693-2.016,1.05-3.149,1.05c-2.395,0-3.948-1.806-3.948-4.557c0-3.087,1.953-5.46,4.473-5.46
					c2.101,0,3.676,1.953,3.276,4.83h-5.88c-0.441,2.52,0.945,3.717,2.415,3.717c0.882,0,1.89-0.42,3.066-1.281L291.721,146.124z
					 M290.713,140.748c0-1.197-0.524-2.121-1.701-2.121c-1.05,0-1.764,0.693-2.246,2.121H290.713z"/>
				<path d="M299.806,140.012c-1.071-0.819-2.059-1.239-2.835-1.239c-0.735,0-1.281,0.441-1.281,0.987
					c0,1.344,3.759,1.995,3.759,4.599c0,1.701-1.26,2.814-2.919,2.814c-1.176,0-1.932-0.294-3.275-1.239l0.314-1.722
					c1.239,0.987,2.142,1.407,2.898,1.407c0.714,0,1.218-0.441,1.218-1.05c0-1.575-3.696-2.142-3.696-4.704
					c0-1.617,1.155-2.709,2.961-2.709c0.987,0,1.975,0.378,2.856,0.987V140.012z"/>
			</g>
		</g>
		<g>
			<rect x="82.499" y="125.035" style="fill:#F4EB45;stroke:#000000;" width="119.745" height="31.51"/>
			<g>
				<path d="M128.07,147.068c-3.003,0-5.103-2.499-5.103-6.048c0-3.759,2.373-8.652,6.951-8.652c3.045,0,5.061,2.436,5.061,6.006
					C134.979,143.52,131.745,147.068,128.07,147.068z M129.897,134.09c-3.381,0-4.998,4.137-4.998,7.203
					c0,2.52,1.26,4.053,3.213,4.053c2.667,0,4.935-3.255,4.935-7.308C133.047,135.519,131.787,134.09,129.897,134.09z"/>
				<path d="M148.398,147.005h-0.735l-2.772-10.164l-4.872,10.164h-0.756l-3.381-14.448h1.806l2.331,10.143h0.042l4.83-10.143h0.735
					l2.793,10.311l4.914-10.311h1.995L148.398,147.005z"/>
				<path d="M156.861,145.283h5.88l-0.231,1.596h-7.686l2.016-14.322h1.89L156.861,145.283z"/>
			</g>
		</g>
	</g>
	<g>
		<polyline style="fill:#CCD7ED;stroke:#000000;" points="164.006,42.669 338.953,42.669 338.784,114.027 305.007,113.922 
			304.829,73.445 164.006,73.533 		"/>
		<line style="fill:none;stroke:#000000;" x1="163.828" y1="42.527" x2="163.828" y2="73.445"/>
	</g>
	<g>
		<path d="M234.653,51.198c2.226,0,4.641,0.819,4.641,4.053c0,1.596-1.113,4.221-4.578,4.221h-1.722l-0.84,6.048h-1.974
			l2.016-14.322H234.653z M233.246,57.771h1.386c1.974,0,2.729-1.386,2.729-2.583c0-1.155-0.692-2.289-2.604-2.289h-0.84
			L233.246,57.771z"/>
		<path d="M242.633,57.875l0.042,0.042c1.112-1.596,1.596-1.974,2.499-1.974c0.272,0,0.462,0.021,0.776,0.147v2.016
			c-0.42-0.231-0.714-0.315-1.092-0.315c-0.924,0-1.554,0.567-2.541,2.415l-0.735,5.313h-1.784l1.322-9.429h1.785L242.633,57.875z"
			/>
		<path d="M249.478,65.813c-2.226,0-3.549-1.575-3.549-4.221c0-3.297,1.953-5.796,4.515-5.796c2.143,0,3.508,1.638,3.508,4.116
			C253.951,63.44,251.956,65.813,249.478,65.813z M249.415,64.281c1.491,0,2.709-1.869,2.709-4.473c0-1.575-0.651-2.604-1.681-2.604
			c-1.532,0-2.688,2.184-2.688,4.578C247.756,63.293,248.491,64.281,249.415,64.281z"/>
		<path d="M258.886,65.813c-2.226,0-3.549-1.575-3.549-4.221c0-3.297,1.953-5.796,4.515-5.796c2.143,0,3.508,1.638,3.508,4.116
			C263.359,63.44,261.364,65.813,258.886,65.813z M258.823,64.281c1.491,0,2.709-1.869,2.709-4.473c0-1.575-0.651-2.604-1.681-2.604
			c-1.532,0-2.688,2.184-2.688,4.578C257.164,63.293,257.899,64.281,258.823,64.281z"/>
		<path d="M269.785,57.666h-1.911l-1.512,11.823h-1.743l1.512-11.823h-1.512l0.231-1.575h1.49c0.189-2.856,1.575-5.082,4.536-5.082
			c0.798,0,1.513,0.168,2.289,0.441l-0.252,1.764c-0.608-0.336-1.302-0.525-1.848-0.525c-1.743,0-2.772,1.197-2.961,3.402h1.911
			L269.785,57.666z"/>
	</g>
	<g>
		<rect x="30.114" y="125.027" style="fill:#F4EB45;stroke:#000000;" width="44.5" height="112.999"/>
		<g>
			<path d="M46.462,204.088c-0.567,0.883-0.756,1.639-0.756,2.521c0,1.533,0.861,2.52,2.163,2.52c2.31,0,3.276-4.851,6.993-4.851
				c1.785,0,3.78,1.386,3.78,4.242c0,0.944-0.294,2.226-1.029,3.465l-2.1-0.294c1.05-1.513,1.365-2.499,1.365-3.36
				c0-0.734-0.504-2.121-1.848-2.121c-2.541,0-3.423,4.852-7.182,4.852c-2.352,0-3.906-2.269-3.906-4.62
				c0-0.588,0.147-1.659,0.567-2.625L46.462,204.088z"/>
			<path d="M44.131,198.376c0-2.226,0.819-4.641,4.053-4.641c1.596,0,4.221,1.112,4.221,4.578v1.722l6.048,0.84v1.974l-14.322-2.016
				V198.376z M50.704,199.784v-1.386c0-1.975-1.386-2.73-2.583-2.73c-1.155,0-2.289,0.693-2.289,2.604v0.84L50.704,199.784z"/>
			<path d="M58.453,184.454v1.764l-4.494,0.861v4.493l4.494,1.891v1.911l-14.406-6.321v-1.806L58.453,184.454z M52.447,190.942
				v-3.569l-5.88,1.092v0.042L52.447,190.942z"/>
			<path d="M44.131,178.342c0-1.849,0.273-2.878,1.008-3.696c0.714-0.777,1.68-1.176,2.877-1.176c1.722,0,3.045,1.134,3.507,2.939
				c0.273-0.44,0.903-0.882,1.575-1.197l5.355-2.562v2.058l-3.402,1.639c-2.457,1.176-2.919,1.68-2.919,2.981v0.756l6.321,0.883
				v1.974l-14.322-2.017V178.342z M50.431,179.833v-1.008c0-2.625-1.365-3.318-2.52-3.318c-1.344,0-2.079,0.883-2.079,2.583v1.113
				L50.431,179.833z"/>
			<path d="M58.768,159.149c1.785,0.084,3.78,1.05,3.78,3.443c0,1.827-1.092,3.822-4.095,4.746
				c-0.525,2.625-2.856,4.137-6.111,4.137c-3.486,0-8.4-2.352-8.4-6.888c0-3.171,2.268-5.124,6.027-5.124
				c4.326,0,7.644,2.268,8.484,5.754c1.533-0.462,2.373-1.722,2.373-3.023c0-0.883-0.546-2.205-2.058-2.73V159.149z M45.664,164.525
				c0,3.653,4.662,5.019,7.14,5.019c2.646,0,3.927-1.26,3.927-3.339c0-2.604-3.024-4.81-7.014-4.81
				C47.071,161.395,45.664,162.592,45.664,164.525z"/>
			<path d="M56.857,155.999v-5.88l1.596,0.231v7.686l-14.322-2.016v-1.89L56.857,155.999z"/>
		</g>
	</g>
</g>
</svg>
