<?xml version="1.0" encoding="utf-8"?>
<!-- Generator: Adobe Illustrator 9.0, SVG Export Plug-In  -->
<svg viewBox="0 0 211.7 48" xml:space="preserve">
	<style type="text/css">
	<![CDATA[
		.st0ts{fill-rule:nonzero;clip-rule:nonzero;fill:#F4E400;}
		.st1ts{fill-rule:nonzero;clip-rule:nonzero;fill:#9999CC;stroke:#000000;stroke-miterlimit:4;}
		.st2ts{fill:#FFFFFF;}
		.st3ts{fill-rule:nonzero;clip-rule:nonzero;fill:#000066;}
		.st4ts{fill-rule:evenodd;clip-rule:evenodd;stroke:none;}
	]]>
	</style>
	<g id="Layer_x0020_1" class="st1ts">
		<g class="st4ts">
			<g class="st3ts">
				<path d="M0,0h211.7v48H0V0z"/>
				<path d="M105.9,24"/>
			</g>
			<g>
				<path class="st0ts" d="M0,29.3h211.7v1.1H0v-1.1z"/>
				<path class="st0ts" d="M105.9,29.8"/>
			</g>
			<g>
				<path d="M20,28V14.6h5v-1.8H13v1.8h5V28h2z"/>
				<path d="M31.4,24.6h-1.8c0,1.3-1,2.2-2.5,2.2c-1.8,0-2.9-1.1-2.9-3.1c0-0.1,0-0.3,0-0.4c0-0.1,0-0.1,0-0.2h7.5c0-0.4,0-0.9,0-1.3c0-2.8-1.7-4.6-4.6-4.6c-3.1,0-4.8,2-4.8,5.7c0,3.5,1.7,5.3,5,5.3c2.5,0,4.2-1.4,4.3-3.6z M24.2,21.6c0-1.9,1.2-3.1,2.8-3.1
					c1.5,0,2.6,1.1,2.6,2.9c0,0.1,0,0.1,0,0.2h-5.4z"/>
				<path d="M40.8,24.4h-1.9c0,1.4-0.9,2.3-2.3,2.3c-1.7,0-2.6-1.4-2.6-4.3c0-2.5,1.1-3.9,2.7-3.9c1.2,0,2.1,0.9,2.1,2.2h1.9c0,0,0,0,0,0c0-2.2-1.5-3.5-3.9-3.5c-3,0-4.8,2.1-4.8,5.8c0,3.4,1.7,5.3,4.7,5.3c2.5,0,3.9-1.3,4.1-3.8z"/>
				<path d="M43.8,19.2v-6.3h-2V28h2v-6.8c0-1.4,1.2-2.4,2.8-2.4c1.7,0,2.4,0.9,2.4,2.6V28h1.9v-6.5c0-1.2,0-2.1-0.5-2.7c-0.7-0.9-1.9-1.4-3.3-1.4c-1.6,0-2.8,0.8-3.3,1.9z"/>
				<path d="M54.5,19.1l-0.1-1.7h-2c0.1,0.8,0.1,1.5,0.1,2.2V28h2v-6.8c0-1.4,1.2-2.4,2.8-2.4c1.7,0,2.4,0.9,2.4,2.6V28h1.9v-6.6c0-1.2,0-2-0.5-2.7c-0.7-0.9-1.9-1.4-3.3-1.4c-1.6,0-2.8,0.7-3.3,1.8z"/>
				<path d="M62.6,22.9c0,3.3,1.9,5.3,5.1,5.3c3.4,0,5.4-2.1,5.4-5.6c0-3.4-1.9-5.4-5.2-5.4s-5.2,2.2-5.2,5.7z M67.8,18.6c2,0,3.2,1.4,3.2,4.1c0,2.6-1.3,4.1-3.3,4.1c-2.1,0-3.2-1.4-3.2-3.9c0-2.6,1.3-4.2,3.3-4.2z"/>
				<path d="M76.1,28V12.8h-2V28h2z"/>
				<path d="M77.1,22.9c0,3.3,1.9,5.3,5.1,5.3c3.4,0,5.4-2.1,5.4-5.6c0-3.4-1.9-5.4-5.2-5.4s-5.2,2.2-5.2,5.7z M82.4,18.6c2,0,3.2,1.4,3.2,4.1c0,2.6-1.3,4.1-3.3,4.1c-2.1,0-3.2-1.4-3.2-3.9c0-2.6,1.3-4.2,3.3-4.2z"/>
				<path d="M95.8,26v2c0,1.9-0.8,2.8-2.8,2.8c-1.5,0-2.3-0.7-2.4-2.2h-2.1c0,2.5,1.3,3.5,4.3,3.5c3.4,0,4.9-1.3,4.9-4.5v-8.3c0-0.4,0-1,0.1-1.9H96l-0.1,1.3c-0.6-1-1.7-1.5-3.4-1.5c-2.7,0-4.5,1.9-4.5,5.1c0,3.4,1.7,5.1,4.6,5.1c1.4,0,2.7-0.7,3.1-1.5z M96,22.2
					c0,2.6-1.3,4-2.9,4c-1.8,0-3-1.4-3-3.7c0-2.6,1.3-4,2.9-4c1.7,0,3,1.4,3,3.7z"/>
				<path d="M102.4,28l-1.6,4h1.8l6.2-14.5h-1.9l-3.4,8.4l-3.4-8.4h-2l4.3,10.5z"/>
				<path d="M119.3,22.7v1c0,1.9-1,2.9-2.8,2.9c-1.2,0-2-0.8-2-1.8c0-1.3,1.1-2.1,3.2-2.1h1.6z M121.3,28c-0.1-0.5-0.1-0.9-0.1-1c0-0.2,0-0.4,0-0.7v-5.8c0-2.2-1.2-3.3-4.2-3.3c-2.5,0-3.9,1-3.9,2.9c0,0.1,0,0.1,0,0.2h1.9c0-1.1,0.8-1.8,2.1-1.8
					c1.4,0,2.1,0.6,2.1,1.7v1.3h-1.8c-3.2,0-5,1.5-5,3.6c0,1.9,1.3,3.2,3.5,3.2c1.7,0,2.9-0.7,3.4-1.9c0.1,0.8,0.1,1.3,0.2,1.7h1.7z"/>
				<path d="M124.7,19.1l-0.1-1.7h-2c0.1,0.8,0.1,1.5,0.1,2.2V28h2v-6.8c0-1.4,1.2-2.4,2.8-2.4c1.7,0,2.4,0.9,2.4,2.6V28h1.9v-6.6c0-1.2,0-2-0.5-2.7c-0.7-0.9-1.9-1.4-3.3-1.4c-1.6,0-2.8,0.7-3.3,1.8z"/>
				<path d="M140.9,28h2c-0.1-0.9-0.1-1.6-0.1-2.1v-13h-1.9V19c-0.8-1.2-2-1.8-3.4-1.8c-2.9,0-4.6,2-4.6,5.5c0,3.4,1.8,5.4,4.7,5.4c1.4,0,2.4-0.5,3.4-1.8l0.1,1.6z M134.8,22.6c0-2.6,1.3-4,3-4c1.7,0,3,1.5,3,4.4c0,2.6-1.3,4-3,4c-1.7,0-3-1.5-3-4.4z"/>
				<path d="M150.2,23.5H148c0,0.1,0,0.1,0,0.2c0,3.1,1.9,4.5,5.7,4.5c3.7,0,5.7-1.8,5.7-4.6c0-2.8-1.8-3.5-5-4.3c-2.7-0.7-4.1-0.9-4.1-2.5c0-1.5,1.3-2.5,3.4-2.5c2,0,3.1,0.8,3.2,2.3h2c0-0.1,0-0.1,0-0.2c0-2.3-1.8-3.7-5-3.7c-3.7,0-5.7,1.7-5.7,4.3
					c0,1.3,0.6,2.4,1.6,3c0.9,0.5,2.1,0.8,3.4,1.1c2.5,0.7,4.1,0.9,4.1,2.8c0,1.6-1.4,2.6-3.7,2.6c-2.3,0-3.4-0.9-3.5-2.9z"/>
				<path d="M160,22.9c0,3.3,1.9,5.3,5.1,5.3c3.4,0,5.4-2.1,5.4-5.6c0-3.4-1.9-5.4-5.2-5.4s-5.2,2.2-5.2,5.7z M165.3,18.6c2,0,3.2,1.4,3.2,4.1c0,2.6-1.3,4.1-3.3,4.1c-2.1,0-3.2-1.4-3.2-3.9c0-2.6,1.3-4.2,3.3-4.2z"/>
				<path d="M179.7,24.4h-1.9c0,1.4-0.9,2.3-2.3,2.3c-1.7,0-2.6-1.4-2.6-4.3c0-2.5,1.1-3.9,2.7-3.9c1.2,0,2.1,0.9,2.1,2.2h1.9c0,0,0,0,0,0c0-2.2-1.5-3.5-3.9-3.5c-3,0-4.8,2.1-4.8,5.8c0,3.4,1.7,5.3,4.7,5.3c2.5,0,3.9-1.3,4.1-3.8z"/>
				<path d="M180.7,28h2V17.4h-2V28z M182.8,15v-2.1h-2.3V15h2.3z"/>
				<path d="M192.9,24.6h-1.8c0,1.3-1,2.2-2.5,2.2c-1.8,0-2.9-1.1-2.9-3.1c0-0.1,0-0.3,0-0.4c0-0.1,0-0.1,0-0.2h7.5c0-0.4,0-0.9,0-1.3c0-2.8-1.7-4.6-4.6-4.6c-3.1,0-4.9,2-4.9,5.7c0,3.5,1.7,5.3,5,5.3c2.5,0,4.2-1.4,4.3-3.6z M185.7,21.6c0-1.9,1.2-3.1,2.8-3.1
					c1.5,0,2.6,1.1,2.6,2.9c0,0.1,0,0.1,0,0.2h-5.4z"/>
				<path d="M192.7,17.4v1.4h1.8V26c0,1.7,0.8,2.2,2.7,2.2c0.4,0,0.9-0.1,1.5-0.3v-1.5c-0.3,0.1-0.6,0.1-1,0.1c-1.1,0-1.3-0.3-1.3-1.3v-6.5h2.4v-1.4h-2.4v-2.8l-1.9,0.7v2.2h-1.8z"/>
				<path d="M202.1,28l-1.6,4h1.8l6.2-14.5h-1.9l-3.4,8.4l-3.4-8.4h-2l4.3,10.5z"/>
			</g>
			<g class="st2ts">
				<path d="M123.6,29.7H119v7c-1.4-1.3-3.1-2-5.2-2c-3.8,0-6.2,2.4-6.2,6.2c0,4.1,2.3,6.4,6.1,6.4c2.2,0,4-0.9,5.2-2.5c0,0.1,0,0.3,0,0.4c0,0.6,0,1.2,0.1,1.9h4.7c-0.1-0.9-0.2-1.8-0.2-2.7V29.7z M115.7,37c2.2,0,3.4,1.3,3.4,3.7c0,2.4-1.2,3.7-3.3,3.7
					c-2.1,0-3.3-1.4-3.3-3.9c0-2.2,1.2-3.6,3.3-3.6z"/>
				<path d="M133.5,44.5c-2.2,0-3.4-1.3-3.4-3.8c0-2.4,1.2-3.8,3.3-3.8c2,0,3.3,1.4,3.3,3.8c0,2.3-1.3,3.7-3.3,3.7z M133.2,47.2c5.6,0,8.4-2.1,8.4-6.3c0-4.1-2.8-6.4-8.2-6.4c-5.4,0-8.2,2.3-8.2,6.3c0,4.1,2.7,6.3,8,6.3z"/>
				<path d="M143.2,46.9h4.5v-6.1c0-2.4,0.9-3.5,3-3.5c1.4,0,2.3,0.8,2.3,2.3v7.3h4.5v-6.1c0-2.4,0.9-3.5,2.9-3.5c1.5,0,2.3,0.8,2.3,2.3v7.3h4.6v-7.2c0-3.3-1.9-5.1-5.3-5.1c-2.1,0-3.8,0.8-4.9,2.5c-0.6-1.6-2.1-2.5-4.3-2.5c-2,0-3.6,0.7-5,2.2
					c0-0.6-0.1-1.3-0.2-1.9h-4.5c0.1,0.9,0.1,1.9,0.1,2.8v9.2z"/>
				<path d="M178.9,45.2c0,0.1,0,0.1,0,0.2c0,0.6,0.1,1.1,0.3,1.6h4.3c-0.2-0.5-0.2-1-0.2-1.6v-6.1c0-3.2-2.1-4.6-6.6-4.6c-4.7,0-7,1.2-7.3,3.9h4.7c0.2-1.1,1-1.5,2.6-1.5c1.5,0,2.3,0.7,2.3,2c0,0.1,0,0.2,0,0.3h-2.2c-2.9,0-5,0.1-6.2,0.8c-1.2,0.7-1.9,1.9-1.9,3.4
					c0,2.3,1.7,3.6,4.8,3.6c2.7,0,4.7-0.8,5.6-2.1z M178.8,41.6c0,0.1,0,0.2,0,0.3c0,1.8-1.1,2.8-3.2,2.8c-1.5,0-2.3-0.5-2.3-1.3c0-1.3,1.6-1.7,5.1-1.7c0.1,0,0.2,0,0.4,0z"/>
				<path d="M185.5,46.9h4.6v-12h-4.6v12z M185.3,33h5v-3.4h-5V33z"/>
				<path d="M192.3,46.9h4.6v-6.1c0-2.4,1-3.5,3.2-3.5c1.7,0,2.5,0.8,2.5,2.5v7.2h4.6v-7.4c0-3.1-2-5-5.2-5c-2.3,0-3.8,0.8-5.2,2.2c0-0.7,0-1.3-0.1-1.9h-4.6c0.1,0.9,0.1,1.9,0.1,2.8v9.2z"/>
			</g>
		</g>
	</g>
</svg>
