<?xml version="1.0" encoding="UTF-8" standalone="no"?>
<svg viewBox="0 0 999 839">
    <path style="fill:#ffa54c" d="M968,398 l5,-11 5,-11 5,-10 3,-10 3,-11 3,-10 2,-10 1,-11 1,-13 -1,-14 -2,-13 -4,-14 -6,-13 -7,-13 -9,-13 -11,-13 -17,-15 -16,-14 -16,-11 -15,-10 -16,-7 -16,-7 -15,-6 -14,-6 -14,-6 -13,-6 -12,-6 -12,-8 -10,-9 -9,-10 -9,-13 -7,-15 -5,-11 -6,-9 -8,-8 -8,-7 -9,-6 -11,-5 -11,-4 -11,-3 -9,-2 -8,-1 -9,-1 -9,-1 -9,0 -9,0 -9,0 -9,1 -10,1 -10,2 -10,1 -10,2 -9,3 -10,2 -9,3 -9,3 -10,3 -9,4 -8,4 -9,4 -8,5 -8,4 -8,5 -7,5 -15,11 -15,9 -14,9 -14,7 -12,6 -13,5 -13,4 -12,4 -13,2 -12,1 -12,1 -13,-1 -13,-2 -13,-3 -14,-3 -14,-4 -9,-3 -9,-3 -8,-3 -9,-4 -8,-3 -9,-4 -9,-3 -8,-3 -8,-3 -8,-2 -8,-3 -7,-2 -8,-2 -8,-1 -7,-1 -7,-1 -9,0 -9,1 -8,2 -8,3 -8,4 -8,6 -7,7 -6,9 -8,11 -6,12 -6,12 -5,12 -4,13 -4,14 -3,14 -2,14 -2,18 -1,18 0,19 2,19 2,19 4,20 5,20 6,19 5,27 -1,29 -5,30 -7,30 -8,31 -8,30 -5,29 0,28 1,9 2,10 3,8 4,9 4,9 6,8 8,7 8,7 1,0 1,1 3,0 4,1 4,2 6,2 5,2 7,3 7,3 8,4 8,5 8,5 9,7 9,7 8,8 10,10 746,-171 2,-4 2,-4 3,-5 3,-5 2,-6 4,-5 3,-6 4,-6 8,-12 9,-11 7,-12 8,-12 8,-12 7,-12 7,-12 6,-12z" />
    <path style="fill:#96914c" d="M146,712 l5,7 6,7 7,7 7,7 7,7 8,8 8,7 8,7 8,7 9,8 9,6 9,7 9,6 10,5 9,6 10,4 6,3 7,3 7,2 7,2 6,1 7,1 7,1 7,1 6,-1 7,0 6,-1 7,-2 6,-2 7,-2 6,-4 6,-3 15,-10 16,-9 17,-9 17,-8 18,-7 18,-7 18,-5 18,-5 17,-4 18,-3 16,-2 16,-1 15,1 14,1 13,2 11,4 7,4 9,2 9,3 9,2 11,1 10,1 11,1 11,1 11,0 11,-1 12,0 11,-2 11,-1 11,-3 11,-2 10,-4 9,-4 8,-4 8,-6 7,-7 8,-9 6,-10 6,-11 5,-14 12,-34 5,-26 2,-21 0,-17 -1,-14 0,-14 2,-14 6,-18 -746,171 2,2 1,1 2,2 2,2z" />
    <path style="fill:#000" d="M138,699 l415,-92 0,8 -415,99 0,-15z" />
    <path style="fill:#000" d="M383,714 l154,-36 115,-4 -10,27 -140,43 -115,-18 -4,-12z" />
    <path style="fill:#fff" d="M414,719 l84,-5 -5,14 -79,-9z" />
    <path style="fill:#fff" d="M511,715 l-2,13 128,-35 2,-11 -128,33z" />
    <path style="fill:#000" d="M753,665 l-145,30 4,19 128,30 134,-38 2,-15 -123,-26z" />
    <path style="fill:#000" d="M674,665 l4,34 70,11 54,-19 0,-45 -128,19z" />
    <path style="fill:#000" d="M194,438 l0,0 -2,1 -2,1 -3,1 -3,1 -3,1 -2,2 -2,2 -2,6 -4,9 -2,7 -1,4 -17,15 0,3 0,8 -1,9 -2,9 -1,4 -3,13 -3,18 -1,22 1,7 2,10 3,11 3,12 3,11 3,10 2,6 0,2 17,54 189,-45 0,-2 -2,-5 -2,-6 -3,-8 -3,-8 -3,-9 -2,-8 -1,-7 -2,-15 -5,-17 -4,-15 -1,-9 0,-4 0,-3 1,-4 0,-5 -1,-6 -3,-6 -3,-7 -7,-7 -8,-7 -9,-9 -11,-9 -10,-8 -9,-8 -8,-6 -5,-4 -2,-2 -2,0 -4,-2 -8,-2 -10,-3 -10,-2 -11,-1 -11,-1 -10,1z" />
    <path style="fill:#000" d="M419,343 l-2,4 -3,4 -3,4 -4,4 -6,4 -5,2 -7,3 -7,2 -8,1 -7,0 -7,0 -5,-1 -6,-2 -3,-3 -3,-3 -1,-4 1,-4 2,-5 3,-4 5,-4 5,-3 6,-3 7,-3 8,-2 8,-1 8,0 7,1 6,1 6,2 3,3 2,3 0,4z" />
    <path style="fill:#000" d="M464,134 l-1,3 -5,7 -4,10 -4,13 -2,14 2,15 6,14 13,13 1,1 2,2 4,4 4,5 4,6 5,8 3,7 3,9 2,9 -1,10 -2,9 -5,10 -9,10 -11,9 -15,10 -19,8 -7,3 -7,2 -5,2 -6,2 -5,2 -5,2 -6,2 -5,1 -6,2 -7,2 -7,3 -8,2 -9,3 -11,3 -11,4 -13,5 -15,7 -14,9 -12,11 -10,12 -8,11 -6,11 -4,8 -1,7 -2,0 -4,1 -6,1 -7,0 -8,-1 -9,-4 -9,-6 -8,-9 -1,-8 -2,-20 -5,-23 -4,-17 -3,-7 -2,-7 -3,-9 -3,-8 -3,-9 -3,-9 -3,-8 -4,-8 -1,-4 -4,-14 -4,-18 -3,-23 -2,-24 2,-24 6,-21 12,-17 9,-6 11,-6 15,-6 15,-5 18,-5 19,-3 21,-4 21,-2 22,-2 22,-1 22,0 23,1 21,2 22,3 20,3 19,5z" />
    <path style="fill:#b2b2b2" d="M440,144 l-1,3 -3,6 -4,11 -3,12 -1,14 2,14 7,13 12,12 1,1 2,2 3,3 5,4 4,5 5,6 3,7 3,7 2,8 0,8 -2,9 -4,9 -7,9 -11,9 -14,10 -18,8 0,0 -2,1 -4,1 -4,2 -5,1 -7,2 -7,2 -7,3 -9,2 -8,2 -8,3 -10,3 -8,2 -9,2 -8,2 -9,2 -10,3 -9,4 -8,5 -8,6 -7,7 -7,7 -6,7 -5,8 -5,8 -4,7 -3,8 -4,6 -3,6 -2,5 -2,4 -1,2 -1,1 -1,2 -2,3 -3,1 -3,2 -4,-1 -5,-3 -5,-6 -1,-12 -2,-28 -3,-30 -4,-20 -4,-8 -4,-9 -4,-9 -4,-9 -4,-8 -3,-8 -3,-5 -1,-5 -2,-4 -3,-12 -4,-16 -4,-21 -2,-22 2,-21 5,-19 11,-15 8,-6 10,-6 12,-6 15,-5 15,-4 17,-4 17,-4 19,-3 20,-2 20,-2 19,0 20,0 20,1 18,3 18,3 18,4z" />
    <path style="fill:#000" d="M299,241 l1,-7 2,-6 3,-3 4,-2 4,2 3,3 2,6 1,7 -1,8 -2,5 -3,4 -4,2 -2,0 -1,-1 -2,-1 -1,-2 0,-1 -2,-3 -1,-5 -1,-6z" />
    <path style="fill:#000" d="M395,232 l0,-7 1,-6 2,-4 3,-2 5,0 4,4 3,5 2,6 0,7 0,5 -3,5 -3,2 -2,0 -1,0 -2,-1 -2,-1 0,-1 -2,-3 -3,-4 -2,-5z" />
    <path style="fill:#fff" d="M396,235 l0,-4 1,-4 1,-2 2,-1 3,0 2,2 2,3 2,4 0,4 -1,3 -1,4 -3,1 -1,0 0,0 -1,-1 -1,0 -1,-1 -1,-2 -1,-3 -2,-3z" />
    <path style="fill:#000" d="M375,240 l1,0 3,2 3,4 4,3 6,3 6,3 8,3 8,2 0,0 -1,2 -1,3 -2,4 -3,4 -5,5 -6,4 -8,4 -12,0 1,0 2,-1 3,-2 3,-3 4,-3 4,-3 3,-4 4,-4 -1,-1 -3,-2 -3,-2 -4,-4 -4,-3 -4,-5 -4,-4 -2,-5z" />
    <path style="fill:#000" d="M191,240 l-1,-1 -3,-2 -3,-3 -5,-3 -6,-2 -6,-1 -6,0 -7,2 -1,0 -2,3 -3,3 -3,5 -3,6 0,7 1,9 5,9 1,1 2,3 3,3 3,4 6,3 5,3 7,1 7,0 -2,-1 -3,-4 -4,-5 -5,-6 -4,-8 -2,-9 1,-8 5,-9 0,0 1,-1 2,0 2,-1 3,-1 4,0 5,1 6,2z" />
    <path style="fill:#b2b2b2" d="M191,241 l-1,0 -1,-1 -2,-2 -3,-1 -4,-1 -5,-1 -5,0 -7,1 -1,0 -3,2 -3,3 -3,4 -2,5 -2,6 1,6 3,9 1,1 1,2 3,2 4,4 5,3 5,3 6,2 6,1 7,-48z" />
    <path style="fill:#000" d="M180,252 l0,0 -2,1 -3,1 -3,2 -2,2 -2,3 0,4 1,4 0,-1 -2,-2 -2,-3 -1,-4 0,-3 3,-3 5,-2 8,1z" />
    <path style="fill:#000" d="M320,197 l-1,0 -2,-1 -4,-1 -5,0 -6,0 -7,1 -7,2 -8,4 -22,16 -1,0 -1,-1 -1,-1 2,-3 2,-3 2,-3 3,-3 2,-3 3,-3 3,-3 3,-3 3,-3 1,-1 3,-1 5,-2 6,-2 7,-1 7,0 8,0 8,2 4,-3 -1,2 -1,5 -2,5 -3,4z" />
    <path style="fill:#000" d="M388,191 l1,0 2,-1 3,-2 5,-1 6,-1 7,-1 7,1 8,1 20,9 0,0 1,-2 0,-2 -2,-4 -4,-3 -3,-3 -3,-3 -5,-3 -1,0 -3,-1 -4,0 -5,-1 -6,0 -7,1 -7,1 -6,3 -7,-1 0,1 0,4 1,5 2,3z" />
    <path style="fill:#000" d="M391,303 l-11,-4 -1,1 -5,2 -5,3 -3,2 -1,0 -2,1 -3,0 -3,1 -4,1 -4,0 -4,0 -3,0 1,0 0,1 2,2 3,1 4,2 4,1 6,1 7,0 11,-7 10,3 7,-5 2,1 3,1 5,1 3,1 2,-1 3,-1 3,-2 1,0 -9,-4 -10,-7 -9,5z" />
    <path style="fill:#000" d="M473,127 l0,-1 -1,-2 0,-1 -1,-1 1,-1 0,-1 0,-1 0,-1 0,-2 0,-1 -1,-2 -1,-1 1,-1 0,-1 0,-1   0,-2 0,-3 -1,-2 -2,-2 -2,-2 0,0 0,-1 0,0 0,-2 -1,-1 0,-2 -1,-1 0,0 0,-1 0,0 0,-3 -2,-3 -3,-2 -3,-2 0,-1 0,0 0,-1 -1,-3 -2,-3   -3,-2 -3,-1 -2,-2 -1,-1 -3,-1 -2,0 0,0 -1,0 -1,0 0,0 -2,-2 -1,-2 -3,-1 -3,0 -1,-2 -2,-1 -2,-1 -3,0 -1,0 -1,0 -1,1 -1,0 -2,-1   -2,-1 -1,-1 -2,0 -1,0 0,0 -1,0 0,1 -2,-2 -2,-1 -2,-1 -2,0 -2,0 -2,0 -2,1 -1,1 -1,-3 -2,-3 -3,-2 -4,-1 -1,0 -2,1 -2,1 -1,0   -1,-2 -2,-1 -2,-1 -3,-1 -1,-1 -1,-1 -2,0 -2,0 -1,0 -1,0 -2,1 -1,0 -1,0 -1,-1 -1,0 -2,0 -1,0 -1,0 -2,0 -1,1 -1,-1 -2,-1 -1,-1   -2,0 -1,0 0,0 -1,0 0,1 -2,-2 -1,-2 -3,-1 -2,0 -2,0 -1,0 -1,0 -1,1 -1,-1 -2,0 -2,0 -1,0 -2,0 -2,0 -1,1 -2,2 -1,-2 -2,-1 -2,0   -2,0 -3,0 -2,1 -2,2 -1,2 -2,-1 -2,-1 -1,0 -2,0 -2,0 -1,0 -2,1 -1,1 -2,-1 -2,-1 -2,-1 -2,0 -2,0 -2,1 -2,1 -2,2 -1,-1 -1,0 -1,0   -1,0 -2,0 -2,1 -2,1 -1,2 -1,0 -1,0 0,0 -1,1 -1,-1 -2,0 -1,-1 -1,0 -3,1 -3,1 -3,3 -1,3 0,-1 -1,0 0,0 -1,0 0,0 -1,0 -1,1 -1,0   -1,-1 -1,0 -1,0 -1,0 -3,0 -3,2 -2,2 -1,3 -1,0 0,0 -2,0 -1,0 -1,1 -2,0 -1,0 -1,-1 -2,0 -1,0 -3,0 -3,1 -2,3 -1,2 -1,0 0,0 -3,1   -2,0 -2,2 -1,2 -1,0 -1,0 0,1 -1,0 -1,0 -2,-1 -1,0 -1,0 -4,1 -3,2 -2,3 -1,4 0,0 0,1 0,0 0,1 -2,1 -2,3 -1,2 -1,3 0,1 0,0 0,1   1,1 -2,-2 -2,-1 -1,0 -3,0 -4,1 -3,2 -2,3 -1,4 0,0 0,1 0,1 1,0 -3,1 -2,2 -1,2 -1,3 -3,1 -2,2 -2,3 -1,4 0,1 0,1 0,1 1,1 -1,1   -1,2 -1,2 -1,2 0,0 -3,2 -2,2 -2,3 -1,3 0,1 1,1 0,0 0,1 -3,1 -2,2 -1,3 -1,3 1,3 1,2 1,2 3,2 -1,1 -1,2 -1,2 0,2 0,1 1,2 1,1 0,2   -2,1 -1,2 -1,2 0,3 0,3 2,3 2,2 2,1 0,1 0,0 0,1 0,0 0,1 0,0 0,1 -1,1 -1,2 0,1 0,2 0,3 1,2 1,2 2,1 0,1 0,1 0,1 0,1 0,3 2,3 2,2   3,2 0,0 0,1 0,0 -1,2 -1,2 -1,2 0,2 1,3 2,3 3,2 4,1 1,0 0,0 1,1 0,0 0,0 1,-1 0,0 2,-1 1,0 1,-1 1,-1 2,-1 2,-1 2,-1 2,-1 2,-1   3,-1 2,0 2,0 4,0 3,1 3,2 3,1 3,2 2,2 1,1 1,0 2,1 3,0 3,0 3,0 3,0 3,-1 1,0 1,0 -4,-12 -2,-14 1,-13 2,-12 3,-6 2,-2 2,-3 4,-3   4,-5 5,-5 5,-6 6,-5 6,-6 7,-5 11,-3 13,-4 14,-3 13,-3 11,-1 7,-1 3,-1 10,0 10,0 9,0 10,0 8,1 9,0 9,1 8,1 8,1 8,0 7,1 6,1 7,1   6,1 5,2 4,1 0,1 0,0 -1,1 0,1 1,4 2,3 3,2 4,1 4,0 3,-2 2,-3 1,-3 2      ,-1 1,-1 0,-2 1,-1 2,-2 2,-2 1,-3 1,-3z" />
    <path style="fill:#b2b2b2" d="M414,338 l-2,4 -3,3 -2,3 -4,2 -4,3 -4,1 -5,2 -6,1 -7,1 -6,0 -5,0 -5,-1 -4,-1 -4,-2 -3,-1 -3,-3 -1,-3 1,-3 3,-3 4,-3 5,-3 6,-3 7,-2 7,-1 7,-1 7,0 6,1 6,1 5,1 3,2 2,3 -1,2z" />
    <path style="fill:#000" d="M366,331 l1,1 2,1 3,1 4,1 6,0 6,0 8,-2 7,-4 0,1 -1,2 -3,3 -3,4 -5,2 -7,1 -8,-1 -10,-4 0,-6z" />
    <path style="fill:#fff" d="M312,247 l0,4 -2,3 -2,3 -2,1 -2,-1 -2,-3 -2,-3 0,-4 0,-5 2,-3 2,-2 2,-1 2,1 2,2 2,3 0,5z" />
    <path style="fill:#000" d="M177,684 l2,2 6,3 9,5 10,5 11,6 12,5 10,3 9,1 6,0 5,1 4,1 3,1 3,2 4,1 4,2 4,2 5,2 4,2 3,2 3,2 2,2 3,1 2,1 2,1 3,0 3,-1 3,-1 4,-1 3,-2 4,-1 3,-2 3,-2 2,-3 3,-3 4,-4 3,-4 2,-4 3,-3 1,-2 1,-1 27,2 16,-15 1,0 2,0 2,1 1,3 5,7 6,-1 2,-6 2,0 3,1 4,2 4,3 6,-3 -3,-16 -1,0 -1,-2 -2,-3 -3,-4 -4,-3 -4,-2 -5,-2 -6,0 -5,0 -5,1 -4,1 -3,1 -4,1 -2,0 -2,1 0,0 -11,8 -7,-7 0,0 -2,-1 -2,-1 -3,-1 -3,-1 -3,-1 -3,-1 -3,0 -3,0 -3,0 -4,-1 -3,0 -4,0 -3,-1 -2,0 0,0 -32,-9 -107,30z" />
    <path style="fill:#000" d="M575,394 l-2,8 -3,23 -6,32 -6,40 -5,42 -5,42 -3,37 0,29 150,28 177,-33 38,-204 -127,-45 -208,1z" />
    <path style="fill:#fff" d="M586,414 l-1,7 -4,19 -5,28 -6,34 -6,37 -4,37 -2,34 1,28 128,23 29,-198 -130,-49z" />
    <path style="fill:#fff" d="M595,406 l132,48 164,-10 -111,-38 -185,0z" />
    <path style="fill:#000" d="M770,508 l100,-9 49,24 -13,81 -79,14 -72,-4 15,-106z" />
    <path style="fill:#fff" d="M782,519 l53,21 -11,69 -52,3 10,-93z" />
    <path style="fill:#fff" d="M799,514 l46,19 57,-6 -34,-17 -69,4z" />
    <path style="fill:#fff" d="M685,674 l27,4 20,-4 -2,27 -44,-12 -1,-15z" />
    <path style="fill:#fff" d="M618,702 l0,8 119,27 0,-10 -119,-25z" />
    <path style="fill:#fff" d="M187,461 l-1,0 -3,2 -3,3 -2,6 -2,5 -1,3 -1,3 -4,2 -5,4 -3,3 -2,4 -1,3 3,2 6,3 9,3 10,4 11,6 10,8 9,9 5,12 -1,-2 -3,-5 -6,-5 -7,-7 -10,-7 -11,-6 -12,-5 -15,-1 0,2 -1,5 -1,5 -1,4 -2,7 -3,13 -2,14 1,11 3,11 4,15 3,14 2,10 2,5 2,7 3,8 3,9 3,8 2,7 2,5 1,2 0,0 1,1 2,2 2,3 2,2 2,2 4,1 3,0 3,1 5,1 5,3 5,2 6,3 5,3 4,3 4,1 3,1 3,2 3,1 3,1 3,1 3,1 4,0 4,0 6,1 6,2 7,3 7,3 6,3 5,3 4,2 1,1 5,4 2,-2 3,-6 6,-7 6,-9 8,-9 8,-8 8,-6 7,-3 0,-1 -2,0 -3,-2 -3,-2 -4,-1 -4,-1 -4,-1 -5,0 -5,0 -5,-1 -6,0 -5,-1 -5,0 -5,-1 -3,0 -3,-1 -2,0 -3,-1 -3,0 -3,-1 -3,0 -2,-1 -3,-1 -2,-1 -2,-1 -2,-1 -3,-1 -3,-1 -3,-1 -4,-1 -4,0 -4,-1 -5,-1 -3,0 -3,-1 -2,0 -2,0 -1,0 -1,0 0,0 -1,0 -2,1 -4,1 -4,1 -5,2 -6,2 -5,3 -5,3 0,-1 1,-2 3,-4 3,-4 4,-3 5,-4 8,-3 8,-1 -1,-1 -2,-2 -1,-4 -1,-4 1,-4 2,-5 0,-6 -1,-5 -1,-6 -2,-6 -1,-4 0,-2 1,-21 1,3 3,8 3,8 3,8 3,6 2,5 1,5 0,4 1,7 2,5 1,5 1,2 2,0 2,2 3,1 3,2 4,3 4,1 4,2 2,1 3,0 3,0 3,1 4,1 3,1 2,1 2,0 1,0 12,4 23,-4 1,-4 0,-10 0,-12 -2,-13 -3,-11 -1,-10 -1,-7 0,-3 1,-7 0,-18 0,-20 -1,-13 2,6 4,14 3,19 0,22 0,3 2,6 1,7 0,5 1,5 2,6 1,5 1,3 -1,23 1,4 15,-6 1,-2 0,-3 -1,-6 -3,-8 -4,-10 0,-9 0,-7 0,-3 -3,-15 -4,-22 -5,-22 -1,-11 0,-7 0,-2 -2,-6 -4,-7 -8,-4 -4,-2 -4,-2 -4,-2 -3,-2 -3,-1 -2,-2 -1,0 0,-1 -2,-1 -3,-2 -3,-4 -4,-3 -3,-5 -5,-5 -5,-4 -2,-2 0,-1 -1,-2 -2,-3 -3,-2 -4,-1 -4,-1 -4,0 -1,0 0,1 0,3 -1,3 0,4 1,3 2,4 3,4 4,5 3,6 3,4 3,4 1,2 2,4 3,5 2,6 3,7 1,5 3,6 2,9 2,8 3,8 2,7 1,5 1,3 1,3 1,3 0,2 0,1 -2,21 17,28 -1,-1 -3,-2 -3,-4 -5,-5 -4,-4 -4,-5 -3,-5 -3,-4 -11,-28 0,0 -1,-2 -2,-3 -2,-4 -2,-4 -3,-5 -2,-5 -4,-5 -3,-6 -4,-5 -4,-5 -3,-4 -4,-3 -2,-4 -2,-2 -1,-3 -1,-2 -2,-3 -2,-4 -3,-4 -3,-3 -3,-4 -3,-3 -2,-2 -2,-3 -3,-4 -3,-4 -4,-4 -4,-4 -4,-4 -3,-2 -3,-1z" />
    <path style="fill:#b2b2b2" d="M221,474 l1,1 2,3 3,5 3,5 3,6 4,5 2,4 2,3 3,2 2,4 3,5 3,5 3,5 2,4 2,3 1,1 12,19 12,23 -1,-3 -1,-8 -3,-10 -2,-9 -4,-11 -4,-10 -4,-9 -5,-9 -4,-7 -3,-6 -2,-3 -1,-2 -11,-16 -10,-21 -10,8 9,3 0,1 -1,3 -2,4 -4,2z" />
    <path style="fill:#000" d="M302,657 l-2,-2 -5,-5 -5,-7 -3,-4 -3,-4 -5,-5 -4,-6 -3,-6 -2,-5 -3,-6 -3,-7 -3,-7 -3,-6 -3,-5 -2,-4 0,-1 -17,-17 0,1 2,3 2,4 4,5 3,5 2,5 2,5 2,3 3,9 4,10 4,10 2,7 2,2 4,4 5,6 5,6 5,6 4,5 3,3 1,2 7,-4z" />
    <path style="fill:#000" d="M287,603 l0,1 2,3 3,4 3,5 4,5 4,4 3,4 2,1 3,4 3,8 3,7 1,4 1,4 3,0 1,-6 -10,-24 -22,-25 -6,-10 2,11z" />
    <path style="fill:#000" d="M271,468 l2,3 3,7 5,10 5,13 6,15 5,15 3,15 2,13 0,-2 0,-5 -1,-8 -1,-11 -2,-13 -3,-14 -5,-14 -6,-15 -13,-9z" />
    <path style="fill:#fff" d="M728,472 l-30,189 161,-30 1,-14 -102,7 12,-116 98,-11 17,8 12,-49 -169,16z" />
    <path style="fill:#fff" d="M742,673 l52,-15 -2,32 -50,13 0,-30z" />
    <path style="fill:#b2b2b2" d="M363,687 l1,-1 3,-3 4,-3 6,-4 5,-4 3,0 2,0 4,1 4,1 3,2 2,0 1,1 1,5 1,5 -1,0 -2,0 -2,0 -2,-2 -3,-2 -3,-1 -3,-1 -2,0 -4,8 0,1 -1,1 -1,2 -3,1 -3,2 -3,1 -5,-1 -6,-1 4,-8z" />
    <path style="fill:#fff" d="M670,689 l-36,7 111,26 115,-26 -54,-13 0,11 -64,20 -70,-20 -2,-5z" />
    <path style="fill:#fff" d="M441,707 l68,-3 92,-19 -60,3 -100,19z" />
</svg>
