<?xml version="1.0" standalone="no"?>
<!-- <?xml-stylesheet type="text/css" href="http://www.w3.org/Consortium/Offices/Presentations/svgs/slide.css" ?> -->
<?xml-stylesheet type="text/css" href="slide.css" ?>
<!-- Generator: Mayura Draw 3.6 -->
<svg xmlns:xlink="http://www.w3.org/1999/xlink" viewBox="0 0 940 600">
	<desc>VoiceArchitecture.pdx</desc>
	<defs>
		<!-- Explanation for speech markup -->
		<set xlink:href="#speechmarkupExpl" attributeType="CSS" attributeName="visibility" to="visible" begin="speechmarkup.click" fill="freeze"/>
		<set xlink:href="#speechdialogmarkupExpl" attributeType="CSS" attributeName="visibility" to="hidden" begin="speechmarkup.click" fill="freeze"/>
		<set xlink:href="#speechsynthesismarkupExpl" attributeType="CSS" attributeName="visibility" to="hidden" begin="speechmarkup.click" fill="freeze"/>
		<set xlink:href="#naturalsemanticsmarkupExpl" attributeType="CSS" attributeName="visibility" to="hidden" begin="speechmarkup.click" fill="freeze"/>
		<set xlink:href="#reusabledialogExpl" attributeType="CSS" attributeName="visibility" to="hidden" begin="speechmarkup.click" fill="freeze"/>
		<!-- Explanation for speech dialog markup -->
		<set xlink:href="#speechmarkupExpl" attributeType="CSS" attributeName="visibility" to="hidden" begin="speechdialogmarkup.click" fill="freeze"/>
		<set xlink:href="#speechdialogmarkupExpl" attributeType="CSS" attributeName="visibility" to="visible" begin="speechdialogmarkup.click" fill="freeze"/>
		<set xlink:href="#speechsynthesismarkupExpl" attributeType="CSS" attributeName="visibility" to="hidden" begin="speechdialogmarkup.click" fill="freeze"/>
		<set xlink:href="#naturalsemanticsmarkupExpl" attributeType="CSS" attributeName="visibility" to="hidden" begin="speechdialogmarkup.click" fill="freeze"/>
		<set xlink:href="#reusabledialogExpl" attributeType="CSS" attributeName="visibility" to="hidden" begin="speechdialogmarkup.click" fill="freeze"/>
		<!-- Explanation for speech synthesis markup -->
		<set xlink:href="#speechmarkupExpl" attributeType="CSS" attributeName="visibility" to="hidden" begin="speechsynthesismarkup.click" fill="freeze"/>
		<set xlink:href="#speechdialogmarkupExpl" attributeType="CSS" attributeName="visibility" to="hidden" begin="speechsynthesismarkup.click" fill="freeze"/>
		<set xlink:href="#speechsynthesismarkupExpl" attributeType="CSS" attributeName="visibility" to="visible" begin="speechsynthesismarkup.click" fill="freeze"/>
		<set xlink:href="#naturalsemanticsmarkupExpl" attributeType="CSS" attributeName="visibility" to="hidden" begin="speechsynthesismarkup.click" fill="freeze"/>
		<set xlink:href="#reusabledialogExpl" attributeType="CSS" attributeName="visibility" to="hidden" begin="speechsynthesismarkup.click" fill="freeze"/>
		<!-- Explanation for natural semantics markup -->
		<set xlink:href="#speechmarkupExpl" attributeType="CSS" attributeName="visibility" to="hidden" begin="naturalsemanticsmarkup.click" fill="freeze"/>
		<set xlink:href="#speechdialogmarkupExpl" attributeType="CSS" attributeName="visibility" to="hidden" begin="naturalsemanticsmarkup.click" fill="freeze"/>
		<set xlink:href="#speechsynthesismarkupExpl" attributeType="CSS" attributeName="visibility" to="hidden" begin="naturalsemanticsmarkup.click" fill="freeze"/>
		<set xlink:href="#naturalsemanticsmarkupExpl" attributeType="CSS" attributeName="visibility" to="visible" begin="naturalsemanticsmarkup.click" fill="freeze"/>
		<set xlink:href="#reusabledialogExpl" attributeType="CSS" attributeName="visibility" to="hidden" begin="naturalsemanticsmarkup.click" fill="freeze"/>
		<!-- Explanation for reusable dialog -->
		<set xlink:href="#speechmarkupExpl" attributeType="CSS" attributeName="visibility" to="hidden" begin="reusabledialog.click" fill="freeze"/>
		<set xlink:href="#speechdialogmarkupExpl" attributeType="CSS" attributeName="visibility" to="hidden" begin="reusabledialog.click" fill="freeze"/>
		<set xlink:href="#speechsynthesismarkupExpl" attributeType="CSS" attributeName="visibility" to="hidden" begin="reusabledialog.click" fill="freeze"/>
		<set xlink:href="#naturalsemanticsmarkupExpl" attributeType="CSS" attributeName="visibility" to="hidden" begin="reusabledialog.click" fill="freeze"/>
		<set xlink:href="#reusabledialogExpl" attributeType="CSS" attributeName="visibility" to="visible" begin="reusabledialog.click" fill="freeze"/>
		<set xlink:href="#speechmarkupExpl" attributeType="CSS" attributeName="visibility" to="hidden" begin="speechmarkupExpl.click" fill="freeze"/>
		<set xlink:href="#speechdialogmarkupExpl" attributeType="CSS" attributeName="visibility" to="hidden" begin="speechdialogmarkupExpl.click" fill="freeze"/>
		<set xlink:href="#speechsynthesismarkupExpl" attributeType="CSS" attributeName="visibility" to="hidden" begin="speechsynthesismarkupExpl.click" fill="freeze"/>
		<set xlink:href="#naturalsemanticsmarkupExpl" attributeType="CSS" attributeName="visibility" to="hidden" begin="naturalsemanticsmarkupExpl.click" fill="freeze"/>
		<set xlink:href="#reusabledialogExpl" attributeType="CSS" attributeName="visibility" to="hidden" begin="reusabledialogExpl.click" fill="freeze"/>
	</defs>
	<g transform="scale(1.1)">
		<rect class="blueish" transform="matrix(0 0.8 0.8 0 9.093 236.9)" x="66" y="180" width="63" height="225"/>
		<rect class="yellowish" transform="matrix(0 0.8 0.8 0 132.6 178.9)" x="165" y="150" width="27" height="99"/>
		<text transform="matrix(0.8 0 0 0.8 301.2 324.1)" class="note">
			<tspan x="-11.25" y="1.81">Markup</tspan>
		</text>
		<rect class="yellowish" transform="matrix(0 0.8 0.8 0 34.96 175)" x="165" y="150" width="39" height="99"/>
		<text transform="matrix(0.8 0 0 0.8 203.6 319)" class="note">
			<tspan x="-11.25" y="1.81">Sound</tspan>
			<tspan x="-11.25" y="16.81">Generator</tspan>
		</text>
		<text transform="matrix(0.8 0 0 0.8 126.5 136.8)" class="note">
			<tspan x="147" y="206.33">Marked up Text</tspan>
		</text>
		<path class="yellowish" d="M252.714 320.405
  l-18.324 0
  "/>
		<path class="yellowish" d="M234.389 320.405
  l0 1
  14 3
  -2 -4
  2 -4
  -14 3
  z"/>
		<rect class="blueish" transform="matrix(0 0.8 0.8 0 4.168 52.42)" x="66" y="180" width="63" height="225"/>
		<rect class="yellowish" transform="matrix(0 0.8 0.8 0 127.1 -7.42)" x="165" y="150" width="27" height="99"/>
		<text transform="matrix(0.8 0 0 0.8 295.7 137.8)" class="note">
			<tspan x="-11.25" y="1.81">Classifier</tspan>
		</text>
		<rect class="yellowish" transform="matrix(0 0.8 0.8 0 29.74 -12.38)" x="165" y="150" width="39" height="99"/>
		<text transform="matrix(0.8 0 0 0.8 198.3 131.7)" class="note">
			<tspan x="-11.25" y="1.81">Feature</tspan>
			<tspan x="-11.25" y="16.81">Extractor</tspan>
		</text>
		<text transform="matrix(0.8 0 0 0.8 121.8 -46.04)" class="note">
			<tspan x="147" y="206.33">Features</tspan>
		</text>
		<rect class="yellowish" transform="matrix(0 0.8 0.8 0 -108.6 -12.38)" x="165" y="150" width="27" height="99"/>
		<text transform="matrix(0.8 0 0 0.8 59.97 132.9)" class="note">
			<tspan x="-11.25" y="1.81">Microphone</tspan>
		</text>
		<rect class="yellowish" transform="matrix(0 0.8 0.8 0 -108.6 52.42)" x="165" y="150" width="27" height="99"/>
		<text transform="matrix(0.8 0 0 0.8 59.97 197.7)" class="note">
			<tspan x="-8.25" y="1.81">Input Device</tspan>
		</text>
		<rect class="yellowish" transform="matrix(0 0.8 0.8 0 61.77 52.42)" x="165" y="150" width="27" height="99"/>
		<text transform="matrix(0.8 0 0 0.8 230.4 197.7)" class="note">
			<tspan x="-11.25" y="1.81">Recognizer</tspan>
		</text>
		<text transform="matrix(0.8 0 0 0.8 263.4 -181.7)" class="note">
			<tspan x="102" y="383.33">Text</tspan>
		</text>
		<text transform="matrix(0.8 0 0 0.8 258.6 -119.3)" class="note">
			<tspan x="102" y="383.33">Text</tspan>
		</text>
		<text transform="matrix(0.8 0 0 0.8 27.26 -180.8)" class="note">
			<tspan x="119.129" y="383.33">Electrical</tspan>
		</text>
		<text transform="matrix(0.8 0 0 0.8 27.26 -164)" class="note">
			<tspan x="119.129" y="383.33">Signal</tspan>
		</text>
		<path class="yellowish" d="M91.328 130.419 l52.357 0.331"/>
		<path class="yellowish" d="M143.685 130.75
  l0.005 -0.8
  -11.185 -2.471
  1.58 3.21
  -1.62 3.19
  11.215 -2.329
  z"/>
		<path class="yellowish" d="M330.591 130.75
  l29.319 0
  "/>
		<path class="yellowish" d="M359.91 130.75
  l0 -0.8
  -11.2 -2.4
  1.6 3.2
  -1.6 3.2
  11.2 -2.4
  z"/>
		<path class="yellowish" d="M95.126 194.885
  l81.543 0
  "/>
		<path class="yellowish" d="M176.668 194.885
  l0 -0.8
  -11.2 -2.4
  1.6 3.2
  -1.6 3.2
  11.2 -2.4
  z"/>
		<path class="yellowish" d="M265.541 194.885
  l94.37 0
  "/>
		<path class="yellowish" d="M359.91 194.885
  l0 -0.8
  -11.2 -2.4
  1.6 3.2
  -1.6 3.2
  11.2 -2.4
  z"/>
		<rect class="yellowish" transform="matrix(0 0.8 0.8 0 244.2 -21.98)" x="165" y="150" width="123" height="111"/>
		<text transform="matrix(0.8 0 0 0.8 413.5 149.7)" class="note">
			<tspan x="2" y="1.81">Language</tspan>
			<tspan x="2" y="16.81">Understanding</tspan>
			<tspan x="2" y="31.81">Module</tspan>
		</text>
		<rect class="yellowish" transform="matrix(0 0.8 0.8 0 -107.3 177.7)" x="165" y="150" width="27" height="99"/>
		<text transform="matrix(0.8 0 0 0.8 61.3 322.9)" class="note">
			<tspan x="-11.25" y="1.81">Speaker</tspan>
		</text>
		<rect class="yellowish" transform="matrix(0 0.8 0.8 0 -108.6 112.4)" x="165" y="150" width="34.875" height="99.75"/>
		<text transform="matrix(0.8 0 0 0.8 60.27 254.8)" class="note">
			<tspan x="-11.25" y="1.81">Output</tspan>
			<tspan x="-11.25" y="16.81">Device</tspan>
		</text>
		<rect class="yellowish" transform="matrix(0 0.8 0.8 0 61.77 109.4)" x="165" y="149.25" width="42.375" height="101.25"/>
		<text transform="matrix(0.8 0 0 0.8 230.7 254.8)" class="note">
			<tspan x="-11.25" y="1.81">Output</tspan>
			<tspan x="-11.25" y="16.81">Constructor</tspan>
		</text>
		<path class="yellowish" d="M96.042 258.103
  l79.71 0
  "/>
		<path class="yellowish" d="M96.042 258.103
  l0 0.8
  11.2 2.4
  -1.6 -3.2
  1.6 -3.2
  -11.2 2.4
  z"/>
		<path class="yellowish" d="M266.457 258.103
  l97.711 0.266
  "/>
		<path class="yellowish" d="M266.457 258.103
  l-0.002 0.8
  11.193 2.43
  -1.591 -3.204
  1.609 -3.196
  -11.206 2.37
  z"/>
		<text transform="matrix(0.8 0 0 0.8 267.7 2.612)" class="note">
			<tspan x="102" y="383.33">Text</tspan>
		</text>
		<text transform="matrix(0.8 0 0 0.8 28.5 10.53)" class="note">
			<tspan x="119.129" y="383.33">Electrical</tspan>
		</text>
		<text transform="matrix(0.8 0 0 0.8 28.5 27.33)" class="note">
			<tspan x="119.129" y="383.33">Signal</tspan>
		</text>
		<path class="yellowish" d="M362.659 321.321
  l-28.38 -0.394
  "/>
		<path class="yellowish" d="M334.279 320.927
  l-0.011 0.8
  11.166 2.555
  -1.555 -3.222
  1.644 -3.177
  -11.232 2.244
  z"/>
		<rect class="yellowish" transform="matrix(0 0.8 0.8 0 244.2 110)" x="165" y="150" width="123" height="111"/>
		<text transform="matrix(0.8 0 0 0.8 413.5 287.7)" class="note">
			<tspan x="-6.108" y="1.81">Language</tspan>
			<tspan x="-6.108" y="16.81">Generator</tspan>
		</text>
		<path class="yellowish" d="M229.452 133.357
  l17.286 0
  "/>
		<path class="yellowish" d="M246.738 133.357
  l0 -0.8
  -11.2 -2.4
  1.6 3.2
  -1.6 3.2
  11.2 -2.4
  z"/>
		<path class="yellowish" d="M150.038 321.321
  l-55.828 -0.916
  "/>
		<path class="yellowish" d="M94.21 320.405
  l-0.013 0.8
  11.159 2.583
  -1.547 -3.226
  1.652 -3.173
  -11.238 2.216
  z"/>
		<rect class="yellowish" transform="matrix(0 0.8 0.8 0 403.1 -22.13)" x="165" y="150" width="42.132" height="100.464"/>
		<text transform="matrix(0.8 0 0 0.8 572.3 123.2)" class="note">
			<tspan x="-11.25" y="1.81">Context</tspan>
			<tspan x="-11.25" y="16.81">Interpreter</tspan>
		</text>
		<rect class="yellowish" transform="matrix(0 0.8 0.8 0 403.1 173.4)" x="165" y="150" width="42.132" height="100.464"/>
		<text transform="matrix(0.8 0 0 0.8 572.3 318.7)" class="note">
			<tspan x="-11.25" y="1.81">Context</tspan>
			<tspan x="-11.25" y="16.81">Generator</tspan>
		</text>
		<text transform="matrix(0.8 0 0 0.8 390.5 -178.4)" class="note">
			<tspan x="124.014" y="383.33">Semantics</tspan>
		</text>
		<text transform="matrix(0.8 0 0 0.8 393.4 11.21)" class="note">
			<tspan x="124.014" y="383.33">Semantics</tspan>
		</text>
		<rect class="yellowish" transform="matrix(0 0.8 0.8 0 543.8 -23.6)" x="165" y="150" width="290.202" height="81.727"/>
		<text transform="matrix(0.8 0 0 0.8 711.1 218.8)" class="note">
			<tspan x="-17.628" y="1.81">Dialog</tspan>
			<tspan x="-17.628" y="16.81">Manager</tspan>
		</text>
		<rect class="yellowish" transform="matrix(0 0.8 0.8 0 634.6 20.7)" x="165" y="150" width="177.168" height="113.587"/>
		<text transform="matrix(0.8 0 0 0.8 814 196)" class="note">
			<tspan x="-10" y="1.81">Services:</tspan>
			<tspan x="-10" y="16.81">OS</tspan>
			<tspan x="-10" y="31.81">DBMS</tspan>
			<tspan x="-10" y="46.81">Web</tspan>
			<tspan x="-10" y="61.81">Application</tspan>
			<tspan x="-10" y="76.81">modules</tspan>
		</text>
		<text transform="matrix(0.8 0 0 0.8 539.1 -181.2)" class="note">
			<tspan x="124.014" y="383.33">Semantics</tspan>
		</text>
		<text transform="matrix(0.8 0 0 0.8 539.1 7.544)" class="note">
			<tspan x="124.014" y="383.33">Semantics</tspan>
		</text>
		<path class="yellowish" d="M455.196 133.499
  l62.302 0
  "/>
		<path class="yellowish" d="M517.498 133.499
  l0 -0.8
  -11.2 -2.4
  1.6 3.2
  -1.6 3.2
  11.2 -2.4
  z"/>
		<path class="yellowish" d="M605.454 134.415
  l52.224 -0.916
  "/>
		<path class="yellowish" d="M657.678 133.499
  l-0.014 -0.8
  -11.24 -2.203
  1.656 3.171
  -1.544 3.228
  11.156 -2.596
  z"/>
		<path class="yellowish" d="M521.133 322.696
  l-64.104 0.458
  "/>
		<path class="yellowish" d="M457.028 323.154
  l0.006 0.8
  11.217 2.32
  -1.623 -3.188
  1.577 -3.211
  -11.183 2.48
  z"/>
		<path class="yellowish" d="M661.786 322.009
  l-55.416 1.145
  "/>
		<path class="yellowish" d="M606.37 323.154
  l0.017 0.8
  11.247 2.168
  -1.666 -3.166
  1.534 -3.232
  -11.148 2.631
  z"/>
		<path class="yellowish" d="M754.796 223.287
  l-26.57 0
  "/>
		<path class="yellowish" d="M754.796 223.287
  l0 -0.8
  -11.2 -2.4
  1.6 3.2
  -1.6 3.2
  11.2 -2.4
  z"/>
		<path class="yellowish" d="M728.226 223.287
  l0 0.8
  11.2 2.4
  -1.6 -3.2
  1.6 -3.2
  -11.2 2.4
  z"/>
		<ellipse class="yellowish" style="stroke-width:1" transform="matrix(0 1 1 0 260 -175.9)" cx="397.367" cy="303.267" rx="20.731" ry="45.35"/>
		<text transform="matrix(0.8 0 0 0.8 572.3 217.9)" class="note">
			<tspan x="-11.25" y="1.81">Dialog</tspan>
			<tspan x="-11.25" y="16.81">History</tspan>
		</text>
		<path class="yellowish" d="M563.308 145.409
  l-0 50.391
  "/>
		<path class="yellowish" d="M563.308 145.409
  l-0.8 0
  -2.4 11.2
  3.2 -1.6
  3.2 1.6
  -2.4 -11.2
  z"/>
		<path class="yellowish" d="M563.308 195.801
  l0.8 0
  2.4 -11.2
  -3.2 1.6
  -3.2 -1.6
  2.4 11.2
  z"/>
		<path class="yellowish" d="M563.079 243.902
  l0.458 54.514
  "/>
		<path class="yellowish" d="M563.079 243.902
  l-0.8 0.007
  -2.306 11.22
  3.186 -1.627
  3.213 1.573
  -2.494 -11.179
  z"/>
		<path class="yellowish" d="M563.537 298.416
  l0.8 -0.007
  2.306 -11.22
  -3.186 1.627
  -3.213 -1.573
  2.494 11.179
  z"/>
		<rect class="yellowish" transform="matrix(0 1 1 0 9.916 8.246)" x="13.475" y="636.767" width="43.978" height="96.202" rx="14.659" ry="14.659"/>
		<text transform="matrix(1 0 0 1 639.6 -620.9)" class="note">
			<tspan x="56.537" y="662.578">Dialog</tspan>
			<tspan x="56.537" y="677.578">Script</tspan>
		</text>
		<rect class="yellowish" transform="matrix(0 1 1 0 12.66 376.6)" x="13.475" y="636.767" width="55.889" height="102.615" rx="14.659" ry="14.659"/>
		<text transform="matrix(1 0 0 1 626.2 -254.7)" class="note">
			<tspan x="78.576" y="662.578">Reusable</tspan>
			<tspan x="78.576" y="677.578">Dialog</tspan>
			<tspan x="78.576" y="692.578">Components</tspan>
		</text>
		<rect class="yellowish" transform="matrix(0 1 1 0 -290.6 29.32)" x="13.475" y="651.427" width="45.81" height="68.716" rx="14.659" ry="14.659"/>
		<text transform="matrix(1 0 0 1 332.3 -599.8)" class="note">
			<tspan x="69.921" y="662.578">CFG</tspan>
			<tspan x="69.921" y="677.578">Grammar</tspan>
		</text>
		<rect class="yellowish" transform="matrix(0 1 1 0 -376.7 9.162)" x="13.475" y="653.259" width="44.894" height="76.962" rx="14.659" ry="14.659"/>
		<text transform="matrix(1 0 0 1 253 -619.9)" class="note">
			<tspan x="69.691" y="662.578">N-Gramm</tspan>
			<tspan x="69.691" y="677.578">Grammar</tspan>
		</text>
		<rect class="yellowish" transform="matrix(0 1 1 0 -458.7 0.4581)" x="13.475" y="651.885" width="26.112" height="78.336" rx="13.056" ry="14.659"/>
		<text transform="matrix(1 0 0 1 168.6 -630.7)" class="note">
			<tspan x="69.691" y="662.578">Lexicon</tspan>
		</text>
		<rect class="yellowish" transform="matrix(0 1 1 0 -492.6 34.36)" x="13.475" y="653.259" width="44.894" height="76.962" rx="14.659" ry="14.659"/>
		<text transform="matrix(1 0 0 1 137.1 -594.7)" class="note">
			<tspan x="69.691" y="662.578">Acoustic</tspan>
			<tspan x="69.691" y="677.578">Model</tspan>
		</text>
		<path class="yellowish" d="M258.211 42.794
  l20.157 75.129
  "/>
		<path class="yellowish" d="M278.367 117.923
  l0.773 -0.207
  -0.584 -11.439
  -2.676 2.375
  -3.505 -0.716
  5.22 10.196
  z"/>
		<path class="yellowish" d="M240.803 74.861
  l30.235 43.978
  "/>
		<path class="yellowish" d="M271.038 118.839
  l0.659 -0.453
  -4.367 -10.589
  -1.73 3.131
  -3.543 0.494
  8.323 7.87
  z"/>
		<path class="yellowish" d="M312.267 71.196
  l-28.403 45.81
  "/>
		<path class="yellowish" d="M283.865 117.007
  l0.68 0.422
  7.941 -8.254
  -3.563 -0.326
  -1.877 -3.046
  -3.862 10.784
  z"/>
		<path class="yellowish" d="M423.128 84.94
  l4.581 21.073
  "/>
		<path class="yellowish" d="M427.71 106.012
  l0.782 -0.17
  -0.034 -11.454
  -2.787 2.243
  -3.467 -0.884
  4.724 10.435
  z"/>
		<path class="yellowish" d="M697.991 70.28
  l0 31.151
  "/>
		<path class="yellowish" d="M697.991 101.431
  l0.8 0
  2.4 -11.2
  -3.2 1.6
  -3.2 -1.6
  2.4 11.2
  z"/>
		<path class="yellowish" d="M698.907 383.624
  l0.916 -40.313
  "/>
		<path class="yellowish" d="M699.823 343.31
  l-0.8 -0.018
  -2.654 11.143
  3.236 -1.527
  3.163 1.672
  -2.145 -11.252
  z"/>
		<text id="speechsynthesismarkup" transform="matrix(1 0 0 1 -263.8 138.7)" class="note">
			<tspan x="509.68" y="254.865">Speech Synthesis</tspan>
			<tspan x="509.68" y="269.865">Markup</tspan>
		</text>
		<path class="yellowish" d="M453.363 42.794
  l-21.989 13.743
  "/>
		<path class="yellowish" d="M431.374 56.537
  l0.53 0.848
  13.462 -4.876
  -3.816 -2.332
  -0.424 -4.452
  -10.282 9.964
  z"/>
		<text id="speechmarkup" transform="matrix(1 0 0 1 -39.37 -217.5)" class="note">
			<tspan x="515.68" y="254.865">Speech Markup</tspan>
		</text>
		<path class="yellowish" d="M243.093 373.545
  l0 -43.978
  "/>
		<path class="yellowish" d="M243.093 329.567
  l-1 0
  -3 14
  4 -2
  4 2
  -3 -14
  z"/>
		<path class="yellowish" d="M413.05 30.883
  l-58.637 0
  "/>
		<path class="yellowish" d="M354.413 30.883
  l0 1
  14 3
  -2 -4
  2 -4
  -14 3
  z"/>
		<text id="speechdialogmarkup" transform="matrix(1 0 0 1 82.49 -225.7)" class="note">
			<tspan x="509.68" y="254.865">Speech Dialog</tspan>
			<tspan x="509.68" y="269.865">Markup</tspan>
		</text>
		<path class="yellowish" d="M620.113 42.794
  l25.654 8.246
  "/>
		<path class="yellowish" d="M645.767 51.04
  l0.306 -0.952
  -12.41 -7.14
  0.68 4.42
  -3.128 3.196
  14.246 1.428
  z"/>
		<text id="reusabledialog" transform="matrix(1 0 0 1 10.11 163.7)" class="note">
			<tspan x="509.68" y="254.865">Reusable Dialog</tspan>
			<tspan x="509.68" y="269.865">Components</tspan>
		</text>
		<path class="yellowish" d="M583.923 420.272
  l57.263 0
  "/>
		<path class="yellowish" d="M641.186 420.272
  l0 -1
  -14 -3
  2 4
  -2 4
  14 -3
  z"/>
		<text id="naturalsemanticsmarkup" transform="matrix(1 0 0 1 0.03024 -47.05)" class="note">
			<tspan x="490.071" y="254.865">Natural</tspan>
			<tspan x="490.071" y="269.865">Language</tspan>
			<tspan x="490.071" y="284.865">Semantics</tspan>
			<tspan x="490.071" y="299.865">Markup</tspan>
		</text>
		<path class="yellowish" d="M482.224 187.555
  l0 -43.978
  "/>
		<path class="yellowish" d="M482.224 143.577
  l-1 0
  -3 14
  4 -2
  4 2
  -3 -14
  z"/>
		<path class="yellowish" d="M484.056 259.019
  l0 43.978
  "/>
		<path class="yellowish" d="M484.056 302.997
  l1 0
  3 -14
  -4 2
  -4 -2
  3 14
  z"/>
		<path class="yellowish" d="M514.291 204.963
  l109.487 -65.967
  "/>
		<path class="yellowish" d="M623.778 138.996
  l-0.516 -0.857
  -13.54 4.655
  3.777 2.394
  0.351 4.458
  10.443 -9.795
  z"/>
		<path class="yellowish" d="M518.872 249.857
  l103.99 43.978
  "/>
		<path class="yellowish" d="M622.862 293.835
  l0.39 -0.921
  -11.726 -8.216
  0.284 4.463
  -3.4 2.905
  14.063 2.69
  z"/>
	</g>
	<!-- ==== -->
	<!-- These are the explanation texts -->
	<text class="onBackgroundMinor" style="visibility:hidden" id="speechmarkupExpl">
		<tspan x="5" y="540">Grammar (in ABNF or XML formats) to produce text from input</tspan>
		<tspan x="5" y="570">(based on JSpeech)</tspan>
	</text>
	<text class="onBackgroundMinor" style="visibility:hidden" id="speechdialogmarkupExpl">
		<tspan x="5" y="540">System directed speech dialogs with event handling, mixed initiative</tspan>
		<tspan x="5" y="570">(based on VoiceXML)</tspan>
	</text>
	<text class="onBackgroundMinor" style="visibility:hidden" id="speechsynthesismarkupExpl">
		<tspan x="5" y="540">Prosodic control of the output (selection of voice characteristics, emphasis of words)</tspan>
		<tspan x="5" y="570">(based on JSpeech)</tspan>
	</text>
	<text class="onBackgroundMinor" style="visibility:hidden" id="naturalsemanticsmarkupExpl">
		<tspan x="5" y="540">Generation of semantics using the XForm Data Model</tspan>
	</text>
	<text class="onBackgroundMinor" style="visibility:hidden" id="reusabledialogExpl">
		<tspan x="5" y="540">Library of reusable dialog script chunks </tspan>
		<tspan x="5" y="570">(eg, simple digit string, browsable selection list)</tspan>
	</text>
</svg>
