<?xml version="1.0" encoding="utf-8"?>
<!-- Generator: Adobe Illustrator 9.0, SVG Export Plug-In  -->
<svg viewBox="0 0 211.7 48" xml:space="preserve">
	<style type="text/css">
	<![CDATA[
		.st0wai{fill-rule:nonzero;clip-rule:nonzero;fill:#99FF00;stroke:#000000;stroke-miterlimit:4;}
		.st1wai{fill:#FFFFFF;}
		.st2wai{fill-rule:nonzero;clip-rule:nonzero;fill:#FFFF00;}
		.st3wai{fill-rule:nonzero;clip-rule:nonzero;fill:#000066;}
		.st4wai{fill-rule:evenodd;clip-rule:evenodd;stroke:none;}
	]]>
	</style>
	<g id="Layer_x0020_1" class="st0wai">
		<g class="st4wai">
			<g class="st3wai">
				<path d="M0,0h211.7v48H0V0z"/>
				<path d="M105.9,24"/>
			</g>
			<g class="st2wai">
				<path d="M0,29.3h211.7v1.1H0v-1.1z"/>
				<path d="M105.9,29.8"/>
			</g>
			<g>
				<path d="M31.2,27.2h2.5l5-16.6l4.4,16.6h2.7l5.6-19.5H49l-4.4,16l-4.3-16h-3l-4.7,15.6L28.4,7.7h-2.6l5.3,19.5z"/>
				<path d="M61.5,22.8h-2.4c0,1.7-1.3,2.8-3.3,2.8c-2.4,0-3.8-1.4-3.8-4c0-0.2,0-0.4,0-0.5c0-0.1,0-0.2,0-0.3h9.6c0.1-0.6,0.1-1.1,0.1-1.7c0-3.6-2.2-5.9-5.9-5.9c-4,0-6.3,2.5-6.3,7.4c0,4.5,2.2,6.9,6.4,6.9c3.3,0,5.5-1.8,5.5-4.7z M52.2,19c0-2.5,1.5-4.1,3.7-4.1
					c1.9,0,3.4,1.4,3.4,3.8c0,0.1,0,0.2,0,0.3h-7z"/>
				<path d="M65.6,20.6c0-3.7,1.7-5.6,3.9-5.6c2.3,0,3.9,1.9,3.9,5.2c0,3.7-1.7,5.6-3.9,5.6c-2.3,0-3.9-1.9-3.9-5.2z M63.1,7.7v16.8c0,0.7,0,1.6-0.2,2.7h2.5l0.1-1.9c1,1.4,2.5,2.2,4.4,2.2c3.6,0,5.9-2.6,5.9-7.1c0-4.6-2.2-7-5.8-7c-1.8,0-3.3,0.7-4.6,2.3v-8h-2.5z"
					/>
				<path d="M82.8,27.2l2.2-5H94l2,5h3L91.2,7.7h-2.8l-8.3,19.5h2.7z M93.2,19.9h-7.4l3.8-9.6l3.6,9.6z"/>
				<path d="M109.2,22.6h-2.4c0,1.8-1.2,3-2.9,3c-2.2,0-3.4-1.9-3.4-5.5c0-3.3,1.4-5.1,3.4-5.1c1.5,0,2.8,1.2,2.8,2.8h2.4c0,0,0,0,0-0.1c0-2.8-2-4.6-5-4.6c-3.9,0-6.2,2.7-6.2,7.4c0,4.4,2.2,6.8,6,6.8c3.2,0,5.1-1.7,5.3-4.9z"/>
				<path d="M121,22.6h-2.4c0,1.8-1.2,3-2.9,3c-2.2,0-3.4-1.9-3.4-5.5c0-3.3,1.4-5.1,3.4-5.1c1.5,0,2.8,1.2,2.8,2.8h2.4c0,0,0,0,0-0.1c0-2.8-2-4.6-5-4.6c-3.9,0-6.2,2.7-6.2,7.4c0,4.4,2.2,6.8,6,6.8c3.2,0,5.1-1.7,5.3-4.9z"/>
				<path d="M133.4,22.8h-2.4c0,1.7-1.3,2.8-3.3,2.8c-2.4,0-3.8-1.4-3.8-4c0-0.2,0-0.4,0-0.5c0-0.1,0-0.2,0-0.3h9.6c0.1-0.6,0.1-1.1,0.1-1.7c0-3.6-2.3-5.9-5.9-5.9c-4,0-6.3,2.5-6.3,7.4c0,4.5,2.2,6.9,6.4,6.9c3.3,0,5.5-1.8,5.5-4.7z M124.1,19
					c0-2.5,1.5-4.1,3.7-4.1c1.9,0,3.4,1.4,3.4,3.8c0,0.1,0,0.2,0,0.3h-7z"/>
				<path d="M134,23.1c0,0.1,0,0.2,0,0.3c0,2.8,1.7,4.1,5.5,4.1c3.4,0,5.4-1.7,5.4-4.2c0-1.9-1-3.1-3.1-3.7l-3.1-0.8c-1.4-0.4-2-0.9-2-1.8c0-1.1,1.1-2,2.7-2c1.6,0,2.6,0.8,2.6,2.1c0,0,0,0.1,0,0.1h2.5c0-0.1,0-0.3,0-0.4c0-2.2-1.8-3.6-4.9-3.6
					c-3.4,0-5.5,1.8-5.5,4.2c0,1.8,1.2,3,3.6,3.5l2.9,0.7c1.1,0.3,1.6,0.8,1.6,1.8c0,1.2-1.1,2.1-2.8,2.1s-2.9-1-2.9-2.5c0,0,0,0,0-0.1H134z"/>
				<path d="M145.1,23.1c0,0.1,0,0.2,0,0.3c0,2.8,1.7,4.1,5.5,4.1c3.4,0,5.4-1.7,5.4-4.2c0-1.9-1-3.1-3.1-3.7l-3.1-0.8c-1.4-0.4-2-0.9-2-1.8c0-1.1,1.1-2,2.7-2c1.6,0,2.6,0.8,2.6,2.1c0,0,0,0.1,0,0.1h2.5c0-0.1,0-0.3,0-0.4c0-2.2-1.8-3.6-4.9-3.6
					c-3.4,0-5.5,1.8-5.5,4.2c0,1.8,1.2,3,3.6,3.5l2.9,0.7c1.1,0.3,1.6,0.8,1.6,1.8c0,1.2-1.1,2.1-2.8,2.1s-2.9-1-2.9-2.5c0,0,0,0,0-0.1h-2.5z"/>
				<path d="M156.8,27.2h2.5V13.6h-2.5v13.6z M159.5,10.4V7.7h-2.9v2.8h2.9z"/>
				<path d="M163.8,20.6c0-3.7,1.7-5.6,3.9-5.6c2.3,0,3.9,1.9,3.9,5.2c0,3.7-1.7,5.6-3.9,5.6c-2.3,0-3.9-1.9-3.9-5.2z M161.3,7.7v16.8c0,0.7,0,1.6-0.2,2.7h2.5l0.1-1.9c1,1.4,2.5,2.2,4.4,2.2c3.6,0,5.9-2.6,5.9-7.1c0-4.6-2.2-7-5.8-7c-1.8,0-3.3,0.7-4.6,2.3v-8h-2.5
					z"/>
				<path d="M175.5,27.2h2.5V13.6h-2.5v13.6z M178.2,10.4V7.7h-2.9v2.8h2.9z"/>
				<path d="M182.6,27.2V7.7h-2.5v19.5h2.5z"/>
				<path d="M185,27.2h2.5V13.6H185v13.6z M187.7,10.4V7.7h-2.9v2.8h2.9z"/>
				<path d="M187.7,13.6v1.8h2.3v9.2c0,2.2,1.1,2.9,3.5,2.9c0.5,0,1.2-0.1,2-0.3v-1.9c-0.4,0.1-0.8,0.2-1.2,0.2c-1.4,0-1.7-0.4-1.7-1.7v-8.3h3v-1.8h-3V10l-2.5,0.8v2.8h-2.3z"/>
				<path d="M200.2,27.2l-2.1,5.1h2.3l8-18.8h-2.5l-4.4,10.8l-4.3-10.8h-2.5l5.6,13.6z"/>
			</g>
			<g class="st1wai">
				<path d="M96.1,46.9h4.6v-12h-4.6v12z M95.9,33h5v-3.4h-5V33z"/>
				<path d="M103,46.9h4.6v-6.1c0-2.4,1-3.5,3.2-3.5c1.7,0,2.5,0.8,2.5,2.5v7.2h4.6v-7.4c0-3.1-2-5-5.2-5c-2.3,0-3.8,0.8-5.2,2.2c0-0.7,0-1.3-0.1-1.9h-4.6c0.1,0.9,0.1,1.9,0.1,2.8v9.2z"/>
				<path d="M120.1,46.9h4.6v-12h-4.6v12z M120,33h5v-3.4h-5V33z"/>
				<path d="M132.7,30.7c-0.8,0.4-1.4,0.7-2,0.9l-2.4,0.8v2.6h-2.8v2.9h2.8v5.7c0,2.6,1.7,3.8,5.3,3.8c1,0,2-0.1,3-0.3V44c-0.8,0.1-1.4,0.1-1.9,0.1c-1.4,0-1.9-0.4-1.9-1.7v-4.7h3.8v-2.9h-3.8v-4.2z"/>
				<path d="M137.8,46.9h4.6v-12h-4.6v12z M137.6,33h5v-3.4h-5V33z"/>
				<path d="M154.1,45.2c0,0.1,0,0.1,0,0.2c0,0.6,0.1,1.1,0.3,1.6h4.3c-0.2-0.5-0.2-1-0.2-1.6v-6.1c0-3.2-2.1-4.6-6.6-4.6c-4.7,0-7,1.2-7.3,3.9h4.7c0.2-1.1,1-1.5,2.6-1.5c1.5,0,2.3,0.7,2.3,2c0,0.1,0,0.2,0,0.3h-2.2c-2.9,0-5,0.1-6.2,0.8c-1.2,0.7-1.9,1.9-1.9,3.4
					c0,2.3,1.7,3.6,4.8,3.6c2.7,0,4.7-0.8,5.6-2.1z M154,41.6c0,0.1,0,0.2,0,0.3c0,1.8-1.1,2.8-3.2,2.8c-1.5,0-2.3-0.5-2.3-1.3c0-1.3,1.6-1.7,5.1-1.7c0.1,0,0.2,0,0.4,0z"/>
				<path d="M166.4,30.7c-0.8,0.4-1.4,0.7-2,0.9l-2.4,0.8v2.6h-2.8v2.9h2.8v5.7c0,2.6,1.7,3.8,5.3,3.8c1,0,2-0.1,3-0.3V44c-0.8,0.1-1.4,0.1-1.9,0.1c-1.4,0-1.9-0.4-1.9-1.7v-4.7h3.8v-2.9h-3.8v-4.2z"/>
				<path d="M171.5,46.9h4.6v-12h-4.6v12z M171.3,33h5v-3.4h-5V33z"/>
				<path d="M182,46.9h5.7l5.7-12h-4.9l-3.6,8.7l-3.5-8.7h-5.1l5.7,12z"/>
				<path d="M197.7,39.5c0.1-1.5,1.2-2.4,3-2.4c1.8,0,2.9,0.9,2.9,2.4h-5.9z M207.9,43.1h-4.5c-0.1,1-1,1.6-2.5,1.6c-1.9,0-3.1-1.1-3.2-2.8h10.4c0-0.1,0-0.3,0-0.4c0-4.7-2.4-7-7.2-7c-5.1,0-7.9,2.4-7.9,6.6c0,3.9,2.7,6.1,7.6,6.1c4.5,0,7-1.5,7.2-4.1z"/>
			</g>
		</g>
	</g>
</svg>
