<?xml version="1.0" standalone="no"?>
<!-- <?xml-stylesheet type="text/css" href="http://www.w3.org/Consortium/Offices/Presentations/svgs/slide.css" ?> -->
<?xml-stylesheet type="text/css" href="slide.css" ?>
<!-- Generator: Mayura Draw 3.6 -->
<svg xml:space="preserve" xmlns:xlink="http://www.w3.org/1999/xlink" viewBox="0 0 729 322">
<style type="text/css">
<![CDATA[
.st0 { stroke:#f5f5f5;stroke-width:1;fill:#ff6666 }
.st1 { stroke:none;fill:#2214c4 }
.st2 { stroke:none;fill:#2517c2 }
.st3 { stroke:none;fill:#666666 }
.st4 { stroke:#f1f525;stroke-width:1;fill:#ffff66 }
.stt0 {fill:#ffffff; font-family:Arial; font-size:24; text-anchor:middle}
.stt1 {fill:#f0f0f0; font-family:Arial; font-size:24; text-anchor:middle}
.stt2 {fill:#ffff66; font-family:Arial; font-size:24; text-anchor:start}
]]>
</style>

<desc>XHTML_SMIL.pdx</desc>
  <rect width="729" height="322" class="background" />
<ellipse class="st0" transform="matrix(1 0 0 -1 60.25 745.2)" cx="450.819" cy="608.922" rx="209.228" ry="126.238"/>
<rect class="st1" transform="matrix(1 0 0 -1 312.8 555.2)" x="102.855" y="473.373" width="112.406" height="27.275"/>
<text transform="matrix(1 0 0 1 265.6 -386.7)" class="stt0"><tspan x="206.17" y="463.224">Structure</tspan></text>
<rect class="st1" transform="matrix(1 0 0 -1 332.2 652.7)" x="102.855" y="473.373" width="112.406" height="27.275"/>
<text transform="matrix(1 0 0 1 285.1 -289.2)" class="stt0"><tspan x="206.17" y="463.224">Tables</tspan></text>
<rect class="st1" transform="matrix(1 0 0 -1 446.2 565.9)" x="102.855" y="473.373" width="112.406" height="27.275"/>
<text transform="matrix(1 0 0 1 399.1 -376)" class="stt0"><tspan x="206.17" y="463.224">Forms</tspan></text>
<rect class="st1" transform="matrix(1 0 0 -1 335 601.7)" x="127.237" y="475.026" width="63.642" height="25.622"/>
<text transform="matrix(1 0 0 1 285 -341.1)" class="stt0"><tspan x="209.063" y="463.224">Lists</tspan></text>
<rect class="st1" transform="matrix(1 0 0 -1 309.9 700.7)" x="102.855" y="473.373" width="135.136" height="27.275"/>
<text transform="matrix(1 0 0 1 263.2 -241.3)" class="stt0"><tspan x="217.121" y="463.224">Basic Text</tspan></text>
<rect class="st1" transform="matrix(1 0 0 -1 458.6 621.3)" x="102.855" y="473.373" width="145.88" height="27.275"/>
<text transform="matrix(1 0 0 1 411.5 -320.6)" class="stt0"><tspan x="223.12" y="463.224">Presentation</tspan></text>
<rect class="st1" transform="matrix(1 0 0 -1 443.8 683.3)" x="130.543" y="473.373" width="55.377" height="27.275"/>
<text transform="matrix(1 0 0 1 400 -258.6)" class="stt0"><tspan x="202.037" y="463.224">Etc.</tspan></text>
<ellipse class="st0" transform="matrix(1 0 0 -1 -231.1 745.2)" cx="450.819" cy="608.922" rx="209.228" ry="126.238"/>
<ellipse class="st2" transform="matrix(1 0 0 -1 247.5 880)" cx="83.019" cy="792.409" rx="52.599" ry="22.209"/>
<text transform="matrix(1 0 0 1 216.5 -675.6)" class="stt1"><tspan x="114.013" y="771.516">Timing</tspan></text>
<ellipse class="st2" transform="matrix(1 0 0 -1 137.1 837.4)" cx="83.019" cy="792.409" rx="52.599" ry="22.209"/>
<text transform="matrix(1 0 0 1 106.1 -718.2)" class="stt1"><tspan x="114.013" y="771.516">Content</tspan></text>
<ellipse class="st2" transform="matrix(1 0 0 -1 132.2 925)" cx="83.019" cy="792.409" rx="52.599" ry="22.209"/>
<text transform="matrix(1 0 0 1 101.2 -630.6)" class="stt1"><tspan x="114.013" y="771.516">Linking</tspan></text>
<ellipse class="st2" transform="matrix(1 0 0 -1 281.8 939.9)" cx="83.019" cy="792.409" rx="52.599" ry="22.209"/>
<text transform="matrix(1 0 0 1 250.8 -615.7)" class="stt1"><tspan x="114.013" y="771.516">Media</tspan></text>
<ellipse class="st3" transform="matrix(1 0 0 -1 22.23 872.1)" cx="83.019" cy="792.409" rx="61.366" ry="25.131"/>
<text transform="matrix(1 0 0 1 -14.88 -683.5)" class="stt1"><tspan x="120.131" y="771.516">Structure</tspan></text>
<ellipse class="st3" transform="matrix(1 0 0 -1 -4.219 938.2)" cx="83.019" cy="792.409" rx="61.366" ry="25.131"/>
<text transform="matrix(1 0 0 1 -41.33 -617.4)" class="stt1"><tspan x="120.131" y="771.516">Layout</tspan></text>
<ellipse class="st2" transform="matrix(1 0 0 -1 66.03 998.6)" cx="83.019" cy="792.409" rx="68.379" ry="23.962"/>
<text transform="matrix(1 0 0 1 24.25 -557)" class="stt1"><tspan x="124.799" y="771.516">Animation</tspan></text>
<ellipse class="st2" transform="matrix(1 0 0 -1 217.3 996.1)" cx="83.019" cy="792.409" rx="68.379" ry="23.962"/>
<text transform="matrix(1 0 0 1 175.5 -559.5)" class="stt1"><tspan x="124.799" y="771.516">Transition</tspan></text>
<text transform="matrix(1 0 0 1 -319.1 222.7)" class="yellowish"><tspan x="343.769" y="77.798">SMIL</tspan></text>
<path class="yellowish" style="stroke-width: 2"
d="M58.334 271.523
l31.247 -33.65
"/>
<path class="yellowish" style="stroke-width: 2"
d="M612.365 278.733
l-30.646 -22.233
"/>
<text transform="matrix(1 0 0 1 250 230.3)" class="yellowish"><tspan x="343.769" y="77.798">XHTML</tspan></text>
</svg>
