<?xml version="1.0" standalone="no"?>
<!-- <?xml-stylesheet type="text/css" href="http://www.w3.org/Consortium/Offices/Presentations/svgs/slide.css" ?> -->
<?xml-stylesheet type="text/css" href="slide.css" ?>
<svg viewBox="0 0 922 576">
  <title>Example for XML Tree Transformations</title>
	<desc>The same XML tree transformed into two (HTML) tree, one very simple, the other slightly more complex.</desc>
  <rect width="922" height="576" class="background" />

<style type="text/css">
<![CDATA[
text {font-size:16;}
]]>
</style>

  <g transform="scale(0.9) translate(0,-100)">
	  <desc>The original XML drawn as a tree</desc>
    <g transform="translate(0,100)">
      <g transform="scale(1.0)">
        <text class="yellowish" x="200" y="20">root</text>
        <line x1="220" y1="30" x2="220" y2="70" />
        <g transform="translate(0,60)">
          <text class="yellowish" x="10" y="250">Who is the last</text>
          <text class="yellowish" x="10" y="275">King of England</text>
          <text class="yellowish" x="135" y="250">George VI</text>
          <text class="yellowish" x="220" y="250">How many queens</text>
          <text class="yellowish" x="220" y="275">were named Elizabeth</text>
          <text class="yellowish" x="380" y="250">Two</text>
          <line x1="40" y1="240" x2="60" y2="175" />
          <line x1="165" y1="240" x2="160" y2="175" />
          <line x1="250" y1="240" x2="270" y2="175" />
          <line x1="400" y1="240" x2="360" y2="175" />
          <text class="yellowish" x="40" y="170">question</text>
          <text class="yellowish" x="140" y="170">answer</text>
          <text class="yellowish" x="240" y="170">question</text>
          <text class="yellowish" x="340" y="170">answer</text>
          <line x1="70" y1="150" x2="160" y2="85" />
          <line x1="170" y1="150" x2="170" y2="85" />
          <line x1="270" y1="150" x2="300" y2="85" />
          <line x1="370" y1="150" x2="310" y2="85" />
          <text class="yellowish" x="140" y="80">qapair</text>
          <text class="yellowish" x="280" y="80">qapair</text>
          <line x1="170" y1="60" x2="220" y2="35" />
          <line x1="310" y1="60" x2="260" y2="35" />
          <text class="yellowish" x="200" y="30">exam</text>
        </g>
      </g>
    </g>

    <g transform="translate(520,200)">
		  <desc>A filled arrow pointing at the more complex result tree</desc>
      <g transform="scale(2)">
        <g transform="rotate(90)">
          <path class="yellowish"
          d="M 20 0 L 40 20, 30 20, 30 60, 10 60,10 20, 0 20,20 0 z" />
        </g>
      </g>
    </g>

    <g transform="translate(500,100)">
		  <desc>An example HTML tree</desc>
      <g transform="scale(1.0)">
        <text class="yellowish" x="220" y="20">root</text>
        <line x1="240" y1="30" x2="240" y2="70" />
        <g transform="translate(0,60)">
          <text class="yellowish" x="10" y="250">Who is the last</text>
          <text class="yellowish" x="10" y="275">King of England</text>
          <text class="yellowish" x="135" y="250">George VI</text>
          <text class="yellowish" x="220" y="250">How many queens</text>
          <text class="yellowish" x="220" y="275">were named Elizabeth</text>
          <text class="yellowish" x="380" y="250">Two</text>
          <line x1="40" y1="240" x2="60" y2="175" />
          <line x1="165" y1="240" x2="160" y2="175" />
          <line x1="250" y1="240" x2="270" y2="175" />
          <line x1="400" y1="240" x2="360" y2="175" />
          <text class="yellowish" x="60" y="170">h1</text>
          <text class="yellowish" x="160" y="170">h2</text>
          <text class="yellowish" x="260" y="170">h1</text>
          <text class="yellowish" x="360" y="170">h2</text>
          <line x1="70" y1="150" x2="160" y2="85" />
          <line x1="170" y1="150" x2="170" y2="85" />
          <line x1="270" y1="150" x2="300" y2="85" />
          <line x1="370" y1="150" x2="310" y2="85" />
          <text class="yellowish" x="160" y="80">div</text>
          <text class="yellowish" x="300" y="80">div</text>
          <line x1="170" y1="60" x2="220" y2="35" />
          <line x1="310" y1="60" x2="260" y2="35" />
          <text class="yellowish" x="220" y="30">body</text>
        </g>
      </g>
    </g>

    <g transform="translate(480,500)">
		  <desc>Filled arrow pointing at the simple HTML result</desc>
      <g transform="scale(1.5)">
        <g transform="rotate(135)">
          <path class="yellowish"
          d="M 20 0 L 40 20, 30 20, 30 60, 10 60,10 20, 0 20,20 0 z" />
        </g>
      </g>
    </g>

    <g transform="translate(250,450)">
		  <desc>A simple HTML tree</desc>
      <g transform="scale(1.0)">
        <text class="yellowish" x="220" y="20">root</text>
        <line x1="240" y1="30" x2="240" y2="70" />
        <text class="yellowish" x="220" y="90">body</text>
        <line x1="170" y1="150" x2="230" y2="95" />
        <text class="yellowish" x="160" y="170">h2</text>
        <line x1="110" y1="230" x2="160" y2="175" />
        <text class="yellowish" x="85" y="250">George VI</text>
        <line x1="300" y1="150" x2="240" y2="95" />
        <text class="yellowish" x="300" y="170">h2</text>
        <line x1="360" y1="240" x2="310" y2="175" />
        <text class="yellowish" x="360" y="250">Two</text>
      </g>
    </g>
  </g>
</svg>

