<?xml version="1.0" ?>
<!--Created by PyChart 1.35 Copyright 1999-2003 Yasushi Saito-->
<svg viewBox="294 -806 646.054 512" xmlns="http://www.w3.org/2000/svg" xmlns:xlink="http://www.w3.org/1999/xlink">
  <defs>
    <clipPath id="clip0">
      <path d="M 297 -297 L 297 -803 L 803 -803 L 803 -297 Z"/>
    </clipPath>
    <clipPath id="clip1">
      <path d="M 500.0 -500.0 M 500.0 -500.0 L 645.4021190260147 -362.67475183803731 L 645.402 -362.675 A 200 200 0 0 0 500 -700 Z"/>
    </clipPath>
    <clipPath id="clip2">
      <path d="M 500.0 -500.0 M 500.0 -500.0 L 553.60055405467585 -307.31637172548426 L 553.601 -307.316 A 200 200 0 0 0 645.402 -362.675 Z"/>
    </clipPath>
    <clipPath id="clip3">
      <path d="M 500.0 -500.0 M 500.0 -500.0 L 465.8955614734752 -302.92923283046139 L 465.896 -302.929 A 200 200 0 0 0 553.601 -307.316 Z"/>
    </clipPath>
    <clipPath id="clip4">
      <path d="M 500.0 -500.0 M 500.0 -500.0 L 391.87183650888051 -331.7492934337638 L 391.872 -331.749 A 200 200 0 0 0 465.896 -302.929 Z"/>
    </clipPath>
    <clipPath id="clip5">
      <path d="M 500.0 -500.0 M 500.0 -500.0 L 343.37964580388888 -375.62128537613557 L 343.38 -375.621 A 200 200 0 0 0 391.872 -331.749 Z"/>
    </clipPath>
    <clipPath id="clip6">
      <path d="M 500.0 -500.0 M 500.0 -500.0 L 319.27853177838165 -414.32765368088383 L 319.279 -414.328 A 200 200 0 0 0 343.38 -375.621 Z"/>
    </clipPath>
    <clipPath id="clip7">
      <path d="M 500.0 -500.0 M 500.0 -500.0 L 305.19761661153325 -454.70064651484716 L 305.198 -454.701 A 200 200 0 0 0 319.279 -414.328 Z"/>
    </clipPath>
    <clipPath id="clip8">
      <path d="M 500.0 -500.0 M 500.0 -500.0 L 300.32617921477288 -488.58223782744636 L 300.326 -488.582 A 200 200 0 0 0 305.198 -454.701 Z"/>
    </clipPath>
    <clipPath id="clip9">
      <path d="M 500.0 -500.0 M 500.0 -500.0 L 300.73365382746169 -517.115001695768 L 300.734 -517.115 A 200 200 0 0 0 300.326 -488.582 Z"/>
    </clipPath>
    <clipPath id="clip10">
      <path d="M 500.0 -500.0 M 500.0 -500.0 L 304.57062680576814 -542.51305791059542 L 304.571 -542.513 A 200 200 0 0 0 300.734 -517.115 Z"/>
    </clipPath>
    <clipPath id="clip11">
      <path d="M 500.0 -500.0 M 500.0 -500.0 L 311.63112727209511 -567.20987864308609 L 311.631 -567.21 A 200 200 0 0 0 304.571 -542.513 Z"/>
    </clipPath>
    <clipPath id="clip12">
      <path d="M 500.0 -500.0 M 500.0 -500.0 L 319.27853177838165 -585.67234631911629 L 319.279 -585.672 A 200 200 0 0 0 311.631 -567.21 Z"/>
    </clipPath>
    <clipPath id="clip13">
      <path d="M 500.0 -500.0 M 500.0 -500.0 L 328.73019394968219 -603.27949232779235 L 328.73 -603.279 A 200 200 0 0 0 319.279 -585.672 Z"/>
    </clipPath>
    <clipPath id="clip14">
      <path d="M 500.0 -500.0 M 500.0 -500.0 L 339.89175181512792 -619.85553330226935 L 339.892 -619.856 A 200 200 0 0 0 328.73 -603.279 Z"/>
    </clipPath>
    <clipPath id="clip15">
      <path d="M 500.0 -500.0 M 500.0 -500.0 L 352.65177242471896 -635.23498005480383 L 352.652 -635.235 A 200 200 0 0 0 339.892 -619.856 Z"/>
    </clipPath>
    <clipPath id="clip16">
      <path d="M 500.0 -500.0 M 500.0 -500.0 L 364.76501994519606 -647.34822757528093 L 364.765 -647.348 A 200 200 0 0 0 352.652 -635.235 Z"/>
    </clipPath>
    <clipPath id="clip17">
      <path d="M 500.0 -500.0 M 500.0 -500.0 L 377.87042407291233 -658.38044918445507 L 377.87 -658.38 A 200 200 0 0 0 364.765 -647.348 Z"/>
    </clipPath>
    <clipPath id="clip18">
      <path d="M 500.0 -500.0 M 500.0 -500.0 L 389.48032811461945 -666.68953814306349 L 389.48 -666.69 A 200 200 0 0 0 377.87 -658.38 Z"/>
    </clipPath>
    <clipPath id="clip19">
      <path d="M 500.0 -500.0 M 500.0 -500.0 L 401.65341507087919 -674.14921542395541 L 401.653 -674.149 A 200 200 0 0 0 389.48 -666.69 Z"/>
    </clipPath>
    <clipPath id="clip20">
      <path d="M 500.0 -500.0 M 500.0 -500.0 L 499.99999999999994 -700.0 L 500 -700 A 200 200 0 0 0 401.653 -674.149 Z"/>
    </clipPath>
    <clipPath id="clip21">
      <path d="M 747 -320 L 747 -683 L 937.05399999999997 -683 L 937.05399999999997 -320 Z"/>
    </clipPath>
    <clipPath id="clip22">
      <path d="M 745 -322 L 745 -685 L 935.05399999999997 -685 L 935.05399999999997 -322 Z"/>
    </clipPath>
    <clipPath id="clip23">
      <path d="M 750 -666.70000000000005 L 750 -679.29999999999995 L 762.60000000000002 -679.29999999999995 L 762.60000000000002 -666.70000000000005 Z"/>
    </clipPath>
    <clipPath id="clip24">
      <path d="M 750 -648.70000000000005 L 750 -661.29999999999995 L 762.60000000000002 -661.29999999999995 L 762.60000000000002 -648.70000000000005 Z"/>
    </clipPath>
    <clipPath id="clip25">
      <path d="M 750 -630.70000000000005 L 750 -643.29999999999995 L 762.60000000000002 -643.29999999999995 L 762.60000000000002 -630.70000000000005 Z"/>
    </clipPath>
    <clipPath id="clip26">
      <path d="M 750 -612.70000000000005 L 750 -625.29999999999995 L 762.60000000000002 -625.29999999999995 L 762.60000000000002 -612.70000000000005 Z"/>
    </clipPath>
    <clipPath id="clip27">
      <path d="M 750 -594.70000000000005 L 750 -607.29999999999995 L 762.60000000000002 -607.29999999999995 L 762.60000000000002 -594.70000000000005 Z"/>
    </clipPath>
    <clipPath id="clip28">
      <path d="M 750 -576.70000000000005 L 750 -589.29999999999995 L 762.60000000000002 -589.29999999999995 L 762.60000000000002 -576.70000000000005 Z"/>
    </clipPath>
    <clipPath id="clip29">
      <path d="M 750 -558.70000000000005 L 750 -571.29999999999995 L 762.60000000000002 -571.29999999999995 L 762.60000000000002 -558.70000000000005 Z"/>
    </clipPath>
    <clipPath id="clip30">
      <path d="M 750 -540.70000000000005 L 750 -553.29999999999995 L 762.60000000000002 -553.29999999999995 L 762.60000000000002 -540.70000000000005 Z"/>
    </clipPath>
    <clipPath id="clip31">
      <path d="M 750 -522.70000000000005 L 750 -535.29999999999995 L 762.60000000000002 -535.29999999999995 L 762.60000000000002 -522.70000000000005 Z"/>
    </clipPath>
    <clipPath id="clip32">
      <path d="M 750 -504.69999999999999 L 750 -517.29999999999995 L 762.60000000000002 -517.29999999999995 L 762.60000000000002 -504.69999999999999 Z"/>
    </clipPath>
    <clipPath id="clip33">
      <path d="M 750 -486.69999999999999 L 750 -499.30000000000001 L 762.60000000000002 -499.30000000000001 L 762.60000000000002 -486.69999999999999 Z"/>
    </clipPath>
    <clipPath id="clip34">
      <path d="M 750 -468.69999999999999 L 750 -481.30000000000001 L 762.60000000000002 -481.30000000000001 L 762.60000000000002 -468.69999999999999 Z"/>
    </clipPath>
    <clipPath id="clip35">
      <path d="M 750 -450.69999999999999 L 750 -463.30000000000001 L 762.60000000000002 -463.30000000000001 L 762.60000000000002 -450.69999999999999 Z"/>
    </clipPath>
    <clipPath id="clip36">
      <path d="M 750 -432.69999999999999 L 750 -445.30000000000001 L 762.60000000000002 -445.30000000000001 L 762.60000000000002 -432.69999999999999 Z"/>
    </clipPath>
    <clipPath id="clip37">
      <path d="M 750 -414.69999999999999 L 750 -427.30000000000001 L 762.60000000000002 -427.30000000000001 L 762.60000000000002 -414.69999999999999 Z"/>
    </clipPath>
    <clipPath id="clip38">
      <path d="M 750 -396.69999999999999 L 750 -409.30000000000001 L 762.60000000000002 -409.30000000000001 L 762.60000000000002 -396.69999999999999 Z"/>
    </clipPath>
    <clipPath id="clip39">
      <path d="M 750 -378.69999999999999 L 750 -391.30000000000001 L 762.60000000000002 -391.30000000000001 L 762.60000000000002 -378.69999999999999 Z"/>
    </clipPath>
    <clipPath id="clip40">
      <path d="M 750 -360.69999999999999 L 750 -373.30000000000001 L 762.60000000000002 -373.30000000000001 L 762.60000000000002 -360.69999999999999 Z"/>
    </clipPath>
    <clipPath id="clip41">
      <path d="M 750 -342.69999999999999 L 750 -355.30000000000001 L 762.60000000000002 -355.30000000000001 L 762.60000000000002 -342.69999999999999 Z"/>
    </clipPath>
    <clipPath id="clip42">
      <path d="M 750 -324.69999999999999 L 750 -337.30000000000001 L 762.60000000000002 -337.30000000000001 L 762.60000000000002 -324.69999999999999 Z"/>
    </clipPath>
  </defs>
  <g style="stroke-linejoin:miter;font-size:18;font-family:Helvetica;fill:none;stroke-linecap:butt;stroke:rgb(0,0,0);font-stretch:normal;stroke-dasharray:none;font-weight:normal;font-style:normal;stroke-width:0.4;">
    <g style="clip-path:url(#clip0);">
      <g style="fill:rgb(191,61,255);clip-path:url(#clip1);">
        <path d="M 100.0 -100.0 L 100.0 -900.0 L 900.0 -900.0 L 900.0 -100.0 Z" style="stroke:none;"/>
      </g>
      <g>
        <path d="M 500.0 -500.0 M 500.0 -500.0 L 645.4021190260147 -362.67475183803731 L 645.402 -362.675 A 200 200 0 0 0 500 -700 Z"/>
        <g style="fill:rgb(79,147,205);clip-path:url(#clip2);">
          <path d="M 100.0 -100.0 L 100.0 -900.0 L 900.0 -900.0 L 900.0 -100.0 Z" style="stroke:none;"/>
        </g>
        <g>
          <path d="M 500.0 -500.0 M 500.0 -500.0 L 553.60055405467585 -307.31637172548426 L 553.601 -307.316 A 200 200 0 0 0 645.402 -362.675 Z"/>
          <g style="fill:rgb(214,214,214);clip-path:url(#clip3);">
            <path d="M 100.0 -100.0 L 100.0 -900.0 L 900.0 -900.0 L 900.0 -100.0 Z" style="stroke:none;"/>
          </g>
          <g>
            <path d="M 500.0 -500.0 M 500.0 -500.0 L 465.8955614734752 -302.92923283046139 L 465.896 -302.929 A 200 200 0 0 0 553.601 -307.316 Z"/>
            <g style="fill:rgb(38,38,38);clip-path:url(#clip4);">
              <path d="M 100.0 -100.0 L 100.0 -900.0 L 900.0 -900.0 L 900.0 -100.0 Z" style="stroke:none;"/>
            </g>
            <g>
              <path d="M 500.0 -500.0 M 500.0 -500.0 L 391.87183650888051 -331.7492934337638 L 391.872 -331.749 A 200 200 0 0 0 465.896 -302.929 Z"/>
              <g style="fill:rgb(237,232,191);clip-path:url(#clip5);">
                <path d="M 100.0 -100.0 L 100.0 -900.0 L 900.0 -900.0 L 900.0 -100.0 Z" style="stroke:none;"/>
              </g>
              <g>
                <path d="M 500.0 -500.0 M 500.0 -500.0 L 343.37964580388888 -375.62128537613557 L 343.38 -375.621 A 200 200 0 0 0 391.872 -331.749 Z"/>
                <g style="fill:rgb(255,68,0);clip-path:url(#clip6);">
                  <path d="M 100.0 -100.0 L 100.0 -900.0 L 900.0 -900.0 L 900.0 -100.0 Z" style="stroke:none;"/>
                </g>
                <g>
                  <path d="M 500.0 -500.0 M 500.0 -500.0 L 319.27853177838165 -414.32765368088383 L 319.279 -414.328 A 200 200 0 0 0 343.38 -375.621 Z"/>
                  <g style="fill:rgb(138,61,47);clip-path:url(#clip7);">
                    <path d="M 100.0 -100.0 L 100.0 -900.0 L 900.0 -900.0 L 900.0 -100.0 Z" style="stroke:none;"/>
                  </g>
                  <g>
                    <path d="M 500.0 -500.0 M 500.0 -500.0 L 305.19761661153325 -454.70064651484716 L 305.198 -454.701 A 200 200 0 0 0 319.279 -414.328 Z"/>
                    <g style="fill:rgb(105,138,105);clip-path:url(#clip8);">
                      <path d="M 100.0 -100.0 L 100.0 -900.0 L 900.0 -900.0 L 900.0 -100.0 Z" style="stroke:none;"/>
                    </g>
                    <g>
                      <path d="M 500.0 -500.0 M 500.0 -500.0 L 300.32617921477288 -488.58223782744636 L 300.326 -488.582 A 200 200 0 0 0 305.198 -454.701 Z"/>
                      <g style="fill:rgb(124,251,0);clip-path:url(#clip9);">
                        <path d="M 100.0 -100.0 L 100.0 -900.0 L 900.0 -900.0 L 900.0 -100.0 Z" style="stroke:none;"/>
                      </g>
                      <g>
                        <path d="M 500.0 -500.0 M 500.0 -500.0 L 300.73365382746169 -517.115001695768 L 300.734 -517.115 A 200 200 0 0 0 300.326 -488.582 Z"/>
                        <g style="fill:rgb(0,228,237);clip-path:url(#clip10);">
                          <path d="M 100.0 -100.0 L 100.0 -900.0 L 900.0 -900.0 L 900.0 -100.0 Z" style="stroke:none;"/>
                        </g>
                        <g>
                          <path d="M 500.0 -500.0 M 500.0 -500.0 L 304.57062680576814 -542.51305791059542 L 304.571 -542.513 A 200 200 0 0 0 300.734 -517.115 Z"/>
                          <g style="fill:rgb(244,221,179);clip-path:url(#clip11);">
                            <path d="M 100.0 -100.0 L 100.0 -900.0 L 900.0 -900.0 L 900.0 -100.0 Z" style="stroke:none;"/>
                          </g>
                          <g>
                            <path d="M 500.0 -500.0 M 500.0 -500.0 L 311.63112727209511 -567.20987864308609 L 311.631 -567.21 A 200 200 0 0 0 304.571 -542.513 Z"/>
                            <g style="fill:rgb(205,40,144);clip-path:url(#clip12);">
                              <path d="M 100.0 -100.0 L 100.0 -900.0 L 900.0 -900.0 L 900.0 -100.0 Z" style="stroke:none;"/>
                            </g>
                            <g>
                              <path d="M 500.0 -500.0 M 500.0 -500.0 L 319.27853177838165 -585.67234631911629 L 319.279 -585.672 A 200 200 0 0 0 311.631 -567.21 Z"/>
                              <g style="fill:rgb(205,200,177);clip-path:url(#clip13);">
                                <path d="M 100.0 -100.0 L 100.0 -900.0 L 900.0 -900.0 L 900.0 -100.0 Z" style="stroke:none;"/>
                              </g>
                              <g>
                                <path d="M 500.0 -500.0 M 500.0 -500.0 L 328.73019394968219 -603.27949232779235 L 328.73 -603.279 A 200 200 0 0 0 319.279 -585.672 Z"/>
                                <g style="fill:rgb(0,0,138);clip-path:url(#clip14);">
                                  <path d="M 100.0 -100.0 L 100.0 -900.0 L 900.0 -900.0 L 900.0 -100.0 Z" style="stroke:none;"/>
                                </g>
                                <g>
                                  <path d="M 500.0 -500.0 M 500.0 -500.0 L 339.89175181512792 -619.85553330226935 L 339.892 -619.856 A 200 200 0 0 0 328.73 -603.279 Z"/>
                                  <g style="fill:rgb(0,138,138);clip-path:url(#clip15);">
                                    <path d="M 100.0 -100.0 L 100.0 -900.0 L 900.0 -900.0 L 900.0 -100.0 Z" style="stroke:none;"/>
                                  </g>
                                  <g>
                                    <path d="M 500.0 -500.0 M 500.0 -500.0 L 352.65177242471896 -635.23498005480383 L 352.652 -635.235 A 200 200 0 0 0 339.892 -619.856 Z"/>
                                    <g style="fill:rgb(0,196,205);clip-path:url(#clip16);">
                                      <path d="M 100.0 -100.0 L 100.0 -900.0 L 900.0 -900.0 L 900.0 -100.0 Z" style="stroke:none;"/>
                                    </g>
                                    <g>
                                      <path d="M 500.0 -500.0 M 500.0 -500.0 L 364.76501994519606 -647.34822757528093 L 364.765 -647.348 A 200 200 0 0 0 352.652 -635.235 Z"/>
                                      <g style="fill:rgb(223,237,223);clip-path:url(#clip17);">
                                        <path d="M 100.0 -100.0 L 100.0 -900.0 L 900.0 -900.0 L 900.0 -100.0 Z" style="stroke:none;"/>
                                      </g>
                                      <g>
                                        <path d="M 500.0 -500.0 M 500.0 -500.0 L 377.87042407291233 -658.38044918445507 L 377.87 -658.38 A 200 200 0 0 0 364.765 -647.348 Z"/>
                                        <g style="fill:rgb(237,207,161);clip-path:url(#clip18);">
                                          <path d="M 100.0 -100.0 L 100.0 -900.0 L 900.0 -900.0 L 900.0 -100.0 Z" style="stroke:none;"/>
                                        </g>
                                        <g>
                                          <path d="M 500.0 -500.0 M 500.0 -500.0 L 389.48032811461945 -666.68953814306349 L 389.48 -666.69 A 200 200 0 0 0 377.87 -658.38 Z"/>
                                          <g style="fill:rgb(138,124,107);clip-path:url(#clip19);">
                                            <path d="M 100.0 -100.0 L 100.0 -900.0 L 900.0 -900.0 L 900.0 -100.0 Z" style="stroke:none;"/>
                                          </g>
                                          <g>
                                            <path d="M 500.0 -500.0 M 500.0 -500.0 L 401.65341507087919 -674.14921542395541 L 401.653 -674.149 A 200 200 0 0 0 389.48 -666.69 Z"/>
                                            <g style="fill:rgb(135,205,249);clip-path:url(#clip20);">
                                              <path d="M 100.0 -100.0 L 100.0 -900.0 L 900.0 -900.0 L 900.0 -100.0 Z" style="stroke:none;"/>
                                            </g>
                                            <g>
                                              <path d="M 500.0 -500.0 M 500.0 -500.0 L 499.99999999999994 -700.0 L 500 -700 A 200 200 0 0 0 401.653 -674.149 Z"/>
                                            </g>
                                          </g>
                                        </g>
                                      </g>
                                    </g>
                                  </g>
                                </g>
                              </g>
                            </g>
                          </g>
                        </g>
                      </g>
                    </g>
                  </g>
                </g>
              </g>
            </g>
          </g>
        </g>
      </g>
    </g>
    <g style="fill:rgb(126,126,126);clip-path:url(#clip21);">
      <path d="M 747 -320 L 747 -683 L 937.05399999999997 -683 L 937.05399999999997 -320 Z" style="stroke:none;"/>
    </g>
    <g style="fill:rgb(255,255,255);clip-path:url(#clip22);">
      <path d="M 745 -322 L 745 -685 L 935.05399999999997 -685 L 935.05399999999997 -322 Z" style="stroke:none;"/>
    </g>
    <g>
      <path d="M 745 -322 L 745 -685 L 935.05399999999997 -685 L 935.05399999999997 -322 Z"/>
      <g style="fill:rgb(191,61,255);clip-path:url(#clip23);">
        <path d="M 750 -666.70000000000005 L 750 -679.29999999999995 L 762.60000000000002 -679.29999999999995 L 762.60000000000002 -666.70000000000005 Z" style="stroke:none;"/>
      </g>
      <g>
        <path d="M 750 -666.70000000000005 L 750 -679.29999999999995 L 762.60000000000002 -679.29999999999995 L 762.60000000000002 -666.70000000000005 Z"/>
        <text style="stroke:none;fill:rgb(0,0,0);" x="768.0" y="-667.0">
          EEUU (37.0%)
        </text>
        <g style="fill:rgb(79,147,205);clip-path:url(#clip24);">
          <path d="M 750 -648.70000000000005 L 750 -661.29999999999995 L 762.60000000000002 -661.29999999999995 L 762.60000000000002 -648.70000000000005 Z" style="stroke:none;"/>
        </g>
        <g>
          <path d="M 750 -648.70000000000005 L 750 -661.29999999999995 L 762.60000000000002 -661.29999999999995 L 762.60000000000002 -648.70000000000005 Z"/>
          <text style="stroke:none;fill:rgb(0,0,0);" x="768.0" y="-649.0">
            Reino Unido (8.6%)
          </text>
          <g style="fill:rgb(214,214,214);clip-path:url(#clip25);">
            <path d="M 750 -630.70000000000005 L 750 -643.29999999999995 L 762.60000000000002 -643.29999999999995 L 762.60000000000002 -630.70000000000005 Z" style="stroke:none;"/>
          </g>
          <g>
            <path d="M 750 -630.70000000000005 L 750 -643.29999999999995 L 762.60000000000002 -643.29999999999995 L 762.60000000000002 -630.70000000000005 Z"/>
            <text style="stroke:none;fill:rgb(0,0,0);" x="768.0" y="-631.0">
              Japón (7.0%)
            </text>
            <g style="fill:rgb(38,38,38);clip-path:url(#clip26);">
              <path d="M 750 -612.70000000000005 L 750 -625.29999999999995 L 762.60000000000002 -625.29999999999995 L 762.60000000000002 -612.70000000000005 Z" style="stroke:none;"/>
            </g>
            <g>
              <path d="M 750 -612.70000000000005 L 750 -625.29999999999995 L 762.60000000000002 -625.29999999999995 L 762.60000000000002 -612.70000000000005 Z"/>
              <text style="stroke:none;fill:rgb(0,0,0);" x="768.0" y="-613.0">
                Alemania (6.4%)
              </text>
              <g style="fill:rgb(237,232,191);clip-path:url(#clip27);">
                <path d="M 750 -594.70000000000005 L 750 -607.29999999999995 L 762.60000000000002 -607.29999999999995 L 762.60000000000002 -594.70000000000005 Z" style="stroke:none;"/>
              </g>
              <g>
                <path d="M 750 -594.70000000000005 L 750 -607.29999999999995 L 762.60000000000002 -607.29999999999995 L 762.60000000000002 -594.70000000000005 Z"/>
                <text style="stroke:none;fill:rgb(0,0,0);" x="768.0" y="-595.0">
                  España (5.2%)
                </text>
                <g style="fill:rgb(255,68,0);clip-path:url(#clip28);">
                  <path d="M 750 -576.70000000000005 L 750 -589.29999999999995 L 762.60000000000002 -589.29999999999995 L 762.60000000000002 -576.70000000000005 Z" style="stroke:none;"/>
                </g>
                <g>
                  <path d="M 750 -576.70000000000005 L 750 -589.29999999999995 L 762.60000000000002 -589.29999999999995 L 762.60000000000002 -576.70000000000005 Z"/>
                  <text style="stroke:none;fill:rgb(0,0,0);" x="768.0" y="-577.0">
                    Italia (3.6%)
                  </text>
                  <g style="fill:rgb(138,61,47);clip-path:url(#clip29);">
                    <path d="M 750 -558.70000000000005 L 750 -571.29999999999995 L 762.60000000000002 -571.29999999999995 L 762.60000000000002 -558.70000000000005 Z" style="stroke:none;"/>
                  </g>
                  <g>
                    <path d="M 750 -558.70000000000005 L 750 -571.29999999999995 L 762.60000000000002 -571.29999999999995 L 762.60000000000002 -558.70000000000005 Z"/>
                    <text style="stroke:none;fill:rgb(0,0,0);" x="768.0" y="-559.0">
                      India (3.4%)
                    </text>
                    <g style="fill:rgb(105,138,105);clip-path:url(#clip30);">
                      <path d="M 750 -540.70000000000005 L 750 -553.29999999999995 L 762.60000000000002 -553.29999999999995 L 762.60000000000002 -540.70000000000005 Z" style="stroke:none;"/>
                    </g>
                    <g>
                      <path d="M 750 -540.70000000000005 L 750 -553.29999999999995 L 762.60000000000002 -553.29999999999995 L 762.60000000000002 -540.70000000000005 Z"/>
                      <text style="stroke:none;fill:rgb(0,0,0);" x="768.0" y="-541.0">
                        Francia (2.7%)
                      </text>
                      <g style="fill:rgb(124,251,0);clip-path:url(#clip31);">
                        <path d="M 750 -522.70000000000005 L 750 -535.29999999999995 L 762.60000000000002 -535.29999999999995 L 762.60000000000002 -522.70000000000005 Z" style="stroke:none;"/>
                      </g>
                      <g>
                        <path d="M 750 -522.70000000000005 L 750 -535.29999999999995 L 762.60000000000002 -535.29999999999995 L 762.60000000000002 -522.70000000000005 Z"/>
                        <text style="stroke:none;fill:rgb(0,0,0);" x="768.0" y="-523.0">
                          Holanda (2.3%)
                        </text>
                        <g style="fill:rgb(0,228,237);clip-path:url(#clip32);">
                          <path d="M 750 -504.69999999999999 L 750 -517.29999999999995 L 762.60000000000002 -517.29999999999995 L 762.60000000000002 -504.69999999999999 Z" style="stroke:none;"/>
                        </g>
                        <g>
                          <path d="M 750 -504.69999999999999 L 750 -517.29999999999995 L 762.60000000000002 -517.29999999999995 L 762.60000000000002 -504.69999999999999 Z"/>
                          <text style="stroke:none;fill:rgb(0,0,0);" x="768.0" y="-505.0">
                            Irlanda (2.0%)
                          </text>
                          <g style="fill:rgb(244,221,179);clip-path:url(#clip33);">
                            <path d="M 750 -486.69999999999999 L 750 -499.30000000000001 L 762.60000000000002 -499.30000000000001 L 762.60000000000002 -486.69999999999999 Z" style="stroke:none;"/>
                          </g>
                          <g>
                            <path d="M 750 -486.69999999999999 L 750 -499.30000000000001 L 762.60000000000002 -499.30000000000001 L 762.60000000000002 -486.69999999999999 Z"/>
                            <text style="stroke:none;fill:rgb(0,0,0);" x="768.0" y="-487.0">
                              Corea (2.0%)
                            </text>
                            <g style="fill:rgb(205,40,144);clip-path:url(#clip34);">
                              <path d="M 750 -468.69999999999999 L 750 -481.30000000000001 L 762.60000000000002 -481.30000000000001 L 762.60000000000002 -468.69999999999999 Z" style="stroke:none;"/>
                            </g>
                            <g>
                              <path d="M 750 -468.69999999999999 L 750 -481.30000000000001 L 762.60000000000002 -481.30000000000001 L 762.60000000000002 -468.69999999999999 Z"/>
                              <text style="stroke:none;fill:rgb(0,0,0);" x="768.0" y="-469.0">
                                China (1.6%)
                              </text>
                              <g style="fill:rgb(205,200,177);clip-path:url(#clip35);">
                                <path d="M 750 -450.69999999999999 L 750 -463.30000000000001 L 762.60000000000002 -463.30000000000001 L 762.60000000000002 -450.69999999999999 Z" style="stroke:none;"/>
                              </g>
                              <g>
                                <path d="M 750 -450.69999999999999 L 750 -463.30000000000001 L 762.60000000000002 -463.30000000000001 L 762.60000000000002 -450.69999999999999 Z"/>
                                <text style="stroke:none;fill:rgb(0,0,0);" x="768.0" y="-451.0">
                                  Suecia (1.6%)
                                </text>
                                <g style="fill:rgb(0,0,138);clip-path:url(#clip36);">
                                  <path d="M 750 -432.69999999999999 L 750 -445.30000000000001 L 762.60000000000002 -445.30000000000001 L 762.60000000000002 -432.69999999999999 Z" style="stroke:none;"/>
                                </g>
                                <g>
                                  <path d="M 750 -432.69999999999999 L 750 -445.30000000000001 L 762.60000000000002 -445.30000000000001 L 762.60000000000002 -432.69999999999999 Z"/>
                                  <text style="stroke:none;fill:rgb(0,0,0);" x="768.0" y="-433.0">
                                    Suiza (1.6%)
                                  </text>
                                  <g style="fill:rgb(0,138,138);clip-path:url(#clip37);">
                                    <path d="M 750 -414.69999999999999 L 750 -427.30000000000001 L 762.60000000000002 -427.30000000000001 L 762.60000000000002 -414.69999999999999 Z" style="stroke:none;"/>
                                  </g>
                                  <g>
                                    <path d="M 750 -414.69999999999999 L 750 -427.30000000000001 L 762.60000000000002 -427.30000000000001 L 762.60000000000002 -414.69999999999999 Z"/>
                                    <text style="stroke:none;fill:rgb(0,0,0);" x="768.0" y="-415.0">
                                      Grecia (1.6%)
                                    </text>
                                    <g style="fill:rgb(0,196,205);clip-path:url(#clip38);">
                                      <path d="M 750 -396.69999999999999 L 750 -409.30000000000001 L 762.60000000000002 -409.30000000000001 L 762.60000000000002 -396.69999999999999 Z" style="stroke:none;"/>
                                    </g>
                                    <g>
                                      <path d="M 750 -396.69999999999999 L 750 -409.30000000000001 L 762.60000000000002 -409.30000000000001 L 762.60000000000002 -396.69999999999999 Z"/>
                                      <text style="stroke:none;fill:rgb(0,0,0);" x="768.0" y="-397.0">
                                        Canada (1.4%)
                                      </text>
                                      <g style="fill:rgb(223,237,223);clip-path:url(#clip39);">
                                        <path d="M 750 -378.69999999999999 L 750 -391.30000000000001 L 762.60000000000002 -391.30000000000001 L 762.60000000000002 -378.69999999999999 Z" style="stroke:none;"/>
                                      </g>
                                      <g>
                                        <path d="M 750 -378.69999999999999 L 750 -391.30000000000001 L 762.60000000000002 -391.30000000000001 L 762.60000000000002 -378.69999999999999 Z"/>
                                        <text style="stroke:none;fill:rgb(0,0,0);" x="768.0" y="-379.0">
                                          Australia (1.4%)
                                        </text>
                                        <g style="fill:rgb(237,207,161);clip-path:url(#clip40);">
                                          <path d="M 750 -360.69999999999999 L 750 -373.30000000000001 L 762.60000000000002 -373.30000000000001 L 762.60000000000002 -360.69999999999999 Z" style="stroke:none;"/>
                                        </g>
                                        <g>
                                          <path d="M 750 -360.69999999999999 L 750 -373.30000000000001 L 762.60000000000002 -373.30000000000001 L 762.60000000000002 -360.69999999999999 Z"/>
                                          <text style="stroke:none;fill:rgb(0,0,0);" x="768.0" y="-361.0">
                                            Belgica (1.1%)
                                          </text>
                                          <g style="fill:rgb(138,124,107);clip-path:url(#clip41);">
                                            <path d="M 750 -342.69999999999999 L 750 -355.30000000000001 L 762.60000000000002 -355.30000000000001 L 762.60000000000002 -342.69999999999999 Z" style="stroke:none;"/>
                                          </g>
                                          <g>
                                            <path d="M 750 -342.69999999999999 L 750 -355.30000000000001 L 762.60000000000002 -355.30000000000001 L 762.60000000000002 -342.69999999999999 Z"/>
                                            <text style="stroke:none;fill:rgb(0,0,0);" x="768.0" y="-343.0">
                                              Finlandia (1.1%)
                                            </text>
                                            <g style="fill:rgb(135,205,249);clip-path:url(#clip42);">
                                              <path d="M 750 -324.69999999999999 L 750 -337.30000000000001 L 762.60000000000002 -337.30000000000001 L 762.60000000000002 -324.69999999999999 Z" style="stroke:none;"/>
                                            </g>
                                            <g>
                                              <path d="M 750 -324.69999999999999 L 750 -337.30000000000001 L 762.60000000000002 -337.30000000000001 L 762.60000000000002 -324.69999999999999 Z"/>
                                              <text style="stroke:none;fill:rgb(0,0,0);" x="768.0" y="-325.0">
                                                Otros (8.2%)
                                              </text>
                                            </g>
                                          </g>
                                        </g>
                                      </g>
                                    </g>
                                  </g>
                                </g>
                              </g>
                            </g>
                          </g>
                        </g>
                      </g>
                    </g>
                  </g>
                </g>
              </g>
            </g>
          </g>
        </g>
      </g>
    </g>
  </g>
</svg>
